<?xml version="1.0" encoding="utf-8"?>
<!-- Generator: Adobe Illustrator 15.0.0, SVG Export Plug-In . SVG Version: 6.00 Build 0)  -->
<!DOCTYPE svg PUBLIC "-//W3C//DTD SVG 1.1//EN" "http://www.w3.org/Graphics/SVG/1.1/DTD/svg11.dtd">
<svg version="1.1" id="Layer_1" xmlns="http://www.w3.org/2000/svg" xmlns:xlink="http://www.w3.org/1999/xlink" x="0px" y="0px"
	 width="22.019px" height="83.618px" viewBox="0 0 22.019 83.618" enable-background="new 0 0 22.019 83.618" xml:space="preserve">
<g>
	<path fill="#303030" d="M1.071,59.812c0.271,0,0.585-0.048,0.801,0.154c0.148,0.139,0.182,0.318,0.182,0.51
		c0,0.395,0,0.791,0,1.186c0,1.152,0,2.306,0,3.458c0,0.339,0.066,0.758-0.271,0.967c-0.137,0.084-0.281,0.085-0.434,0.085
		c-0.129,0-0.271,0.015-0.398-0.013c-0.284-0.062-0.449-0.313-0.452-0.592c-0.009-0.958,0-1.916,0-2.873c0-0.559,0-1.117,0-1.676
		c0-0.264-0.062-0.656,0.065-0.9C0.662,59.932,0.86,59.812,1.071,59.812z"/>
	<rect x="1.923" y="61.029" fill="#303030" width="15.627" height="3.924"/>
	<path fill="#303030" d="M0.013,64.08c0-0.723-0.028-1.452,0-2.175c0.008-0.166,0.082-0.315,0.227-0.403
		c0.127-0.076,0.267-0.066,0.408-0.066v3.111c-0.121,0-0.244,0.011-0.357-0.04C0.124,64.433,0.013,64.263,0.013,64.08z"/>
	<path fill="#1C1C1C" d="M16.332,82.271c0-0.05,0-0.099,0-0.148c0-0.146,0-0.292,0-0.438c0-0.235,0-0.472,0-0.708
		c0-0.321,0-0.643,0-0.964c0-0.405,0-0.809,0-1.213c0-0.479,0-0.956,0-1.434c0-0.549,0-1.097,0-1.645c0-0.617,0-1.233,0-1.85
		c0-0.675,0-1.349,0-2.023c0-0.732,0-1.466,0-2.199c0-0.779,0-1.56,0-2.339c0-0.825,0-1.65,0-2.476c0-0.869,0-1.738,0-2.607
		c0-0.9,0-1.801,0-2.701c0-0.931,0-1.861,0-2.791c0-0.961,0-1.921,0-2.881c0-0.976,0-1.951,0-2.926c0-0.991,0-1.98,0-2.972
		c0-1.005,0-2.01,0-3.015c0-1.006,0-2.011,0-3.016s0-2.01,0-3.014c0-1.005,0-2.01,0-3.014c0-0.989,0-1.979,0-2.968
		c0-0.979,0-1.957,0-2.936c0-0.953,0-1.907,0-2.86c0-0.928,0-1.855,0-2.783c0-0.902,0-1.804,0-2.706c0-0.861,0-1.724,0-2.585
		c0-0.821,0-1.643,0-2.463c0-0.779,0-1.559,0-2.338c0-0.725,0-1.449,0-2.174c0-0.67,0-1.338,0-2.007c0-0.611,0-1.223,0-1.834
		c0-0.542,0-1.084,0-1.626c0-0.472,0-0.942,0-1.414c0-0.396,0-0.794,0-1.191c0-0.314,0-0.629,0-0.942c0-0.229,0-0.458,0-0.688
		c0-0.137,0-0.273,0-0.41c0-0.165,0.003-0.326,0.036-0.49c0.133-0.654,0.627-1.199,1.266-1.395c0.417-0.128,0.889-0.081,1.318-0.081
		c0.468,0,0.926-0.023,1.359,0.189c0.603,0.299,1.002,0.918,1.025,1.591c0.002,0.068,0.001,0.138,0.001,0.206
		c0,0.145,0,0.29,0,0.435c0,0.234,0,0.469,0,0.704c0,0.32,0,0.641,0,0.961c0,0.402,0,0.806,0,1.209c0,0.477,0,0.953,0,1.43
		c0,0.548,0,1.095,0,1.642c0,0.616,0,1.231,0,1.848c0,0.673,0,1.347,0,2.02c0,0.732,0,1.465,0,2.197c0,0.779,0,1.559,0,2.337
		c0,0.824,0,1.648,0,2.474c0,0.868,0,1.737,0,2.606c0,0.899,0,1.8,0,2.699c0,0.93,0,1.86,0,2.79c0,0.96,0,1.92,0,2.88
		c0,0.975,0,1.95,0,2.925c0,0.99,0,1.98,0,2.971c0,1.005,0,2.01,0,3.015s0,2.011,0,3.016s0,2.009,0,3.015c0,1.004,0,2.009,0,3.014
		c0,0.989,0,1.979,0,2.968c0,0.979,0,1.958,0,2.937c0,0.954,0,1.907,0,2.861c0,0.928,0,1.856,0,2.784c0,0.902,0,1.805,0,2.707
		c0,0.862,0,1.725,0,2.587c0,0.821,0,1.644,0,2.465c0,0.78,0,1.561,0,2.341c0,0.725,0,1.45,0,2.176c0,0.67,0,1.34,0,2.01
		c0,0.612,0,1.224,0,1.836c0,0.543,0,1.086,0,1.629c0,0.473,0,0.945,0,1.418c0,0.398,0,0.797,0,1.195c0,0.314,0,0.631,0,0.945
		c0,0.229,0,0.459,0,0.688c0,0.14,0,0.278,0,0.418c0,0.042,0,0.085,0,0.127H16.332z"/>
	<path fill="#787878" d="M2.941,64.714c0-1.094,0-2.188,0-3.281c0-0.257,0.028-0.504,0.265-0.664
		c0.129-0.087,0.271-0.103,0.42-0.103c0.314,0,0.629,0,0.943,0c1.273,0,2.547,0,3.82,0c1.406,0,2.812,0,4.217,0
		c0.467,0,0.935,0,1.401,0c0.219,0,0.508-0.04,0.714,0.048c0.288,0.121,0.368,0.392,0.368,0.675c0,0.249,0,0.497,0,0.746
		c0,0.695,0,1.39,0,2.085c0,0.162,0.005,0.326,0,0.489c-0.011,0.345-0.269,0.599-0.612,0.607c-0.23,0.006-0.463,0-0.693,0
		c-1.203,0-2.408,0-3.612,0c-1.435,0-2.868,0-4.302,0c-0.77,0-1.54,0.019-2.309,0C3.228,65.309,2.941,65.062,2.941,64.714z"/>
	<path fill="#303030" d="M15.655,83.031c0-0.272-0.048-0.586,0.154-0.803c0.139-0.147,0.318-0.181,0.51-0.181
		c0.395,0,0.791,0,1.186,0c1.152,0,2.306,0,3.458,0c0.339,0,0.759-0.066,0.967,0.272c0.083,0.136,0.085,0.28,0.085,0.434
		c0,0.129,0.015,0.27-0.013,0.396c-0.062,0.285-0.313,0.45-0.592,0.453c-0.958,0.01-1.915,0-2.873,0c-0.559,0-1.118,0-1.677,0
		c-0.263,0-0.654,0.062-0.898-0.065C15.775,83.439,15.655,83.241,15.655,83.031z"/>
	<g>
		<path fill="#1C1C1C" d="M4.134,64.716L4.134,64.716c-0.229,0-0.414-0.186-0.414-0.414v-2.583c0-0.229,0.186-0.414,0.414-0.414l0,0
			c0.229,0,0.413,0.186,0.413,0.414v2.583C4.547,64.53,4.362,64.716,4.134,64.716z"/>
		<path fill="#1C1C1C" d="M5.761,64.716L5.761,64.716c-0.228,0-0.412-0.186-0.412-0.414v-2.583c0-0.229,0.185-0.414,0.412-0.414l0,0
			c0.229,0,0.414,0.186,0.414,0.414v2.583C6.175,64.53,5.989,64.716,5.761,64.716z"/>
		<path fill="#1C1C1C" d="M7.39,64.716L7.39,64.716c-0.229,0-0.414-0.186-0.414-0.414v-2.583c0-0.229,0.186-0.414,0.414-0.414l0,0
			c0.228,0,0.412,0.186,0.412,0.414v2.583C7.802,64.53,7.617,64.716,7.39,64.716z"/>
		<path fill="#1C1C1C" d="M9.017,64.716L9.017,64.716c-0.229,0-0.413-0.186-0.413-0.414v-2.583c0-0.229,0.185-0.414,0.413-0.414l0,0
			c0.229,0,0.414,0.186,0.414,0.414v2.583C9.431,64.53,9.245,64.716,9.017,64.716z"/>
		<path fill="#1C1C1C" d="M10.645,64.716L10.645,64.716c-0.229,0-0.413-0.186-0.413-0.414v-2.583c0-0.229,0.185-0.414,0.413-0.414
			l0,0c0.228,0,0.413,0.186,0.413,0.414v2.583C11.058,64.53,10.872,64.716,10.645,64.716z"/>
		<path fill="#1C1C1C" d="M12.272,64.716L12.272,64.716c-0.229,0-0.414-0.186-0.414-0.414v-2.583c0-0.229,0.186-0.414,0.414-0.414
			l0,0c0.229,0,0.413,0.186,0.413,0.414v2.583C12.686,64.53,12.501,64.716,12.272,64.716z"/>
		<path fill="#1C1C1C" d="M13.899,64.716L13.899,64.716c-0.229,0-0.413-0.186-0.413-0.414v-2.583c0-0.229,0.185-0.414,0.413-0.414
			l0,0c0.229,0,0.414,0.186,0.414,0.414v2.583C14.313,64.53,14.128,64.716,13.899,64.716z"/>
	</g>
</g>
</svg>
