<?xml version="1.0" encoding="utf-8"?>
<!-- Generator: Adobe Illustrator 15.0.0, SVG Export Plug-In  -->
<!DOCTYPE svg PUBLIC "-//W3C//DTD SVG 1.1//EN" "http://www.w3.org/Graphics/SVG/1.1/DTD/svg11.dtd" [
	<!ENTITY ns_flows "http://ns.adobe.com/Flows/1.0/">
]>
<svg version="1.1"
	 xmlns="http://www.w3.org/2000/svg" xmlns:xlink="http://www.w3.org/1999/xlink" xmlns:a="http://ns.adobe.com/AdobeSVGViewerExtensions/3.0/"
	 x="0px" y="0px" width="151px" height="126px" viewBox="0 0 151 126" style="overflow:visible;enable-background:new 0 0 151 126;"
	 xml:space="preserve">
<defs>
</defs>
<g id="path4446_1_">
	<path style="opacity:0.5706;fill:#1E1E1E;" d="M73,3.6c-13.1,0-23.7,6.5-29.9,16.3c-5.8,3.3-10,8.8-10.7,15.1
		c-0.6,6.2,2.3,11.6,7.3,14.9c2,4.4,4.6,8.5,5.6,13.1c0.8,3.8,1.8,7.3,3.2,10.6l-5.7,3.9c-0.2,0.1-0.5,0.2-0.7,0.4c0,0,0,0-0.1,0
		c-4.4-3-9.1-4.2-12.7-2.8l0,0c0,0-0.1,0.1-0.2,0.1c-0.5,0.2-1,0.5-1.4,0.8c-0.5,0.3-0.9,0.7-1.2,1.1L25,78.1c-0.7,0.2-1.4,0.6-2,1
		c-0.5,0.4-1,0.8-1.4,1.2c0.2-0.1,0.3-0.2,0.5-0.2l-17,11.7c-0.5,0.2-1,0.5-1.4,0.8c-5.5,3.8-4.7,14,1.7,22.9
		c6.4,8.9,16.1,13,21.7,9.2c0.4-0.3,0.8-0.7,1.2-1L46,111.4c0.1-0.1,0.2-0.2,0.4-0.2c0.1-0.1,0.2-0.2,0.3-0.2l3.1-2.1
		c0.5-0.2,1-0.5,1.4-0.8c0.4-0.3,0.8-0.7,1.2-1c0,0,0.2-0.1,0.2-0.1l0,0c2.8-3.2,3-8.7,0.8-14.5c0,0,0.1-0.1,0.1-0.1l2.9-2
		c-0.1,0.1-0.1,0.2-0.2,0.3c0.2-0.1,0.3-0.2,0.5-0.3c0.3-0.2,0.5-0.4,0.7-0.7l0.3-0.2c2.8,6.8,9.6,11.7,17.7,11.7
		c8,0,14.9-4.8,17.7-11.7l4.2,2.9c0,0,0.1,0.1,0.1,0.1c-2.2,5.8-1.9,11.4,0.9,14.5l0,0c0,0,0.1,0.1,0.2,0.1c0.4,0.4,0.8,0.7,1.2,1
		c0.5,0.3,0.9,0.6,1.4,0.8l3,2c0.1,0.1,0.2,0.2,0.4,0.3c0.1,0.1,0.2,0.2,0.4,0.2l17.7,12.2c0.4,0.4,0.8,0.7,1.2,1
		c5.5,3.8,15.2-0.3,21.7-9.2c6.4-8.9,7.2-19.1,1.7-22.9c-0.4-0.3-0.9-0.6-1.4-0.8l-13.1-9c0.4,0.1,0.9,0.3,1.3,0.5
		c-0.4-0.5-0.9-0.9-1.4-1.2c-0.8-0.6-1.7-1-2.7-1.2l-1.1-0.8c0.2,0.1,0.3,0.1,0.5,0.2c-0.4-0.5-0.9-0.9-1.4-1.2
		c-0.6-0.4-1.3-0.8-2.1-1l-1.5-1c-0.4-0.4-0.8-0.8-1.2-1.1c-0.5-0.3-0.9-0.6-1.4-0.8c0,0-0.2-0.1-0.2-0.1l0,0
		c-3.5-1.3-8.2-0.2-12.7,2.8c0,0,0,0-0.1,0c-0.2-0.1-0.4-0.3-0.7-0.4l-6.4-4.4c2-3.6,3.3-7.2,3.8-10.1c1.1-5.8,3.2-9.4,5-12.7
		c5.4-3.3,8.6-8.9,7.9-15.3c-0.7-7.1-6-13.2-13.1-16.3C97.5,9.6,85.6,3.6,73,3.6L73,3.6z"/>
</g>
<g id="path4296_1_">
	<path style="opacity:0.5706;fill:#1E1E1E;" d="M73,9.6c-13.1,0-23.7,6.1-29.9,15.5c-5.8,3.1-10,8.4-10.7,14.3
		c-0.6,5.9,2.3,11,7.3,14.2c2,4.2,4.6,8.1,5.6,12.5c0.8,3.6,1.8,7,3.2,10.1l-5.7,3.7c-0.2,0.1-0.5,0.2-0.7,0.3c0,0,0,0-0.1,0
		c-4.4-2.9-9.1-4-12.7-2.7l0,0c0,0-0.1,0.1-0.2,0.1c-0.5,0.2-1,0.4-1.4,0.7c-0.5,0.3-0.9,0.6-1.2,1l-1.5,1c-0.7,0.2-1.4,0.5-2,0.9
		c-0.5,0.3-1,0.7-1.4,1.2c0.2-0.1,0.3-0.1,0.5-0.2l-17,11.1c-0.5,0.2-1,0.4-1.4,0.7c-5.5,3.6-4.7,13.3,1.7,21.8
		c6.4,8.4,16.1,12.4,21.7,8.8c0.4-0.3,0.8-0.6,1.2-1L46,112c0.1-0.1,0.2-0.1,0.4-0.2c0.1-0.1,0.2-0.1,0.3-0.2l3.1-2
		c0.5-0.2,1-0.4,1.4-0.7c0.4-0.3,0.8-0.6,1.2-1c0,0,0.2-0.1,0.2-0.1l0,0c2.8-3,3-8.3,0.8-13.8c0,0,0.1-0.1,0.1-0.1l2.9-1.9
		c-0.1,0.1-0.1,0.2-0.2,0.3c0.2-0.1,0.3-0.2,0.5-0.3c0.3-0.2,0.5-0.4,0.7-0.7l0.3-0.2c2.8,6.5,9.6,11.1,17.7,11.1
		c8,0,14.9-4.6,17.7-11.1l4.2,2.8c0,0,0.1,0.1,0.1,0.1c-2.2,5.5-1.9,10.8,0.9,13.8l0,0c0,0,0.1,0.1,0.2,0.1c0.4,0.4,0.8,0.7,1.2,1
		c0.5,0.3,0.9,0.5,1.4,0.7l3,1.9c0.1,0.1,0.2,0.2,0.4,0.3c0.1,0.1,0.2,0.2,0.4,0.2l17.7,11.6c0.4,0.4,0.8,0.7,1.2,1
		c5.5,3.6,15.2-0.3,21.7-8.8c6.4-8.4,7.2-18.2,1.7-21.8c-0.4-0.3-0.9-0.5-1.4-0.7l-13.1-8.5c0.4,0.1,0.9,0.3,1.3,0.4
		c-0.4-0.4-0.9-0.8-1.4-1.2c-0.8-0.5-1.7-0.9-2.7-1.1l-1.1-0.7c0.2,0.1,0.3,0.1,0.5,0.2c-0.4-0.4-0.9-0.8-1.4-1.2
		c-0.6-0.4-1.3-0.7-2.1-0.9l-1.5-1c-0.4-0.4-0.8-0.7-1.2-1c-0.5-0.3-0.9-0.5-1.4-0.7c0,0-0.2-0.1-0.2-0.1l0,0
		c-3.5-1.3-8.2-0.2-12.7,2.7c0,0,0,0-0.1,0c-0.2-0.1-0.4-0.2-0.7-0.3l-6.4-4.2c2-3.4,3.3-6.8,3.8-9.6c1.1-5.5,3.2-8.9,5-12.1
		c5.4-3.1,8.6-8.5,7.9-14.5c-0.7-6.7-6-12.6-13.1-15.5C97.5,15.2,85.6,9.6,73,9.6L73,9.6z"/>
</g>
<radialGradient id="path2985_2_" cx="56.9229" cy="227.751" r="34.6618" gradientTransform="matrix(1.094 0 0 -1.1516 13.097 306.9315)" gradientUnits="userSpaceOnUse">
	<stop  offset="0" style="stop-color:#8F897A"/>
	<stop  offset="1" style="stop-color:#4A473F"/>
</radialGradient>
<path id="path2985_1_" style="fill:url(#path2985_2_);" d="M73,0C52.1,0,37.4,17,37.4,37.9c0,8.8,6.3,15.3,7.9,23.2
	C48.9,78.7,58,92,74.4,92s29-19.5,31-30.9c2-11.3,7.9-14.5,7.9-23.2C113.3,17,93.9,0,73,0L73,0z"/>
<path id="path4630_1_" style="opacity:0.375;fill:#010101;enable-background:new    ;" d="M55.5,13.4c-11.7,0-22,8.5-23.1,18.9
	C31.4,42.7,40,51.2,51.7,51.2c11.7,0,22-8.4,23.1-18.9C75.9,21.9,67.2,13.4,55.5,13.4z M95.2,13.4c-11.7,0-20.3,8.5-19.3,18.9
	C77,42.7,87.3,51.2,99,51.2s20.3-8.4,19.3-18.9C117.2,21.9,106.9,13.4,95.2,13.4z"/>
<linearGradient id="path3759_2_" gradientUnits="userSpaceOnUse" x1="311.9087" y1="127.0469" x2="345.9409" y2="106.5384" gradientTransform="matrix(0.6105 0 5.500000e-02 -0.5445 -148.7376 98.6376)">
	<stop  offset="0" style="stop-color:#838383"/>
	<stop  offset="1" style="stop-color:#494949"/>
</linearGradient>
<path id="path3759_1_" style="fill:url(#path3759_2_);" d="M74.8,32.3c-1.1,10.4-11.4,18.9-23.1,18.9c-11.7,0-20.3-8.4-19.3-18.9
	c0,0,0,0,0,0c1.1-10.4,11.4-18.9,23.1-18.9C67.2,13.4,75.9,21.9,74.8,32.3C74.8,32.3,74.8,32.3,74.8,32.3z"/>
<linearGradient id="path3883_2_" gradientUnits="userSpaceOnUse" x1="296.3306" y1="120.5361" x2="324.4498" y2="141.0447" gradientTransform="matrix(-0.6105 0 -5.500000e-02 -0.5445 285.8215 98.6376)">
	<stop  offset="0" style="stop-color:#838383"/>
	<stop  offset="1" style="stop-color:#494949"/>
</linearGradient>
<path id="path3883_1_" style="fill:url(#path3883_2_);" d="M75.9,32.3C77,42.7,87.3,51.2,99,51.2c11.7,0,20.3-8.4,19.3-18.9
	c0,0,0,0,0,0c-1.1-10.4-11.4-18.9-23.1-18.9C83.5,13.4,74.9,21.9,75.9,32.3C75.9,32.3,75.9,32.3,75.9,32.3z"/>
<path id="path3891_1_" style="fill:#CDCCCE;" d="M73.8,32.9c-0.9,9.3-10.2,16.9-20.6,16.9c-10.5,0-18.2-7.6-17.2-16.9c0,0,0,0,0,0
	C36.9,23.6,46.1,16,56.6,16C67,16,74.8,23.5,73.8,32.9C73.8,32.9,73.8,32.9,73.8,32.9z"/>
<path id="path3893_1_" style="fill:#CDCCCE;" d="M77.5,32.9c0.9,9.3,10.2,16.9,20.6,16.9c10.5,0,18.2-7.6,17.2-16.9c0,0,0,0,0,0
	C114.4,23.6,105.2,16,94.7,16C84.3,16,76.5,23.5,77.5,32.9C77.5,32.9,77.5,32.9,77.5,32.9z"/>
<linearGradient id="path3859_2_" gradientUnits="userSpaceOnUse" x1="30.293" y1="213.2305" x2="33.4486" y2="204.8099" gradientTransform="matrix(1.094 0 0 -1.094 21.4964 312.3416)">
	<stop  offset="0" style="stop-color:#838383"/>
	<stop  offset="1" style="stop-color:#494949"/>
</linearGradient>
<path id="path3859_1_" style="fill:url(#path3859_2_);" d="M55.5,67.9c-0.5,0-1,0.1-1.5,0.3l0,0c0,0-0.1,0-0.1,0
	c-0.2,0.1-0.5,0.2-0.7,0.4s-0.4,0.3-0.6,0.5l-10.3,7.3c-0.1,0.1-0.2,0.2-0.2,0.2l10.7,15.1c0,0,0.1-0.1,0.2-0.2l10.3-7.3
	c0.2-0.1,0.5-0.2,0.7-0.4c0.2-0.2,0.4-0.3,0.6-0.5c0,0,0,0,0,0l0,0c1.8-2.1,1.3-6.5-1.4-10.3C61.1,69.8,58,67.9,55.5,67.9L55.5,67.9
	z"/>
<path id="path3863_1_" style="fill:#333333;" d="M43,87.4c3,4.2,7.4,6.2,10,4.4c2.5-1.8,2.2-6.7-0.8-10.9c0,0,0,0,0,0
	c-3-4.2-7.4-6.2-10-4.4C39.6,78.3,40,83.1,43,87.4C43,87.4,43,87.4,43,87.4z"/>
<linearGradient id="path3867_2_" gradientUnits="userSpaceOnUse" x1="-438.4863" y1="268.8369" x2="-431.3819" y2="304.296" gradientTransform="matrix(-0.1328 9.380000e-02 -0.1554 -0.22 30.6929 186.9717)">
	<stop  offset="0" style="stop-color:#838383"/>
	<stop  offset="1" style="stop-color:#494949"/>
</linearGradient>
<path id="path3867_1_" style="fill:url(#path3867_2_);" d="M41.3,88.6c3,4.2,7.4,6.2,10,4.4c2.5-1.8,2.2-6.7-0.8-10.9
	c-3-4.2-7.4-6.2-10-4.4C38,79.5,38.4,84.4,41.3,88.6z"/>
<path id="rect3869_1_" style="fill:#888888;" d="M41,77.5l-11.3,8c-0.1,0.1-0.2,0.2-0.2,0.2l10.7,15.1c0,0,0.1-0.1,0.2-0.2l11.3-8
	c0.1-0.1,0.2-0.2,0.2-0.2L41.3,77.3C41.3,77.3,41.2,77.4,41,77.5z"/>
<path id="path3871_1_" style="fill:#676767;" d="M30.2,96.5c3,4.2,7.4,6.2,10,4.4s2.2-6.7-0.8-10.9c-3-4.2-7.5-6.2-10-4.4
	C26.9,87.4,27.2,92.3,30.2,96.5z"/>
<linearGradient id="path3875_2_" gradientUnits="userSpaceOnUse" x1="8.1113" y1="199.7598" x2="21.3597" y2="178.4152" gradientTransform="matrix(1.094 0 0 -1.094 21.4964 312.3416)">
	<stop  offset="0" style="stop-color:#4E4E4E"/>
	<stop  offset="1" style="stop-color:#1E1E1E"/>
</linearGradient>
<path id="path3875_1_" style="fill:url(#path3875_2_);" d="M32.6,73c-1.1,0-2.2,0.2-3.2,0.6l0,0c0,0-0.1,0.1-0.2,0.1
	c-0.5,0.2-1,0.5-1.4,0.8c-0.5,0.3-0.9,0.7-1.2,1.1L4.3,91.3c-0.3,0.2-0.5,0.4-0.5,0.4l23.1,32.8c0,0,0.2-0.2,0.5-0.4l22.3-15.7
	c0.5-0.2,1-0.5,1.4-0.8c0.4-0.3,0.8-0.7,1.2-1.1c0,0,0.2-0.1,0.2-0.1l0,0c4-4.6,2.8-14.1-3.1-22.3C44.6,77.1,38,73,32.6,73z"/>
<radialGradient id="path3879_2_" cx="-365.9565" cy="264.0566" r="34.6675" gradientTransform="matrix(-0.2878 0.2033 -0.3369 -0.4768 -1.0015 308.37)" gradientUnits="userSpaceOnUse">
	<stop  offset="0" style="stop-color:#4E4E4E"/>
	<stop  offset="1" style="stop-color:#1E1E1E"/>
</radialGradient>
<path id="path3879_1_" style="fill:url(#path3879_2_);" d="M5.4,115.1c6.4,9.1,16.1,13.4,21.7,9.5c5.5-3.9,4.8-14.4-1.7-23.6
	c0,0,0,0,0,0c-6.4-9.1-16.1-13.4-21.7-9.5C-1.8,95.4-1.1,106,5.4,115.1C5.4,115.1,5.4,115.1,5.4,115.1z"/>
<linearGradient id="path3881_2_" gradientUnits="userSpaceOnUse" x1="22.0728" y1="185.5117" x2="28.8745" y2="174.3756" gradientTransform="matrix(1.094 0 0 -1.094 13.097 292.6463)">
	<stop  offset="0" style="stop-color:#ABABAB"/>
	<stop  offset="1" style="stop-color:#6B6C6C"/>
</linearGradient>
<path id="path3881_1_" style="fill:url(#path3881_2_);" d="M27.8,76.2c5.4,0,12,4.1,16.9,10.9c6.4,9.1,7.2,19.7,1.7,23.6
	c-0.4,0.2-0.7,0.5-1.1,0.6c3.9-4.6,2.7-14-3.1-22.3c-6-8.5-14.9-12.8-20.5-10.1c0.4-0.5,0.9-0.9,1.4-1.3
	C24.4,76.7,26,76.2,27.8,76.2L27.8,76.2z"/>
<path id="path4294_1_" style="fill:#333333;" d="M48.1,73.3c2.5,0,5.5,1.9,7.8,5c3,4.2,3.3,9.1,0.8,10.9c-0.2,0.1-0.3,0.2-0.5,0.3
	c1.8-2.1,1.3-6.5-1.4-10.3c-2.8-3.9-6.9-5.9-9.5-4.7c0.2-0.2,0.4-0.4,0.6-0.6C46.6,73.5,47.3,73.3,48.1,73.3L48.1,73.3z"/>
<linearGradient id="path3822_2_" gradientUnits="userSpaceOnUse" x1="68.3442" y1="214.1416" x2="74.0154" y2="220.7039" gradientTransform="matrix(1.094 0 0 -1.094 21.4964 312.3416)">
	<stop  offset="0" style="stop-color:#838383"/>
	<stop  offset="1" style="stop-color:#494949"/>
</linearGradient>
<path id="path3822_1_" style="fill:url(#path3822_2_);" d="M95.2,67.9c-2.5,0-5.5,1.9-7.8,5c-2.7,3.8-3.2,8.2-1.4,10.3l0,0
	c0,0,0,0,0,0c0.2,0.2,0.4,0.4,0.6,0.5c0.2,0.1,0.4,0.3,0.7,0.4l10.3,7.3c0.1,0.1,0.2,0.2,0.2,0.2l10.7-15.1c0,0-0.1-0.1-0.2-0.2
	L98,69.1c-0.2-0.2-0.4-0.4-0.6-0.5c-0.2-0.1-0.4-0.3-0.7-0.4c0,0-0.1-0.1-0.1-0.1l0,0C96.2,68,95.7,68,95.2,67.9z"/>
<path id="path3826_1_" style="fill:#333333;" d="M107.8,87.4c-3,4.2-7.4,6.2-10,4.4c-2.5-1.8-2.2-6.7,0.8-10.9c0,0,0,0,0,0
	c3-4.2,7.4-6.2,10-4.4C111.1,78.3,110.8,83.1,107.8,87.4C107.8,87.4,107.8,87.4,107.8,87.4z"/>
<linearGradient id="path3806_2_" gradientUnits="userSpaceOnUse" x1="-371.2134" y1="295.5088" x2="-360.6786" y2="331.8893" gradientTransform="matrix(0.1328 9.380000e-02 0.1554 -0.22 106.3862 186.9717)">
	<stop  offset="0" style="stop-color:#838383"/>
	<stop  offset="1" style="stop-color:#494949"/>
</linearGradient>
<path id="path3806_1_" style="fill:url(#path3806_2_);" d="M109.4,88.6c-3,4.2-7.4,6.2-10,4.4c-2.5-1.8-2.2-6.7,0.8-10.9l0,0
	c3-4.2,7.4-6.2,10-4.4C112.7,79.5,112.4,84.4,109.4,88.6C109.4,88.6,109.4,88.6,109.4,88.6z"/>
<path id="rect3808_1_" style="fill:#888888;" d="M109.7,77.5l11.3,8c0.1,0.1,0.2,0.2,0.2,0.2l-10.7,15.1c0,0-0.1-0.1-0.2-0.2
	l-11.3-8c-0.1-0.1-0.2-0.2-0.2-0.2l10.7-15.1C109.5,77.3,109.6,77.4,109.7,77.5z"/>
<path id="path3810_1_" style="fill:#676767;" d="M120.5,96.5c-3,4.2-7.4,6.2-10,4.4c-2.5-1.8-2.2-6.7,0.8-10.9l0,0
	c3-4.2,7.4-6.2,10-4.4C123.9,87.4,123.5,92.3,120.5,96.5L120.5,96.5z"/>
<linearGradient id="path3779_2_" gradientUnits="userSpaceOnUse" x1="90.0591" y1="199.083" x2="76.0917" y2="175.883" gradientTransform="matrix(1.094 0 0 -1.094 21.4964 312.3416)">
	<stop  offset="0" style="stop-color:#4E4E4E"/>
	<stop  offset="1" style="stop-color:#1E1E1E"/>
</linearGradient>
<path id="path3779_1_" style="fill:url(#path3779_2_);" d="M118.1,73c-5.4,0-12,4.1-16.9,10.9c-5.9,8.3-7,17.8-3.1,22.3l0,0
	c0,0,0.1,0.1,0.2,0.1c0.4,0.4,0.8,0.8,1.2,1.1c0.5,0.3,0.9,0.6,1.4,0.8l22.3,15.7c0.3,0.2,0.5,0.4,0.5,0.4l23.1-32.8
	c0,0-0.2-0.2-0.5-0.4l-22.3-15.7c-0.4-0.4-0.8-0.8-1.2-1.1c-0.5-0.3-0.9-0.6-1.4-0.8c0,0-0.2-0.1-0.2-0.1l0,0
	C120.3,73.2,119.3,73.1,118.1,73z"/>
<radialGradient id="path3757-6_2_" cx="-334.2983" cy="277.5576" r="34.6675" gradientTransform="matrix(0.2878 0.2033 0.3369 -0.4768 138.0806 308.37)" gradientUnits="userSpaceOnUse">
	<stop  offset="0" style="stop-color:#4E4E4E"/>
	<stop  offset="1" style="stop-color:#1E1E1E"/>
</radialGradient>
<path id="path3757-6_1_" style="fill:url(#path3757-6_2_);" d="M145.4,115.1c-6.4,9.1-16.1,13.4-21.7,9.5
	c-5.5-3.9-4.8-14.4,1.7-23.6l0,0c6.4-9.1,16.1-13.4,21.7-9.5C152.6,95.4,151.8,106,145.4,115.1C145.4,115.1,145.4,115.1,145.4,115.1
	z"/>
<linearGradient id="path3834_2_" gradientUnits="userSpaceOnUse" x1="91.7183" y1="183.6729" x2="99.7575" y2="191.0945" gradientTransform="matrix(1.094 0 0 -1.094 13.097 292.6463)">
	<stop  offset="0" style="stop-color:#ABABAB"/>
	<stop  offset="1" style="stop-color:#6B6C6C"/>
</linearGradient>
<path id="path3834_1_" style="fill:url(#path3834_2_);" d="M122.9,76.2c-5.4,0-12,4.1-16.9,10.9c-6.4,9.1-7.2,19.7-1.7,23.6
	c0.4,0.2,0.7,0.5,1.1,0.6c-3.9-4.6-2.7-14,3.1-22.3c6-8.5,14.9-12.8,20.5-10.1c-0.4-0.5-0.9-0.9-1.4-1.3
	C126.4,76.7,124.7,76.2,122.9,76.2L122.9,76.2z"/>
<g id="path4647_1_" style="opacity:0.6106;enable-background:new    ;">
	<path style="fill:#010101;" d="M75.4,52.1c-9.8,0-17.8,7.4-18.8,16.8c0,0-0.1,0-0.1,0v14.5c0,0,0.3,0,0.7,0h3.9
		c3.5,4.1,8.6,6.7,14.4,6.7c5.8,0,10.9-2.6,14.4-6.7h3.9c0.4,0,0.7,0,0.7,0V69c0,0-0.1,0-0.1,0C93.2,59.5,85.1,52.1,75.4,52.1z"/>
</g>
<linearGradient id="path3887_2_" gradientUnits="userSpaceOnUse" x1="49.0596" y1="220.4902" x2="65.5145" y2="220.4902" gradientTransform="matrix(1.094 0 0 -1.094 21.4964 312.3416)">
	<stop  offset="0" style="stop-color:#ABABAB"/>
	<stop  offset="1" style="stop-color:#6B6C6C"/>
</linearGradient>
<path id="path3887_1_" style="fill:url(#path3887_2_);" d="M75.4,52.1c-9.8,0-17.8,7.4-18.8,16.8c0,0-0.1,0-0.1,0v14.5
	c0,0,0.3,0,0.7,0h3.9c3.5,4.1,8.6,6.7,14.4,6.7c5.8,0,10.9-2.6,14.4-6.7h3.9c0.4,0,0.7,0,0.7,0V69c0,0-0.1,0-0.1,0
	C93.2,59.5,85.1,52.1,75.4,52.1z"/>
<radialGradient id="path3885_2_" cx="61.6753" cy="193.6299" r="16.165" gradientTransform="matrix(1.1741 0 0 -1.1741 2.9578 308.6398)" gradientUnits="userSpaceOnUse">
	<stop  offset="0" style="stop-color:#4E4E4E"/>
	<stop  offset="1" style="stop-color:#1E1E1E"/>
</radialGradient>
<path id="path3885_1_" style="fill:url(#path3885_2_);" d="M94.4,81.3c0,10.5-8.5,19-19,19s-19-8.5-19-19s8.5-19,19-19
	S94.4,70.8,94.4,81.3z"/>
<path id="path4738_1_" style="opacity:0.3702;fill:#010101;enable-background:new    ;" d="M75.4,64c-0.4,0-0.7,0-1.1,0v10.4
	c-0.2,0-0.4,0.1-0.6,0.1l-3.8-9.7c-0.6,0.2-1.2,0.4-1.7,0.7l3.8,9.7c-0.3,0.2-0.6,0.4-0.9,0.6l-7.4-7.4c-0.5,0.4-0.9,0.8-1.3,1.3
	l7.4,7.4c-0.1,0.2-0.2,0.3-0.3,0.5l-9.6-4.2c-0.2,0.3-0.3,0.7-0.5,1c-0.1,0.2-0.2,0.4-0.3,0.6l9.7,4.3c-0.1,0.3-0.2,0.7-0.2,1H57.9
	c0,0.4,0,0.8,0,1.1c0,0.2,0,0.5,0,0.7h10.6c0,0.2,0.1,0.4,0.1,0.6l-10,3.9c0.2,0.6,0.4,1.2,0.6,1.7l10-3.9c0.2,0.3,0.3,0.6,0.5,0.8
	l-7.6,7.6c0.4,0.5,0.8,0.9,1.3,1.3l7.6-7.6c0.2,0.2,0.4,0.3,0.6,0.5l-4.4,9.9c0.3,0.2,0.7,0.3,1,0.5c0.2,0.1,0.4,0.2,0.7,0.3
	l4.4-9.9c0.1,0,0.2,0.1,0.3,0.1c0,0,0,0,0,0c0,0,0,0,0,0c0.1,0,0.2,0,0.3,0.1c0.1,0,0.2,0,0.3,0.1V99c0.4,0,0.7,0,1.1,0
	c0.2,0,0.5,0,0.7,0V88.2c0.3,0,0.6-0.1,0.9-0.1l3.9,10.1c0.6-0.2,1.1-0.4,1.7-0.7l-3.9-10.1c0.3-0.2,0.6-0.3,0.9-0.5l7.6,7.6
	c0.5-0.4,0.9-0.8,1.3-1.3l-7.6-7.6c0.2-0.2,0.4-0.5,0.5-0.8l9.7,4.3c0.1-0.2,0.2-0.4,0.3-0.6c0.2-0.3,0.3-0.7,0.4-1.1l-9.7-4.3
	c0.1-0.3,0.2-0.7,0.2-1.1h10.5c0-0.2,0-0.5,0-0.7c0-0.4,0-0.8,0-1.1H82.4c0-0.3-0.1-0.6-0.2-0.9l9.7-3.8c-0.2-0.6-0.4-1.1-0.7-1.7
	l-9.7,3.8c-0.2-0.3-0.4-0.6-0.6-0.9l7.3-7.3c-0.4-0.4-0.9-0.9-1.3-1.3l-7.4,7.4c-0.2-0.1-0.4-0.3-0.6-0.4l4.2-9.5
	c-0.2-0.1-0.4-0.2-0.6-0.3c-0.3-0.2-0.7-0.3-1-0.4l-4.2,9.5c-0.1,0-0.3-0.1-0.4-0.1c-0.1,0-0.1,0-0.2,0c0,0,0,0,0,0
	c-0.2,0-0.3,0-0.5-0.1V64C75.8,64,75.6,64,75.4,64z M75.6,75.8c0.2,0,0.4,0,0.5,0c0.2,0,0.3,0,0.5,0.1c0.2,0,0.3,0.1,0.5,0.1
	c2.2,0.7,3.9,2.8,3.9,5.2c0,3-2.5,5.5-5.5,5.5c-0.4,0-0.7,0-1.1-0.1c0,0,0,0,0,0c-0.3-0.1-0.7-0.2-1-0.3c-2.8-1.2-4-4.5-2.8-7.2
	C71.4,77,73.4,75.8,75.6,75.8z"/>
<radialGradient id="rect3900_2_" cx="49.2456" cy="223.4336" r="16.0394" gradientTransform="matrix(1.094 0 0 -1.0937 21.4964 312.3358)" gradientUnits="userSpaceOnUse">
	<stop  offset="0" style="stop-color:#4E4E4E"/>
	<stop  offset="1" style="stop-color:#1E1E1E"/>
</radialGradient>
<path id="rect3900_1_" style="fill:url(#rect3900_2_);" d="M75.4,64c-0.4,0-0.7,0-1.1,0v10.4c-0.2,0-0.4,0.1-0.6,0.1l-3.8-9.7
	c-0.6,0.2-1.2,0.4-1.7,0.7l3.8,9.7c-0.3,0.2-0.6,0.4-0.9,0.6l-7.4-7.4c-0.5,0.4-0.9,0.8-1.3,1.3l7.4,7.4c-0.1,0.2-0.2,0.3-0.3,0.5
	l-9.6-4.2c-0.2,0.3-0.3,0.7-0.5,1c-0.1,0.2-0.2,0.4-0.3,0.6l9.7,4.3c-0.1,0.3-0.2,0.7-0.2,1H57.9c0,0.4,0,0.8,0,1.1
	c0,0.2,0,0.5,0,0.7h10.6c0,0.2,0.1,0.4,0.1,0.6l-10,3.9c0.2,0.6,0.4,1.2,0.6,1.7l10-3.9c0.2,0.3,0.3,0.6,0.5,0.8l-7.6,7.6
	c0.4,0.5,0.8,0.9,1.3,1.3l7.6-7.6c0.2,0.2,0.4,0.3,0.6,0.5l-4.4,9.9c0.3,0.2,0.7,0.3,1,0.5c0.2,0.1,0.4,0.2,0.7,0.3l4.4-9.9
	c0.1,0,0.2,0.1,0.3,0.1c0,0,0,0,0,0c0,0,0,0,0,0c0.1,0,0.2,0,0.3,0.1c0.1,0,0.2,0,0.3,0.1V99c0.4,0,0.7,0,1.1,0c0.2,0,0.5,0,0.7,0
	V88.2c0.3,0,0.6-0.1,0.9-0.1l3.9,10.1c0.6-0.2,1.1-0.4,1.7-0.7l-3.9-10.1c0.3-0.2,0.6-0.3,0.9-0.5l7.6,7.6c0.5-0.4,0.9-0.8,1.3-1.3
	l-7.6-7.6c0.2-0.2,0.4-0.5,0.5-0.8l9.7,4.3c0.1-0.2,0.2-0.4,0.3-0.6c0.2-0.3,0.3-0.7,0.4-1.1l-9.7-4.3c0.1-0.3,0.2-0.7,0.2-1.1h10.5
	c0-0.2,0-0.5,0-0.7c0-0.4,0-0.8,0-1.1H82.4c0-0.3-0.1-0.6-0.2-0.9l9.7-3.8c-0.2-0.6-0.4-1.1-0.7-1.7l-9.7,3.8
	c-0.2-0.3-0.4-0.6-0.6-0.9l7.3-7.3c-0.4-0.4-0.9-0.9-1.3-1.3l-7.4,7.4c-0.2-0.1-0.4-0.3-0.6-0.4l4.2-9.5c-0.2-0.1-0.4-0.2-0.6-0.3
	c-0.3-0.2-0.7-0.3-1-0.4l-4.2,9.5c-0.1,0-0.3-0.1-0.4-0.1c-0.1,0-0.1,0-0.2,0c0,0,0,0,0,0c-0.2,0-0.3,0-0.5-0.1V64
	C75.8,64,75.6,64,75.4,64z M75.6,75.8c0.2,0,0.4,0,0.5,0c0.2,0,0.3,0,0.5,0.1c0.2,0,0.3,0.1,0.5,0.1c2.2,0.7,3.9,2.8,3.9,5.2
	c0,3-2.5,5.5-5.5,5.5c-0.4,0-0.7,0-1.1-0.1c0,0,0,0,0,0c-0.3-0.1-0.7-0.2-1-0.3c-2.8-1.2-4-4.5-2.8-7.2C71.4,77,73.4,75.8,75.6,75.8
	z"/>
<g id="g4756_1_" transform="matrix(.48743 .40428 -.68675 .82801 523.48 -133.15)" style="opacity:0.6779;">
	<path style="fill:#010101;" d="M-228.4,385.1c-0.4,0-0.7,0-1.1,0l0,11.1c0,0,0.3,0,0.7,0l0.4,0c0.4,0,0.7,0,0.7,0l0-11.1
		C-228,385.1-228.2,385.1-228.4,385.1L-228.4,385.1z M-216.9,389.4l-8,8c0,0,0.2,0.2,0.5,0.5l0.3,0.3c0.3,0.3,0.5,0.5,0.5,0.5l8-8
		C-216,390.2-216.5,389.8-216.9,389.4L-216.9,389.4z M-240.2,389.6c-0.5,0.4-0.9,0.8-1.3,1.3l7.8,7.8c0,0,0.2-0.2,0.5-0.5l0.3-0.3
		c0.3-0.3,0.5-0.5,0.5-0.5L-240.2,389.6L-240.2,389.6z M-245.9,401.5c0,0.4,0,0.7,0,1.1c0,0.2,0,0.5,0,0.7l11.1,0c0,0,0-0.3,0-0.7
		l0-0.4c0-0.4,0-0.7,0-0.7H-245.9L-245.9,401.5z M-222.4,401.5c0,0,0,0.3,0,0.7l0,0.4c0,0.4,0,0.7,0,0.7l11.5,0c0-0.2,0-0.5,0-0.7
		c0-0.4,0-0.8,0-1.1L-222.4,401.5L-222.4,401.5z M-233.7,406.1l-8,8c0.4,0.5,0.8,0.9,1.3,1.3l8-8c0,0-0.2-0.2-0.5-0.5l-0.3-0.3
		C-233.4,406.3-233.7,406.1-233.7,406.1L-233.7,406.1z M-223.6,406.1c0,0-0.2,0.2-0.5,0.5l-0.3,0.3c-0.3,0.3-0.5,0.5-0.5,0.5
		l8.2,8.2c0.5-0.4,0.9-0.8,1.3-1.3L-223.6,406.1L-223.6,406.1z M-228.9,408.6c-0.4,0-0.7,0-0.7,0l0,11.5c0.4,0,0.7,0,1.1,0
		c0.2,0,0.5,0,0.7,0l0-11.5c0,0-0.3,0-0.7,0L-228.9,408.6L-228.9,408.6z"/>
	<path style="fill:#010101;" d="M-228.4,395.4c-3.8,0-6.9,3.1-6.9,7c0,3.8,3.1,6.9,6.9,6.9c3.8,0,6.9-3.1,6.9-6.9
		C-221.5,398.5-224.6,395.4-228.4,395.4z M-228.4,396.9c3,0,5.5,2.5,5.5,5.5c0,3-2.5,5.5-5.5,5.5c-3,0-5.5-2.5-5.5-5.5
		C-233.9,399.3-231.5,396.9-228.4,396.9z"/>
</g>
<radialGradient id="rect3900-0_2_" cx="-22.3364" cy="48.5557" r="16.0378" gradientTransform="matrix(0.5333 0.4423 0.7511 -0.9056 111.0865 161.7142)" gradientUnits="userSpaceOnUse">
	<stop  offset="0" style="stop-color:#4E4E4E"/>
	<stop  offset="1" style="stop-color:#1E1E1E"/>
</radialGradient>
<path id="rect3900-0_1_" style="fill:url(#rect3900-0_2_);" d="M147.7,93.3c-0.2-0.2-0.4-0.3-0.6-0.4l-7.6,9.2c0,0,0.1,0.1,0.3,0.3
	l0.2,0.2c0.2,0.2,0.3,0.3,0.3,0.3l7.6-9.2C147.9,93.5,147.8,93.4,147.7,93.3L147.7,93.3z M150.3,101.6l-9.3,3.4c0,0-0.1,0.3-0.1,0.6
	l-0.1,0.4c-0.1,0.3-0.1,0.6-0.1,0.6l9.4-3.4C150.2,102.6,150.3,102.1,150.3,101.6L150.3,101.6z M138.9,92.3c-0.5,0.2-1,0.3-1.5,0.5
	l-1.6,9.6c0,0,0.3-0.1,0.6-0.2l0.4-0.1c0.3-0.1,0.6-0.2,0.6-0.2L138.9,92.3L138.9,92.3z M127.9,99.9c-0.3,0.3-0.5,0.6-0.8,0.9
	c-0.2,0.2-0.3,0.4-0.5,0.6l5.4,4.5c0,0,0.2-0.3,0.5-0.6l0.3-0.4c0.3-0.3,0.5-0.6,0.5-0.6L127.9,99.9L127.9,99.9z M139.4,109.4
	c0,0-0.2,0.3-0.5,0.6l-0.3,0.4c-0.3,0.3-0.5,0.6-0.5,0.6l5.6,4.7c0.2-0.2,0.3-0.4,0.5-0.6c0.3-0.3,0.5-0.6,0.8-1L139.4,109.4
	L139.4,109.4z M130.7,108.7l-9.4,3.4c-0.1,0.5-0.2,1.1-0.3,1.6l9.4-3.4c0,0,0.1-0.3,0.1-0.6l0.1-0.4
	C130.6,108.9,130.7,108.7,130.7,108.7L130.7,108.7z M135.6,112.7c0,0-0.3,0.1-0.6,0.2l-0.4,0.1c-0.3,0.1-0.6,0.2-0.6,0.2l-1.6,10.1
	c0.5-0.2,1-0.3,1.5-0.5L135.6,112.7L135.6,112.7z M131.3,112.6c-0.2-0.2-0.3-0.3-0.3-0.3l-7.9,9.5c0.2,0.2,0.3,0.3,0.5,0.5
	c0.1,0.1,0.2,0.2,0.4,0.3l7.9-9.6c0,0-0.1-0.1-0.3-0.3L131.3,112.6L131.3,112.6z"/>
<radialGradient id="path3895-6_2_" cx="-22.3345" cy="48.5566" r="16.0375" gradientTransform="matrix(0.5333 0.4423 0.7511 -0.9056 111.0865 161.7142)" gradientUnits="userSpaceOnUse">
	<stop  offset="0" style="stop-color:#4E4E4E"/>
	<stop  offset="1" style="stop-color:#1E1E1E"/>
</radialGradient>
<path id="path3895-6_1_" style="fill:url(#path3895-6_2_);" d="M140.6,101.9c-1.9-1.6-5.5-0.2-8.2,2.9c-2.6,3.2-3.3,7-1.4,8.6
	s5.5,0.2,8.2-2.9S142.5,103.5,140.6,101.9z M139.6,103.1c1.5,1.2,1,4.3-1.1,6.8c-2.1,2.5-5,3.5-6.4,2.3c-1.5-1.2-1-4.2,1.1-6.8
	C135.2,102.9,138.1,101.9,139.6,103.1z"/>
<g id="g4790_1_" transform="matrix(-.48743 .40428 .68675 .82801 37.213 -133.15)" style="opacity:0.6923;">
	<path style="fill:#010101;" d="M269.7,141.9c-0.4,0-0.7,0-1.1,0l0,11.1c0,0,0.3,0,0.7,0l0.4,0c0.4,0,0.7,0,0.7,0l0-11.1
		C270.2,141.9,269.9,141.9,269.7,141.9L269.7,141.9z M281.2,146.2l-8,8c0,0,0.2,0.2,0.5,0.5l0.3,0.3c0.3,0.3,0.5,0.5,0.5,0.5l8-8
		C282.1,147,281.6,146.6,281.2,146.2L281.2,146.2z M258,146.4c-0.5,0.4-0.9,0.8-1.3,1.3l7.8,7.8c0,0,0.2-0.2,0.5-0.5l0.3-0.3
		c0.3-0.3,0.5-0.5,0.5-0.5L258,146.4L258,146.4z M252.2,158.3c0,0.4,0,0.7,0,1.1c0,0.2,0,0.5,0,0.7l11.1,0c0,0,0-0.3,0-0.7l0-0.4
		c0-0.4,0-0.7,0-0.7L252.2,158.3L252.2,158.3z M275.7,158.3c0,0,0,0.3,0,0.7l0,0.4c0,0.4,0,0.7,0,0.7l11.5,0c0-0.2,0-0.5,0-0.7
		c0-0.4,0-0.8,0-1.1L275.7,158.3L275.7,158.3z M264.4,162.9l-8,8c0.4,0.5,0.8,0.9,1.3,1.3l8-8c0,0-0.2-0.2-0.5-0.5l-0.3-0.3
		C264.7,163.1,264.4,162.9,264.4,162.9L264.4,162.9z M274.5,162.9c0,0-0.2,0.2-0.5,0.5l-0.3,0.3c-0.3,0.3-0.5,0.5-0.5,0.5l8.2,8.2
		c0.5-0.4,0.9-0.8,1.3-1.3L274.5,162.9L274.5,162.9z M269.2,165.4c-0.4,0-0.7,0-0.7,0l0,11.5c0.4,0,0.7,0,1.1,0c0.2,0,0.5,0,0.7,0
		l0-11.5c0,0-0.3,0-0.7,0L269.2,165.4L269.2,165.4z"/>
	<path style="fill:#010101;" d="M269.7,152.2c-3.8,0-6.9,3.1-6.9,7c0,3.8,3.1,6.9,6.9,6.9s6.9-3.1,6.9-6.9
		C276.6,155.3,273.5,152.2,269.7,152.2z M269.7,153.7c3,0,5.5,2.5,5.5,5.5c0,3-2.5,5.5-5.5,5.5c-3,0-5.5-2.5-5.5-5.5
		C264.2,156.1,266.6,153.7,269.7,153.7z"/>
</g>
<radialGradient id="path4252_2_" cx="-37.0957" cy="41.3477" r="16.0383" gradientTransform="matrix(-0.5333 0.4423 -0.7511 -0.9056 26.5112 161.7142)" gradientUnits="userSpaceOnUse">
	<stop  offset="0" style="stop-color:#4E4E4E"/>
	<stop  offset="1" style="stop-color:#1E1E1E"/>
</radialGradient>
<path id="path4252_1_" style="fill:url(#path4252_2_);" d="M3.2,93.3c0.2-0.2,0.4-0.3,0.6-0.4l7.6,9.2c0,0-0.1,0.1-0.3,0.3l-0.2,0.2
	c-0.2,0.2-0.3,0.3-0.3,0.3l-7.6-9.2C3,93.5,3.1,93.4,3.2,93.3L3.2,93.3z M0.5,101.6l9.3,3.4c0,0,0.1,0.3,0.1,0.6l0.1,0.4
	c0.1,0.3,0.1,0.6,0.1,0.6l-9.4-3.4C0.7,102.6,0.6,102.1,0.5,101.6L0.5,101.6z M12,92.3c0.5,0.2,1,0.3,1.5,0.5l1.6,9.6
	c0,0-0.3-0.1-0.6-0.2l-0.4-0.1c-0.3-0.1-0.6-0.2-0.6-0.2L12,92.3L12,92.3z M23,99.9c0.3,0.3,0.5,0.6,0.8,0.9
	c0.2,0.2,0.3,0.4,0.5,0.6l-5.4,4.5c0,0-0.2-0.3-0.5-0.6l-0.3-0.4c-0.3-0.3-0.5-0.6-0.5-0.6L23,99.9L23,99.9z M11.5,109.4
	c0,0,0.2,0.3,0.5,0.6l0.3,0.4c0.3,0.3,0.5,0.6,0.5,0.6l-5.6,4.7c-0.2-0.2-0.3-0.4-0.5-0.6c-0.3-0.3-0.5-0.6-0.8-1L11.5,109.4
	L11.5,109.4z M20.2,108.7l9.4,3.4c0.1,0.5,0.2,1.1,0.3,1.6l-9.4-3.4c0,0-0.1-0.3-0.1-0.6l-0.1-0.4C20.2,108.9,20.2,108.7,20.2,108.7
	L20.2,108.7z M15.3,112.7c0,0,0.3,0.1,0.6,0.2l0.4,0.1c0.3,0.1,0.6,0.2,0.6,0.2l1.6,10.1c-0.5-0.2-1-0.3-1.5-0.5L15.3,112.7
	L15.3,112.7z M19.5,112.6c0.2-0.2,0.3-0.3,0.3-0.3l7.9,9.5c-0.2,0.2-0.3,0.3-0.5,0.5c-0.1,0.1-0.2,0.2-0.4,0.3l-7.9-9.6
	c0,0,0.1-0.1,0.3-0.3L19.5,112.6L19.5,112.6z"/>
<radialGradient id="path4254_2_" cx="-37.0957" cy="41.3487" r="16.038" gradientTransform="matrix(-0.5333 0.4423 -0.7511 -0.9056 26.5112 161.7142)" gradientUnits="userSpaceOnUse">
	<stop  offset="0" style="stop-color:#4E4E4E"/>
	<stop  offset="1" style="stop-color:#1E1E1E"/>
</radialGradient>
<path id="path4254_1_" style="fill:url(#path4254_2_);" d="M10.3,101.9c1.9-1.6,5.5-0.2,8.2,2.9c2.6,3.2,3.3,7,1.4,8.6
	s-5.5,0.2-8.2-2.9S8.4,103.5,10.3,101.9z M11.3,103.1c-1.5,1.2-1,4.3,1.1,6.8c2.1,2.5,5,3.5,6.4,2.3c1.5-1.2,1-4.2-1.1-6.8
	C15.7,102.9,12.8,101.9,11.3,103.1z"/>
<linearGradient id="path4271_2_" gradientUnits="userSpaceOnUse" x1="56.5029" y1="207.5713" x2="73.8771" y2="205.4055" gradientTransform="matrix(1.094 0 0 -1.094 13.097 292.6464)">
	<stop  offset="0" style="stop-color:#4E4E4E"/>
	<stop  offset="1" style="stop-color:#1E1E1E"/>
</linearGradient>
<path id="path4271_1_" style="fill:url(#path4271_2_);" d="M75.4,54.5c-10.5,0-19,8.5-19,19c0,0.3,0,0.7,0,1c0.5-10,8.8-18,19-18
	c10.1,0,18.4,8,19,18c0-0.3,0-0.7,0-1C94.3,63,85.9,54.5,75.4,54.5L75.4,54.5z"/>
<linearGradient id="path4290_2_" gradientUnits="userSpaceOnUse" x1="96.7232" y1="181.5244" x2="105.3831" y2="189.8742" gradientTransform="matrix(1.094 0 0 -1.094 13.097 292.6464)">
	<stop  offset="0" style="stop-color:#ABABAB"/>
	<stop  offset="1" style="stop-color:#6B6C6C"/>
</linearGradient>
<path id="path4290_1_" style="fill:url(#path4290_2_);" d="M127.5,79.6c-5.4,0-12,4.1-16.9,10.9c-6.4,9.1-7.2,19.7-1.7,23.6
	c0.3,0.2,0.7,0.5,1.1,0.6c-3.9-4.6-2.7-14,3.1-22.3c6-8.5,14.9-12.8,20.5-10.1c-0.4-0.5-0.9-0.9-1.4-1.3
	C131,80.1,129.3,79.6,127.5,79.6L127.5,79.6z"/>
<linearGradient id="path4481_2_" gradientUnits="userSpaceOnUse" x1="23.0713" y1="238.8399" x2="60.2465" y2="261.1109" gradientTransform="matrix(1.094 0 0 -1.094 21.4964 312.3417)">
	<stop  offset="0" style="stop-color:#FFFFFF;stop-opacity:0.7924"/>
	<stop  offset="0.1" style="stop-color:#FFFFFF;stop-opacity:0.498"/>
	<stop  offset="0.1" style="stop-color:#FFFFFF;stop-opacity:0"/>
	<stop  offset="0.28" style="stop-color:#FFFFFF;stop-opacity:0.3648"/>
	<stop  offset="0.346" style="stop-color:#FFFFFF;stop-opacity:0.8553"/>
	<stop  offset="0.346" style="stop-color:#FFFFFF;stop-opacity:0.4654"/>
	<stop  offset="0.5095" style="stop-color:#FFFFFF;stop-opacity:0"/>
	<stop  offset="0.6403" style="stop-color:#FFFFFF;stop-opacity:0.6793"/>
	<stop  offset="0.6403" style="stop-color:#FFFFFF;stop-opacity:0.1321"/>
	<stop  offset="0.8082" style="stop-color:#FFFFFF;stop-opacity:0.8113"/>
	<stop  offset="0.8082" style="stop-color:#FFFFFF;stop-opacity:0.4969"/>
	<stop  offset="1" style="stop-color:#FFFFFF;stop-opacity:0"/>
</linearGradient>
<path id="path4481_1_" style="opacity:0.399;fill:url(#path4481_2_);enable-background:new    ;" d="M56.6,16
	c-10.5,0-19.7,7.6-20.7,16.9c-0.9,9.3,6.8,16.9,17.2,16.9c10.5,0,19.7-7.6,20.6-16.9C74.8,23.6,67,16,56.6,16z M94.7,16
	c-10.5,0-18.2,7.6-17.2,16.9c0.9,9.3,10.2,16.9,20.7,16.9c10.5,0,18.2-7.6,17.2-16.9C114.4,23.6,105.2,16,94.7,16z"/>
<linearGradient id="path4468_2_" gradientUnits="userSpaceOnUse" x1="49.7788" y1="270.876" x2="49.5279" y2="255.4103" gradientTransform="matrix(1.094 0 0 -1.0283 21.4964 296.3662)">
	<stop  offset="0" style="stop-color:#ECECED"/>
	<stop  offset="1" style="stop-color:#ECECED;stop-opacity:0"/>
</linearGradient>
<path id="path4468_1_" style="fill:url(#path4468_2_);" d="M56.6,18.5c-10.5,0-19.7,7.1-20.7,15.9c-0.9,8.8,6.8,15.9,17.2,15.9
	s19.7-7.1,20.6-15.9C74.8,25.6,67,18.5,56.6,18.5L56.6,18.5z M94.7,18.5c-10.5,0-18.2,7.1-17.2,15.9c0.9,8.8,10.2,15.9,20.7,15.9
	s18.2-7.1,17.2-15.9C114.4,25.6,105.2,18.5,94.7,18.5L94.7,18.5z"/>
<radialGradient id="path4514_2_" cx="54.6172" cy="177.4405" r="36.373" gradientTransform="matrix(1.4476 0 0 -0.5304 -3.812 126.8143)" gradientUnits="userSpaceOnUse">
	<stop  offset="0" style="stop-color:#ECECED"/>
	<stop  offset="1" style="stop-color:#ECECED;stop-opacity:0"/>
</radialGradient>
<path id="path4514_1_" style="opacity:0.9904;fill:url(#path4514_2_);enable-background:new    ;" d="M56.6,23.9
	c-10.5,0-19.7,4.8-20.7,10.8c-0.9,6,6.8,10.8,17.2,10.8s19.7-4.8,20.6-10.8C74.8,28.7,67,23.9,56.6,23.9L56.6,23.9z M94.7,23.9
	c-10.5,0-18.2,4.8-17.2,10.8c0.9,6,10.2,10.8,20.7,10.8s18.2-4.8,17.2-10.8C114.4,28.7,105.2,23.9,94.7,23.9L94.7,23.9z"/>
<linearGradient id="path4726_2_" gradientUnits="userSpaceOnUse" x1="-168.7314" y1="171.7002" x2="-149.3661" y2="171.7002" gradientTransform="matrix(0 0.2705 0.2846 0 26.3383 121.9044)">
	<stop  offset="0" style="stop-color:#ECECED"/>
	<stop  offset="1" style="stop-color:#ECECED;stop-opacity:0"/>
</linearGradient>
<path id="path4726_1_" style="opacity:0.7981;fill:url(#path4726_2_);enable-background:new    ;" d="M75.2,85.6
	c-2.5,0-4.6-2-4.6-4.4s2.1-4.4,4.6-4.4s4.6,2,4.6,4.4S77.7,85.6,75.2,85.6z"/>
</svg>
