<?xml version="1.0" encoding="utf-8"?>
<!-- Generator: Adobe Illustrator 15.0.0, SVG Export Plug-In . SVG Version: 6.00 Build 0)  -->
<!DOCTYPE svg PUBLIC "-//W3C//DTD SVG 1.1//EN" "http://www.w3.org/Graphics/SVG/1.1/DTD/svg11.dtd">
<svg version="1.1" id="Layer_1" xmlns="http://www.w3.org/2000/svg" xmlns:xlink="http://www.w3.org/1999/xlink" x="0px" y="0px"
	 width="133.074px" height="88.914px" viewBox="0 0 133.074 88.914" enable-background="new 0 0 133.074 88.914"
	 xml:space="preserve">
<g id="layer1_3_" transform="translate(-14.507 -35.233)">
	<g id="g41382_2_" transform="translate(648.66 -1029.8)">
		<path id="path21056_2_" fill="#010101" d="M-524.092,1153.424c-4.244-0.584-13.024,3.213-12.392-3.699
			c-0.459-6.328-7.594-36.992-10.389-41.08c-3.396-0.682-6.861,0.876-13.842,0.291c-4.254-0.389-10.202-0.973-17.552-2.822
			c1.081-3.602,0.916-4.381-0.418-9.053c-0.574-2.435-0.876-2.629-7.788-4.771l-37.04,0.391l-0.321-4.381h-7.175l-0.098-20.346
			h13.396l1.08,1.266l51.127-0.098l-0.049-0.682h37.333l2.307-3.406l2.58,3.796c3.367,4.575,12.479-0.876,12.469,5.743
			c-2.043,5.354,1.578,11.779,6.854,14.408c2.969,0.876,4.352,4.77-0.154,4.77c-5.463,0.39-6.406,2.92-8.568,7.885
			c-2.189,4.965,10.35,30.665,11.654,39.621C-501.206,1151.963-518.641,1153.813-524.092,1153.424L-524.092,1153.424z
			 M-549.355,1095.599c-3.475-0.877-5.811-0.486-5.957,0.779c-0.32,2.92-5.947,6.23-8.332,7.593
			c-5.588,0.39,7.438-5.159,2.219-9.151c-4.186-1.752-12.917-0.778-14.679,1.461c-1.714,2.142,3.261,10.318,8.557,10.708
			C-558.496,1108.157-542.267,1110.591-549.355,1095.599L-549.355,1095.599z"/>
		
			<linearGradient id="path7845_1_" gradientUnits="userSpaceOnUse" x1="-1493.6329" y1="506.0145" x2="-1491.6565" y2="506.6233" gradientTransform="matrix(4.0311 0 0 -4.9721 5479.0703 3637.4834)">
			<stop  offset="0" style="stop-color:#FFFFFF"/>
			<stop  offset="1" style="stop-color:#124759"/>
		</linearGradient>
		<path id="path7845_2_" fill="url(#path7845_1_)" d="M-548.664,1087.812l15.43,61.23c0,0,34.909,1.363,29.165-12.07l-15.41-42.347
			c-5.217-3.699-3.279-4.964-9.646-5.451C-535.482,1088.687-549.451,1084.697-548.664,1087.812z"/>
		<path id="path8605_2_" fill="#072C3D" d="M-544.584,1094.042l13.979,52.275c3.757,2.823,29.214,1.168,23.976-9.345l-12.576-36.506
			c-4.576-3.31-14.067-9.832-16.521-8.566C-538.179,1093.264-545.304,1091.316-544.584,1094.042L-544.584,1094.042z"/>
		
			<radialGradient id="rect9365_1_" cx="-1087.3976" cy="-1397.5406" r="2.6858" gradientTransform="matrix(11.7932 0 0 -1.6995 12238.2529 -1297.4137)" gradientUnits="userSpaceOnUse">
			<stop  offset="0" style="stop-color:#0DA5DC"/>
			<stop  offset="1" style="stop-color:#01749B"/>
		</radialGradient>
		<path id="rect9365_2_" fill="url(#rect9365_1_)" d="M-618.986,1072.918l54.213,0.098l2.297,8.857l-56.326,0.098L-618.986,1072.918
			L-618.986,1072.918z"/>
		<path id="path39864_2_" fill="#01749B" d="M-510.424,1090.051c-1.539-5.646-0.672-4.088-7.867-5.354l6.951,0.097
			c1.236,1.46,3.047,5.646,4.945,7.009c-2.969,0-4.264,3.895-5.168,8.08C-511.428,1096.767-510.075,1091.316-510.424,1090.051z"/>
		<path id="rect13176_2_" fill="#124759" d="M-526.34,1086.059l11.34-0.292c1.879,0,3.203-0.195,3.203,1.85
			c0,2.044-2.795,4.088-3.699,8.274C-517.473,1094.139-528.229,1086.059-526.34,1086.059z"/>
		
			<linearGradient id="path14703_1_" gradientUnits="userSpaceOnUse" x1="-1175.0621" y1="-549.795" x2="-1174.7208" y2="-549.795" gradientTransform="matrix(8.3356 0 0 -2.4045 9226.873 -234.3652)">
			<stop  offset="0" style="stop-color:#01749B"/>
			<stop  offset="1" style="stop-color:#FFFFFF"/>
		</linearGradient>
		<path id="path14703_2_" fill="url(#path14703_1_)" d="M-618.422,1082.75h53.473l0.01,9.734l-14.339-0.194
			c-0.866-2.726-1.285-4.187-5.637-4.381l-33.205,0.39L-618.422,1082.75L-618.422,1082.75z"/>
		
			<linearGradient id="path18515_1_" gradientUnits="userSpaceOnUse" x1="-1193.7296" y1="-417.1295" x2="-1193.6405" y2="-417.1295" gradientTransform="matrix(7.8145 0 0 -2.5648 8773.2148 7.5437)">
			<stop  offset="0" style="stop-color:#01749B"/>
			<stop  offset="1" style="stop-color:#034C66"/>
		</linearGradient>
		<path id="path18515_2_" fill="url(#path18515_1_)" d="M-532.523,1072.918h-32.135l2.367,8.955h33.234L-532.523,1072.918z"/>
		
			<linearGradient id="path20051_1_" gradientUnits="userSpaceOnUse" x1="-1403.3698" y1="306.0687" x2="-1402.0563" y2="306.1122" gradientTransform="matrix(4.8794 0 0 -4.1079 6217.1392 2333.9697)">
			<stop  offset="0" style="stop-color:#01749B"/>
			<stop  offset="1" style="stop-color:#BBE4E8"/>
		</linearGradient>
		<path id="path20051_2_" fill="url(#path20051_1_)" d="M-631.145,1071.068c4.399,0.098,10.065,0.779,12.246,1.947l0.146,8.955
			c-3.484-0.098-7.729-0.584-12.314-0.486L-631.145,1071.068z"/>
		
			<linearGradient id="path23856_1_" gradientUnits="userSpaceOnUse" x1="-1403.7687" y1="305.8529" x2="-1403.7926" y2="306.6792" gradientTransform="matrix(4.8794 0 0 -4.1079 6217.1392 2333.9697)">
			<stop  offset="0" style="stop-color:#030405"/>
			<stop  offset="1" style="stop-color:#BBE4E8"/>
		</linearGradient>
		<path id="path23856_2_" fill="url(#path23856_1_)" d="M-633.637,1069.607h2.569l0.039,8.762l-2.608-0.098
			C-634.25,1075.351-634.397,1072.334-633.637,1069.607z"/>
		
			<linearGradient id="path27664_1_" gradientUnits="userSpaceOnUse" x1="-1402.443" y1="303.8036" x2="-1402.991" y2="303.1513" gradientTransform="matrix(4.8794 0 0 -4.1079 6217.1392 2333.9697)">
			<stop  offset="0" style="stop-color:#01749B"/>
			<stop  offset="1" style="stop-color:#BBE4E8"/>
		</linearGradient>
		<path id="path27664_2_" fill="url(#path27664_1_)" d="M-631.038,1082.652l12.548,0.098l0.205,3.99c-3.485,0-8.129,0-12.724,0.098
			L-631.038,1082.652L-631.038,1082.652z"/>
		<path id="path28426_2_" fill="#01749B" d="M-570.897,1094.042c-3.865,0.487-7.496,1.753-5.082,5.938
			c2.365,3.99,2.921,7.105,15.088,8.566c-6.667-0.974-13.297-1.947-17.289-2.727c0.331-2.627,0.613-1.265,0.535-3.893
			c-0.077-2.629-1.353-4.381-1.518-7.789L-570.897,1094.042z"/>
		
			<linearGradient id="path29972_1_" gradientUnits="userSpaceOnUse" x1="-1360.1818" y1="223.0897" x2="-1359.1379" y2="223.0897" gradientTransform="matrix(5.1646 0 0 -3.8809 6465.6484 1964.9406)">
			<stop  offset="0" style="stop-color:#01749B"/>
			<stop  offset="1" style="stop-color:#FFFFFF"/>
		</linearGradient>
		<path id="path29972_2_" fill="url(#path29972_1_)" d="M-553.744,1094.918c-1.471,0.584-0.195,0-1.441,0.779
			c-3.184,3.213,1.373,1.46-10.076,7.787c3.039-2.628,4.635-5.256,4.469-8.664L-553.744,1094.918L-553.744,1094.918z"/>
		
			<linearGradient id="path30740_1_" gradientUnits="userSpaceOnUse" x1="-1402.3678" y1="307.7943" x2="-1402.2091" y2="307.5769" gradientTransform="matrix(4.8794 0 0 -4.1079 6217.1392 2332.1611)">
			<stop  offset="0" style="stop-color:#01749B"/>
			<stop  offset="1" style="stop-color:#0A5C73"/>
		</linearGradient>
		<path id="path30740_2_" fill="url(#path30740_1_)" d="M-630.941,1067.953l4.186-1.947c3.31-1.363,5.88-0.486,6.152,1.947H-630.941
			z"/>
		
			<linearGradient id="path36064_1_" gradientUnits="userSpaceOnUse" x1="-1494.275" y1="504.0619" x2="-1493.0571" y2="504.3011" gradientTransform="matrix(4.0311 0 0 -4.9721 5479.0703 3637.4834)">
			<stop  offset="0" style="stop-color:#FFFFFF"/>
			<stop  offset="1" style="stop-color:#124759"/>
		</linearGradient>
		<path id="path36064_2_" fill="url(#path36064_1_)" d="M-535.929,1150.211c-1.178-9.93-6.25-30.178-8.859-38.744
			c-4.439-7.398,3.027,11.391,5.238,23.656C-537.332,1147.389-538.451,1153.91-535.929,1150.211z"/>
		<path id="path36826_2_" fill="#124759" d="M-529.66,1073.112l12.751-0.097c1.889,0,3.699,6.717,3.699,8.761
			c-3.203,0.584-10.688,0.194-12.576,0.194C-527.762,1080.219-531.548,1073.112-529.66,1073.112z"/>
		
			<linearGradient id="path39102_1_" gradientUnits="userSpaceOnUse" x1="-1360.0763" y1="233.786" x2="-1360.9895" y2="233.7425" gradientTransform="matrix(5.1646 0 0 -3.8809 6465.6484 1991.8038)">
			<stop  offset="0" style="stop-color:#01749B"/>
			<stop  offset="1" style="stop-color:#FFFFFF"/>
		</linearGradient>
		<path id="path39102_2_" fill="url(#path39102_1_)" d="M-548.576,1081.387c1.178,0.486,1.529,1.168,1.977,2.629l-16.471,3.406
			c-1.383-1.459-0.838-3.018-0.418-3.699L-548.576,1081.387L-548.576,1081.387z"/>
	</g>
</g>
</svg>
