<?xml version="1.0" encoding="utf-8"?>
<!-- Generator: Adobe Illustrator 15.0.0, SVG Export Plug-In . SVG Version: 6.00 Build 0)  -->
<!DOCTYPE svg PUBLIC "-//W3C//DTD SVG 1.1//EN" "http://www.w3.org/Graphics/SVG/1.1/DTD/svg11.dtd">
<svg version="1.1" id="Layer_1" xmlns="http://www.w3.org/2000/svg" xmlns:xlink="http://www.w3.org/1999/xlink" x="0px" y="0px"
	 width="101.14px" height="70.788px" viewBox="0 0 101.14 70.788" enable-background="new 0 0 101.14 70.788" xml:space="preserve">
<g>
	<g>
		<path fill="#676766" d="M53.298,36.384H53.3c0.329-0.367,0.658-0.734,0.988-1.103c0.047-0.054,0.115-0.111,0.129-0.184
			c0.025-0.145-0.096-0.21-0.217-0.215c-0.258-0.01-0.52,0.007-0.777,0.011c-0.248,0.003-0.496,0.007-0.744,0.01
			c0.248-0.365,0.496-0.73,0.743-1.095c0.105-0.155,0.132-0.362-0.118-0.374c-0.229-0.011-0.461,0.007-0.688,0.011
			s-0.453,0.008-0.68,0.011c0.24-0.36,0.491-0.715,0.721-1.082c0.119-0.189-0.004-0.317-0.2-0.323
			c-0.251-0.009-0.501-0.012-0.752-0.018c-0.22-0.006-0.438-0.011-0.657-0.016c0.107-0.211,0.215-0.422,0.322-0.632
			c0.074-0.146,0.387-0.566,0.113-0.67c-0.068-0.026-0.166-0.012-0.238-0.012c-0.152,0.001-0.304,0.002-0.455,0.002
			c-0.234,0.001-0.468,0.002-0.701,0.003c0.081-0.24,0.162-0.479,0.244-0.721c0.053-0.158,0.307-0.627,0.021-0.695
			c-0.072-0.018-0.167,0.001-0.239,0.004c-0.157,0.007-0.315,0.013-0.474,0.02c-0.245,0.011-0.49,0.021-0.736,0.031v0.001
			c-1.592-1.679-3.488-3.121-5.666-4.232c-0.902-0.461-1.806-0.922-2.709-1.384c-1.713-0.875-3.427-1.75-5.14-2.625
			c-1.03-0.525-2.059-1.052-3.089-1.577c-2.233-1.139-4.658-1.884-7.15-2.169c-2.621-0.3-5.296-0.094-7.843,0.597
			c-2.537,0.688-4.941,1.854-7.048,3.427c-2.175,1.624-4.022,3.674-5.414,6.004c-0.875,1.464-1.599,3.026-2.374,4.545
			c-1.065,2.085-1.85,4.273-2.218,6.593c-0.414,2.612-0.322,5.3,0.264,7.879c0.581,2.562,1.645,5.009,3.124,7.179
			c1.521,2.23,3.478,4.155,5.731,5.642c1.129,0.745,2.338,1.339,3.541,1.953c1.632,0.833,3.264,1.667,4.897,2.501
			c1.371,0.7,2.742,1.4,4.113,2.101c1.699,0.867,3.453,1.572,5.318,1.996c2.59,0.589,5.289,0.673,7.912,0.252
			c2.6-0.417,5.115-1.325,7.379-2.667c2.307-1.367,4.342-3.18,5.963-5.315c1.217-1.604,2.096-3.387,3.008-5.171
			c0.279-0.549,0.561-1.098,0.84-1.646C55.126,47.784,55.288,41.691,53.298,36.384z M46.716,53.18
			c-1.133,2.22-2.738,4.188-4.693,5.734c-1.886,1.492-4.08,2.585-6.406,3.195c-2.33,0.611-4.781,0.735-7.16,0.355
			c-1.913-0.307-3.723-0.95-5.443-1.829c-1.291-0.659-2.582-1.318-3.873-1.978c-1.27-0.648-2.539-1.297-3.809-1.945
			c-1.745-0.891-3.347-2.007-4.727-3.406c-1.696-1.721-3.021-3.795-3.876-6.055c-0.849-2.242-1.232-4.655-1.113-7.05
			c0.122-2.456,0.778-4.866,1.894-7.057c0.435-0.855,0.873-1.705,1.403-2.507c0.687-1.039,1.484-2.004,2.377-2.872
			c1.726-1.678,3.802-2.986,6.058-3.826c2.254-0.841,4.678-1.211,7.08-1.075c2.414,0.137,4.781,0.788,6.934,1.885
			c0.988,0.503,1.975,1.008,2.961,1.512c1.464,0.748,2.928,1.495,4.391,2.242c0.275,0.141,0.553,0.282,0.829,0.424
			c1.129,0.578,2.196,1.274,3.175,2.081c1.871,1.543,3.406,3.479,4.488,5.648c1.07,2.148,1.693,4.515,1.815,6.911
			c0.126,2.457-0.278,4.933-1.179,7.223C47.519,51.614,47.116,52.395,46.716,53.18z"/>
		<path fill="#545553" d="M20.556,59.381c0.139,0.534,0.145,1.121,0.059,1.663c-0.191,1.204-0.951,2.166-2.037,2.707
			c-0.088,0.044-0.249,0.157-0.345,0.144c-0.058-0.009-0.136-0.07-0.188-0.096c-0.222-0.114-0.443-0.228-0.666-0.341
			c-0.104-0.053-0.206-0.105-0.309-0.158c-0.031-0.016-0.168-0.06-0.184-0.093c-0.01-0.024,0.033-0.084,0.047-0.112
			c0.391-0.765,0.781-1.528,1.172-2.293c0.36-0.707,0.721-1.413,1.082-2.12C19.644,58.916,20.099,59.148,20.556,59.381z"/>
		<path fill="#353635" d="M43.183,30.788l-19.258-9.835c0.178-0.347,0.354-0.693,0.531-1.04c0.436-0.853,0.871-1.705,1.307-2.557
			c0.54-1.06,1.08-2.118,1.621-3.178c0.501-0.979,1.001-1.958,1.501-2.938c0.312-0.609,0.623-1.22,0.935-1.83
			c0.076-0.149,0.15-0.301,0.236-0.446c0.416-0.703,1.051-1.264,1.799-1.591c1.109-0.485,2.352-0.411,3.422,0.135
			c0.4,0.204,0.801,0.408,1.201,0.613c0.784,0.4,1.568,0.801,2.352,1.201c1.005,0.513,2.01,1.025,3.014,1.538
			c1.071,0.548,2.143,1.095,3.215,1.642c0.984,0.503,1.969,1.006,2.952,1.508c0.743,0.38,1.486,0.76,2.229,1.139
			c0.34,0.174,0.68,0.346,1.018,0.521c1.24,0.639,2.074,1.886,2.151,3.284c0.039,0.697-0.114,1.387-0.429,2.009
			c-0.087,0.172-0.176,0.343-0.264,0.515c-0.443,0.87-0.889,1.74-1.333,2.611c-0.528,1.034-1.058,2.069-1.586,3.104
			c-0.292,0.572-0.583,1.146-0.877,1.717c-0.673,1.307-1.967,2.201-3.437,2.328C44.692,31.307,43.89,31.149,43.183,30.788z"/>
		<path fill="#353635" d="M18.009,57.665l-2.914-1.072C6.526,52.217,3.127,41.723,7.503,33.155c0.438-0.857,0.876-1.711,1.408-2.516
			c0.699-1.059,1.515-2.04,2.428-2.921c1.783-1.719,3.933-3.044,6.267-3.872c2.32-0.823,4.811-1.151,7.264-0.949
			c2.301,0.189,4.529,0.852,6.583,1.9c1.292,0.66,2.585,1.32,3.878,1.98c0.039,0.021,0.078,0.04,0.118,0.061l2.309-4.521
			l-8.173-3.944c-9.693-3.356-20.624,0.855-25.421,10.251l-1.873,3.668c-5.249,10.277-1.172,22.863,9.106,28.112
			c1.203,0.761,2.406,1.521,3.609,2.282c0.149,0.095,0.298,0.192,0.45,0.284c0.578,0.352,1.27,0.5,1.941,0.414
			c1.306-0.168,2.383-1.25,2.547-2.557C20.114,59.469,19.29,58.135,18.009,57.665z"/>
		<path fill="#676766" d="M18.671,61.254c-0.26,0.509-0.825,0.809-1.392,0.738c-0.573-0.071-1.05-0.509-1.173-1.072
			c-0.121-0.557,0.127-1.146,0.607-1.449c0.486-0.308,1.131-0.275,1.582,0.08C18.806,59.953,18.965,60.677,18.671,61.254z"/>
		<g>
			<g>
				<path fill="#191919" d="M34.843,9.921c-0.495,0.97-1.977,0.776-2.213-0.284c-0.236-1.058,1.021-1.854,1.879-1.195
					C34.957,8.786,35.1,9.417,34.843,9.921z"/>
				<path fill="#191919" d="M29.544,20.297c-0.496,0.97-1.979,0.777-2.214-0.283c-0.235-1.058,1.022-1.854,1.88-1.196
					C29.658,19.163,29.801,19.794,29.544,20.297z"/>
				<path fill="#676766" d="M34.667,9.831c-0.412,0.807-1.646,0.649-1.844-0.233c-0.197-0.878,0.84-1.544,1.558-1.005
					C34.76,8.876,34.883,9.409,34.667,9.831z"/>
				<path fill="#676766" d="M29.368,20.208c-0.412,0.807-1.646,0.649-1.844-0.233c-0.197-0.878,0.839-1.544,1.557-1.005
					C29.461,19.253,29.583,19.786,29.368,20.208z"/>
			</g>
			<g>
				<path fill="#191919" d="M40.436,12.777c-0.495,0.97-1.978,0.777-2.214-0.284c-0.234-1.057,1.022-1.854,1.881-1.195
					C40.55,11.641,40.692,12.274,40.436,12.777z"/>
				<path fill="#676766" d="M40.259,12.687c-0.411,0.807-1.645,0.648-1.844-0.233c-0.196-0.878,0.84-1.545,1.559-1.006
					C40.353,11.733,40.476,12.265,40.259,12.687z"/>
			</g>
			<g>
				<path fill="#191919" d="M46.028,15.633c-0.496,0.97-1.979,0.776-2.214-0.284c-0.235-1.058,1.022-1.854,1.88-1.196
					C46.142,14.498,46.285,15.129,46.028,15.633z"/>
				<path fill="#676766" d="M45.853,15.543c-0.412,0.806-1.646,0.648-1.845-0.234c-0.196-0.878,0.84-1.544,1.558-1.005
					C45.945,14.588,46.067,15.121,45.853,15.543z"/>
			</g>
			<g>
				<path fill="#191919" d="M51.62,18.489c-0.494,0.97-1.977,0.777-2.213-0.283c-0.235-1.058,1.021-1.855,1.879-1.196
					C51.735,17.354,51.878,17.986,51.62,18.489z"/>
				<path fill="#676766" d="M51.444,18.399c-0.412,0.807-1.646,0.648-1.844-0.233c-0.197-0.879,0.84-1.544,1.559-1.006
					C51.538,17.445,51.66,17.977,51.444,18.399z"/>
			</g>
			<g>
				<path fill="#191919" d="M46.321,28.866c-0.495,0.97-1.978,0.777-2.213-0.283c-0.236-1.058,1.021-1.855,1.879-1.196
					C46.436,27.731,46.578,28.363,46.321,28.866z"/>
				<path fill="#676766" d="M46.146,28.776c-0.412,0.807-1.646,0.648-1.844-0.233c-0.197-0.879,0.84-1.544,1.557-1.006
					C46.238,27.822,46.361,28.354,46.146,28.776z"/>
			</g>
		</g>
		<path fill="#545553" d="M45.923,10.517c-0.188-0.096-0.434-0.175-0.516-0.388c-0.062-0.167-0.002-0.309,0.072-0.454
			c0.191-0.375,0.383-0.751,0.574-1.126c0.172-0.336,0.348-0.67,0.516-1.008c0.105-0.214,0.124-0.453,0.001-0.666
			c-0.112-0.197-0.313-0.28-0.505-0.379c-0.404-0.206-0.917-0.588-1.341-0.205c-0.226,0.204-0.351,0.591-0.485,0.854
			c-0.214,0.42-0.428,0.839-0.643,1.258c-0.16,0.314-0.33,0.732-0.773,0.53c-0.265-0.121-0.484-0.274-0.793-0.246
			c-0.332,0.029-0.594,0.233-0.747,0.522c-0.19,0.357-0.369,0.722-0.553,1.083l5.024,2.566c0.168-0.327,0.334-0.653,0.501-0.98
			c0.091-0.179,0.169-0.353,0.167-0.561C46.417,10.983,46.222,10.67,45.923,10.517z"/>
	</g>
	<g>
		<path fill="#676766" d="M94.327,29.892L94.327,29.892c0.127-0.477,0.252-0.954,0.379-1.431c0.017-0.064,0.051-0.146,0.034-0.213
			c-0.034-0.148-0.181-0.154-0.293-0.103c-0.234,0.107-0.46,0.242-0.688,0.362c-0.219,0.116-0.438,0.231-0.658,0.348
			c0.055-0.438,0.109-0.876,0.164-1.313c0.023-0.186-0.047-0.383-0.275-0.278c-0.207,0.094-0.406,0.215-0.607,0.322
			c-0.2,0.106-0.4,0.212-0.6,0.318c0.049-0.428,0.11-0.856,0.148-1.285c0.021-0.229-0.148-0.288-0.332-0.2
			c-0.229,0.11-0.457,0.22-0.686,0.33c-0.192,0.093-0.385,0.186-0.576,0.278c0-0.236,0-0.474,0-0.71c0-0.164,0.086-0.68-0.204-0.648
			c-0.074,0.009-0.153,0.065-0.218,0.099c-0.135,0.07-0.27,0.14-0.404,0.209c-0.208,0.107-0.416,0.215-0.623,0.322
			c-0.037-0.251-0.074-0.503-0.111-0.754c-0.023-0.164-0.011-0.677-0.282-0.632c-0.078,0.014-0.159,0.077-0.226,0.115
			c-0.138,0.077-0.275,0.155-0.412,0.232c-0.215,0.121-0.429,0.242-0.643,0.362v0.002c-2.18-0.771-4.525-1.192-6.971-1.192
			c-1.02,0-2.037,0-3.057,0c-1.93,0-3.859,0-5.789,0c-1.146,0-2.293-0.001-3.439,0c-2.526,0.001-5.043,0.448-7.408,1.342
			c-2.459,0.929-4.732,2.326-6.676,4.095c-1.947,1.772-3.557,3.91-4.715,6.275c-1.193,2.435-1.9,5.098-2.076,7.803
			c-0.111,1.692-0.045,3.402-0.045,5.097c0,2.349,0.298,4.66,1.029,6.898c0.82,2.511,2.125,4.857,3.816,6.886
			c1.682,2.013,3.74,3.707,6.041,4.965c2.365,1.293,4.979,2.117,7.657,2.417c1.341,0.15,2.685,0.131,4.03,0.131
			c1.842,0,3.684,0,5.525,0c1.541,0,3.084,0,4.625,0c1.913,0,3.803-0.173,5.661-0.647c2.579-0.657,5.022-1.815,7.167-3.39
			c2.107-1.546,3.92-3.485,5.318-5.692c1.432-2.262,2.422-4.797,2.896-7.431c0.359-1.992,0.333-3.99,0.333-6.005
			c0-0.616,0-1.232,0-1.849C101.139,39.213,98.513,33.713,94.327,29.892z M96.103,47.844c0,2.492-0.533,4.975-1.57,7.241
			c-1,2.186-2.457,4.156-4.25,5.758c-1.797,1.604-3.924,2.83-6.214,3.573c-1.842,0.599-3.747,0.849-5.678,0.849
			c-1.452,0-2.903,0-4.354,0c-1.43,0-2.859,0-4.289,0c-1.957,0-3.89-0.267-5.751-0.885c-2.292-0.762-4.415-2.007-6.204-3.63
			c-1.781-1.616-3.223-3.599-4.205-5.793c-1.002-2.237-1.512-4.674-1.514-7.123c-0.002-0.958,0.002-1.911,0.109-2.865
			c0.138-1.232,0.408-2.451,0.806-3.627c0.773-2.287,2.03-4.403,3.661-6.183c1.626-1.772,3.616-3.204,5.816-4.175
			c2.212-0.977,4.615-1.473,7.031-1.476c1.109-0.002,2.217,0,3.326,0c1.646,0,3.293,0,4.939,0c0.323,0,0.646-0.001,0.971,0
			c1.254,0.004,2.51,0.141,3.734,0.412c2.367,0.524,4.613,1.551,6.562,2.992c1.93,1.427,3.559,3.251,4.757,5.33
			c1.228,2.132,1.993,4.52,2.232,6.968C96.105,46.088,96.103,46.965,96.103,47.844z"/>
		<path fill="#545553" d="M75.625,65.265c0.6,0.675,0.975,1.621,0.995,2.52c0.02,0.905-0.343,1.755-0.906,2.45
			c-0.084,0.104-0.068,0.094-0.167,0.106c-0.103,0.013-0.216,0-0.32,0c-0.267,0-0.534,0-0.801,0c-0.052,0-0.306,0.033-0.338-0.005
			c-0.026-0.031,0-0.204,0-0.243c0-0.405,0-0.811,0-1.216c0-1.031,0-2.062,0-3.094c0-0.146-0.009-0.294,0-0.439
			c0.007-0.102-0.001-0.079,0.114-0.079C74.677,65.265,75.15,65.265,75.625,65.265z"/>
		<path fill="#353635" d="M82.772,29.509H61.148c0-0.39,0-0.779,0-1.169c0-0.957,0-1.914,0-2.871c0-1.189,0-2.378,0-3.566
			c0-1.1,0-2.199,0-3.299c0-0.686,0-1.37,0-2.056c0-0.168-0.003-0.337,0.008-0.505c0.05-0.814,0.36-1.603,0.878-2.234
			c0.768-0.938,1.907-1.437,3.109-1.438c0.449,0,0.898,0,1.348,0c0.881,0,1.762,0,2.642,0c1.128,0,2.255,0,3.383,0
			c1.204,0,2.407,0,3.61,0c1.105,0,2.209,0,3.314,0c0.834,0,1.67,0,2.504,0c0.381,0,0.762-0.001,1.143,0
			c1.395,0.006,2.705,0.737,3.41,1.947c0.352,0.603,0.527,1.287,0.531,1.984c0,0.192,0,0.385,0,0.577c0,0.978,0,1.955,0,2.933
			c0,1.162,0,2.324,0,3.486c0,0.643,0.002,1.285,0,1.928c-0.006,1.47-0.752,2.854-2.002,3.637
			C84.353,29.285,83.565,29.509,82.772,29.509z"/>
		<path fill="#353635" d="M72.575,64.895l-3.082,0.37c-9.621,0-17.42-7.8-17.42-17.421c0-0.961,0.002-1.918,0.109-2.875
			c0.141-1.264,0.422-2.513,0.836-3.716c0.803-2.333,2.11-4.484,3.805-6.279c1.688-1.79,3.754-3.216,6.029-4.155
			c2.142-0.883,4.436-1.31,6.749-1.31c1.451,0,2.903,0,4.354,0c0.044,0,0.088,0,0.132,0v-5.076l-9.073,0.203
			c-10.158,1.42-17.977,10.142-17.977,20.691v4.118c0,11.54,9.355,20.896,20.895,20.896c1.402,0.129,2.805,0.258,4.207,0.387
			c0.176,0.017,0.35,0.034,0.523,0.049c0.631,0.053,1.266-0.085,1.811-0.409c1.134-0.675,1.69-2.089,1.322-3.358
			C75.396,65.628,73.998,64.723,72.575,64.895z"/>
		<path fill="#676766" d="M74.798,67.791c0,0.571-0.367,1.095-0.902,1.29c-0.543,0.197-1.167,0.025-1.532-0.421
			c-0.36-0.441-0.409-1.078-0.118-1.567c0.293-0.495,0.881-0.759,1.445-0.648C74.327,66.569,74.798,67.143,74.798,67.791z"/>
		<g>
			<g>
				<path fill="#191919" d="M65.854,14.718c0,1.089-1.408,1.591-2.101,0.754c-0.69-0.835,0.067-2.116,1.13-1.92
					C65.44,13.655,65.854,14.153,65.854,14.718z"/>
				<path fill="#191919" d="M65.854,26.37c0,1.089-1.408,1.592-2.101,0.754c-0.69-0.834,0.067-2.116,1.13-1.92
					C65.44,25.307,65.854,25.805,65.854,26.37z"/>
				<path fill="#676766" d="M65.657,14.718c0,0.905-1.171,1.326-1.749,0.631c-0.575-0.693,0.046-1.757,0.931-1.604
					C65.306,13.826,65.657,14.244,65.657,14.718z"/>
				<path fill="#676766" d="M65.657,26.37c0,0.905-1.171,1.327-1.749,0.631c-0.575-0.692,0.046-1.757,0.931-1.604
					C65.306,25.477,65.657,25.896,65.657,26.37z"/>
			</g>
			<g>
				<path fill="#191919" d="M72.134,14.718c0,1.089-1.408,1.591-2.1,0.754c-0.691-0.835,0.066-2.116,1.13-1.92
					C71.72,13.655,72.134,14.153,72.134,14.718z"/>
				<path fill="#676766" d="M71.937,14.718c0,0.905-1.171,1.326-1.748,0.631c-0.576-0.693,0.045-1.757,0.93-1.604
					C71.585,13.826,71.937,14.244,71.937,14.718z"/>
			</g>
			<g>
				<path fill="#191919" d="M78.413,14.718c0,1.089-1.407,1.591-2.1,0.754c-0.691-0.835,0.066-2.116,1.131-1.92
					C77.999,13.655,78.413,14.153,78.413,14.718z"/>
				<path fill="#676766" d="M78.216,14.718c0,0.905-1.17,1.326-1.748,0.631c-0.575-0.693,0.045-1.757,0.93-1.604
					C77.864,13.826,78.216,14.244,78.216,14.718z"/>
			</g>
			<g>
				<path fill="#191919" d="M84.693,14.718c0,1.089-1.407,1.591-2.101,0.754c-0.69-0.835,0.066-2.116,1.131-1.92
					C84.278,13.655,84.693,14.153,84.693,14.718z"/>
				<path fill="#676766" d="M84.495,14.718c0,0.905-1.17,1.326-1.748,0.631c-0.574-0.693,0.045-1.757,0.93-1.604
					C84.144,13.826,84.495,14.244,84.495,14.718z"/>
			</g>
			<g>
				<path fill="#191919" d="M84.693,26.37c0,1.089-1.407,1.592-2.101,0.754c-0.69-0.834,0.066-2.116,1.131-1.92
					C84.278,25.307,84.693,25.805,84.693,26.37z"/>
				<path fill="#676766" d="M84.495,26.37c0,0.905-1.17,1.327-1.748,0.631c-0.574-0.692,0.045-1.757,0.93-1.604
					C84.144,25.477,84.495,25.896,84.495,26.37z"/>
			</g>
		</g>
		<path fill="#545553" d="M75.993,10.209c-0.211,0-0.466,0.042-0.635-0.111c-0.133-0.119-0.143-0.272-0.143-0.436
			c0-0.428,0-0.855,0-1.283c0-0.373,0.007-0.748,0-1.122c-0.006-0.235-0.096-0.448-0.297-0.582c-0.186-0.123-0.387-0.11-0.597-0.11
			c-0.449,0-1.08-0.113-1.305,0.395c-0.123,0.277-0.056,0.688-0.056,0.981c0,0.481,0,0.964,0,1.445c0,0.349,0.04,0.8-0.443,0.823
			c-0.291,0.015-0.561-0.024-0.824,0.141c-0.279,0.178-0.422,0.477-0.428,0.801c-0.007,0.407,0,0.814,0,1.221h5.643
			c0-0.366,0-0.733,0-1.1c0-0.201-0.01-0.392-0.106-0.574C76.646,10.4,76.329,10.209,75.993,10.209z"/>
	</g>
	<path fill="#545553" d="M71.497,0.644l-0.523,0.228c-1.428,0.621-2.08,2.281-1.459,3.708l1.302,2.993
		c0.622,1.427,2.282,2.08,3.708,1.459l0.523-0.228c1.428-0.621,2.08-2.282,1.459-3.708l-1.303-2.993
		C74.583,0.676,72.923,0.022,71.497,0.644z M75.497,5.194c0.445,1.023-0.023,2.214-1.047,2.659l-0.213,0.093
		c-1.023,0.445-2.215-0.022-2.66-1.047l-1.053-2.417c-0.445-1.023,0.023-2.215,1.047-2.66l0.213-0.093
		c1.023-0.445,2.215,0.023,2.66,1.047L75.497,5.194z"/>
	<path fill="#545553" d="M50.581,2.207l-0.408-0.397c-1.115-1.086-2.899-1.062-3.985,0.052L43.91,4.2
		c-1.085,1.114-1.062,2.898,0.053,3.984l0.409,0.398c1.115,1.086,2.898,1.062,3.984-0.053l2.277-2.339
		C51.72,5.077,51.696,3.292,50.581,2.207z M47.884,7.631c-0.779,0.8-2.059,0.816-2.859,0.037l-0.166-0.161
		c-0.799-0.779-0.816-2.059-0.037-2.858l1.84-1.889c0.779-0.8,2.059-0.816,2.857-0.038l0.166,0.162
		c0.801,0.778,0.817,2.059,0.039,2.858L47.884,7.631z"/>
	<path fill="#545553" d="M65.121,2.95l-0.088-0.564c-0.239-1.537-1.679-2.59-3.218-2.352l-3.225,0.502
		C57.053,0.775,56,2.215,56.239,3.752l0.088,0.564c0.238,1.538,1.68,2.59,3.217,2.352l3.226-0.502
		C64.308,5.928,65.36,4.488,65.121,2.95z M59.706,5.666c-1.104,0.171-2.137-0.584-2.309-1.687L57.362,3.75
		c-0.172-1.103,0.584-2.136,1.687-2.308l2.605-0.405c1.103-0.171,2.136,0.584,2.308,1.687l0.035,0.229
		c0.172,1.103-0.583,2.136-1.686,2.308L59.706,5.666z"/>
	<path fill="#545553" d="M63.036,3.181c0.007-0.575,0.656-0.482,1.043-0.482c0.66,0,1.319,0,1.98,0c1.543,0,3.087,0,4.631,0
		c0.201,0,0.402,0,0.604,0c0.176,0,0.343-0.004,0.484,0.126c0.343,0.312,0.082,0.825-0.344,0.84c-0.126,0.004-0.254,0-0.38,0
		c-1.451,0-2.902,0-4.354,0c-0.737,0-1.475,0-2.212,0c-0.322,0-0.648,0.015-0.969,0C63.257,3.653,63.036,3.454,63.036,3.181z"/>
	<path fill="#545553" d="M49.44,4.532c-0.044-0.574,0.611-0.538,0.996-0.571c0.658-0.058,1.315-0.114,1.973-0.171
		c1.538-0.133,3.076-0.267,4.614-0.399c0.2-0.018,0.401-0.034,0.603-0.052c0.174-0.016,0.34-0.033,0.493,0.084
		c0.368,0.281,0.153,0.814-0.271,0.866c-0.125,0.016-0.252,0.021-0.379,0.033c-1.445,0.125-2.891,0.25-4.337,0.375
		c-0.735,0.063-1.47,0.127-2.204,0.19c-0.32,0.027-0.645,0.07-0.965,0.083C49.7,4.981,49.464,4.802,49.44,4.532z"/>
</g>
</svg>
