<?xml version="1.0" encoding="utf-8"?>
<!-- Generator: Adobe Illustrator 15.0.0, SVG Export Plug-In . SVG Version: 6.00 Build 0)  -->
<!DOCTYPE svg PUBLIC "-//W3C//DTD SVG 1.1//EN" "http://www.w3.org/Graphics/SVG/1.1/DTD/svg11.dtd">
<svg version="1.1" id="Layer_1" xmlns="http://www.w3.org/2000/svg" xmlns:xlink="http://www.w3.org/1999/xlink" x="0px" y="0px"
	 width="239.996px" height="114.44px" viewBox="0 0 239.996 114.44" enable-background="new 0 0 239.996 114.44"
	 xml:space="preserve">
<g id="g3333_2_" transform="translate(-178 12.959)">
	<path id="path3171_2_" fill="#192D18" d="M342.441,62.099l2.223,6.667h-2.223l-4.443-6.667"/>
	<g id="g3203_2_" transform="matrix(.928 -.37258 .37258 .928 21.447 103.73)">
		<g id="path3187_2_">
			<polygon fill="#292929" points="382.779,31.795 389.445,30.614 390.423,51.794 390.911,54.781 388.688,54.017 387.221,51.794 
				388.133,49.572 			"/>
		</g>
		<g id="path3201_2_">
			<polygon fill="#292929" points="396.611,73.297 389.974,74.635 388.496,53.485 387.937,50.511 390.175,51.221 391.694,53.408 
				390.837,55.652 			"/>
		</g>
	</g>
	<path id="path2399_2_" fill="#224822" d="M229.109,82.099c0,0-7.91,6.715-6.666,9.48c1.244,2.732,13.445,1.873,13.445,1.873
		l13.221-0.242v4.444l71.111-24.444l79.998-35.555c6.666-2.223,17.777-40,17.777-40l-8.889,2.223L386.885,33.21l-62.221,20
		l-22.223-15.555l0.912-1.486c-11.578,1.445-22.555,3.579-32.266,7.239c0.355,0.827,1.289,1.009,2.465,0.913l-2.221,8.889
		l4.443,4.445l-4.443,8.889l-13.334,6.666l-20,11.111l-4.443-2.223H229.109L229.109,82.099z"/>
	<path id="path3173_2_" fill="none" stroke="#010101" stroke-linecap="round" stroke-linejoin="round" d="M314.375,63.87
		l0.867,4.493"/>
	<path id="path3175_2_" fill="#1B361B" d="M235.777,93.21c0.443-0.456,9.465-1.329,13.332,0c0.312,1.482,0.422,2.962,0,4.444
		c-2.223,2.772-10.289,3.809-11.111,2.222C237.043,97.654,236.799,96.265,235.777,93.21z"/>
	
		<linearGradient id="path3177_1_" gradientUnits="userSpaceOnUse" x1="213.4111" y1="419.3525" x2="214.9053" y2="419.3525" gradientTransform="matrix(5.6667 0 0 -5.6667 -977.5824 2473.5859)">
		<stop  offset="0" style="stop-color:#101D11"/>
		<stop  offset="1" style="stop-color:#1B361B"/>
	</linearGradient>
	<path id="path3177_2_" fill="url(#path3177_1_)" d="M239.533,95.015c-2.246,1.373-4.734,2.157-7.779,2.64l0.422,1.804
		c2.645-0.591,5.223-1.926,8.045-0.902"/>
	
		<linearGradient id="path3207_1_" gradientUnits="userSpaceOnUse" x1="229.4531" y1="428.5927" x2="223.5704" y2="426.2397" gradientTransform="matrix(5.6667 0 0 -5.6667 -977.5824 2473.5859)">
		<stop  offset="0" style="stop-color:#1B361B"/>
		<stop  offset="1" style="stop-color:#224822"/>
	</linearGradient>
	<path id="path3207_2_" fill="url(#path3207_1_)" d="M289.109,62.099h4.443c11.111,0,23.066-6.804,29.734-12.431
		c0.6-2.755-0.355-4.345-2.312-6.735c-9.643-0.833-20.754,1.389-31.865,8.056l-4.445,2.222"/>
	<path id="path3225_2_" fill="none" stroke="#010101" stroke-linecap="round" stroke-linejoin="round" d="M291.332,52.481l2.221-0.8
		"/>
	<path id="path3227_2_" fill="none" stroke="#010101" stroke-linecap="round" stroke-linejoin="round" d="M293.553,60.259
		l2.957-0.833"/>
	<path id="path3229_2_" fill="none" stroke="#010101" stroke-linecap="round" stroke-linejoin="round" d="M301.531,49.668
		l0.488,1.32"/>
	<path id="path3231_2_" fill="none" stroke="#010101" stroke-linecap="round" stroke-linejoin="round" d="M292.643,55.433
		l1.822-0.693l0.555,2.014l-1.467,0.484L292.643,55.433z"/>
	<path id="path3233_2_" fill="#192D18" d="M362.441,48.766h13.334l6.666-2.222H371.33L362.441,48.766z"/>
	<path id="path3235_2_" fill="none" stroke="#010101" stroke-width="0.5" stroke-linecap="round" stroke-linejoin="round" d="
		M266.887,90.987c-0.377,1.667-0.443,3.334-0.443,5"/>
	<path id="path3237_2_" fill="none" stroke="#010101" stroke-width="0.5" stroke-linecap="round" stroke-linejoin="round" d="
		M275.775,86.543c3,2.315,4.623,6.235,5.689,10.765"/>
	<path id="path3239_2_" fill="none" stroke="#010101" stroke-width="0.5" stroke-linecap="round" stroke-linejoin="round" d="
		M293.553,82.099v5.383"/>
	<path id="path3241_2_" fill="none" stroke="#010101" stroke-width="0.5" stroke-linecap="round" stroke-linejoin="round" d="
		M303.043,77.654c2.934,3.312,4.51,7.233,5.221,11.562"/>
	<path id="path3243_2_" fill="none" stroke="#010101" stroke-width="0.5" stroke-linecap="round" stroke-linejoin="round" d="
		M313.553,87.063c-0.4,0.193-2.066,1.051-4.488,1.875c-8.955,3.071-28.801,9.256-37.732,11.752
		c-1.578,0.441-4.445,0.699-5.689,0.435"/>
	<path id="path3245_2_" fill="none" stroke="#010101" stroke-width="0.5" stroke-linecap="round" stroke-linejoin="round" d="
		M250.666,99.356c2.355,0.465,4.377,0.053,6.355-0.486l37.6-11.703c1.666-0.521,2.934-1.119,4.133-1.735"/>
	
		<linearGradient id="path3247_1_" gradientUnits="userSpaceOnUse" x1="224.6431" y1="423.1162" x2="223.1764" y2="424.4028" gradientTransform="matrix(5.6667 0 0 -5.6667 -977.5824 2473.5859)">
		<stop  offset="0" style="stop-color:#1B361B"/>
		<stop  offset="1" style="stop-color:#224822"/>
	</linearGradient>
	<path id="path3247_2_" fill="url(#path3247_1_)" d="M285.844,67.792c6.311-0.195,12.621-0.359,18.754,0.35
		c0.844,1.082,0.666,1.938,0.623,2.846c0.91-0.453,1.799-0.995,2.711-0.555c2.266,3.5,1.555,5.354,0.977,7.64l-23.822,5.275
		c-2.244-2.763-2.244-5.458-0.221-7.083c2.689-1.344,4.6-2.566,4.865-4.098l-5.066,0.21
		C283.932,70.724,283.309,69.083,285.844,67.792z"/>
	<path id="path3249_2_" fill="none" stroke="#383938" stroke-width="0.5" stroke-linecap="round" stroke-linejoin="round" d="
		M320.576,43.349c1.645,1.42,2.398,3.467,2.221,6.182"/>
	<path id="path3265_2_" fill="#454545" stroke="#383938" stroke-width="0.5" stroke-linecap="round" stroke-linejoin="round" d="
		M284.775,76.612c1.578-0.045,2,6.291,0.379,6.355C283.531,83.03,283.197,76.659,284.775,76.612z"/>
	<path id="path3267_2_" fill="none" stroke="#383938" stroke-width="0.5" stroke-linecap="round" stroke-linejoin="round" d="
		M307.332,70.675c1.666,1.42,1.91,3.57,1.711,6.286"/>
	<path id="path3279_2_" fill="none" stroke="#494949" stroke-width="0.5" stroke-linecap="round" stroke-linejoin="round" d="
		M289.064,75.814l22.199-4.202"/>
	<path id="path3277_2_" fill="none" stroke="#282828" stroke-width="0.5" stroke-linecap="round" stroke-linejoin="round" d="
		M289.354,75.015l22.244-4.409"/>
	<path id="path3269_2_" fill="none" stroke="#494949" stroke-width="0.5" stroke-linecap="round" stroke-linejoin="round" d="
		M289.486,74.183l22.199-4.201"/>
	<path id="path3275_2_" fill="none" stroke="#282828" stroke-width="0.5" stroke-linecap="round" stroke-linejoin="round" d="
		M289.664,76.475l22.512-4.444"/>
	<path id="path3271_2_" fill="none" stroke="#494949" stroke-width="0.5" stroke-linecap="round" stroke-linejoin="round" d="
		M289.977,75.642l22.465-4.271"/>
	<path id="path3273_2_" fill="none" stroke="#494949" stroke-width="0.5" stroke-linecap="round" stroke-linejoin="round" d="
		M312.754,72.618c-0.111,0-22.09,4.412-22.09,4.412"/>
	<path id="path3281_2_" fill="none" stroke="#282828" stroke-linecap="round" stroke-linejoin="round" d="M281.531,40.155
		l-2.689-11.459"/>
	<g id="path3283_2_">
		<polygon fill="#454545" points="278.91,30.155 264.666,33.21 262.443,32.238 178,55.434 262.443,38.489 264.666,35.435 
			279.176,32.309 293.553,28.768 300.221,30.989 302.441,28.768 384.664,-0.121 380.219,-2.343 304.664,22.101 295.775,22.101 
			293.553,26.545 278.91,30.156 		"/>
	</g>
	<path id="path3329_2_" fill="#32452F" stroke="#282828" stroke-width="0.4" stroke-linecap="round" stroke-linejoin="round" d="
		M243.064,68.001c-1.266,0.26-2.221,1.367-2.221,2.709c0,1.113,0.645,2.058,1.6,2.5l-2.711,2.223l-0.334,5.526l0.822,2.096
		l7.912-4.438l0.488-2.352l-0.422-6.041l-1.801,0.556V70.71c0-1.533-1.244-2.709-2.777-2.709
		C243.422,68.001,243.242,67.966,243.064,68.001z"/>
	<path id="path3331_2_" fill="#676767" d="M236.266,78.593l-6.045,1.283l-1.111,2.223h4.445l4.443,2.223l2.602-1.146l4.91-3.299
		L236.266,78.593z"/>
	<path id="path3327_2_" fill="#676767" d="M271.332,53.21l-2.979,1.146l0.09,4.93l-4.156,3.96l1.689,6.006l5.355-2.708l4.443-8.889
		L271.332,53.21L271.332,53.21z"/>
	<path id="path3321_2_" fill="#32452F" stroke="#282828" stroke-width="0.4" stroke-linecap="round" stroke-linejoin="round" d="
		M261.332,58.279c-1.268,0.26-2.223,1.366-2.223,2.708c0,1.113,0.645,2.059,1.6,2.5l-2.711,2.223l-1.111,6.042l1.111,1.458
		l7.867-3.947l1.021-2.719l-0.422-6.043l-1.799,0.556v-0.069c0-1.533-1.246-2.708-2.779-2.708
		C261.688,58.279,261.51,58.243,261.332,58.279z"/>
	
		<path id="path3315_2_" fill="#676767" fill-opacity="0.4" stroke="#282828" stroke-width="0.4" stroke-linecap="round" stroke-linejoin="round" d="
		M271.332,53.21c0,0-20.689,6.667-28.756,11.111c-8.043,4.444-13.467,17.777-13.467,17.777h4.445l4.443,2.223l20-11.111
		l13.334-6.666l4.443-8.889L271.332,53.21z"/>
	<path id="path3313_2_" fill="none" stroke="#282828" stroke-width="0.5" stroke-linecap="round" stroke-linejoin="round" d="
		M271.332,53.21c0,0-17.223,6.667-25.289,11.111c-8.045,4.444-13.377,17.596-13.377,17.596"/>
	<path id="path3317_2_" fill="none" stroke="#282828" stroke-width="0.4" stroke-linecap="round" stroke-linejoin="round" d="
		M242.443,64.321c4.443-2.223,11.111,4.444,15.555,8.889"/>
</g>
</svg>
