<?xml version="1.0" encoding="utf-8"?>
<!-- Generator: Adobe Illustrator 15.0.0, SVG Export Plug-In . SVG Version: 6.00 Build 0)  -->
<!DOCTYPE svg PUBLIC "-//W3C//DTD SVG 1.1//EN" "http://www.w3.org/Graphics/SVG/1.1/DTD/svg11.dtd">
<svg version="1.1" id="Layer_1" xmlns="http://www.w3.org/2000/svg" xmlns:xlink="http://www.w3.org/1999/xlink" x="0px" y="0px"
	 width="145.4px" height="86.647px" viewBox="0 0 145.4 86.647" enable-background="new 0 0 145.4 86.647" xml:space="preserve">
<g>
	<polygon fill="#D8D9D8" points="121.541,44.438 116.033,44.438 116.033,31.046 122.553,31.046 	"/>
	
		<rect x="104.833" y="17.931" transform="matrix(0.664 -0.7477 0.7477 0.664 17.5 87.2922)" fill="#787878" width="2.1" height="12.484"/>
	<rect x="39.843" y="47.139" fill="#787878" width="28.522" height="3.646"/>
	<path fill="#1C1C1C" d="M53.067,69.461c5.144,0,10.288,0,15.431,0c0.625,0,1.248,0,1.872,0c0.153,0,0.5,0.076,0.635-0.008
		c0.154-0.098,0.223-0.5,0.274-0.654c0.392-1.172,0.854-2.324,1.283-3.482c0.894-2.408,1.786-4.817,2.681-7.228
		c0.98-2.645,1.961-5.292,2.941-7.936c-4.864-0.02-9.729-0.039-14.593-0.059c-4.854-0.02-9.707-0.04-14.56-0.059
		c-2.575-0.011-5.157-0.022-7.727-0.032c3.078,5.092,6.157,10.183,9.235,15.275C51.381,66.673,52.224,68.066,53.067,69.461
		C53.745,69.461,53.06,69.45,53.067,69.461z"/>
	<g>
		<path fill="#4A4A4A" d="M126.331,52.243c-7.065,0-13.577,4.484-16.095,11.083c-1.341,3.514-1.485,7.463-0.408,11.066
			c0.967,3.233,2.906,6.158,5.502,8.317c5.604,4.657,13.811,5.248,20.02,1.423c2.846-1.755,5.162-4.346,6.582-7.373
			c1.577-3.365,2.014-7.236,1.246-10.872c-1.434-6.79-7.031-12.193-13.867-13.389C128.327,52.327,127.328,52.243,126.331,52.243z
			 M126.331,80.62c-4.516,0-8.748-2.891-10.396-7.095c-1.692-4.318-0.416-9.444,3.076-12.488c3.624-3.155,9.135-3.596,13.213-1.053
			c3.92,2.445,5.982,7.284,5.021,11.806c-0.92,4.328-4.516,7.828-8.863,8.643C127.706,80.558,127.018,80.62,126.331,80.62z"/>
		<path fill="#9E9E9E" d="M126.331,56.816c-5.167,0-9.934,3.268-11.798,8.084c-1.938,5.007-0.41,10.848,3.707,14.279
			c4.139,3.45,10.213,3.868,14.783,1.012c4.457-2.785,6.767-8.198,5.682-13.344c-1.061-5.027-5.217-9.013-10.283-9.859
			C127.73,56.872,127.031,56.816,126.331,56.816z M126.331,80.62c-4.516,0-8.748-2.891-10.396-7.095
			c-1.692-4.318-0.416-9.444,3.076-12.488c3.624-3.155,9.135-3.596,13.213-1.053c3.92,2.445,5.982,7.284,5.021,11.806
			c-0.92,4.328-4.516,7.828-8.863,8.643C127.706,80.558,127.018,80.62,126.331,80.62z"/>
		
			<rect x="124.377" y="57.016" transform="matrix(0.9656 -0.2601 0.2601 0.9656 -12.1532 34.6467)" fill="#9E9E9E" width="0.886" height="12.446"/>
		
			<rect x="122.11" y="58.067" transform="matrix(0.7925 -0.6098 0.6098 0.7925 -13.7805 88.0725)" fill="#9E9E9E" width="0.887" height="12.446"/>
		
			<rect x="120.418" y="59.907" transform="matrix(0.4989 -0.8667 0.8667 0.4989 3.2547 137.8886)" fill="#9E9E9E" width="0.887" height="12.446"/>
		
			<rect x="119.559" y="62.253" transform="matrix(0.1277 -0.9918 0.9918 0.1277 36.7645 178.7524)" fill="#9E9E9E" width="0.887" height="12.446"/>
		
			<rect x="119.664" y="64.75" transform="matrix(-0.2601 -0.9656 0.9656 -0.2601 82.8223 205.4068)" fill="#9E9E9E" width="0.886" height="12.445"/>
		
			<rect x="120.716" y="67.016" transform="matrix(-0.6097 -0.7927 0.7927 -0.6097 136.971 213.928)" fill="#9E9E9E" width="0.886" height="12.446"/>
		
			<rect x="122.555" y="68.707" transform="matrix(-0.8667 -0.4989 0.4989 -0.8667 192.2189 201.2302)" fill="#9E9E9E" width="0.887" height="12.446"/>
		
			<rect x="124.901" y="69.566" transform="matrix(-0.9917 -0.1288 0.1288 -0.9917 239.8862 167.0873)" fill="#9E9E9E" width="0.887" height="12.446"/>
		
			<rect x="127.398" y="69.461" transform="matrix(-0.9656 0.2599 -0.2599 -0.9656 270.9579 115.548)" fill="#9E9E9E" width="0.887" height="12.446"/>
		
			<rect x="129.665" y="68.41" transform="matrix(-0.7921 0.6103 -0.6103 -0.7921 278.7227 54.3406)" fill="#9E9E9E" width="0.886" height="12.446"/>
		
			<rect x="131.356" y="66.57" transform="matrix(-0.4976 0.8674 -0.8674 -0.4976 260.5207 -5.3139)" fill="#9E9E9E" width="0.887" height="12.447"/>
		
			<rect x="132.215" y="64.223" transform="matrix(-0.1278 0.9918 -0.9918 -0.1278 219.4849 -52.1178)" fill="#9E9E9E" width="0.886" height="12.448"/>
		
			<rect x="132.11" y="61.727" transform="matrix(0.2599 0.9656 -0.9656 0.2599 163.7249 -77.7072)" fill="#9E9E9E" width="0.887" height="12.447"/>
		
			<rect x="131.059" y="59.46" transform="matrix(0.6103 0.7921 -0.7921 0.6103 103.2695 -78.5735)" fill="#9E9E9E" width="0.886" height="12.446"/>
		
			<rect x="129.219" y="57.77" transform="matrix(0.8664 0.4993 -0.4993 0.8664 49.2763 -56.1965)" fill="#9E9E9E" width="0.886" height="12.446"/>
		
			<rect x="126.872" y="56.912" transform="matrix(0.9915 0.1299 -0.1299 0.9915 9.2764 -15.9983)" fill="#9E9E9E" width="0.887" height="12.445"/>
		<path fill="#9E9E9E" d="M130.555,69.461c0,1.723-1.113,3.334-2.721,3.948c-1.662,0.635-3.627,0.112-4.76-1.258
			c-1.159-1.402-1.276-3.49-0.275-5.008c0.975-1.477,2.854-2.214,4.569-1.778C129.205,65.832,130.555,67.567,130.555,69.461z"/>
	</g>
	<g>
		<path fill="#4A4A4A" d="M32.223,52.243c-7.064,0-13.576,4.484-16.094,11.083c-1.341,3.514-1.486,7.463-0.409,11.066
			c0.967,3.233,2.907,6.158,5.502,8.317c5.604,4.657,13.812,5.248,20.02,1.423c2.846-1.755,5.162-4.346,6.582-7.373
			c1.577-3.365,2.015-7.236,1.247-10.872c-1.435-6.79-7.032-12.193-13.868-13.389C34.219,52.327,33.221,52.243,32.223,52.243z
			 M32.223,80.62c-4.516,0-8.748-2.891-10.396-7.095c-1.692-4.318-0.417-9.444,3.077-12.488c3.624-3.155,9.134-3.596,13.211-1.053
			c3.922,2.445,5.984,7.284,5.023,11.806c-0.92,4.328-4.516,7.828-8.864,8.643C33.599,80.558,32.91,80.62,32.223,80.62z"/>
		<path fill="#9E9E9E" d="M32.223,56.816c-5.167,0-9.933,3.268-11.798,8.084c-1.938,5.007-0.41,10.848,3.707,14.279
			c4.14,3.45,10.213,3.868,14.785,1.012c4.455-2.785,6.765-8.198,5.68-13.344c-1.06-5.027-5.216-9.013-10.283-9.859
			C33.623,56.872,32.922,56.816,32.223,56.816z M32.223,80.62c-4.516,0-8.748-2.891-10.396-7.095
			c-1.692-4.318-0.417-9.444,3.077-12.488c3.624-3.155,9.134-3.596,13.211-1.053c3.922,2.445,5.984,7.284,5.023,11.806
			c-0.92,4.328-4.516,7.828-8.864,8.643C33.599,80.558,32.91,80.62,32.223,80.62z"/>
		
			<rect x="30.268" y="57.016" transform="matrix(0.9656 -0.2599 0.2599 0.9656 -15.3779 10.153)" fill="#9E9E9E" width="0.887" height="12.446"/>
		
			<rect x="28.002" y="58.067" transform="matrix(0.7921 -0.6103 0.6103 0.7921 -33.3266 30.7253)" fill="#9E9E9E" width="0.886" height="12.446"/>
		
			<rect x="26.31" y="59.907" transform="matrix(0.4985 -0.8669 0.8669 0.4985 -43.911 56.3604)" fill="#9E9E9E" width="0.887" height="12.446"/>
		
			<rect x="25.451" y="62.253" transform="matrix(0.1288 -0.9917 0.9917 0.1288 -45.3453 85.3369)" fill="#9E9E9E" width="0.887" height="12.446"/>
		
			<rect x="25.556" y="64.749" transform="matrix(-0.2606 -0.9654 0.9654 -0.2606 -35.7434 114.5711)" fill="#9E9E9E" width="0.886" height="12.447"/>
		
			<rect x="26.608" y="67.016" transform="matrix(-0.61 -0.7924 0.7924 -0.61 -14.4821 139.3499)" fill="#9E9E9E" width="0.886" height="12.446"/>
		
			<rect x="28.447" y="68.707" transform="matrix(-0.8668 -0.4986 0.4986 -0.8668 16.5709 154.2864)" fill="#9E9E9E" width="0.887" height="12.447"/>
		
			<rect x="30.794" y="69.566" transform="matrix(-0.9917 -0.1288 0.1288 -0.9917 52.4488 154.9702)" fill="#9E9E9E" width="0.887" height="12.446"/>
		
			<rect x="33.29" y="69.461" transform="matrix(-0.9656 0.2599 -0.2599 -0.9656 85.9749 140.0024)" fill="#9E9E9E" width="0.887" height="12.446"/>
		
			<rect x="35.556" y="68.41" transform="matrix(-0.7925 0.6098 -0.6098 -0.7925 110.0439 111.829)" fill="#9E9E9E" width="0.887" height="12.446"/>
		
			<rect x="37.248" y="66.57" transform="matrix(-0.4976 0.8674 -0.8674 -0.4976 119.5883 76.318)" fill="#9E9E9E" width="0.887" height="12.447"/>
		
			<rect x="38.107" y="64.223" transform="matrix(-0.1284 0.9917 -0.9917 -0.1284 113.363 41.2589)" fill="#9E9E9E" width="0.886" height="12.447"/>
		
			<rect x="38.002" y="61.727" transform="matrix(0.2599 0.9656 -0.9656 0.2599 94.0712 13.1681)" fill="#9E9E9E" width="0.887" height="12.447"/>
		
			<rect x="36.95" y="59.46" transform="matrix(0.6107 0.7919 -0.7919 0.6107 66.5698 -4.0401)" fill="#9E9E9E" width="0.887" height="12.447"/>
		
			<rect x="35.111" y="57.77" transform="matrix(0.8667 0.4989 -0.4989 0.8667 36.6638 -9.2055)" fill="#9E9E9E" width="0.887" height="12.446"/>
		
			<rect x="32.765" y="56.912" transform="matrix(0.9915 0.13 -0.13 0.9915 8.4892 -3.7812)" fill="#9E9E9E" width="0.886" height="12.445"/>
		<path fill="#636464" d="M36.446,69.461c0,1.723-1.112,3.334-2.721,3.948c-1.661,0.635-3.627,0.112-4.759-1.258
			c-1.159-1.402-1.277-3.49-0.274-5.008c0.974-1.477,2.853-2.214,4.569-1.778C35.096,65.832,36.446,67.567,36.446,69.461z"/>
	</g>
	<path fill="#C2C1C1" d="M8.516,69.461c9.243,0,18.486,0,27.729,0c4.55,0,9.1,0,13.649,0c0.553,0,1.105,0,1.657,0
		c0.565,0,1.162,0.057,1.723-0.015c0.793-0.099,1.376-0.737,1.45-1.524c0.043-0.462-0.103-0.93-0.208-1.373
		c-0.133-0.569-0.282-1.133-0.446-1.693c-0.305-1.04-0.664-2.064-1.079-3.065c-1.511-3.648-3.813-7.009-7.024-9.357
		c-3.372-2.467-7.462-3.482-11.599-3.493c-4.562-0.012-9.125,0-13.686,0c-2.293,0-4.606-0.091-6.897,0.004
		c-1.75,0.073-3.404,0.902-4.561,2.211c-0.657,0.743-1.098,1.639-1.588,2.496c-0.572,1.001-1.144,2-1.715,3.001
		c-1.135,1.985-2.27,3.972-3.403,5.955c-0.56,0.979-1.083,1.993-1.692,2.941c-0.473,0.737-1.003,1.439-0.758,2.364
		c0.221,0.834,0.926,1.444,1.785,1.531c1.107,0.112,2.267,0.018,3.379,0.018C6.327,69.461,7.422,69.461,8.516,69.461z"/>
	<path fill="#4A4A4A" d="M101.598,31.795l-6.885,0.939c-0.097-0.713-0.34-1.527,0.094-2.174c0.407-0.606,1.054-0.66,1.705-0.75
		c0.771-0.105,1.543-0.211,2.315-0.314c0.575-0.08,1.208-0.249,1.759,0.011C101.49,29.934,101.482,30.94,101.598,31.795z"/>
	<path fill="#C2C1C1" d="M98.765,51.438c1.927,0.136,3.881,0.09,5.806-0.067c1.836-0.147,3.676-0.424,5.443-0.952
		c1.561-0.468,3.145-1.169,4.292-2.359c1.164-1.206,1.597-2.796,1.359-4.442c-0.245-1.713-1.056-3.318-1.971-4.766
		c-0.926-1.465-1.976-2.887-3.302-4.017c-2.695-2.297-6.181-3.201-9.672-3.148c-3.685,0.06-7.324,1.045-10.74,2.375
		c-3.42,1.334-6.689,3.055-9.787,5.019c-3.087,1.959-6.069,4.166-8.659,6.754c-0.638,0.638-1.248,1.308-1.776,2.041
		c-0.398,0.552-0.943,1.241-0.913,1.963c0.035,0.819,1.125,1.003,1.768,1.112c0.932,0.158,1.896,0.105,2.83-0.004
		c1.86-0.22,3.695-0.639,5.547-0.911c1.902-0.281,3.816-0.475,5.74-0.514c3.826-0.077,7.645,0.387,11.371,1.241
		C96.995,50.966,97.883,51.191,98.765,51.438C99.273,51.474,96.824,50.898,98.765,51.438z"/>
	
		<rect x="119.931" y="39.119" transform="matrix(0.948 -0.3182 0.3182 0.948 -11.2504 41.548)" fill="#787878" width="3.219" height="32.179"/>
	
		<rect x="112.742" y="28.896" transform="matrix(0.948 -0.3184 0.3184 0.948 -5.756 38.6636)" fill="#787878" width="5.322" height="16.09"/>
	<path fill="#C2C1C1" d="M115.324,75.685c0.541-2.649,1-5.334,1.636-7.962c0.536-2.216,2.067-4.105,4.126-5.087
		c2.209-1.053,4.741-0.761,7.116-0.757c2.724,0.004,5.446,0,8.169,0c3.01,0,6.02,0,9.029,0c-1.687-4.237-4.801-7.848-8.737-10.15
		c-4.235-2.476-9.327-3.348-14.147-2.43c-4.623,0.881-8.859,3.394-11.887,6.993c-3.107,3.695-4.843,8.433-4.82,13.264
		c0.003,0.646,0.036,1.291,0.1,1.934c0.061,0.603,0.178,1.207,0.16,1.814c-0.016,0.576-0.187,1.132-0.516,1.607
		c-0.123,0.178-0.301,0.362-0.281,0.596c0.021,0.228,0.195,0.357,0.406,0.385c0.591,0.076,1.264-0.026,1.859-0.04
		c0.645-0.013,1.29-0.027,1.936-0.041c1.311-0.027,2.623-0.058,3.935-0.085C114.046,75.712,114.686,75.699,115.324,75.685
		C115.814,73.291,115.236,75.687,115.324,75.685z"/>
	<path fill="#1C1C1C" d="M33.121,45.665c-5.066,0-10.133,0-15.199,0c-2.544,0-5.091,0-7.636,0c-0.626,0-1.253,0-1.878,0
		c-0.514,0-1.165,0.109-1.66-0.049c-0.487-0.158-0.609-0.619-0.618-1.085c-0.012-0.579,0.022-1.162,0.022-1.743
		c0-1.271,0.001-2.544,0-3.817c0-1.047-0.015-2.114,0.763-2.922c0.771-0.803,1.747-0.744,2.777-0.744c1.275,0.002,2.551,0,3.826,0
		c5.082,0,10.163,0,15.244,0c0.643,0,1.286,0.002,1.928-0.001c0.524-0.001,1.058-0.04,1.559,0.142
		c0.993,0.356,1.539,1.287,1.648,2.299c0.126,1.168,0.035,2.385,0.035,3.56c0,0.658,0,1.317,0,1.976
		c0,0.541,0.082,1.149-0.045,1.678C33.796,45.34,33.544,45.665,33.121,45.665z"/>
	<path fill="#4A4A4A" d="M102.361,20.338c0,0.945-0.672,1.812-1.59,2.039c-0.934,0.232-1.948-0.225-2.385-1.083
		c-0.729-1.425,0.492-3.209,2.082-3.048C101.521,18.353,102.361,19.278,102.361,20.338z"/>
	<path fill="#1C1C1C" d="M66.791,48.75c2.003,0.037,3.614-1.915,3.095-3.87c-0.252-0.951-0.931-1.887-1.84-2.306
		c-1.179-0.542-2.603,0.053-3.733,0.449c-2.467,0.865-5,1.486-7.617,1.652c-2.509,0.16-5.08-0.034-7.542-0.534
		c-2.46-0.499-4.804-1.374-6.932-2.714c-0.964-0.608-2.116-1.716-3.321-1.093c-0.978,0.503-1.8,1.472-2.192,2.493
		c-0.4,1.043-0.243,2.194,0.557,3.004c0.763,0.77,1.834,1.146,2.871,1.379c2.586,0.58,5.278,0.684,7.916,0.853
		c5.535,0.356,11.082,0.521,16.625,0.644C65.382,48.722,66.086,48.736,66.791,48.75z"/>
	<g>
		<path fill="#EAEAEA" d="M13.305,39.726c0,1.116-1.026,1.339-1.931,1.339v1.435H10.52v-4.031h1.287
			C12.617,38.468,13.305,38.838,13.305,39.726z M11.375,40.364h0.281c0.483,0,1.042-0.403,0.704-0.935
			c-0.205-0.322-0.655-0.263-0.985-0.263V40.364z"/>
		<path fill="#EAEAEA" d="M17.725,40.478c0,0.86-0.369,1.734-1.254,1.992c-0.799,0.232-1.804,0.049-2.271-0.694
			c-0.447-0.713-0.458-1.806-0.037-2.533c0.431-0.745,1.402-0.967,2.199-0.783C17.299,38.678,17.725,39.579,17.725,40.478z
			 M14.783,40.478c0,0.611,0.27,1.343,0.981,1.364c0.793,0.025,1.065-0.687,1.065-1.364c0-0.678-0.268-1.392-1.061-1.368
			C15.056,39.133,14.783,39.865,14.783,40.478z"/>
		<path fill="#EAEAEA" d="M18.56,42.499v-4.031h0.855v3.324h1.636v0.707H18.56z"/>
		<path fill="#EAEAEA" d="M21.751,42.499v-4.031h0.854v4.031H21.751z"/>
		<path fill="#EAEAEA" d="M25.333,39.12c-0.915,0-1.118,1.092-0.985,1.806c0.197,1.06,1.19,0.994,2.013,0.705
			c0,0.237,0,0.478,0,0.717c-0.762,0.317-1.835,0.356-2.434-0.305c-0.547-0.607-0.602-1.646-0.359-2.394
			c0.289-0.885,1.118-1.327,2.023-1.225c0.214,0.024,0.425,0.074,0.628,0.146c0.145,0.051,0.255,0.064,0.268,0.186
			c0.018,0.161-0.188,0.477-0.25,0.632C25.956,39.254,25.65,39.12,25.333,39.12z"/>
		<path fill="#EAEAEA" d="M29.541,42.499h-2.322v-4.031h2.322v0.699h-1.467v0.887h1.365v0.699h-1.365v1.039h1.467V42.499z"/>
	</g>
	<path fill="#1C1C1C" d="M3.991,38.538h2.175v3.972c-0.369,0-0.737-0.005-1.105,0c-0.338,0.002-0.685,0.055-1.023,0.016
		c-0.649-0.073-0.776-0.519-0.779-1.097c-0.003-0.656-0.032-1.32,0.006-1.976C3.29,38.99,3.45,38.538,3.991,38.538z"/>
	<rect x="3.726" y="29.766" fill="#1C1C1C" width="1.975" height="9.24"/>
	<rect x="4.054" y="9.28" fill="#1C1C1C" width="1.213" height="21.093"/>
	<path fill="#C7DBF1" d="M108.503,0.037c2.226,2.043,4.255,4.336,6.13,6.701c1.809,2.28,3.467,4.695,4.846,7.262
		c1.361,2.533,2.441,5.256,2.857,8.116c0.393,2.702,0.303,5.795-1.92,7.71c-1.061,0.916-2.414,1.578-3.664,2.194
		c-1.318,0.65-2.703,1.219-4.158,1.473c-1.926,0.335-4.812,0.023-5.626-2.118c-0.917-2.409,1.938-4.712,3.642-5.89
		c0.299-0.207,0.604-0.408,0.92-0.587c0.275-0.154,0.621-0.274,0.858-0.483c0.428-0.38,0.317-1.121,0.257-1.622
		c-0.184-1.541-0.63-3.042-1.07-4.525c-0.89-2.996-1.933-5.942-2.867-8.924c-0.461-1.469-0.892-2.947-1.224-4.449
		c-0.166-0.749-0.325-1.506-0.401-2.27c-0.062-0.618-0.104-1.315,0.107-1.911C107.398,0.123,107.904-0.095,108.503,0.037
		C109.633,1.073,108.254-0.017,108.503,0.037z"/>
	<rect x="13.484" y="45.676" fill="#4A4A4A" width="18.742" height="3.286"/>
	<path fill="#676767" d="M102.584,53.428l-3.049-1.222c-1.07-0.43-2.219-0.65-3.379-0.65h-2.454c-0.282,0-0.538,0.161-0.651,0.41
		l-0.24,0.536c-0.124,0.275-0.406,0.454-0.719,0.454H90.6c-0.295,0-0.566-0.161-0.699-0.416l-0.318-0.609
		c-0.12-0.23-0.365-0.375-0.634-0.375h-1.612c-1.475,0-2.942,0.174-4.373,0.518l-3.388,0.816c-1.081,0.261-1.474,1.543-0.71,2.324
		c0.083,0.6,0.161,1.2,0.251,1.797c0.087,0.575,0.179,1.15,0.086,1.73c-0.132,0.822-0.574,1.569-1.226,2.088
		c-0.671,0.533-1.492,0.778-2.342,0.785c-0.275,0.003-0.551,0.001-0.827,0.001c-0.161-0.001-0.321-0.001-0.483-0.001
		c-0.079,0-0.354-0.044-0.413,0.001c-0.027,0.019-0.032,0.099-0.048,0.127c-0.147,0.263-0.222,0.599-0.326,0.878
		c-0.181,0.485-0.36,0.969-0.54,1.454c-0.421,1.131-0.842,2.264-1.264,3.398c-0.252,0.678-0.505,1.357-0.757,2.037h31.452
		l1.431-14.03C103.949,54.601,103.432,53.768,102.584,53.428z"/>
	<path fill="#C2C1C1" d="M122.363,26.31c0.363-2.464-0.007-5.021-0.822-7.532c-0.816-0.283-0.959,0.869-1.023,1.407
		c-0.143,1.189-0.057,2.54-0.624,3.633c-0.595,1.149-2.196,1.107-3.314,1.062c-1.368-0.055-2.747-0.287-4.081-0.591
		c-0.203,0.318-0.647,0.429-0.961,0.603c-0.5,0.279-0.977,0.615-1.434,0.959c-0.84,0.632-1.633,1.351-2.277,2.182
		c-0.574,0.744-1.088,1.659-1.018,2.631c0.072,0.995,0.781,1.77,1.6,2.267c1.918,1.168,4.361,0.688,6.35-0.038
		c1.039-0.38,2.033-0.866,3.004-1.392c0.912-0.491,1.847-0.977,2.639-1.655c0.821-0.703,1.439-1.634,1.764-2.666
		c0.172-0.546,0.235-1.114,0.318-1.677c-0.059,0.403-0.118,0.806-0.178,1.21C122.324,26.576,122.344,26.443,122.363,26.31
		C122.727,23.846,122.122,27.956,122.363,26.31z"/>
	<path fill="#898989" d="M95.004,64.016c0,1.427-0.932,2.763-2.271,3.254c-1.393,0.511-3.025,0.04-3.933-1.131
		c-0.906-1.17-0.959-2.869-0.116-4.086c0.816-1.181,2.348-1.755,3.736-1.389C93.911,61.059,95.004,62.473,95.004,64.016z"/>
	<path fill="#AEAEAE" d="M93.097,64.016c0,1.83-2.837,2.092-3.097,0.241c-0.109-0.786,0.434-1.593,1.215-1.766
		C92.164,62.282,93.097,63.047,93.097,64.016z"/>
	<rect x="1.487" y="7.6" fill="#AEAEAE" width="6.346" height="1.681"/>
	<polygon fill="#E0374F" points="7.108,3.414 4.66,3.414 2.213,3.414 0.882,5.585 0.882,6.773 1.487,7.6 4.66,7.6 7.833,7.6 
		8.438,6.773 8.438,5.585 	"/>
	<path fill="#CE294A" d="M5.281,4.896c-0.803,0-1.849-0.183-2.38,0.588C2.655,5.841,2.617,6.292,2.616,6.712
		c0,0.15-0.054,0.821,0.049,0.888c0.066,0.044,0.309,0,0.386,0c0.24,0,0.48,0,0.721,0c0.604,0,1.206,0,1.81,0
		c0.366,0,0.733,0,1.101,0c0-0.609,0.126-1.348-0.152-1.914C6.297,5.211,5.813,4.896,5.281,4.896z"/>
	<path fill="#787878" d="M0.723,65.749c-0.352,0.614-0.781,1.042-0.716,1.808c0.054,0.634,0.4,1.222,0.934,1.569
		c0.515,0.336,1.069,0.335,1.652,0.335c1.512,0,3.024,0,4.537,0c0.462,0,0.925,0,1.387,0h44.551c1.052,0,1.767-0.932,1.648-1.939
		c-0.134-1.162-0.531-2.351-0.89-3.461c-0.37-1.146-0.807-2.271-1.315-3.364c-0.123-0.265-0.25-0.525-0.381-0.784
		c-0.021-0.04-0.059-0.16-0.096-0.18c-0.012-0.007-0.033,0.005-0.045,0c-0.164-0.064-0.483,0-0.657,0c-0.45,0-0.901,0-1.351,0
		c-1.473,0-2.944,0-4.417,0c-2.061,0-4.12,0-6.18,0c-2.413,0-4.825,0-7.237,0c-2.523,0-5.047,0-7.569,0c-2.429,0-4.857,0-7.286,0
		c-2.092,0-4.184,0-6.275,0c-1.525,0-3.051,0-4.576,0c-0.728,0-1.455,0-2.183,0c-0.032,0-0.064,0-0.096,0L0.723,65.749z"/>
	<path fill="#2B2C2B" d="M102.849,55.142c-1.54-0.376-3.08-0.753-4.619-1.129c-0.76-0.187-1.519-0.372-2.278-0.557
		c-0.356-0.087-0.713-0.175-1.071-0.263c-0.343-0.083-0.813-0.113-1.113-0.307c-0.22-0.142-0.319-0.427-0.134-0.64
		c0.17-0.197,0.457-0.16,0.684-0.11c0.635,0.134,1.264,0.327,1.893,0.48c1.496,0.367,2.992,0.731,4.488,1.099
		c0.699,0.17,1.412,0.308,2.105,0.493c0.216,0.057,0.494,0.145,0.569,0.384C103.471,54.903,103.161,55.219,102.849,55.142z"/>
	<path fill="#2B2C2B" d="M102.461,56.729c-1.54-0.375-3.08-0.753-4.619-1.128c-0.76-0.186-1.52-0.372-2.278-0.558
		c-0.356-0.088-0.715-0.175-1.071-0.261c-0.344-0.084-0.814-0.115-1.114-0.308c-0.22-0.142-0.319-0.427-0.134-0.642
		c0.17-0.194,0.457-0.158,0.685-0.11c0.634,0.136,1.262,0.329,1.893,0.483c1.496,0.365,2.992,0.731,4.487,1.097
		c0.699,0.171,1.412,0.309,2.105,0.493c0.216,0.058,0.494,0.146,0.57,0.384C103.082,56.493,102.771,56.808,102.461,56.729z"/>
	<path fill="#2B2C2B" d="M102.072,58.318c-1.54-0.376-3.08-0.753-4.619-1.129c-0.76-0.185-1.52-0.371-2.277-0.557
		c-0.357-0.087-0.715-0.175-1.072-0.263c-0.343-0.083-0.814-0.113-1.113-0.307c-0.219-0.141-0.32-0.427-0.135-0.64
		c0.17-0.197,0.457-0.16,0.685-0.11c0.634,0.135,1.263,0.328,1.894,0.481c1.495,0.366,2.991,0.731,4.487,1.098
		c0.698,0.171,1.411,0.308,2.105,0.493c0.216,0.059,0.493,0.146,0.569,0.384C102.694,58.081,102.385,58.396,102.072,58.318z"/>
	<path fill="#2B2C2B" d="M101.684,59.907c-1.539-0.376-3.08-0.752-4.619-1.129c-0.76-0.186-1.518-0.37-2.277-0.558
		c-0.357-0.086-0.715-0.174-1.072-0.261c-0.343-0.084-0.814-0.114-1.113-0.308c-0.219-0.142-0.319-0.427-0.134-0.642
		c0.169-0.195,0.456-0.158,0.685-0.11c0.633,0.136,1.262,0.329,1.893,0.484c1.496,0.364,2.991,0.729,4.487,1.097
		c0.699,0.17,1.411,0.308,2.105,0.493c0.216,0.057,0.493,0.146,0.569,0.384C102.306,59.668,101.996,59.984,101.684,59.907z"/>
	<path fill="#2B2C2B" d="M101.295,61.497c-1.539-0.377-3.079-0.753-4.619-1.13c-0.759-0.186-1.518-0.372-2.277-0.558
		c-0.357-0.087-0.715-0.175-1.072-0.263c-0.342-0.082-0.814-0.113-1.113-0.307c-0.219-0.141-0.319-0.426-0.133-0.64
		c0.17-0.197,0.457-0.159,0.684-0.111c0.634,0.136,1.262,0.329,1.893,0.482c1.496,0.366,2.992,0.732,4.487,1.098
		c0.698,0.171,1.411,0.308,2.106,0.493c0.215,0.058,0.493,0.146,0.568,0.384C101.918,61.258,101.607,61.573,101.295,61.497z"/>
	<path fill="#2B2C2B" d="M80,55.142c1.54-0.376,3.08-0.753,4.62-1.129c0.759-0.187,1.519-0.372,2.277-0.557
		c0.356-0.087,0.715-0.175,1.071-0.263c0.344-0.083,0.814-0.113,1.114-0.307c0.219-0.142,0.319-0.427,0.134-0.64
		c-0.17-0.197-0.457-0.16-0.686-0.11c-0.633,0.134-1.262,0.327-1.892,0.48c-1.496,0.367-2.991,0.731-4.487,1.099
		c-0.699,0.17-1.412,0.308-2.105,0.493c-0.216,0.057-0.494,0.145-0.569,0.384C79.379,54.903,79.688,55.219,80,55.142z"/>
	<path fill="#2B2C2B" d="M80.389,56.729c1.54-0.375,3.08-0.753,4.619-1.128c0.76-0.186,1.519-0.372,2.278-0.558
		c0.356-0.088,0.714-0.175,1.071-0.261c0.342-0.084,0.814-0.115,1.113-0.308c0.219-0.142,0.32-0.427,0.135-0.642
		c-0.171-0.194-0.457-0.158-0.685-0.11c-0.634,0.136-1.263,0.329-1.894,0.483c-1.495,0.365-2.991,0.731-4.486,1.097
		c-0.699,0.171-1.412,0.309-2.105,0.493c-0.216,0.058-0.494,0.146-0.57,0.384C79.767,56.493,80.078,56.808,80.389,56.729z"/>
	<path fill="#2B2C2B" d="M80.777,58.318c1.539-0.376,3.08-0.753,4.619-1.129c0.76-0.185,1.518-0.371,2.277-0.557
		c0.357-0.087,0.715-0.175,1.072-0.263c0.343-0.083,0.814-0.113,1.113-0.307c0.219-0.141,0.32-0.427,0.135-0.64
		c-0.171-0.197-0.457-0.16-0.685-0.11c-0.634,0.135-1.263,0.328-1.894,0.481c-1.496,0.366-2.991,0.731-4.487,1.098
		c-0.698,0.171-1.411,0.308-2.104,0.493c-0.217,0.059-0.494,0.146-0.57,0.384C80.154,58.081,80.467,58.396,80.777,58.318z"/>
	<path fill="#2B2C2B" d="M81.166,59.907c1.539-0.376,3.08-0.752,4.619-1.129c0.76-0.186,1.518-0.37,2.277-0.558
		c0.357-0.086,0.715-0.174,1.072-0.261c0.342-0.084,0.814-0.114,1.113-0.308c0.219-0.142,0.319-0.427,0.134-0.642
		c-0.17-0.195-0.458-0.158-0.685-0.11c-0.634,0.136-1.262,0.329-1.893,0.484c-1.496,0.364-2.992,0.729-4.488,1.097
		c-0.698,0.17-1.411,0.308-2.104,0.493c-0.216,0.057-0.494,0.146-0.569,0.384C80.543,59.668,80.854,59.984,81.166,59.907z"/>
	<path fill="#2B2C2B" d="M81.554,61.497c1.54-0.377,3.079-0.753,4.62-1.13c0.759-0.186,1.518-0.372,2.277-0.558
		c0.357-0.087,0.714-0.175,1.072-0.263c0.342-0.082,0.813-0.113,1.113-0.307c0.219-0.141,0.319-0.426,0.133-0.64
		c-0.17-0.197-0.457-0.159-0.684-0.111c-0.634,0.136-1.263,0.329-1.893,0.482c-1.496,0.366-2.992,0.732-4.488,1.098
		c-0.698,0.171-1.411,0.308-2.105,0.493c-0.215,0.058-0.494,0.146-0.568,0.384C80.932,61.258,81.242,61.573,81.554,61.497z"/>
	<rect x="114.33" y="40.186" fill="#4A4A4A" width="1.538" height="5.499"/>
	<polygon fill="#6E6D6E" points="114.33,45.685 113.101,45.135 113.101,40.735 114.33,40.186 	"/>
	<rect x="121.869" y="29.12" fill="#4A4A4A" width="1.998" height="10.516"/>
	<polygon fill="#6E6D6E" points="121.869,39.636 120.273,38.583 120.273,30.172 121.869,29.12 	"/>
	<polygon fill="#E5AF34" points="118.125,40.186 115.868,40.186 115.868,42.936 115.868,45.685 118.125,45.685 120.146,44.588 
		120.146,42.936 120.146,41.283 	"/>
	<path fill="#C7DBF1" d="M123.867,29.12v10.516c1.123,0,1.816-1.262,2.148-2.172c0.369-1.012,0.515-2.12,0.515-3.195
		c0-1.06-0.16-2.137-0.564-3.121C125.609,30.278,124.943,29.12,123.867,29.12z"/>
	<path fill="#E7F0FA" d="M113.101,4.885c0,0,0.071,5.183-2.348,10.771l0,0c0.411,1.274,0.792,2.495,1.106,3.602
		c0.848-1.1,2.109-4.016,3.534-11.534C114.614,6.697,113.838,5.746,113.101,4.885C113.101,4.885,113.838,5.746,113.101,4.885
		C113.101,4.885,113.838,5.746,113.101,4.885z"/>
	<path fill="#C2C1C1" d="M104.744,45.685l2.041,2.265c-0.887,1.899-1.773,3.798-2.66,5.695c-1.037,2.222-2.073,4.442-3.111,6.662
		c-1.489,3.183-4.091,5.474-7.355,6.714c-2.381,0.903-4.76,1.809-7.141,2.712c-2.189,0.83-4.38,1.662-6.569,2.493
		c-0.038,0.015-0.075,0.029-0.114,0.044l-2.043-2.264c1.883-0.705,3.765-1.411,5.646-2.118c2.559-0.96,5.117-1.92,7.676-2.879
		c1.132-0.426,2.232-0.896,3.245-1.571c1.908-1.274,3.432-3.056,4.417-5.124c0.941-1.973,1.867-3.951,2.801-5.927
		c1.037-2.193,2.074-4.389,3.111-6.582C104.706,45.765,104.725,45.725,104.744,45.685z"/>
	<path fill="#C2C1C1" d="M102.453,69.497c-7.422,0-14.843,0-22.264,0c-7.359,0-14.717,0-22.074,0c-3.681,0-7.362,0-11.042,0
		c-0.917,0-1.835,0-2.754,0c-0.875,0-1.769,0.052-2.643-0.002c-0.307-0.02-0.504-0.154-0.6-0.449
		c-0.102-0.312-0.149-0.439-0.51-0.451c-0.935-0.032-1.876,0.001-2.81,0.001c-7.352,0-14.704,0-22.055,0c-3.67,0-7.341,0-11.011,0
		c-0.46,0-0.921-0.003-1.381,0C3,68.599,2.678,68.617,2.416,68.805c-0.313,0.225-0.348,0.558-0.348,0.908c0,0.809,0,1.617,0,2.427
		c0,0.206,0,0.413,0,0.618c0.011,1.101,1.408,0.911,2.149,0.9c1.75-0.026,3.5,0,5.251,0c3.569,0,7.137,0,10.705,0
		c3.537,0,7.074,0,10.611,0c1.775,0,3.552,0,5.328,0c0.894,0,1.787,0,2.679,0c0.418,0,0.835,0,1.253,0
		c0.257,0,0.75,0.104,0.935-0.132c0.129-0.165,0.085-0.409,0.227-0.575c0.248-0.292,0.768-0.207,1.106-0.203
		c0.882,0.011,1.763,0.01,2.644,0.01c1.764,0,3.528,0,5.292,0c3.591,0,7.181,0,10.771,0c7.124,0,14.247,0,21.371,0
		c3.547,0,7.095,0,10.643,0c1.758,0,3.516,0,5.274,0c0.802,0,1.61,0.033,2.413,0.005c0.695-0.023,1.357-0.289,1.611-0.99
		C102.581,71.08,102.453,70.219,102.453,69.497C102.082,69.497,102.453,69.947,102.453,69.497z"/>
	<path fill="#C2C1C1" d="M104.914,50.128c-0.396-0.052-0.793-0.104-1.189-0.154c-0.255-0.035-1.018-0.274-1.183,0.023
		c-0.11,0.199-0.086,0.555-0.113,0.768c-0.2,1.538-0.399,3.073-0.6,4.61c-0.56,4.307-1.12,8.614-1.679,12.921
		c-0.088,0.672-0.176,1.342-0.262,2.013c-0.038,0.29-0.122,0.611-0.118,0.904c0.005,0.354,0.368,0.325,0.632,0.36
		c0.508,0.065,1.018,0.132,1.527,0.198c0.461,0.06,0.463-0.233,0.508-0.582c0.469-3.597,0.936-7.194,1.403-10.791
		c0.276-2.123,0.552-4.245,0.828-6.368c0.151-1.166,0.341-2.334,0.456-3.504C105.141,50.357,105.146,50.157,104.914,50.128z"/>
</g>
</svg>
