<?xml version="1.0" encoding="utf-8"?>
<!-- Generator: Adobe Illustrator 15.0.0, SVG Export Plug-In . SVG Version: 6.00 Build 0)  -->
<!DOCTYPE svg PUBLIC "-//W3C//DTD SVG 1.1//EN" "http://www.w3.org/Graphics/SVG/1.1/DTD/svg11.dtd">
<svg version="1.1" id="Layer_1" xmlns="http://www.w3.org/2000/svg" xmlns:xlink="http://www.w3.org/1999/xlink" x="0px" y="0px"
	 width="113.435px" height="116.46px" viewBox="0 0 113.435 116.46" enable-background="new 0 0 113.435 116.46"
	 xml:space="preserve">
<g>
	<g>
		<path fill="#686969" d="M98.206,63.936c-0.266-11.059-0.531-22.117-0.795-33.175c-0.133-5.539-0.266-11.078-0.398-16.617
			c-0.033-1.36-0.07-2.721-0.098-4.081c-0.023-1.166,0.043-2.42-0.732-3.385c-0.707-0.88-1.875-1.231-2.883-1.634
			c-1.21-0.483-2.428-0.945-3.654-1.386C87.1,2.742,84.522,1.923,81.917,1.2c-1.105-0.307-2.396-0.821-3.557-0.652
			c-1.201,0.175-1.871,1.002-2.559,1.917c-1.484,1.974-3.086,3.762-5.039,5.289c-1.816,1.42-3.834,2.59-5.991,3.411
			c-4.619,1.759-9.846,1.944-14.578,0.52c-4.621-1.391-8.668-4.314-11.701-8.038c-0.706-0.865-1.271-2.021-2.221-2.645
			c-0.995-0.652-2.066-0.521-3.16-0.225c-2.647,0.715-5.275,1.479-7.869,2.369c-1.275,0.438-2.541,0.899-3.799,1.384
			c-1.108,0.427-2.35,0.788-3.364,1.418c-1.011,0.628-1.494,1.675-1.531,2.84c-0.042,1.311-0.062,2.622-0.093,3.933
			c-0.263,10.993-0.527,21.986-0.79,32.98c-0.133,5.562-0.268,11.125-0.399,16.688c-0.031,1.302-0.032,2.587-0.436,3.84
			c-0.37,1.147-1.023,2.128-1.823,3.021c-1.832,2.046-3.8,3.981-5.701,5.964c-0.937,0.978-1.876,1.953-2.814,2.93
			c-0.866,0.902-1.796,1.776-2.533,2.791c-1.393,1.919-2.081,4.27-1.939,6.635c0.165,2.759,0.554,5.521,0.838,8.27
			c0.284,2.747,0.569,5.493,0.853,8.239c0.283,2.734,0.567,5.468,0.849,8.202c0.108,1.046,0.214,2.043,0.899,2.89
			c0.675,0.834,1.646,1.208,2.697,1.264c1.295,0.068,2.614-0.012,3.912-0.012c1.401,0,2.804,0,4.206,0c2.702,0,5.404,0,8.106,0
			c10.979,0,21.958,0,32.937,0c0.946,0,1.893,0,2.838,0c7.511,0,15.021,0,22.531,0c7.503,0,15.006-0.009,22.508,0.002
			c0.918,0.001,1.834,0.003,2.75,0.001c0.756-0.001,1.543,0.065,2.279-0.14c1.199-0.335,2.135-1.294,2.449-2.496
			c0.213-0.81,0.225-1.694,0.309-2.525c0.1-0.958,0.199-1.918,0.297-2.877c0.191-1.849,0.383-3.698,0.574-5.547
			c0.387-3.728,0.775-7.455,1.164-11.183c0.182-1.739,0.508-3.535,0.398-5.287c-0.092-1.505-0.516-2.985-1.236-4.312
			c-0.797-1.469-1.988-2.614-3.137-3.808c-1.312-1.367-2.625-2.736-3.938-4.105c-1.293-1.35-2.596-2.69-3.891-4.038
			c-1.127-1.172-2.119-2.355-2.625-3.928C98.354,65.454,98.223,64.696,98.206,63.936z"/>
		<g>
			<rect x="30.894" y="90.106" fill="#303030" width="17.041" height="6.901"/>
			<path fill="#303030" d="M53.146,90.943h-3.324c0.011-1.151,0.919-1.914,2.017-1.973c0.383-0.02,0.942-0.091,1.189,0.279
				C53.309,89.671,53.146,90.463,53.146,90.943z"/>
			<path fill="#303030" d="M53.146,96.145h-3.324c0.011,1.151,0.919,1.915,2.017,1.973c0.383,0.021,0.942,0.092,1.189-0.278
				C53.309,97.418,53.146,96.626,53.146,96.145z"/>
			<rect x="67.956" y="90.106" fill="#303030" width="16.577" height="6.901"/>
			<path fill="#AEAEAE" d="M53.416,89.928c0.025,1.136-1.731,0.787-2.434,0.789c-0.624,0.003-1.269,0.093-1.468-0.626
				c-0.076-0.272-0.094-0.479-0.399-0.568c-0.384-0.113-0.891-0.024-1.288-0.025c-0.425,0-0.85-0.013-1.275-0.021
				c-0.4-0.006-0.976-0.095-1.354,0.055c-0.512,0.203-0.307,1.201-0.307,1.62c0,1.821-0.009,3.641-0.023,5.461
				c-0.006,0.677,0.098,1.019,0.821,1.037c0.637,0.017,1.281-0.03,1.918-0.026c0.559,0.003,1.626,0.254,1.85-0.417
				c0.092-0.278,0.078-0.518,0.36-0.687c0.312-0.186,0.752-0.121,1.097-0.126c0.416-0.008,0.832-0.021,1.248-0.014
				c0.348,0.005,0.833-0.044,1.084,0.258c0.201,0.24,0.065,0.604,0.277,0.832c0.206,0.222,0.608,0.147,0.876,0.146
				c0.874-0.002,1.748,0.008,2.621,0.008c0.31,0.001,0.577-0.029,0.655-0.375c0.088-0.398,0.004-0.907,0.004-1.315
				c0-1.023,0.003-2.047,0.008-3.07c0.002-0.524,0.003-1.049,0.002-1.573c-0.001-0.444,0.072-0.971-0.019-1.407
				c-0.08-0.381-0.361-0.406-0.71-0.398c-0.49,0.01-0.979,0.013-1.469,0.013c-0.487,0-0.98-0.023-1.467,0.001
				C53.734,89.512,53.416,89.568,53.416,89.928C53.438,90.951,53.416,89.507,53.416,89.928z"/>
			<rect x="57.678" y="89.869" fill="#AEAEAE" width="10.277" height="7.375"/>
			<rect x="30.894" y="101.744" fill="#303030" width="17.041" height="6.902"/>
			<path fill="#303030" d="M53.146,102.582h-3.324c0.011-1.152,0.919-1.915,2.017-1.973c0.383-0.021,0.942-0.092,1.189,0.278
				C53.309,101.309,53.146,102.101,53.146,102.582z"/>
			<path fill="#303030" d="M53.146,107.783h-3.324c0.011,1.151,0.919,1.914,2.017,1.973c0.383,0.021,0.942,0.092,1.189-0.278
				C53.309,109.056,53.146,108.264,53.146,107.783z"/>
			<rect x="67.956" y="101.744" fill="#303030" width="16.577" height="6.902"/>
			<path fill="#AEAEAE" d="M53.416,101.566c0.025,1.135-1.731,0.786-2.434,0.789c-0.624,0.003-1.269,0.092-1.468-0.627
				c-0.076-0.272-0.094-0.479-0.399-0.568c-0.384-0.112-0.891-0.024-1.288-0.024c-0.425-0.001-0.85-0.014-1.275-0.021
				c-0.4-0.006-0.976-0.096-1.354,0.055c-0.512,0.203-0.307,1.201-0.307,1.619c0,1.821-0.009,3.642-0.023,5.462
				c-0.006,0.676,0.098,1.019,0.821,1.036c0.637,0.017,1.281-0.03,1.918-0.026c0.559,0.003,1.626,0.255,1.85-0.417
				c0.092-0.277,0.078-0.517,0.36-0.686c0.312-0.187,0.752-0.121,1.097-0.127c0.416-0.008,0.832-0.021,1.248-0.014
				c0.348,0.006,0.833-0.044,1.084,0.258c0.201,0.241,0.065,0.605,0.277,0.833c0.206,0.221,0.608,0.147,0.876,0.146
				c0.874-0.003,1.748,0.007,2.621,0.008c0.31,0,0.577-0.029,0.655-0.376c0.088-0.398,0.004-0.907,0.004-1.314
				c0-1.023,0.003-2.047,0.008-3.07c0.002-0.524,0.003-1.05,0.002-1.574c-0.001-0.444,0.072-0.971-0.019-1.406
				c-0.08-0.381-0.361-0.407-0.71-0.399c-0.49,0.011-0.979,0.014-1.469,0.014c-0.487,0-0.98-0.023-1.467,0
				C53.734,101.15,53.416,101.206,53.416,101.566C53.438,102.59,53.416,101.145,53.416,101.566z"/>
			<rect x="57.678" y="101.507" fill="#AEAEAE" width="10.277" height="7.376"/>
			<rect x="57.669" y="89.883" fill="#848484" width="1.106" height="7.361"/>
			<rect x="57.669" y="101.507" fill="#848484" width="1.106" height="7.376"/>
		</g>
		<g>
			<rect x="37.159" y="27.505" fill="#303030" width="39.115" height="11.706"/>
			<g>
				<path fill="#EAEAEA" d="M45.491,32.099c0,0.864-0.447,1.607-1.239,1.967c-0.63,0.286-1.307,0.271-1.982,0.271v2.393h-1.427V30
					h2.149C44.341,30,45.491,30.623,45.491,32.099z M42.269,33.166h0.47c0.808,0,1.737-0.67,1.172-1.56
					c-0.342-0.538-1.092-0.438-1.642-0.438V33.166z"/>
				<path fill="#EAEAEA" d="M52.869,33.355c0,1.39-0.576,2.837-1.995,3.296c-1.279,0.414-2.942,0.175-3.778-0.964
					c-0.856-1.168-0.892-3.053-0.221-4.313c0.686-1.286,2.292-1.679,3.639-1.402C52.127,30.301,52.869,31.82,52.869,33.355z
					 M47.958,33.355c0,1.213,0.529,2.424,1.946,2.258c1.141-0.133,1.469-1.265,1.469-2.258c0-0.991-0.321-2.13-1.462-2.264
					C48.494,30.927,47.958,32.143,47.958,33.355z"/>
				<path fill="#EAEAEA" d="M54.263,36.729V30h1.427v5.551h2.729v1.178H54.263z"/>
				<path fill="#EAEAEA" d="M59.588,36.729V30h1.426v6.729H59.588z"/>
				<path fill="#EAEAEA" d="M65.567,31.091c-1.539,0-1.865,1.845-1.638,3.04c0.333,1.75,1.999,1.625,3.354,1.148
					c0,0.398,0,0.798,0,1.196c-1.267,0.528-3.049,0.597-4.049-0.495c-0.921-1.005-1.017-2.726-0.625-3.973
					c0.466-1.479,1.83-2.236,3.342-2.083c0.359,0.036,0.715,0.118,1.058,0.236c0.083,0.028,0.495,0.133,0.527,0.216
					c0.009,0.024-0.048,0.097-0.048,0.121c-0.002,0.303-0.299,0.752-0.412,1.039C66.606,31.313,66.096,31.091,65.567,31.091z"/>
				<path fill="#EAEAEA" d="M72.59,36.729h-3.875V30h3.875v1.169h-2.449v1.478h2.279v1.169h-2.279v1.735h2.449V36.729z"/>
			</g>
		</g>
		<path fill="#989898" d="M110.766,113.319c0.449-4.351,0.9-8.701,1.352-13.053c0.225-2.175,0.449-4.35,0.674-6.523
			c0.217-2.093,0.547-4.208,0.625-6.31c0.074-1.942-0.348-3.871-1.346-5.547c-0.977-1.64-2.391-2.966-3.701-4.333
			c-0.34-0.355-0.68-0.71-1.02-1.064c-0.17-0.178-0.342-0.355-0.512-0.533c-0.127-0.134-0.152-0.203-0.312-0.203
			c-0.127-0.001-0.305,0.117-0.43,0.165c-1.033,0.398-2.064,0.796-3.098,1.194c-2.004,0.771-4.008,1.544-6.012,2.315
			c-4.072,1.569-8.146,3.139-12.219,4.708c-0.795,0.307-1.565,0.579-2.146,1.232c-0.497,0.559-0.777,1.272-0.828,2.015
			c-0.069,1.029-0.008,2.079-0.008,3.11c0,1.063,0,2.127,0,3.19c0,4.368,0,8.735,0,13.104c0,1.061-0.011,2.122,0,3.183
			c0.01,1.029,0.21,1.912,0.588,2.866c0.623,1.579,1.108,3.45,3.103,3.591c0.974,0.068,1.975-0.006,2.951-0.006
			c1.056,0,2.112,0,3.168,0c2.183,0,4.364,0,6.546,0c2.166,0,4.332,0,6.496,0c1.777,0,3.867,0.341,5.209-1.096
			C110.358,114.777,110.688,114.065,110.766,113.319z"/>
		<path fill="#989898" d="M2.667,113.319c-0.451-4.351-0.901-8.701-1.352-13.053c-0.225-2.175-0.45-4.35-0.675-6.523
			c-0.217-2.093-0.546-4.208-0.625-6.31c-0.073-1.942,0.348-3.871,1.347-5.547c0.977-1.64,2.39-2.966,3.7-4.333
			c0.34-0.355,0.681-0.71,1.021-1.064c0.17-0.178,0.34-0.355,0.51-0.533c0.128-0.134,0.153-0.203,0.313-0.203
			c0.128-0.001,0.305,0.117,0.43,0.165c1.033,0.398,2.065,0.796,3.098,1.194c2.004,0.771,4.007,1.544,6.011,2.315
			c4.073,1.569,8.146,3.139,12.219,4.708c0.795,0.307,1.565,0.579,2.147,1.232c0.497,0.559,0.776,1.272,0.827,2.015
			c0.07,1.029,0.009,2.079,0.009,3.11c0,1.063,0,2.127,0,3.19c0,4.368,0,8.735,0,13.104c0,1.061,0.01,2.122,0,3.183
			c-0.011,1.029-0.211,1.912-0.587,2.866c-0.625,1.579-1.109,3.45-3.104,3.591c-0.974,0.068-1.974-0.006-2.95-0.006
			c-1.056,0-2.112,0-3.168,0c-2.183,0-4.365,0-6.547,0c-2.165,0-4.331,0-6.496,0c-1.776,0-3.867,0.341-5.208-1.096
			C3.075,114.777,2.744,114.065,2.667,113.319z"/>
	</g>
	<path fill="#AEAEAE" d="M91.19,6.664c-1.518-0.539-3.035-1.078-4.553-1.616c-0.974-0.346-1.947-0.692-2.922-1.038
		c-0.585-0.208-1.297-0.368-1.738-0.828C80.851,2.007,81.717-0.011,83.346,0c0.582,0.004,1.209,0.319,1.748,0.511
		c2.01,0.714,4.019,1.427,6.027,2.141c0.625,0.222,1.465,0.396,1.965,0.854C94.561,4.855,93.071,7.332,91.19,6.664z"/>
	<path fill="#303030" d="M88.874,11.646c-1.924-0.684-3.848-1.367-5.771-2.05c-0.438-0.156-0.877-0.312-1.316-0.468
		c-0.255-0.091-0.553-0.163-0.756-0.35c-0.451-0.413-0.302-0.917-0.129-1.402c0.195-0.555,0.393-1.109,0.59-1.663
		c0.205-0.576,0.409-1.152,0.613-1.729c0.156-0.438,0.275-0.905,0.781-1.07c0.633-0.207,1.646,0.37,2.219,0.573
		c1.235,0.439,2.471,0.878,3.705,1.316c0.731,0.26,1.496,0.478,2.209,0.784c0.647,0.278,0.727,0.867,0.516,1.462
		c-0.214,0.601-0.428,1.202-0.641,1.804c-0.218,0.613-0.436,1.227-0.653,1.839C90.027,11.292,89.638,11.918,88.874,11.646z"/>
	<path fill="#AEAEAE" d="M21.601,6.664c1.517-0.539,3.034-1.078,4.552-1.616c0.974-0.346,1.949-0.692,2.923-1.038
		c0.584-0.208,1.296-0.368,1.737-0.828C31.939,2.007,31.073-0.011,29.444,0c-0.583,0.004-1.209,0.319-1.749,0.511
		c-2.009,0.714-4.018,1.427-6.027,2.141c-0.624,0.222-1.465,0.396-1.966,0.854C18.228,4.855,19.719,7.332,21.601,6.664z"/>
	<path fill="#303030" d="M23.917,11.646c1.924-0.684,3.847-1.367,5.771-2.05c0.439-0.156,0.878-0.312,1.317-0.468
		c0.255-0.091,0.552-0.163,0.756-0.35c0.451-0.413,0.302-0.917,0.13-1.402c-0.197-0.555-0.394-1.109-0.591-1.663
		c-0.205-0.576-0.409-1.152-0.614-1.729c-0.156-0.438-0.274-0.905-0.78-1.07c-0.633-0.207-1.646,0.37-2.219,0.573
		c-1.236,0.439-2.471,0.878-3.707,1.316c-0.73,0.26-1.495,0.478-2.208,0.784c-0.647,0.278-0.726,0.867-0.515,1.462
		c0.213,0.601,0.427,1.202,0.641,1.804c0.218,0.613,0.435,1.227,0.653,1.839C22.763,11.292,23.152,11.918,23.917,11.646z"/>
</g>
</svg>
