<?xml version="1.0" encoding="utf-8"?>
<!-- Generator: Adobe Illustrator 15.0.0, SVG Export Plug-In . SVG Version: 6.00 Build 0)  -->
<!DOCTYPE svg PUBLIC "-//W3C//DTD SVG 1.1//EN" "http://www.w3.org/Graphics/SVG/1.1/DTD/svg11.dtd">
<svg version="1.1" id="Layer_1" xmlns="http://www.w3.org/2000/svg" xmlns:xlink="http://www.w3.org/1999/xlink" x="0px" y="0px"
	 width="44.2px" height="149.907px" viewBox="0 0 44.2 149.907" enable-background="new 0 0 44.2 149.907" xml:space="preserve">
<g>
	<path fill="#C7402C" d="M3.123,111.542h1.514V89.769c-0.918,0-1.922-0.116-2.781,0.269c-1.139,0.51-1.826,1.634-1.847,2.866
		c-0.019,1.092,0,2.185,0,3.276c0,3.759,0,7.517,0,11.276c0,0.323-0.006,0.648,0,0.973C0.041,110.125,1.401,111.542,3.123,111.542z"
		/>
	<path fill="#4A4A4A" d="M33.78,80.793H40l3.331,2.087c0-1.577,0-3.154,0-4.731c0-1.079,0.354-2.781-1.165-2.829
		c-1.602-0.05-3.21,0.001-4.812,0.001c-0.754,0-1.513-0.022-2.267,0.001c-0.407,0.013-0.896,0.062-1.148,0.428
		c-0.193,0.279-0.166,0.653-0.177,0.976c-0.014,0.452-0.017,0.904-0.014,1.355C33.752,78.985,33.78,79.889,33.78,80.793z"/>
	<path fill="#7B7B7B" d="M10.921,149.859c7.054,0,14.108,0,21.162,0c1.692,0,3.43,0.114,5.119-0.011
		c1.298-0.096,2.518-0.794,3.231-1.886c0.857-1.312,0.75-3.08,0.867-4.583c0.133-1.727,0.267-3.452,0.4-5.179
		c0.545-7.043,1.091-14.085,1.635-21.128c0.271-3.5,0.604-7.001,0.81-10.506c0.102-1.733,0.028-3.472,0.027-5.207
		c-0.001-1.795,0-3.59,0-5.384c0-3.561,0.021-7.121,0.002-10.682c-0.007-1.23-0.355-2.378-1.244-3.265
		c-0.919-0.917-2.089-1.232-3.355-1.239c-7.06-0.04-14.12,0.003-21.18,0.003c-3.492,0-6.992-0.067-10.483,0
		c-1.427,0.026-2.771,0.689-3.554,1.904c-0.83,1.291-0.674,2.805-0.674,4.27c0,3.541,0,7.081,0,10.622
		c0,3.437-0.146,6.905,0.11,10.333c0.527,7.056,1.104,14.109,1.651,21.164c0.273,3.521,0.548,7.045,0.82,10.566
		c0.136,1.762,0.271,3.523,0.409,5.284c0.104,1.331,0.276,2.547,1.208,3.574C8.66,149.367,9.767,149.859,10.921,149.859z"/>
	<rect x="14.467" y="86.333" fill="#171717" width="18.924" height="1.606"/>
	<rect x="14.467" y="89.456" fill="#171717" width="18.924" height="1.607"/>
	<rect x="14.467" y="92.581" fill="#171717" width="18.924" height="1.606"/>
	<rect x="14.467" y="95.705" fill="#171717" width="18.924" height="1.606"/>
	<rect x="14.467" y="98.829" fill="#171717" width="18.924" height="1.607"/>
	<path fill="#7B7B7B" d="M18.098,80.793h11.669c0-2.27-0.004-4.539,0.001-6.808c0.002-0.906,0.184-2.021-0.203-2.87
		c-0.312-0.682-0.967-1.131-1.7-1.24c-1.048-0.155-2.196-0.03-3.256-0.03c-1.14,0.001-2.28,0.003-3.421,0.003
		c-0.938,0-1.836-0.05-2.524,0.699c-0.662,0.721-0.615,1.706-0.582,2.621C18.175,75.704,18.098,78.255,18.098,80.793z"/>
	<path fill="#7B7B7B" d="M8.535,80.793h7.944c0-1.656,0-3.312,0.003-4.969c0.002-0.641,0.036-1.274-0.277-1.856
		c-0.274-0.511-0.748-0.894-1.309-1.046c-0.694-0.188-1.448-0.075-2.157-0.074c-0.763,0.002-1.572-0.086-2.328,0.026
		c-1.314,0.196-1.894,1.293-1.89,2.521C8.526,77.195,8.535,78.994,8.535,80.793z"/>
	<g>
		<path fill="#303030" d="M27.75,80.793h1.204c0-1.645,0-3.289,0-4.933c0-0.853-0.013-1.706,0-2.558
			c0.008-0.458,0.067-1.256-0.619-1.222c-0.729,0.036-0.585,0.977-0.585,1.461c0,0.807,0,1.613,0,2.421
			C27.75,77.573,27.75,79.183,27.75,80.793z"/>
		<path fill="#303030" d="M25.54,80.793h1.205c0-1.645,0-3.289,0-4.933c0-0.853-0.014-1.706,0-2.558
			c0.007-0.458,0.067-1.256-0.619-1.222c-0.729,0.036-0.586,0.977-0.586,1.461c0,0.807,0,1.613,0,2.421
			C25.54,77.573,25.54,79.183,25.54,80.793z"/>
		<path fill="#303030" d="M23.331,80.793h1.205c0-1.645,0-3.289,0-4.933c0-0.853-0.014-1.706,0-2.558
			c0.007-0.458,0.066-1.256-0.62-1.222c-0.729,0.036-0.585,0.977-0.585,1.461c0,0.807,0,1.613,0,2.421
			C23.331,77.573,23.331,79.183,23.331,80.793z"/>
		<path fill="#303030" d="M21.122,80.793h1.204c0-1.645,0-3.289,0-4.933c0-0.853-0.013-1.706,0-2.558
			c0.008-0.458,0.067-1.256-0.619-1.222c-0.729,0.036-0.585,0.977-0.585,1.461c0,0.807,0,1.613,0,2.421
			C21.122,77.573,21.122,79.183,21.122,80.793z"/>
		<path fill="#303030" d="M18.912,80.793h1.205c0-1.645,0-3.289,0-4.933c0-0.853-0.014-1.706,0-2.558
			c0.008-0.458,0.067-1.256-0.619-1.222c-0.729,0.036-0.586,0.977-0.586,1.461c0,0.807,0,1.613,0,2.421
			C18.912,77.573,18.912,79.183,18.912,80.793z"/>
	</g>
	<rect x="35.744" y="5.839" fill="#7B7B7B" width="5.623" height="69.481"/>
	<path fill="#303030" d="M44.173,106.033v0.074c0,0.107-0.004,0.215-0.013,0.322l-3.063,39.578
		c-0.168,2.174-1.981,3.852-4.161,3.852H10.921c-2.18,0-3.993-1.677-4.161-3.851l-3.063-39.46c-0.008-0.107-0.012-0.216-0.012-0.323
		v-0.192H44.173z"/>
	<path fill="#4A4A4A" d="M36.546,0.039c1.354,0,2.745-0.092,4.095,0.008c1.187,0.088,1.687,1.035,1.687,2.12
		c0.001,1.136-0.001,2.271-0.001,3.407c0,0.792-0.056,1.617-0.941,1.929c-0.362,0.127-0.794,0.079-1.173,0.079
		c-0.674,0-1.349,0-2.022,0c-0.976,0-2.625,0.31-3.217-0.694c-0.334-0.567-0.2-1.352-0.203-1.979
		c-0.005-0.786-0.007-1.572,0.002-2.358c0.007-0.614-0.023-1.226,0.341-1.753C35.438,0.327,35.974,0.039,36.546,0.039z"/>
	<path fill="#7B7B7B" d="M30.238,119.919c0,2.611-1.668,5.014-4.115,5.925c-2.497,0.93-5.381,0.151-7.077-1.898
		c-1.684-2.036-1.914-5-0.555-7.268c1.365-2.277,4.08-3.479,6.685-2.953C28.086,114.313,30.238,116.953,30.238,119.919z"/>
	<path fill="#4A4A4A" d="M42.302,72.866c-1.193,0-2.388,0-3.581,0c-1.301,0-2.618,0.062-3.917,0c-1.036-0.05-1.5-1.453-0.481-1.952
		c0.37-0.182,0.906-0.104,1.306-0.104c1.649,0,3.298,0,4.947,0c0.562,0,1.13-0.025,1.69,0C43.601,70.87,43.665,72.866,42.302,72.866
		z"/>
	<path fill="#4A4A4A" d="M42.302,68.409c-1.193,0-2.388,0-3.581,0c-1.301,0-2.618,0.062-3.917,0c-1.036-0.049-1.5-1.453-0.481-1.952
		c0.37-0.182,0.906-0.104,1.306-0.104c1.649,0,3.298,0,4.947,0c0.562,0,1.13-0.025,1.69,0
		C43.601,66.413,43.665,68.409,42.302,68.409z"/>
	<path fill="#4A4A4A" d="M42.302,63.953c-1.193,0-2.388,0-3.581,0c-1.301,0-2.618,0.062-3.917,0c-1.036-0.05-1.5-1.453-0.481-1.952
		c0.37-0.182,0.906-0.105,1.306-0.105c1.649,0,3.298,0,4.947,0c0.562,0,1.13-0.024,1.69,0
		C43.601,61.957,43.665,63.953,42.302,63.953z"/>
	<path fill="#4A4A4A" d="M42.302,59.496c-1.193,0-2.388,0-3.581,0c-1.301,0-2.618,0.062-3.917,0c-1.036-0.05-1.5-1.453-0.481-1.952
		c0.37-0.182,0.906-0.104,1.306-0.104c1.649,0,3.298,0,4.947,0c0.562,0,1.13-0.025,1.69,0C43.601,57.5,43.665,59.496,42.302,59.496z
		"/>
</g>
</svg>
