<?xml version="1.0" encoding="utf-8"?>
<!-- Generator: Adobe Illustrator 15.0.0, SVG Export Plug-In . SVG Version: 6.00 Build 0)  -->
<!DOCTYPE svg PUBLIC "-//W3C//DTD SVG 1.1//EN" "http://www.w3.org/Graphics/SVG/1.1/DTD/svg11.dtd">
<svg version="1.1" id="Layer_1" xmlns="http://www.w3.org/2000/svg" xmlns:xlink="http://www.w3.org/1999/xlink" x="0px" y="0px"
	 viewBox="289.209 374.729 32.765 42.128">
<g>
	<path fill="#2C6898" d="M321.974,416.857v-1.173c0-4.681-4.312-8.19-8.19-8.19H297.4c-3.877,0-8.191,3.511-8.191,8.19v1.173
		H321.974z"/>
	<ellipse fill="#2C6898" cx="305.594" cy="383.506" rx="14.042" ry="8.777"/>
	<path fill="#FFDC5F" d="M300.489,407.613c0,0,3.333,2.297,5.102,2.297c1.77,0,5.103-2.297,5.103-2.297v-4.461h-10.207v4.461
		H300.489z"/>
	<path fill="#F9CB56" d="M300.479,404.805c1.422,1.608,3.188,2.043,5.107,2.043c1.918,0,3.682-0.437,5.106-2.043v-4.086h-10.215
		v4.086H300.479z"/>
	<path fill="#FBAC35" d="M295.061,384.675c-0.435,0.821-1.277,1.72-1.396,2.677c-0.497,4.035,0.612,5.91,1.006,8.944
		c0.447,3.438,2.295,4.538,3.773,4.999c2.125,2.937,4.386,2.809,8.179,2.809c7.409,0,10.636-5.254,10.947-14.06
		c0.07-2.015-0.443-3.772-1.236-5.368L295.061,384.675L295.061,384.675z"/>
	<path fill="#FFDC5F" d="M313.969,390.49c-0.717-1.038-1.635-1.874-3.646-2.169c0.756,0.361,1.478,1.611,1.571,2.301
		c0.096,0.69,0.188,1.25-0.407,0.56c-2.394-2.766-4.998-1.677-7.581-3.367c-1.804-1.181-2.354-2.486-2.354-2.486
		s-0.219,1.743-2.955,3.52c-0.791,0.514-1.738,1.66-2.263,3.354c-0.377,1.217-0.26,2.301-0.26,4.155
		c0,5.413,4.264,9.962,9.526,9.962c5.261,0,9.526-4.589,9.526-9.962C315.124,392.989,314.785,391.674,313.969,390.49z"/>
	<path fill="#C26A50" d="M305.591,403.359c-3.223,0-4.212-0.824-4.379-0.992c-0.307-0.291-0.318-0.777-0.028-1.084
		c0.292-0.308,0.777-0.32,1.084-0.027l0,0c0.061,0.043,0.843,0.57,3.322,0.57c2.574,0,3.318-0.568,3.325-0.575
		c0.292-0.289,0.766-0.288,1.057,0.005c0.004,0.006,0.009,0.01,0.013,0.014c0.295,0.31,0.287,0.798-0.017,1.099
		C309.803,402.535,308.812,403.359,305.591,403.359 M306.649,399.124h-2.117c-0.292,0-0.53-0.249-0.53-0.555
		c0-0.305,0.238-0.555,0.53-0.555h2.117c0.292,0,0.527,0.25,0.527,0.555C307.186,398.868,306.948,399.115,306.649,399.124
		L306.649,399.124z"/>
	<path fill="#662314" d="M301.356,395.249c-0.583,0-1.057-0.497-1.057-1.107v-1.106c0-0.611,0.474-1.107,1.057-1.107
		c0.584,0,1.058,0.496,1.058,1.107v1.106C302.416,394.752,301.941,395.249,301.356,395.249z M309.824,395.249
		c-0.584,0-1.06-0.497-1.06-1.107v-1.106c0-0.611,0.476-1.107,1.06-1.107s1.059,0.496,1.059,1.107v1.106
		C310.883,394.752,310.408,395.249,309.824,395.249z"/>
	<path fill="#2C6898" d="M294.474,384.089v1.17c0,1.293,4.977,2.341,11.117,2.341c6.141,0,11.116-1.048,11.116-2.341v-1.17H294.474z
		"/>
	<path fill="#438AC2" d="M316.123,384.089v-2.34c0,0-4.388-2.633-10.532-2.633c-6.142,0-10.53,2.633-10.53,2.633v2.34H316.123z"/>
	<path fill="#FDCB59" d="M316.707,384.089h-22.233c-0.323,0-0.585,0.263-0.585,0.585c0,0.321,0.263,0.585,0.585,0.585h22.233
		c0.322,0,0.586-0.264,0.586-0.585C317.293,384.353,317.029,384.089,316.707,384.089z"/>
	<path fill="#1A3E5A" d="M307.869,412.499c1.037,0.728,2.119,1.456,2.512,1.614c0.021,0.008,0.02-0.13,0.014-0.135
		c-2.288-2.683-4.777-4.136-4.777-4.136l0.016-0.01h-0.016h-0.036l0.012,0.01c0,0-2.445,1.435-4.721,4.072
		c0.016,0.121,0.043,0.186,0.088,0.16c0.348-0.188,1.375-0.896,2.376-1.602c0.044,0.133,0.091,0.251,0.132,0.322
		c0.182,0.327,0.617,1.061,0.617,1.061s-0.881,0.657-1.212,3h5.464c-0.329-1.867-1.207-3-1.207-3s0.438-0.732,0.621-1.061
		C307.785,412.729,307.826,412.621,307.869,412.499z"/>
	<path fill="#438AC2" d="M305.592,409.844c0,0-0.012-0.008-0.013-0.01c-0.146-0.098-4.846-3.296-5.499-3.949
		c-0.316-0.317-1.134,1.062-1.121,1.414c0.049,1.269,1.623,6.949,1.853,6.682l0.057-0.063
		C303.146,411.277,305.592,409.844,305.592,409.844z M305.616,409.844c0,0,2.485,1.453,4.777,4.137
		c0.006,0.006,0.013-0.007,0.02-0.007c0.276,0.034,1.787-5.433,1.833-6.675c0.015-0.354-0.805-1.731-1.12-1.414
		c-0.653,0.651-5.337,3.841-5.496,3.949L305.616,409.844z"/>
	<path fill="#1E4C6F" d="M305.608,410.639c-0.656,0.037-1.698,1.103-1.589,1.556c0.5,2.089,0.91,1.534,1.627,1.534
		c0.635,0,1.088,0.514,1.628-1.627C307.414,411.541,306.064,410.612,305.608,410.639z M305.64,414.32
		c-1.729,0-2.362,2.535-2.362,2.535h4.708C307.986,416.855,307.368,414.32,305.64,414.32z"/>
	<path fill="#FDCB59" d="M308.223,376.484h-0.002c-0.26,0.003-0.506,0.124-0.668,0.33c-0.328,0.081-0.777,0.099-1.353-0.083
		c-0.34-0.329-0.878-0.327-1.217,0c-0.574,0.183-1.026,0.165-1.354,0.084c-0.162-0.205-0.407-0.326-0.669-0.331h-0.001
		c-0.485,0-0.878,0.394-0.878,0.878c0,0.484,0.394,0.877,0.878,0.877l0,0h0.001c0,3.51,1.753,4.388,2.63,4.388
		c0.878,0,2.63-0.878,2.63-4.388h0.002c0.484,0,0.879-0.393,0.879-0.878C309.102,376.877,308.707,376.484,308.223,376.484z"/>
	<path fill="#438AC2" d="M297.996,409.119l-6.716,2.053c-0.308,0.094-0.635-0.08-0.73-0.389l-0.344-1.121
		c-0.091-0.309,0.082-0.633,0.389-0.729l6.715-2.053c0.308-0.094,0.635,0.08,0.729,0.387l0.342,1.119
		C298.478,408.696,298.304,409.023,297.996,409.119"/>
	<circle fill="#FFFFFF" cx="296.872" cy="408.215" r="0.674"/>
	<path fill="#438AC2" d="M313.199,409.119l6.715,2.053c0.309,0.094,0.637-0.08,0.73-0.389l0.344-1.121
		c0.093-0.309-0.08-0.633-0.39-0.729l-6.717-2.053c-0.309-0.094-0.634,0.08-0.729,0.387l-0.343,1.119
		C312.719,408.696,312.891,409.023,313.199,409.119"/>
	<circle fill="#FFFFFF" cx="314.096" cy="408.184" r="0.674"/>
</g>
</svg>
