<svg version="1.1" id="Layer_1" xmlns="http://www.w3.org/2000/svg" xmlns:xlink="http://www.w3.org/1999/xlink" x="0px" y="0px" viewBox="289.63 374.33 32.8 42.17">
<g>
	<path fill="#595959" d="M322.417,416.467v-1.172c0-4.68-4.313-8.191-8.191-8.191h-16.383c-3.877,0-8.191,3.513-8.191,8.191v1.172   H322.417z"/>
	<ellipse fill="#595959" cx="306.037" cy="383.115" rx="14.042" ry="8.777"/>
	<path fill="#D9D9D9" d="M300.933,407.223c0,0,3.333,2.297,5.102,2.297c1.769,0,5.102-2.297,5.102-2.297v-4.46H300.93v4.46H300.933z   "/>
	<path fill="#CACACA" d="M300.922,404.414c1.422,1.609,3.188,2.044,5.107,2.044c1.918,0,3.682-0.437,5.105-2.044v-4.085H300.92   v4.085H300.922z"/>
	<path fill="#AEAEAE" d="M295.504,384.285c-0.435,0.821-1.277,1.72-1.396,2.677c-0.497,4.035,0.612,5.91,1.006,8.944   c0.447,3.438,2.295,4.537,3.773,4.998c2.125,2.937,4.386,2.81,8.179,2.81c7.408,0,10.636-5.254,10.946-14.061   c0.071-2.015-0.442-3.772-1.235-5.368H295.504L295.504,384.285z"/>
	<path fill="#D9D9D9" d="M314.412,390.1c-0.717-1.038-1.635-1.874-3.646-2.169c0.757,0.361,1.479,1.611,1.572,2.301   c0.095,0.69,0.188,1.25-0.408,0.56c-2.393-2.766-4.998-1.677-7.581-3.367c-1.804-1.181-2.354-2.486-2.354-2.486   s-0.219,1.743-2.955,3.52c-0.791,0.514-1.738,1.66-2.263,3.354c-0.377,1.217-0.26,2.301-0.26,4.155   c0,5.413,4.264,9.963,9.526,9.963c5.261,0,9.526-4.589,9.526-9.963C315.567,392.599,315.229,391.284,314.412,390.1z"/>
	<path fill="#6A6A6A" d="M306.083,401.667c-3.223,0-4.25,1.001-4.417,0.833c-0.307-0.291-0.33-1.3-0.039-1.606   c0.292-0.308,0.777-0.319,1.084-0.027l0,0c0.061,0.043,0.809-0.281,3.288-0.281c2.574,0,3.353,0.283,3.359,0.277   c0.292-0.289,0.766-0.288,1.057,0.005c0.004,0.005,0.008,0.009,0.012,0.014c0.295,0.31,0.043,1.32-0.262,1.62   C310.001,402.668,309.305,401.667,306.083,401.667 M307.092,398.734h-2.116c-0.292,0-0.53-0.25-0.53-0.556   c0-0.305,0.238-0.555,0.53-0.555h2.116c0.292,0,0.528,0.25,0.528,0.555c0.009,0.3-0.229,0.546-0.526,0.556   C307.092,398.734,307.092,398.734,307.092,398.734z"/>
	<path d="M301.799,394.859c-0.583,0-1.057-0.497-1.057-1.107v-1.106c0-0.611,0.474-1.107,1.057-1.107   c0.584,0,1.058,0.496,1.058,1.107v1.106C302.859,394.362,302.384,394.859,301.799,394.859z M310.268,394.859   c-0.584,0-1.059-0.497-1.059-1.107v-1.106c0-0.611,0.475-1.107,1.059-1.107s1.06,0.496,1.06,1.107v1.106   C311.326,394.362,310.852,394.859,310.268,394.859z"/>
	<path fill="#595959" d="M294.917,383.699v1.17c0,1.293,4.977,2.341,11.117,2.341c6.14,0,11.116-1.048,11.116-2.341v-1.17H294.917z"/>
	<path fill="#8E8E8E" d="M316.566,383.699v-2.34c0,0-4.389-2.633-10.532-2.633c-6.142,0-10.53,2.633-10.53,2.633v2.34H316.566z"/>
	<path fill="#CACACA" d="M317.15,383.699h-22.233c-0.323,0-0.585,0.263-0.585,0.585c0,0.321,0.263,0.585,0.585,0.585h22.233   c0.321,0,0.586-0.264,0.586-0.585C317.736,383.962,317.473,383.699,317.15,383.699z"/>
	<path d="M308.312,412.109c1.036,0.727,2.118,1.455,2.512,1.612c0.021,0.009,0.019-0.129,0.014-0.133   c-2.289-2.684-4.778-4.137-4.778-4.137l0.017-0.01l-0.017,0.001h-0.035l0.012,0.009c0,0-2.445,1.434-4.721,4.072   c0.016,0.12,0.043,0.186,0.088,0.159c0.348-0.188,1.375-0.896,2.376-1.6c0.044,0.131,0.091,0.25,0.132,0.322   c0.182,0.327,0.617,1.059,0.617,1.059s-0.881,0.658-1.212,3h5.464c-0.329-1.867-1.207-3-1.207-3s0.438-0.73,0.621-1.059   C308.229,412.338,308.27,412.23,308.312,412.109z"/>
	<path fill="#8E8E8E" d="M306.035,409.453c0,0-0.012-0.007-0.013-0.009c-0.146-0.1-4.847-3.296-5.5-3.95   c-0.316-0.317-1.134,1.061-1.121,1.414c0.049,1.269,1.623,6.949,1.853,6.682l0.057-0.063   C303.589,410.887,306.035,409.453,306.035,409.453z M306.06,409.453c0,0,2.486,1.453,4.778,4.137   c0.005,0.006,0.012-0.006,0.02-0.006c0.275,0.034,1.786-5.434,1.833-6.676c0.015-0.354-0.806-1.731-1.12-1.414   c-0.653,0.652-5.337,3.842-5.496,3.949L306.06,409.453z"/>
	<path fill="#141414" d="M306.051,410.249c-0.656,0.036-1.698,1.102-1.589,1.554c0.5,2.09,0.91,1.536,1.627,1.536   c0.635,0,1.088,0.513,1.628-1.627C307.857,411.151,306.507,410.223,306.051,410.249z M306.083,413.93   c-1.729,0-2.362,2.535-2.362,2.535h4.707C308.43,416.465,307.812,413.93,306.083,413.93z"/>
	<path fill="#CACACA" d="M308.666,376.094h-0.002c-0.26,0.003-0.506,0.124-0.668,0.33c-0.328,0.081-0.778,0.099-1.354-0.083   c-0.34-0.329-0.877-0.327-1.217,0c-0.574,0.183-1.026,0.165-1.354,0.084c-0.162-0.205-0.407-0.326-0.669-0.331h-0.001   c-0.485,0-0.878,0.394-0.878,0.878c0,0.484,0.394,0.877,0.878,0.877l0,0h0.001c0,3.51,1.753,4.388,2.63,4.388   c0.878,0,2.63-0.878,2.63-4.388h0.002c0.484,0,0.879-0.393,0.879-0.878C309.545,376.487,309.15,376.094,308.666,376.094z"/>
	<path fill="#8E8E8E" d="M298.439,408.729l-6.716,2.054c-0.308,0.094-0.635-0.08-0.73-0.39l-0.344-1.119   c-0.091-0.309,0.082-0.635,0.389-0.729l6.715-2.052c0.308-0.094,0.635,0.079,0.729,0.386l0.342,1.12   C298.921,408.307,298.747,408.634,298.439,408.729"/>
	<circle fill="#FFFFFF" cx="297.315" cy="407.824" r="0.674"/>
	<path fill="#8E8E8E" d="M313.643,408.729l6.716,2.054c0.309,0.094,0.637-0.08,0.73-0.39l0.343-1.119   c0.094-0.309-0.08-0.635-0.389-0.729l-6.717-2.052c-0.31-0.094-0.634,0.079-0.729,0.386l-0.342,1.12   C313.162,408.307,313.334,408.633,313.643,408.729"/>
	<circle fill="#FFFFFF" cx="314.539" cy="407.793" r="0.673"/>
</g>
</svg>