<svg version="1.1" id="Layer_1" xmlns="http://www.w3.org/2000/svg" xmlns:xlink="http://www.w3.org/1999/xlink" x="0px" y="0px" viewBox="205.57 366.47 200.73 59.28">
<g>
	<g>
		<path fill="#2C6898" d="M319.837,410.475v-2.444c0-4.052-3.283-7.332-7.334-7.332h-19.556c-4.05,0-7.333,3.283-7.333,7.332v2.444    H319.837z"/>
		<ellipse fill="#2C6898" cx="302.729" cy="375.642" rx="14.667" ry="9.167"/>
		<path fill="#AF7E57" d="M297.397,400.82c0,0,3.48,2.398,5.328,2.398s5.328-2.398,5.328-2.398v-4.658h-10.659v4.658H297.397z"/>
		<path fill="#9B6A4A" d="M297.387,398.219c1.485,1.682,3.329,2.135,5.334,2.135c2.003,0,3.846-0.456,5.333-2.135v-4.266h-10.667    L297.387,398.219L297.387,398.219z"/>
		<path fill="#AF7E57" d="M294.712,385.952c0,1.77-0.896,3.206-2.003,3.206c-1.105,0-2.003-1.436-2.003-3.206    s0.897-3.206,2.003-3.206C293.815,382.745,294.712,384.181,294.712,385.952 M314.743,385.952c0,1.77-0.896,3.206-2.004,3.206    c-1.105,0-2.003-1.436-2.003-3.206s0.896-3.206,2.003-3.206C313.847,382.745,314.743,384.181,314.743,385.952"/>
		<path fill="#AF7E57" d="M292.308,387.202c0-6.831,4.665-12.37,10.418-12.37c5.752,0,10.415,5.539,10.415,12.37    s-4.661,12.37-10.415,12.37C296.973,399.572,292.308,394.034,292.308,387.202"/>
		<path fill="#925B34" d="M302.726,395.565c-3.366,0-4.399-0.86-4.573-1.036c-0.32-0.304-0.333-0.811-0.029-1.133    c0.306-0.32,0.812-0.333,1.133-0.028c0.063,0.045,0.881,0.596,3.47,0.596c2.688,0,3.466-0.593,3.473-0.6    c0.306-0.303,0.8-0.301,1.104,0.005c0.005,0.005,0.011,0.008,0.014,0.013c0.309,0.324,0.301,0.833-0.018,1.147    C307.125,394.705,306.091,395.565,302.726,395.565"/>
		<path fill="#60362B" d="M302.726,371.86c6.903,0,11.217,3.962,11.217,8.207c0,4.244-0.861,5.943-1.727,4.244l-1.726-3.395    c0,0-5.176,0-6.901-1.699c0,0,2.589,5.094-2.589,0c0,0,0.862,3.397-4.315-0.848c0,0-2.587,1.698-3.451,5.942    c-0.239,1.179-1.725,0-1.725-4.244C291.508,375.822,294.96,371.86,302.726,371.86"/>
		<path fill="#60362B" d="M297.837,387.252c-0.673,0-1.223-0.55-1.223-1.222v-1.222c0-0.672,0.55-1.222,1.223-1.222    c0.672,0,1.222,0.55,1.222,1.222v1.222C299.059,386.702,298.509,387.252,297.837,387.252 M307.614,387.252    c-0.672,0-1.224-0.55-1.224-1.222v-1.222c0-0.672,0.552-1.222,1.224-1.222s1.223,0.55,1.223,1.222v1.222    C308.837,386.702,308.286,387.252,307.614,387.252"/>
		<path fill="#925B34" d="M303.642,390.613h-1.833c-0.505,0-0.917-0.412-0.917-0.917c0-0.505,0.412-0.917,0.917-0.917h1.833    c0.505,0,0.917,0.412,0.917,0.917C304.559,390.201,304.146,390.613,303.642,390.613"/>
		<path fill="#2C6898" d="M291.114,376.252v1.223c0,1.35,5.198,2.444,11.611,2.444c6.413,0,11.611-1.094,11.611-2.444v-1.223    H291.114z"/>
		<path fill="#438AC2" d="M313.727,376.252v-2.444c0,0-4.583-2.75-11-2.75c-6.414,0-10.998,2.75-10.998,2.75v2.444H313.727z"/>
		<path fill="#FDCB59" d="M314.337,376.252h-23.223c-0.337,0-0.611,0.275-0.611,0.611c0,0.336,0.274,0.611,0.611,0.611h23.223    c0.336,0,0.61-0.275,0.61-0.611C314.947,376.527,314.673,376.252,314.337,376.252z"/>
		<path fill="#1A3E5A" d="M305.105,405.924c1.083,0.76,2.214,1.521,2.623,1.687c0.021,0.009,0.021-0.136,0.016-0.14    c-2.392-2.802-4.991-4.319-4.991-4.319l0.017-0.012l-0.017,0.001h-0.037l0.013,0.011c0,0-2.554,1.497-4.932,4.254    c0.017,0.125,0.045,0.192,0.093,0.168c0.363-0.196,1.437-0.938,2.481-1.673c0.047,0.138,0.095,0.261,0.138,0.337    c0.189,0.342,0.645,1.104,0.645,1.104s-0.92,0.688-1.266,3.134h5.706c-0.344-1.948-1.261-3.134-1.261-3.134    s0.458-0.764,0.649-1.104C305.019,406.163,305.062,406.051,305.105,405.924z"/>
		<path fill="#438AC2" d="M302.727,403.15c0,0-0.012-0.008-0.013-0.011c-0.152-0.102-5.062-3.44-5.743-4.125    c-0.33-0.332-1.185,1.107-1.171,1.478c0.051,1.325,1.695,7.258,1.936,6.979l0.06-0.065    C300.172,404.647,302.727,403.15,302.727,403.15z M302.752,403.15c0,0,2.597,1.519,4.991,4.319    c0.005,0.006,0.013-0.006,0.02-0.006c0.288,0.035,1.866-5.675,1.914-6.973c0.017-0.369-0.84-1.81-1.17-1.478    c-0.682,0.682-5.574,4.013-5.739,4.124L302.752,403.15z"/>
		<path fill="#1E4C6F" d="M302.744,403.981c-0.686,0.037-1.773,1.149-1.66,1.622c0.521,2.184,0.951,1.604,1.7,1.604    c0.662,0,1.137,0.535,1.7-1.699C304.63,404.924,303.22,403.954,302.744,403.981z M302.776,407.826    c-1.806,0-2.467,2.647-2.467,2.647h4.916C305.228,410.475,304.583,407.826,302.776,407.826z"/>
		<path fill="#FDCB59" d="M305.476,368.309h-0.003c-0.271,0.003-0.528,0.13-0.696,0.345c-0.344,0.084-0.814,0.103-1.414-0.087    c-0.355-0.343-0.917-0.342-1.271,0.001c-0.6,0.19-1.072,0.171-1.414,0.087c-0.169-0.215-0.425-0.342-0.698-0.345h-0.002    c-0.506,0-0.917,0.411-0.917,0.917s0.411,0.917,0.917,0.917l0,0h0.002c0,3.667,1.831,4.583,2.747,4.583    c0.918,0,2.747-0.917,2.747-4.583h0.003c0.506,0,0.916-0.411,0.916-0.917C306.392,368.72,305.981,368.309,305.476,368.309z"/>
		<path fill="#438AC2" d="M294.741,402.422l-7.242,1.146c-0.333,0.053-0.646-0.175-0.698-0.509l-0.193-1.209    c-0.052-0.332,0.177-0.645,0.509-0.696l7.242-1.146c0.334-0.053,0.646,0.174,0.699,0.506l0.191,1.207    C295.302,402.057,295.074,402.37,294.741,402.422"/>
		<circle fill="#FFFFFF" cx="293.712" cy="401.324" r="0.704"/>
		<path fill="#438AC2" d="M310.724,402.422l7.244,1.146c0.331,0.053,0.646-0.175,0.698-0.509l0,0l0.191-1.209    c0.053-0.332-0.178-0.645-0.509-0.696l-7.245-1.146c-0.331-0.053-0.645,0.174-0.697,0.506l-0.191,1.207    C310.164,402.057,310.391,402.369,310.724,402.422"/>
		<circle fill="#FFFFFF" cx="311.515" cy="401.324" r="0.704"/>
	</g>
	<g>
		<path fill="#2C6898" d="M278.221,409.483v-1.168c0-4.669-4.301-8.171-8.17-8.171h-16.339c-3.866,0-8.169,3.502-8.169,8.171v1.168    H278.221z"/>
		<ellipse fill="#2C6898" cx="261.885" cy="376.221" rx="14.005" ry="8.753"/>
		<path fill="#FFDC5F" d="M256.794,400.264c0,0,3.323,2.291,5.088,2.291c1.765,0,5.087-2.291,5.087-2.291v-4.448h-10.178v4.448    H256.794z"/>
		<path fill="#F9CB56" d="M256.783,397.464c1.42,1.604,3.18,2.038,5.094,2.038c1.912,0,3.672-0.436,5.092-2.038v-4.075h-10.187    L256.783,397.464L256.783,397.464z"/>
		<path fill="#FBAC35" d="M251.38,377.387c-0.435,0.819-1.274,1.716-1.393,2.67c-0.495,4.024,0.61,5.894,1.004,8.92    c0.446,3.429,2.288,4.525,3.763,4.984c2.119,2.929,4.374,2.803,8.156,2.803c7.389,0,10.607-5.24,10.918-14.022    c0.072-2.009-0.441-3.762-1.232-5.353L251.38,377.387L251.38,377.387z"/>
		<path fill="#FFDC5F" d="M270.238,383.188c-0.716-1.035-1.631-1.869-3.637-2.163c0.753,0.36,1.473,1.607,1.566,2.295    c0.096,0.688,0.188,1.247-0.406,0.558c-2.387-2.759-4.984-1.672-7.561-3.357c-1.799-1.178-2.348-2.479-2.348-2.479    s-0.219,1.738-2.947,3.509c-0.789,0.513-1.733,1.656-2.256,3.345c-0.377,1.214-0.26,2.295-0.26,4.144    c0,5.398,4.252,9.937,9.5,9.937s9.501-4.579,9.501-9.937C271.389,385.68,271.052,384.368,270.238,383.188z"/>
		<path fill="#C26A50" d="M261.882,396.022c-3.214,0-4.201-0.823-4.366-0.989c-0.307-0.291-0.318-0.775-0.029-1.081    c0.292-0.307,0.775-0.319,1.082-0.028l0,0c0.061,0.043,0.842,0.569,3.313,0.569c2.567,0,3.31-0.567,3.316-0.573    c0.292-0.289,0.763-0.287,1.054,0.005c0.004,0.004,0.008,0.009,0.012,0.013c0.294,0.308,0.287,0.794-0.016,1.094    C266.082,395.199,265.096,396.022,261.882,396.022 M262.938,391.798h-2.111c-0.292,0-0.529-0.248-0.529-0.553    c0-0.304,0.237-0.552,0.529-0.552h2.111c0.291,0,0.525,0.248,0.525,0.552C263.472,391.543,263.235,391.79,262.938,391.798    L262.938,391.798z"/>
		<path fill="#662314" d="M257.658,387.934c-0.582,0-1.054-0.496-1.054-1.105v-1.104c0-0.609,0.472-1.104,1.054-1.104    c0.583,0,1.056,0.494,1.056,1.104v1.104C258.715,387.438,258.242,387.934,257.658,387.934z M266.104,387.934    c-0.582,0-1.055-0.496-1.055-1.105v-1.104c0-0.609,0.473-1.104,1.055-1.104c0.583,0,1.055,0.494,1.055,1.104v1.104    C267.158,387.438,266.687,387.934,266.104,387.934z"/>
		<path fill="#2C6898" d="M250.795,376.804v1.167c0,1.29,4.963,2.334,11.087,2.334s11.087-1.045,11.087-2.334v-1.167H250.795z"/>
		<path fill="#438AC2" d="M272.387,376.804v-2.334c0,0-4.377-2.626-10.505-2.626c-6.126,0-10.502,2.626-10.502,2.626v2.334H272.387z    "/>
		<path fill="#FDCB59" d="M272.969,376.804h-22.174c-0.322,0-0.584,0.263-0.584,0.583c0,0.32,0.262,0.583,0.584,0.583h22.174    c0.321,0,0.584-0.263,0.584-0.583C273.553,377.067,273.29,376.804,272.969,376.804z"/>
		<path fill="#1A3E5A" d="M264.154,405.137c1.033,0.727,2.113,1.453,2.505,1.61c0.021,0.008,0.019-0.129,0.015-0.134    c-2.285-2.676-4.768-4.125-4.768-4.125l0.017-0.011l-0.017,0.003h-0.035l0.013,0.008c0,0-2.438,1.43-4.709,4.062    c0.016,0.119,0.043,0.186,0.089,0.16c0.346-0.188,1.371-0.895,2.369-1.598c0.045,0.131,0.09,0.25,0.131,0.321    c0.182,0.326,0.615,1.057,0.615,1.057s-0.879,0.657-1.208,2.992h5.448c-0.328-1.861-1.203-2.992-1.203-2.992    s0.438-0.729,0.619-1.057C264.07,405.365,264.111,405.258,264.154,405.137z"/>
		<path fill="#438AC2" d="M261.883,402.488c0,0-0.012-0.006-0.013-0.008c-0.146-0.1-4.833-3.288-5.483-3.939    c-0.315-0.317-1.131,1.057-1.118,1.41c0.048,1.265,1.618,6.93,1.848,6.662l0.058-0.062    C259.443,403.918,261.883,402.488,261.883,402.488z M261.906,402.488c0,0,2.48,1.45,4.768,4.125    c0.004,0.006,0.012-0.006,0.018-0.006c0.275,0.034,1.782-5.418,1.828-6.656c0.015-0.354-0.803-1.729-1.117-1.41    c-0.65,0.649-5.322,3.83-5.48,3.938L261.906,402.488z"/>
		<path fill="#1E4C6F" d="M261.899,403.282c-0.655,0.036-1.693,1.099-1.585,1.55c0.498,2.084,0.908,1.531,1.623,1.531    c0.633,0,1.086,0.512,1.624-1.622C263.701,404.183,262.354,403.256,261.899,403.282z M261.931,406.953    c-1.725,0-2.356,2.529-2.356,2.529h4.695C264.271,409.482,263.654,406.953,261.931,406.953z"/>
		<path fill="#FDCB59" d="M264.508,369.219h-0.003c-0.26,0.003-0.505,0.124-0.665,0.329c-0.328,0.081-0.777,0.098-1.35-0.083    c-0.34-0.328-0.877-0.327-1.215,0c-0.572,0.182-1.023,0.164-1.35,0.083c-0.162-0.205-0.406-0.326-0.667-0.33h-0.002    c-0.483,0-0.876,0.393-0.876,0.875c0,0.483,0.393,0.875,0.876,0.875l0,0h0.002c0,3.501,1.749,4.376,2.623,4.376    c0.876,0,2.623-0.875,2.623-4.376h0.003c0.482,0,0.875-0.392,0.875-0.876C265.382,369.608,264.99,369.219,264.508,369.219z"/>
		<path fill="#438AC2" d="M254.307,401.766l-6.697,2.049c-0.308,0.093-0.633-0.08-0.729-0.389l-0.343-1.117    c-0.091-0.308,0.081-0.633,0.388-0.727l6.697-2.047c0.308-0.094,0.633,0.078,0.729,0.385l0.341,1.117    C254.788,401.345,254.615,401.672,254.307,401.766"/>
		<circle fill="#FFFFFF" cx="253.187" cy="400.864" r="0.672"/>
		<path fill="#438AC2" d="M269.47,401.766l6.696,2.049c0.309,0.093,0.635-0.08,0.73-0.389l0.342-1.117    c0.092-0.308-0.08-0.633-0.388-0.727l-6.698-2.047c-0.308-0.094-0.633,0.078-0.729,0.385l-0.34,1.117    C268.99,401.345,269.162,401.67,269.47,401.766"/>
		<circle fill="#FFFFFF" cx="270.363" cy="400.834" r="0.672"/>
	</g>
	<g>
		<path fill="#2C6898" d="M233.759,407.975v-3.791c0-3.591-3.994-5.959-7.584-5.959h-13c-3.589,0-7.583,2.368-7.583,5.959v3.791    H233.759z"/>
		<ellipse fill="#2C6898" cx="219.742" cy="377.101" rx="13" ry="8.125"/>
		<path fill="#FFE516" d="M219.616,374.466c4.446,0,11.859,2.224,11.859,11.859c0,9.638,0,11.859-2.224,11.859    s-5.189-2.224-9.636-2.224c-4.448,0-7.351,2.224-9.637,2.224c-2.479,0-2.226-8.895-2.226-11.859    C207.754,376.69,215.168,374.466,219.616,374.466"/>
		<path fill="#F3D2A2" d="M215.697,400.91c1.587,1.154,3.21,1.062,3.978,1.062c0.767,0,2.377,0.093,3.966-1.062v-6.136h-7.943v6.136    H215.697z"/>
		<path fill="#E1C096" d="M215.691,396.253c1.107,1.251,2.481,1.589,3.974,1.589s2.867-0.338,3.976-1.589v-3.181h-7.949    L215.691,396.253L215.691,396.253z"/>
		<path fill="#F3D2A2" d="M210.72,386.002c0-6.32,3.983-11.442,8.896-11.442c4.91,0,8.893,5.123,8.893,11.442    s-3.982,11.142-8.893,11.142C214.703,397.145,210.72,392.322,210.72,386.002"/>
		<path fill="#FFE516" d="M208.545,389.559c-0.022-1.083-0.048-0.244-0.048-0.504c0-3.708,2.224,0.536,2.224-2.105    c0-2.643,1.482-2.906,2.965-4.389c0.742-0.742,2.224-2.195,2.224-2.195s3.707,2.239,6.671,2.239c2.965,0,5.931,1.49,5.931,4.455    c0,2.964,2.225-1.716,2.225,1.991c0,0.264-0.024-0.576-0.045,0.508h0.779c0.007-2.167,0.007-2.084,0.007-3.469    c0-9.636-7.412-12.645-11.86-12.645c-4.445,0-11.859,2.949-11.859,12.585c0,0.859-0.021,1.361,0.009,3.528L208.545,389.559    L208.545,389.559z"/>
		<path fill="#F3D2A2" d="M230.326,386.239c0,1.568-0.793,2.841-1.774,2.841c-0.98,0-1.775-1.272-1.775-2.841    c0-1.569,0.793-2.842,1.775-2.842C229.533,383.396,230.326,384.669,230.326,386.239 M212.574,386.239    c0,1.568-0.796,2.841-1.776,2.841s-1.776-1.272-1.776-2.841c0-1.569,0.796-2.842,1.776-2.842    C211.778,383.396,212.574,384.669,212.574,386.239"/>
		<path fill="#DF2233" d="M219.616,394.48c-1.739,0-2.651-0.86-2.749-0.958c-0.277-0.303-0.256-0.772,0.047-1.048    c0.28-0.257,0.711-0.261,0.994-0.007c0.038,0.035,0.597,0.532,1.708,0.532c1.124,0,1.684-0.512,1.707-0.532    c0.297-0.279,0.76-0.269,1.043,0.021c0.282,0.292,0.282,0.749-0.004,1.035C222.265,393.62,221.355,394.48,219.616,394.48"/>
		<path fill="#662314" d="M216.001,388.353c-0.505-0.003-0.915-0.412-0.916-0.918v-0.916c0-0.504,0.412-0.916,0.916-0.916    c0.506,0.001,0.915,0.411,0.917,0.916v0.916C216.917,387.941,216.508,388.351,216.001,388.353 M223.329,388.353    c-0.506-0.003-0.914-0.412-0.916-0.918v-0.916c0-0.504,0.413-0.916,0.916-0.916c0.504,0,0.917,0.412,0.917,0.916v0.916    C224.244,387.941,223.835,388.35,223.329,388.353"/>
		<path fill="#C26A50" d="M220.581,391.184h-1.832c-0.252,0-0.458-0.206-0.458-0.458v-0.166c0-0.251,0.206-0.459,0.458-0.459h1.832    c0.252,0,0.459,0.205,0.459,0.459v0.166C221.04,390.978,220.835,391.184,220.581,391.184"/>
		<path fill="#2C6898" d="M209.447,377.642v1.083c0,1.197,4.607,2.167,10.291,2.167c5.685,0,10.292-0.97,10.292-2.167v-1.083    H209.447z"/>
		<path fill="#438AC2" d="M229.489,377.642v-2.167c0,0-4.062-2.438-9.751-2.438c-5.685,0-9.747,2.438-9.747,2.438v2.167H229.489z"/>
		<path fill="#FDCB59" d="M230.03,377.642h-20.583c-0.299,0-0.542,0.244-0.542,0.542c0,0.297,0.243,0.542,0.542,0.542h20.583    c0.299,0,0.542-0.244,0.542-0.542C230.572,377.886,230.329,377.642,230.03,377.642z"/>
		<path fill="#1A3E5A" d="M224.174,404.801c0.169,0.067-0.396-3.961-0.396-3.961h-8.077c0,0-0.565,4.098-0.249,3.928    c0.771-0.414,0.939-0.531,2.205-1.458c0.041,0.112,0.08,0.215,0.113,0.276c0.17,0.303,0.572,0.98,0.572,0.98    s-0.887,1.239-1.194,3.407h5.146c-0.305-1.727-1.135-3.407-1.135-3.407c0.704-1.175,0.754-1.302,0.575-0.98    c0.044-0.09,0.081-0.184,0.113-0.278C222.809,403.982,223.811,404.657,224.174,404.801z"/>
		<path fill="#438AC2" d="M214.639,397.188c0.612,0.613,5.101,3.665,5.101,3.665s-2.303,1.347-4.424,3.828    c-0.213,0.248-1.671-5.01-1.715-6.185C213.588,398.169,214.346,396.894,214.639,397.188 M224.863,397.188    c-0.613,0.613-5.102,3.665-5.102,3.665s2.303,1.347,4.425,3.828c0.211,0.248,1.669-5.01,1.714-6.185    C225.914,398.169,225.156,396.894,224.863,397.188"/>
		<path fill="#1E4C6F" d="M219.756,401.59c0.423-0.024,1.671,0.834,1.54,1.354c-0.499,1.979-0.919,1.507-1.507,1.507    c-0.662,0-1.044,0.512-1.506-1.422C218.182,402.609,219.146,401.623,219.756,401.59 M221.905,407.975c0,0-0.521-2.978-2.121-2.978    c-1.6,0-2.179,2.978-2.179,2.978H221.905"/>
		<path fill="#FDCB59" d="M222.176,370.601h-0.002c-0.241,0.003-0.469,0.115-0.617,0.306c-0.305,0.075-0.722,0.091-1.253-0.077    c-0.315-0.304-0.813-0.303-1.128,0.001c-0.531,0.168-0.95,0.152-1.253,0.077c-0.149-0.19-0.376-0.302-0.618-0.306h-0.003    c-0.448,0-0.812,0.364-0.812,0.812c0,0.449,0.364,0.812,0.812,0.812l0,0h0.003c0,3.25,1.622,4.062,2.434,4.062    c0.813,0,2.436-0.812,2.436-4.062h0.002c0.449,0,0.812-0.364,0.812-0.813C222.989,370.964,222.625,370.601,222.176,370.601z"/>
		<path fill="#438AC2" d="M212.245,400.275l-4.742,1.474c-0.285,0.093-0.591-0.063-0.683-0.349l-0.336-1.029    c-0.09-0.285,0.066-0.589,0.35-0.682l4.744-1.478c0.284-0.09,0.588,0.064,0.683,0.349l0.335,1.03    C212.685,399.877,212.527,400.18,212.245,400.275"/>
		<circle fill="#FFFFFF" cx="211.345" cy="399.356" r="0.624"/>
		<path fill="#438AC2" d="M227.146,400.275l4.744,1.474c0.284,0.093,0.59-0.063,0.684-0.349l0.335-1.029    c0.089-0.285-0.065-0.589-0.35-0.682l-4.743-1.478c-0.285-0.09-0.589,0.064-0.683,0.349l-0.336,1.03    C226.706,399.873,226.863,400.182,227.146,400.275"/>
		<circle fill="#FFFFFF" cx="228.046" cy="399.356" r="0.624"/>
	</g>
	<g>
		<path fill="#2C6898" d="M353.502,407.476v-1.057c0-4.222-3.891-7.389-7.389-7.389h-14.778c-3.496,0-7.389,3.167-7.389,7.389v1.057    H353.502z"/>
		<ellipse fill="#2C6898" cx="338.728" cy="377.392" rx="12.666" ry="7.917"/>
		<path fill="#F3D2A2" d="M334.122,399.137c0,0,3.006,2.072,4.602,2.072c1.597,0,4.603-2.072,4.603-2.072v-4.021h-9.205    L334.122,399.137L334.122,399.137z"/>
		<path fill="#E1C096" d="M334.113,396.604c1.283,1.45,2.875,1.844,4.605,1.844c1.729,0,3.321-0.395,4.605-1.844v-3.685h-9.213    L334.113,396.604L334.113,396.604z"/>
		<path fill="#FFE516" d="M329.227,378.447c-0.394,0.741-1.152,1.551-1.26,2.415c-0.449,3.64,0.551,5.331,0.908,8.068    c0.402,3.101,2.069,4.093,3.402,4.508c1.917,2.649,3.956,2.535,7.378,2.535c6.683,0,9.594-4.74,9.874-12.683    c0.063-1.817-0.4-3.403-1.115-4.842L329.227,378.447L329.227,378.447z"/>
		<path fill="#F3D2A2" d="M346.282,383.692c-0.647-0.936-1.476-1.69-3.29-1.956c0.682,0.326,1.333,1.453,1.418,2.076    c0.086,0.623,0.17,1.127-0.368,0.505c-2.158-2.495-4.508-1.513-6.837-3.037c-1.627-1.065-2.124-2.242-2.124-2.242    s-0.198,1.571-2.666,3.174c-0.713,0.464-1.567,1.498-2.041,3.025c-0.34,1.098-0.233,2.076-0.233,3.748    c0,4.882,3.847,8.987,8.593,8.987s8.593-4.141,8.593-8.987C347.323,385.946,347.018,384.76,346.282,383.692z"/>
		<path fill="#C26A50" d="M338.724,395.301c-2.905,0-3.799-0.745-3.947-0.895c-0.277-0.263-0.288-0.701-0.026-0.977    c0.264-0.277,0.701-0.289,0.979-0.026l0,0c0.056,0.039,0.762,0.515,2.996,0.515c2.323,0,2.994-0.513,3-0.518    c0.265-0.262,0.69-0.26,0.952,0.004c0.005,0.004,0.009,0.008,0.013,0.013c0.266,0.278,0.26,0.718-0.016,0.989    C342.523,394.556,341.631,395.301,338.724,395.301 M339.679,391.48h-1.909c-0.264,0-0.479-0.225-0.479-0.5s0.215-0.5,0.479-0.5    h1.909c0.265,0,0.478,0.225,0.478,0.5C340.162,391.25,339.948,391.473,339.679,391.48L339.679,391.48z"/>
		<path fill="#662314" d="M334.905,387.985c-0.527,0-0.954-0.448-0.954-0.999v-0.998c0-0.551,0.427-0.999,0.954-0.999    c0.525,0,0.954,0.447,0.954,0.999v0.998C335.86,387.537,335.433,387.985,334.905,387.985z M342.543,387.985    c-0.526,0-0.954-0.448-0.954-0.999v-0.998c0-0.551,0.428-0.999,0.954-0.999c0.527,0,0.954,0.447,0.954,0.999v0.998    C343.497,387.537,343.07,387.985,342.543,387.985z"/>
		<path fill="#2C6898" d="M328.696,377.919v1.056c0,1.167,4.488,2.111,10.026,2.111c5.539,0,10.028-0.944,10.028-2.111v-1.056    H328.696z"/>
		<path fill="#438AC2" d="M348.225,377.919v-2.111c0,0-3.958-2.375-9.501-2.375c-5.539,0-9.497,2.375-9.497,2.375v2.111H348.225z"/>
		<path fill="#FDCB59" d="M348.752,377.919h-20.056c-0.291,0-0.527,0.238-0.527,0.528c0,0.29,0.236,0.528,0.527,0.528h20.056    c0.291,0,0.527-0.238,0.527-0.528C349.279,378.157,349.043,377.919,348.752,377.919z"/>
		<path fill="#1A3E5A" d="M340.779,403.545c0.936,0.656,1.912,1.313,2.266,1.455c0.02,0.008,0.017-0.115,0.013-0.12    c-2.064-2.419-4.311-3.729-4.311-3.729l0.014-0.01h-0.014h-0.032l0.012,0.01c0,0-2.206,1.292-4.26,3.674    c0.016,0.107,0.039,0.167,0.08,0.145c0.313-0.169,1.24-0.808,2.145-1.443c0.039,0.118,0.08,0.226,0.117,0.291    c0.164,0.295,0.558,0.954,0.558,0.954s-0.795,0.595-1.093,2.706h4.928c-0.297-1.683-1.089-2.706-1.089-2.706    s0.396-0.659,0.561-0.954C340.704,403.752,340.741,403.654,340.779,403.545z"/>
		<path fill="#438AC2" d="M338.725,401.149c0,0-0.01-0.008-0.011-0.01c-0.131-0.088-4.371-2.973-4.959-3.562    c-0.286-0.286-1.023,0.956-1.012,1.274c0.043,1.146,1.464,6.27,1.671,6.026l0.052-0.057    C336.52,402.441,338.725,401.149,338.725,401.149z M338.747,401.149c0,0,2.243,1.312,4.311,3.729    c0.005,0.005,0.013-0.005,0.018-0.005c0.249,0.031,1.612-4.9,1.653-6.021c0.014-0.318-0.727-1.562-1.011-1.274    c-0.589,0.588-4.813,3.465-4.958,3.562L338.747,401.149z"/>
		<path fill="#1E4C6F" d="M338.74,401.867c-0.593,0.033-1.531,0.994-1.435,1.401c0.45,1.885,0.821,1.386,1.469,1.386    c0.571,0,0.981,0.462,1.469-1.469C340.369,402.682,339.15,401.844,338.74,401.867z M338.769,405.188    c-1.56,0-2.131,2.287-2.131,2.287h4.246C340.885,407.475,340.328,405.188,338.769,405.188z"/>
		<path fill="#FDCB59" d="M341.099,371.059h-0.002c-0.233,0.003-0.456,0.112-0.602,0.298c-0.297,0.073-0.703,0.088-1.221-0.075    c-0.308-0.296-0.793-0.295-1.1,0.001c-0.518,0.164-0.926,0.148-1.221,0.075c-0.146-0.186-0.367-0.295-0.604-0.298h-0.003    c-0.437,0-0.791,0.354-0.791,0.792s0.354,0.792,0.791,0.792l0,0h0.003c0,3.167,1.581,3.958,2.371,3.958    c0.793,0,2.373-0.792,2.373-3.958h0.002c0.438,0,0.792-0.354,0.792-0.792S341.536,371.059,341.099,371.059z"/>
		<path fill="#438AC2" d="M331.873,400.496l-6.057,1.852c-0.278,0.084-0.573-0.071-0.66-0.352l-0.31-1.01    c-0.083-0.277,0.072-0.572,0.351-0.657l6.058-1.853c0.278-0.085,0.573,0.071,0.658,0.35l0.309,1.01    C332.309,400.115,332.151,400.41,331.873,400.496"/>
		<circle fill="#FFFFFF" cx="330.86" cy="399.68" r="0.607"/>
		<path fill="#438AC2" d="M345.587,400.496l6.058,1.852c0.278,0.084,0.573-0.071,0.659-0.352l0.311-1.01    c0.084-0.277-0.072-0.572-0.352-0.657l-6.058-1.853c-0.278-0.085-0.572,0.071-0.659,0.35l-0.308,1.01    C345.153,400.115,345.309,400.409,345.587,400.496"/>
		<circle fill="#FFFFFF" cx="346.396" cy="399.652" r="0.607"/>
	</g>
	<g>
		<path fill="#2C6898" d="M297.526,425.744v-2.333c0-3.867-3.133-7-7-7h-18.667c-3.865,0-7,3.134-7,7v2.333H297.526z"/>
		<ellipse fill="#2C6898" cx="281.196" cy="392.495" rx="14.001" ry="8.75"/>
		<path fill="#F7DECE" d="M276.107,416.529c0,0,3.322,2.29,5.086,2.29c1.764,0,5.086-2.29,5.086-2.29v-4.447h-10.175v4.447H276.107z    "/>
		<path fill="#EEC2AD" d="M276.097,414.045c1.419,1.605,3.178,2.038,5.092,2.038c1.912,0,3.671-0.436,5.091-2.038v-4.071h-10.184    L276.097,414.045L276.097,414.045z"/>
		<path fill="#F7DECE" d="M273.544,402.336c0,1.689-0.856,3.061-1.912,3.061c-1.056,0-1.912-1.37-1.912-3.061    c0-1.689,0.856-3.061,1.912-3.061C272.688,399.274,273.544,400.645,273.544,402.336 M292.665,402.336    c0,1.689-0.855,3.061-1.913,3.061c-1.055,0-1.911-1.37-1.911-3.061c0-1.689,0.855-3.061,1.911-3.061    C291.81,399.274,292.665,400.645,292.665,402.336"/>
		<path fill="#F7DECE" d="M271.249,403.529c0-6.521,4.452-11.808,9.944-11.808c5.491,0,9.941,5.288,9.941,11.808    c0,6.52-4.45,11.809-9.941,11.809C275.701,415.338,271.249,410.051,271.249,403.529"/>
		<path fill="#C26A50" d="M281.193,411.513c-3.213,0-4.2-0.82-4.365-0.988c-0.307-0.29-0.317-0.773-0.028-1.08    c0.292-0.308,0.774-0.318,1.081-0.027c0.061,0.043,0.841,0.568,3.312,0.568c2.566,0,3.309-0.566,3.315-0.572    c0.291-0.289,0.763-0.287,1.053,0.004c0.004,0.005,0.009,0.008,0.013,0.014c0.294,0.31,0.287,0.795-0.017,1.095    C285.393,410.691,284.406,411.513,281.193,411.513"/>
		<path fill="#2A2F33" d="M281.193,388.884c6.59,0,10.707,3.782,10.707,7.834c0,4.051-0.822,5.673-1.647,4.051l-1.647-3.239    c0,0-4.94,0-6.588-1.622c0,0,2.472,4.861-2.471,0c0,0,0.823,3.243-4.119-0.81c0,0-2.47,1.621-3.295,5.671    c-0.228,1.125-1.646,0-1.646-4.051C270.485,392.667,273.78,388.884,281.193,388.884"/>
		<path fill="#662314" d="M276.526,403.577c-0.642,0-1.167-0.524-1.167-1.167v-1.166c0-0.643,0.525-1.167,1.167-1.167    s1.167,0.524,1.167,1.167v1.166C277.693,403.053,277.168,403.577,276.526,403.577 M285.86,403.577    c-0.642,0-1.167-0.524-1.167-1.167v-1.166c0-0.643,0.525-1.167,1.167-1.167c0.641,0,1.166,0.524,1.166,1.167v1.166    C287.026,403.053,286.501,403.577,285.86,403.577"/>
		<path fill="#C26A50" d="M282.068,406.785h-1.75c-0.482,0-0.875-0.394-0.875-0.875s0.393-0.875,0.875-0.875h1.75    c0.481,0,0.875,0.394,0.875,0.875C282.943,406.393,282.55,406.785,282.068,406.785"/>
		<path fill="#2C6898" d="M270.109,393.077v1.167c0,1.289,4.962,2.333,11.084,2.333c6.121,0,11.083-1.044,11.083-2.333v-1.167    H270.109z"/>
		<path fill="#438AC2" d="M291.694,393.077v-2.333c0,0-4.375-2.625-10.501-2.625c-6.123,0-10.498,2.625-10.498,2.625v2.333H291.694z    "/>
		<path fill="#FDCB59" d="M292.276,393.077h-22.167c-0.321,0-0.583,0.263-0.583,0.583c0,0.321,0.262,0.583,0.583,0.583h22.167    c0.321,0,0.584-0.263,0.584-0.583C292.86,393.34,292.598,393.077,292.276,393.077z"/>
		<path fill="#1A3E5A" d="M283.465,421.401c1.033,0.725,2.113,1.451,2.505,1.607c0.021,0.008,0.018-0.129,0.014-0.133    c-2.284-2.674-4.766-4.123-4.766-4.123l0.017-0.011l-0.017,0.001h-0.035l0.013,0.01c0,0-2.438,1.428-4.708,4.062    c0.017,0.118,0.044,0.184,0.089,0.158c0.347-0.187,1.371-0.894,2.369-1.597c0.044,0.131,0.09,0.25,0.131,0.322    c0.182,0.326,0.615,1.056,0.615,1.056s-0.878,0.656-1.208,2.991h5.446c-0.328-1.861-1.203-2.991-1.203-2.991    s0.438-0.729,0.62-1.056C283.382,421.629,283.423,421.521,283.465,421.401z"/>
		<path fill="#438AC2" d="M281.194,418.754c0,0-0.012-0.008-0.013-0.01c-0.145-0.098-4.831-3.285-5.481-3.938    c-0.315-0.315-1.131,1.058-1.117,1.41c0.048,1.265,1.617,6.928,1.847,6.66l0.057-0.062    C278.756,420.182,281.194,418.754,281.194,418.754z M281.218,418.754c0,0,2.479,1.449,4.766,4.123    c0.004,0.006,0.012-0.006,0.018-0.006c0.276,0.034,1.782-5.416,1.828-6.654c0.015-0.354-0.803-1.727-1.117-1.41    c-0.65,0.649-5.32,3.83-5.479,3.938L281.218,418.754z"/>
		<path fill="#1E4C6F" d="M281.211,419.547c-0.654,0.036-1.692,1.098-1.584,1.549c0.497,2.083,0.907,1.531,1.622,1.531    c0.632,0,1.086,0.511,1.623-1.622C283.012,420.446,281.665,419.52,281.211,419.547z M281.242,423.217    c-1.724,0-2.355,2.527-2.355,2.527h4.693C283.581,425.744,282.966,423.217,281.242,423.217z"/>
		<path fill="#FDCB59" d="M283.818,385.495h-0.003c-0.26,0.003-0.504,0.124-0.665,0.329c-0.328,0.081-0.777,0.098-1.349-0.083    c-0.34-0.327-0.876-0.326-1.215,0.001c-0.572,0.181-1.023,0.164-1.349,0.083c-0.162-0.205-0.406-0.326-0.667-0.33h-0.002    c-0.483,0-0.875,0.392-0.875,0.875s0.392,0.875,0.875,0.875l0,0h0.002c0,3.5,1.748,4.375,2.622,4.375    c0.876,0,2.622-0.875,2.622-4.375h0.003c0.482,0,0.875-0.392,0.875-0.875C284.693,385.887,284.301,385.495,283.818,385.495z"/>
		<path fill="#438AC2" d="M273.572,418.059l-6.914,1.095c-0.317,0.05-0.616-0.166-0.666-0.485l-0.185-1.153    c-0.049-0.315,0.168-0.614,0.485-0.665l6.913-1.094c0.319-0.05,0.616,0.166,0.668,0.483l0.183,1.151    C274.106,417.709,273.89,418.008,273.572,418.059"/>
		<circle fill="#FFFFFF" cx="272.589" cy="417.01" r="0.672"/>
		<path fill="#438AC2" d="M288.828,418.059l6.914,1.095c0.317,0.05,0.617-0.166,0.667-0.485l0,0l0.184-1.153    c0.05-0.315-0.169-0.614-0.485-0.665l-6.916-1.094c-0.316-0.05-0.615,0.166-0.667,0.483l-0.182,1.151    C288.294,417.709,288.51,418.008,288.828,418.059"/>
		<circle fill="#FFFFFF" cx="289.583" cy="417.01" r="0.672"/>
	</g>
	<g>
		<path fill="#2C6898" d="M254.348,423.745v-1.058c0-4.222-3.891-7.389-7.389-7.389h-14.778c-3.496,0-7.389,3.167-7.389,7.389v1.058    H254.348z"/>
		<ellipse fill="#2C6898" cx="239.573" cy="393.662" rx="12.666" ry="7.917"/>
		<path fill="#F3D2A2" d="M234.968,415.406c0,0,3.006,2.071,4.602,2.071c1.596,0,4.602-2.071,4.602-2.071v-4.022h-9.205    L234.968,415.406L234.968,415.406z"/>
		<path fill="#E1C096" d="M234.959,412.874c1.283,1.45,2.875,1.843,4.606,1.843c1.729,0,3.321-0.394,4.605-1.843v-3.685h-9.213    L234.959,412.874L234.959,412.874z"/>
		<path fill="#FFE516" d="M230.072,394.716c-0.394,0.741-1.153,1.551-1.26,2.415c-0.449,3.642,0.551,5.331,0.908,8.068    c0.402,3.102,2.069,4.093,3.402,4.508c1.917,2.649,3.956,2.535,7.378,2.535c6.683,0,9.594-4.74,9.874-12.685    c0.064-1.815-0.4-3.401-1.115-4.841L230.072,394.716L230.072,394.716z"/>
		<path fill="#F3D2A2" d="M247.128,399.962c-0.647-0.936-1.475-1.689-3.29-1.956c0.682,0.326,1.333,1.453,1.418,2.076    c0.086,0.622,0.17,1.127-0.368,0.504c-2.158-2.494-4.508-1.512-6.837-3.037c-1.627-1.063-2.124-2.241-2.124-2.241    s-0.198,1.571-2.666,3.174c-0.713,0.464-1.567,1.497-2.041,3.024c-0.34,1.099-0.233,2.076-0.233,3.748    c0,4.882,3.846,8.987,8.592,8.987s8.593-4.142,8.593-8.987C248.169,402.216,247.863,401.029,247.128,399.962z"/>
		<path fill="#C26A50" d="M239.569,411.57c-2.906,0-3.799-0.744-3.948-0.896c-0.277-0.264-0.288-0.701-0.026-0.978    c0.264-0.277,0.701-0.288,0.979-0.026l0,0c0.055,0.039,0.761,0.517,2.996,0.517c2.323,0,2.994-0.515,3-0.519    c0.264-0.262,0.69-0.26,0.952,0.004c0.005,0.004,0.009,0.008,0.012,0.012c0.266,0.279,0.26,0.72-0.015,0.99    C243.369,410.826,242.477,411.57,239.569,411.57 M240.524,407.75h-1.909c-0.264,0-0.479-0.225-0.479-0.5s0.215-0.5,0.479-0.5    h1.909c0.264,0,0.477,0.225,0.477,0.5C241.008,407.52,240.794,407.742,240.524,407.75L240.524,407.75z"/>
		<path fill="#662314" d="M235.751,404.254c-0.527,0-0.954-0.447-0.954-0.998v-0.998c0-0.552,0.427-0.999,0.954-0.999    c0.526,0,0.954,0.447,0.954,0.999v0.998C236.706,403.807,236.278,404.254,235.751,404.254z M243.389,404.254    c-0.526,0-0.954-0.447-0.954-0.998v-0.998c0-0.552,0.428-0.999,0.954-0.999c0.527,0,0.954,0.447,0.954,0.999v0.998    C244.343,403.807,243.916,404.254,243.389,404.254z"/>
		<path fill="#2C6898" d="M229.542,394.188v1.056c0,1.167,4.489,2.111,10.027,2.111c5.539,0,10.028-0.945,10.028-2.111v-1.056    H229.542z"/>
		<path fill="#438AC2" d="M249.07,394.188v-2.111c0,0-3.958-2.375-9.501-2.375c-5.539,0-9.497,2.375-9.497,2.375v2.111H249.07z"/>
		<path fill="#FDCB59" d="M249.598,394.188h-20.056c-0.291,0-0.527,0.238-0.527,0.528s0.236,0.528,0.527,0.528h20.056    c0.291,0,0.527-0.238,0.527-0.528S249.889,394.188,249.598,394.188z"/>
		<path fill="#1A3E5A" d="M241.625,419.814c0.936,0.655,1.912,1.312,2.266,1.454c0.019,0.009,0.017-0.114,0.013-0.119    c-2.065-2.419-4.311-3.73-4.311-3.73l0.014-0.009h-0.014h-0.032l0.012,0.009c0,0-2.206,1.292-4.26,3.674    c0.015,0.108,0.039,0.167,0.08,0.146c0.313-0.169,1.24-0.809,2.144-1.444c0.04,0.119,0.081,0.226,0.118,0.291    c0.164,0.295,0.557,0.955,0.557,0.955s-0.795,0.594-1.093,2.706h4.928c-0.297-1.684-1.089-2.706-1.089-2.706    s0.396-0.66,0.561-0.955C241.55,420.021,241.587,419.924,241.625,419.814z"/>
		<path fill="#438AC2" d="M239.57,417.419c0,0-0.01-0.007-0.011-0.009c-0.131-0.088-4.371-2.973-4.959-3.562    c-0.286-0.286-1.024,0.956-1.012,1.275c0.043,1.145,1.464,6.269,1.671,6.026l0.052-0.058    C237.365,418.711,239.57,417.419,239.57,417.419z M239.593,417.419c0,0,2.243,1.312,4.311,3.73    c0.004,0.005,0.012-0.006,0.017-0.006c0.249,0.031,1.612-4.899,1.653-6.021c0.014-0.319-0.726-1.562-1.01-1.275    c-0.589,0.588-4.814,3.466-4.958,3.562L239.593,417.419z"/>
		<path fill="#1E4C6F" d="M239.586,418.137c-0.593,0.033-1.531,0.994-1.434,1.402c0.45,1.884,0.821,1.385,1.468,1.385    c0.572,0,0.982,0.462,1.469-1.468C241.215,418.951,239.996,418.113,239.586,418.137z M239.614,421.457    c-1.56,0-2.131,2.287-2.131,2.287h4.246C241.73,423.744,241.174,421.457,239.614,421.457z"/>
		<path fill="#FDCB59" d="M241.944,387.329h-0.002c-0.234,0.003-0.456,0.112-0.602,0.298c-0.297,0.073-0.703,0.088-1.221-0.075    c-0.307-0.296-0.793-0.295-1.099,0.001c-0.518,0.164-0.926,0.148-1.221,0.075c-0.146-0.186-0.367-0.295-0.603-0.298h-0.003    c-0.437,0-0.791,0.354-0.791,0.792s0.354,0.792,0.791,0.792l0,0h0.003c0,3.167,1.581,3.958,2.371,3.958    c0.793,0,2.373-0.792,2.373-3.958h0.002c0.438,0,0.792-0.354,0.792-0.792S242.382,387.329,241.944,387.329z"/>
		<path fill="#438AC2" d="M232.719,416.766l-6.057,1.853c-0.278,0.084-0.573-0.072-0.66-0.353l-0.309-1.01    c-0.083-0.277,0.072-0.572,0.35-0.657l6.058-1.852c0.278-0.085,0.573,0.071,0.658,0.349l0.309,1.011    C233.154,416.385,232.997,416.68,232.719,416.766"/>
		<circle fill="#FFFFFF" cx="231.706" cy="415.949" r="0.607"/>
		<path fill="#438AC2" d="M246.433,416.766l6.058,1.853c0.278,0.084,0.573-0.072,0.659-0.353l0.31-1.01    c0.084-0.277-0.072-0.572-0.351-0.657l-6.058-1.852c-0.278-0.085-0.572,0.071-0.659,0.349l-0.308,1.011    C245.999,416.385,246.154,416.679,246.433,416.766"/>
		<circle fill="#FFFFFF" cx="247.241" cy="415.922" r="0.607"/>
	</g>
	<g>
		<path fill="#2C6898" d="M389.001,408.404v-1.107c0-4.43-4.08-7.75-7.75-7.75h-15.5c-3.667,0-7.75,3.32-7.75,7.75v1.107H389.001z"/>
		<ellipse fill="#2C6898" cx="373.504" cy="376.851" rx="13.286" ry="8.303"/>
		<path fill="#D4AC89" d="M368.675,399.658c0,0,3.152,2.174,4.826,2.174s4.826-2.174,4.826-2.174v-4.219h-9.654v4.219H368.675z"/>
		<path fill="#CC9B7A" d="M368.665,397.002c1.346,1.521,3.016,1.934,4.832,1.934c1.812,0,3.483-0.412,4.83-1.934v-3.865h-9.663    L368.665,397.002L368.665,397.002z"/>
		<path fill="#973D22" d="M363.539,377.957c-0.412,0.777-1.209,1.627-1.321,2.533c-0.471,3.817,0.578,5.591,0.952,8.462    c0.423,3.253,2.171,4.293,3.569,4.729c2.011,2.779,4.148,2.659,7.737,2.659c7.01,0,10.062-4.971,10.356-13.303    c0.068-1.906-0.419-3.569-1.17-5.079L363.539,377.957L363.539,377.957z"/>
		<path fill="#D4AC89" d="M381.429,383.459c-0.68-0.981-1.547-1.773-3.45-2.052c0.715,0.341,1.397,1.524,1.486,2.177    c0.09,0.653,0.179,1.183-0.386,0.529c-2.265-2.617-4.729-1.586-7.172-3.185c-1.706-1.118-2.229-2.352-2.229-2.352    s-0.207,1.648-2.796,3.329c-0.748,0.487-1.645,1.571-2.141,3.173c-0.356,1.151-0.245,2.177-0.245,3.931    c0,5.121,4.034,9.427,9.012,9.427c4.979,0,9.014-4.344,9.014-9.427C382.521,385.823,382.2,384.579,381.429,383.459z"/>
		<path fill="#C26A50" d="M373.501,395.634c-3.049,0-3.985-0.78-4.142-0.938c-0.291-0.275-0.303-0.735-0.027-1.025    c0.276-0.291,0.735-0.303,1.026-0.027l0,0c0.057,0.041,0.798,0.54,3.143,0.54c2.437,0,3.14-0.538,3.146-0.543    c0.275-0.274,0.725-0.272,0.999,0.004c0.004,0.004,0.009,0.009,0.012,0.013c0.278,0.292,0.271,0.753-0.017,1.038    C377.486,394.854,376.55,395.634,373.501,395.634 M374.502,391.627H372.5c-0.277,0-0.502-0.235-0.502-0.524    s0.225-0.524,0.502-0.524h2.002c0.277,0,0.5,0.236,0.5,0.524C375.009,391.385,374.785,391.62,374.502,391.627L374.502,391.627z"/>
		<path fill="#662314" d="M369.495,387.961c-0.553,0-1-0.47-1-1.048v-1.047c0-0.578,0.447-1.047,1-1.047s1.001,0.469,1.001,1.047    v1.047C370.497,387.492,370.049,387.961,369.495,387.961z M377.507,387.961c-0.553,0-1.001-0.47-1.001-1.048v-1.047    c0-0.578,0.448-1.047,1.001-1.047s1,0.469,1,1.047v1.047C378.507,387.492,378.06,387.961,377.507,387.961z"/>
		<path fill="#2C6898" d="M362.983,377.403v1.107c0,1.223,4.708,2.214,10.518,2.214s10.518-0.991,10.518-2.214v-1.107H362.983z"/>
		<path fill="#438AC2" d="M383.467,377.403v-2.214c0,0-4.151-2.491-9.966-2.491c-5.811,0-9.962,2.491-9.962,2.491v2.214H383.467z"/>
		<path fill="#FDCB59" d="M384.019,377.403h-21.034c-0.306,0-0.555,0.25-0.555,0.554c0,0.304,0.249,0.554,0.555,0.554h21.034    c0.306,0,0.555-0.25,0.555-0.554C384.573,377.653,384.323,377.403,384.019,377.403z"/>
		<path fill="#1A3E5A" d="M375.657,404.281c0.979,0.688,2.005,1.378,2.376,1.526c0.02,0.009,0.018-0.122,0.013-0.127    c-2.166-2.537-4.521-3.912-4.521-3.912l0.016-0.01l-0.016,0.001h-0.033l0.012,0.009c0,0-2.312,1.355-4.467,3.854    c0.015,0.113,0.041,0.175,0.084,0.15c0.328-0.178,1.301-0.849,2.248-1.515c0.042,0.123,0.085,0.236,0.124,0.306    c0.172,0.311,0.584,1.002,0.584,1.002s-0.834,0.623-1.146,2.838h5.168c-0.312-1.767-1.142-2.838-1.142-2.838    s0.415-0.691,0.588-1.002C375.578,404.498,375.617,404.396,375.657,404.281z"/>
		<path fill="#438AC2" d="M373.502,401.77c0,0-0.011-0.007-0.012-0.009c-0.139-0.093-4.584-3.118-5.202-3.736    c-0.299-0.302-1.073,1.003-1.062,1.338c0.047,1.2,1.535,6.573,1.754,6.319l0.054-0.059    C371.188,403.125,373.502,401.77,373.502,401.77z M373.524,401.77c0,0,2.354,1.375,4.521,3.912    c0.005,0.006,0.013-0.005,0.018-0.005c0.263,0.032,1.691-5.14,1.734-6.314c0.014-0.335-0.761-1.64-1.06-1.338    c-0.617,0.616-5.05,3.635-5.199,3.735L373.524,401.77z"/>
		<path fill="#1E4C6F" d="M373.519,402.521c-0.621,0.034-1.606,1.043-1.504,1.471c0.474,1.977,0.861,1.453,1.539,1.453    c0.602,0,1.03,0.483,1.541-1.539C375.227,403.376,373.948,402.497,373.519,402.521z M373.548,406.004    c-1.637,0-2.234,2.399-2.234,2.399h4.452C375.768,408.403,375.184,406.004,373.548,406.004z"/>
		<path fill="#FDCB59" d="M375.992,370.208h-0.002c-0.247,0.003-0.479,0.118-0.632,0.312c-0.312,0.076-0.737,0.093-1.28-0.079    c-0.322-0.31-0.831-0.31-1.152,0.001c-0.543,0.172-0.971,0.155-1.279,0.079c-0.153-0.194-0.386-0.309-0.634-0.312h-0.002    c-0.458,0-0.83,0.372-0.83,0.831s0.372,0.83,0.83,0.83l0,0h0.002c0,3.322,1.659,4.152,2.488,4.152c0.831,0,2.489-0.83,2.489-4.152    h0.002c0.458,0,0.83-0.372,0.83-0.831S376.45,370.208,375.992,370.208z"/>
		<path fill="#438AC2" d="M366.315,401.084l-6.354,1.941c-0.292,0.089-0.601-0.076-0.691-0.367l-0.323-1.062    c-0.087-0.291,0.075-0.6,0.366-0.688l6.354-1.941c0.292-0.089,0.601,0.074,0.69,0.365l0.322,1.06    C366.771,400.684,366.607,400.994,366.315,401.084"/>
		<circle fill="#FFFFFF" cx="365.253" cy="400.228" r="0.637"/>
		<path fill="#438AC2" d="M380.699,401.084l6.354,1.941c0.292,0.089,0.602-0.076,0.692-0.367l0.324-1.062    c0.087-0.291-0.076-0.6-0.368-0.688l-6.354-1.941c-0.292-0.089-0.601,0.074-0.69,0.365l-0.323,1.06    C380.244,400.684,380.407,400.992,380.699,401.084"/>
		<circle fill="#FFFFFF" cx="381.547" cy="400.199" r="0.637"/>
	</g>
	<g>
		<path fill="#2C6898" d="M373.862,423.745v-1.058c0-4.222-3.892-7.389-7.39-7.389h-14.777c-3.496,0-7.39,3.167-7.39,7.389v1.058    H373.862z"/>
		<ellipse fill="#2C6898" cx="359.088" cy="393.662" rx="12.666" ry="7.917"/>
		<path fill="#F3D2A2" d="M354.482,415.406c0,0,3.006,2.071,4.602,2.071s4.602-2.071,4.602-2.071v-4.022h-9.204L354.482,415.406    L354.482,415.406z"/>
		<path fill="#E1C096" d="M354.474,412.874c1.283,1.45,2.875,1.843,4.606,1.843c1.729,0,3.321-0.394,4.604-1.843v-3.685h-9.213    L354.474,412.874L354.474,412.874z"/>
		<path fill="#FFE516" d="M349.587,394.716c-0.394,0.741-1.153,1.551-1.26,2.415c-0.449,3.642,0.551,5.331,0.908,8.068    c0.401,3.102,2.068,4.093,3.401,4.508c1.917,2.649,3.956,2.535,7.378,2.535c6.684,0,9.595-4.74,9.874-12.685    c0.064-1.815-0.399-3.401-1.114-4.841L349.587,394.716L349.587,394.716z"/>
		<path fill="#F3D2A2" d="M366.643,399.962c-0.646-0.936-1.475-1.689-3.29-1.956c0.683,0.326,1.333,1.453,1.419,2.076    c0.086,0.622,0.17,1.127-0.368,0.504c-2.158-2.494-4.509-1.512-6.837-3.037c-1.627-1.063-2.124-2.241-2.124-2.241    s-0.198,1.571-2.666,3.174c-0.714,0.464-1.567,1.497-2.041,3.024c-0.341,1.099-0.233,2.076-0.233,3.748    c0,4.882,3.846,8.987,8.592,8.987s8.594-4.142,8.594-8.987C367.684,402.216,367.378,401.029,366.643,399.962z"/>
		<path fill="#C26A50" d="M359.084,411.57c-2.906,0-3.799-0.744-3.948-0.896c-0.276-0.264-0.288-0.701-0.025-0.978    c0.264-0.277,0.7-0.288,0.979-0.026l0,0c0.055,0.039,0.761,0.517,2.996,0.517c2.323,0,2.994-0.515,3-0.519    c0.264-0.262,0.69-0.26,0.952,0.004c0.005,0.004,0.009,0.008,0.012,0.012c0.267,0.279,0.26,0.72-0.015,0.99    C362.884,410.826,361.991,411.57,359.084,411.57 M360.039,407.75h-1.909c-0.264,0-0.479-0.225-0.479-0.5s0.215-0.5,0.479-0.5    h1.909c0.264,0,0.477,0.225,0.477,0.5C360.522,407.52,360.309,407.742,360.039,407.75L360.039,407.75z"/>
		<path fill="#662314" d="M355.266,404.254c-0.526,0-0.954-0.447-0.954-0.998v-0.998c0-0.552,0.428-0.999,0.954-0.999    s0.954,0.447,0.954,0.999v0.998C356.221,403.807,355.793,404.254,355.266,404.254z M362.903,404.254    c-0.526,0-0.954-0.447-0.954-0.998v-0.998c0-0.552,0.428-0.999,0.954-0.999s0.954,0.447,0.954,0.999v0.998    C363.857,403.807,363.431,404.254,362.903,404.254z"/>
		<path fill="#2C6898" d="M349.057,394.188v1.056c0,1.167,4.489,2.111,10.027,2.111c5.539,0,10.028-0.945,10.028-2.111v-1.056    H349.057z"/>
		<path fill="#438AC2" d="M368.585,394.188v-2.111c0,0-3.958-2.375-9.501-2.375c-5.539,0-9.497,2.375-9.497,2.375v2.111H368.585z"/>
		<path fill="#FDCB59" d="M369.112,394.188h-20.057c-0.291,0-0.526,0.238-0.526,0.528s0.235,0.528,0.526,0.528h20.057    c0.291,0,0.526-0.238,0.526-0.528S369.403,394.188,369.112,394.188z"/>
		<path fill="#1A3E5A" d="M361.14,419.814c0.937,0.655,1.912,1.312,2.267,1.454c0.019,0.009,0.017-0.114,0.013-0.119    c-2.065-2.419-4.311-3.73-4.311-3.73l0.014-0.009h-0.014h-0.032l0.012,0.009c0,0-2.206,1.292-4.26,3.674    c0.015,0.108,0.039,0.167,0.08,0.146c0.312-0.169,1.24-0.809,2.144-1.444c0.04,0.119,0.081,0.226,0.118,0.291    c0.164,0.295,0.557,0.955,0.557,0.955s-0.795,0.594-1.093,2.706h4.929c-0.298-1.684-1.09-2.706-1.09-2.706s0.396-0.66,0.562-0.955    C361.064,420.021,361.102,419.924,361.14,419.814z"/>
		<path fill="#438AC2" d="M359.085,417.419c0,0-0.01-0.007-0.011-0.009c-0.131-0.088-4.371-2.973-4.959-3.562    c-0.286-0.286-1.024,0.956-1.013,1.275c0.044,1.145,1.465,6.269,1.672,6.026l0.052-0.058    C356.88,418.711,359.085,417.419,359.085,417.419z M359.107,417.419c0,0,2.242,1.312,4.311,3.73    c0.004,0.005,0.012-0.006,0.017-0.006c0.249,0.031,1.612-4.899,1.653-6.021c0.014-0.319-0.726-1.562-1.01-1.275    c-0.589,0.588-4.814,3.466-4.958,3.562L359.107,417.419z"/>
		<path fill="#1E4C6F" d="M359.101,418.137c-0.593,0.033-1.53,0.994-1.434,1.402c0.45,1.884,0.821,1.385,1.468,1.385    c0.572,0,0.982,0.462,1.469-1.468C360.729,418.951,359.511,418.113,359.101,418.137z M359.129,421.457    c-1.56,0-2.131,2.287-2.131,2.287h4.246C361.245,423.744,360.688,421.457,359.129,421.457z"/>
		<path fill="#FDCB59" d="M361.459,387.329h-0.002c-0.234,0.003-0.456,0.112-0.602,0.298c-0.298,0.073-0.703,0.088-1.222-0.075    c-0.307-0.296-0.793-0.295-1.099,0.001c-0.519,0.164-0.926,0.148-1.221,0.075c-0.146-0.186-0.367-0.295-0.604-0.298h-0.003    c-0.437,0-0.791,0.354-0.791,0.792s0.354,0.792,0.791,0.792l0,0h0.003c0,3.167,1.581,3.958,2.371,3.958    c0.793,0,2.373-0.792,2.373-3.958h0.002c0.438,0,0.792-0.354,0.792-0.792S361.896,387.329,361.459,387.329z"/>
		<path fill="#438AC2" d="M352.233,416.766l-6.058,1.853c-0.277,0.084-0.573-0.072-0.66-0.353l-0.309-1.01    c-0.083-0.277,0.072-0.572,0.35-0.657l6.059-1.852c0.277-0.085,0.573,0.071,0.658,0.349l0.309,1.011    C352.669,416.385,352.512,416.68,352.233,416.766"/>
		<circle fill="#FFFFFF" cx="351.221" cy="415.949" r="0.607"/>
		<path fill="#438AC2" d="M365.947,416.766l6.058,1.853c0.278,0.084,0.573-0.072,0.659-0.353l0.31-1.01    c0.084-0.277-0.071-0.572-0.351-0.657l-6.058-1.852c-0.278-0.085-0.572,0.071-0.659,0.349l-0.309,1.011    C365.514,416.385,365.669,416.679,365.947,416.766"/>
		<circle fill="#FFFFFF" cx="366.756" cy="415.922" r="0.607"/>
	</g>
	<g>
		<path fill="#2C6898" d="M338.709,425.744v-2.333c0-3.867-3.133-7-7-7h-18.667c-3.865,0-7,3.134-7,7v2.333H338.709z"/>
		<ellipse fill="#2C6898" cx="322.379" cy="392.495" rx="14.001" ry="8.75"/>
		<path fill="#F7DECE" d="M317.29,416.529c0,0,3.322,2.29,5.086,2.29s5.086-2.29,5.086-2.29v-4.447h-10.175v4.447H317.29z"/>
		<path fill="#EEC2AD" d="M317.279,414.045c1.419,1.605,3.178,2.038,5.092,2.038c1.912,0,3.671-0.436,5.091-2.038v-4.071h-10.184    L317.279,414.045L317.279,414.045z"/>
		<path fill="#F7DECE" d="M314.727,402.336c0,1.689-0.855,3.061-1.911,3.061c-1.057,0-1.912-1.37-1.912-3.061    c0-1.689,0.855-3.061,1.912-3.061C313.87,399.274,314.727,400.645,314.727,402.336 M333.848,402.336    c0,1.689-0.854,3.061-1.913,3.061c-1.055,0-1.91-1.37-1.91-3.061c0-1.689,0.854-3.061,1.91-3.061    C332.992,399.274,333.848,400.645,333.848,402.336"/>
		<path fill="#F7DECE" d="M312.432,403.529c0-6.521,4.452-11.808,9.944-11.808c5.491,0,9.941,5.288,9.941,11.808    c0,6.52-4.45,11.809-9.941,11.809C316.884,415.338,312.432,410.051,312.432,403.529"/>
		<path fill="#C26A50" d="M322.376,411.513c-3.213,0-4.2-0.82-4.365-0.988c-0.307-0.29-0.316-0.773-0.027-1.08    c0.292-0.308,0.773-0.318,1.081-0.027c0.061,0.043,0.841,0.568,3.312,0.568c2.566,0,3.309-0.566,3.315-0.572    c0.291-0.289,0.763-0.287,1.053,0.004c0.004,0.005,0.009,0.008,0.013,0.014c0.294,0.31,0.287,0.795-0.017,1.095    C326.575,410.691,325.589,411.513,322.376,411.513"/>
		<path fill="#2A2F33" d="M322.376,388.884c6.59,0,10.707,3.782,10.707,7.834c0,4.051-0.822,5.673-1.647,4.051l-1.646-3.239    c0,0-4.94,0-6.588-1.622c0,0,2.472,4.861-2.471,0c0,0,0.822,3.243-4.119-0.81c0,0-2.471,1.621-3.295,5.671    c-0.229,1.125-1.646,0-1.646-4.051C311.668,392.667,314.963,388.884,322.376,388.884"/>
		<path fill="#662314" d="M317.709,403.577c-0.642,0-1.167-0.524-1.167-1.167v-1.166c0-0.643,0.525-1.167,1.167-1.167    s1.167,0.524,1.167,1.167v1.166C318.876,403.053,318.351,403.577,317.709,403.577 M327.043,403.577    c-0.642,0-1.167-0.524-1.167-1.167v-1.166c0-0.643,0.525-1.167,1.167-1.167c0.641,0,1.166,0.524,1.166,1.167v1.166    C328.209,403.053,327.684,403.577,327.043,403.577"/>
		<path fill="#C26A50" d="M323.251,406.785h-1.75c-0.482,0-0.875-0.394-0.875-0.875s0.393-0.875,0.875-0.875h1.75    c0.481,0,0.875,0.394,0.875,0.875C324.126,406.393,323.732,406.785,323.251,406.785"/>
		<path fill="#2C6898" d="M311.292,393.077v1.167c0,1.289,4.962,2.333,11.084,2.333c6.121,0,11.083-1.044,11.083-2.333v-1.167    H311.292z"/>
		<path fill="#438AC2" d="M332.877,393.077v-2.333c0,0-4.375-2.625-10.501-2.625c-6.123,0-10.498,2.625-10.498,2.625v2.333H332.877z    "/>
		<path fill="#FDCB59" d="M333.459,393.077h-22.167c-0.321,0-0.583,0.263-0.583,0.583c0,0.321,0.262,0.583,0.583,0.583h22.167    c0.321,0,0.584-0.263,0.584-0.583C334.043,393.34,333.78,393.077,333.459,393.077z"/>
		<path fill="#1A3E5A" d="M324.647,421.401c1.032,0.725,2.112,1.451,2.505,1.607c0.021,0.008,0.018-0.129,0.014-0.133    c-2.284-2.674-4.766-4.123-4.766-4.123l0.017-0.011l-0.017,0.001h-0.035l0.013,0.01c0,0-2.438,1.428-4.708,4.062    c0.018,0.118,0.044,0.184,0.089,0.158c0.348-0.187,1.371-0.894,2.369-1.597c0.044,0.131,0.09,0.25,0.131,0.322    c0.183,0.326,0.615,1.056,0.615,1.056s-0.878,0.656-1.208,2.991h5.446c-0.328-1.861-1.203-2.991-1.203-2.991    s0.438-0.729,0.62-1.056C324.564,421.629,324.605,421.521,324.647,421.401z"/>
		<path fill="#438AC2" d="M322.377,418.754c0,0-0.012-0.008-0.013-0.01c-0.146-0.098-4.831-3.285-5.481-3.938    c-0.314-0.315-1.131,1.058-1.117,1.41c0.049,1.265,1.617,6.928,1.848,6.66l0.057-0.062    C319.938,420.182,322.377,418.754,322.377,418.754z M322.4,418.754c0,0,2.479,1.449,4.766,4.123    c0.004,0.006,0.012-0.006,0.018-0.006c0.276,0.034,1.782-5.416,1.828-6.654c0.016-0.354-0.803-1.727-1.117-1.41    c-0.649,0.649-5.319,3.83-5.479,3.938L322.4,418.754z"/>
		<path fill="#1E4C6F" d="M322.394,419.547c-0.653,0.036-1.691,1.098-1.584,1.549c0.497,2.083,0.907,1.531,1.622,1.531    c0.633,0,1.086,0.511,1.623-1.622C324.194,420.446,322.848,419.52,322.394,419.547z M322.425,423.217    c-1.724,0-2.354,2.527-2.354,2.527h4.692C324.764,425.744,324.148,423.217,322.425,423.217z"/>
		<path fill="#FDCB59" d="M325.001,385.495h-0.003c-0.26,0.003-0.504,0.124-0.665,0.329c-0.328,0.081-0.777,0.098-1.349-0.083    c-0.341-0.327-0.876-0.326-1.216,0.001c-0.571,0.181-1.022,0.164-1.349,0.083c-0.162-0.205-0.406-0.326-0.667-0.33h-0.002    c-0.483,0-0.875,0.392-0.875,0.875s0.392,0.875,0.875,0.875l0,0h0.002c0,3.5,1.748,4.375,2.622,4.375    c0.876,0,2.622-0.875,2.622-4.375H325c0.482,0,0.875-0.392,0.875-0.875C325.876,385.887,325.483,385.495,325.001,385.495z"/>
		<path fill="#438AC2" d="M314.755,418.059l-6.914,1.095c-0.316,0.05-0.616-0.166-0.666-0.485l-0.185-1.153    c-0.049-0.315,0.168-0.614,0.484-0.665l6.913-1.094c0.319-0.05,0.616,0.166,0.668,0.483l0.184,1.151    C315.289,417.709,315.072,418.008,314.755,418.059"/>
		<circle fill="#FFFFFF" cx="313.771" cy="417.01" r="0.672"/>
		<path fill="#438AC2" d="M330.011,418.059l6.914,1.095c0.317,0.05,0.617-0.166,0.667-0.485l0,0l0.185-1.153    c0.05-0.315-0.169-0.614-0.485-0.665l-6.916-1.094c-0.316-0.05-0.615,0.166-0.667,0.483l-0.182,1.151    C329.477,417.709,329.692,418.008,330.011,418.059"/>
		<circle fill="#FFFFFF" cx="330.766" cy="417.01" r="0.672"/>
	</g>
	<g>
		<path fill="#2C6898" d="M406.279,423.745v-1.058c0-4.222-3.892-7.389-7.39-7.389h-14.777c-3.496,0-7.39,3.167-7.39,7.389v1.058    H406.279z"/>
		<ellipse fill="#2C6898" cx="391.505" cy="393.662" rx="12.666" ry="7.917"/>
		<path fill="#F3D2A2" d="M386.899,415.406c0,0,3.006,2.071,4.602,2.071s4.602-2.071,4.602-2.071v-4.022h-9.204L386.899,415.406    L386.899,415.406z"/>
		<path fill="#E1C096" d="M386.891,412.874c1.283,1.45,2.875,1.843,4.606,1.843c1.729,0,3.321-0.394,4.604-1.843v-3.685h-9.213    L386.891,412.874L386.891,412.874z"/>
		<path fill="#FFE516" d="M382.004,394.716c-0.394,0.741-1.153,1.551-1.26,2.415c-0.449,3.642,0.551,5.331,0.908,8.068    c0.401,3.102,2.068,4.093,3.401,4.508c1.917,2.649,3.956,2.535,7.378,2.535c6.684,0,9.595-4.74,9.874-12.685    c0.064-1.815-0.399-3.401-1.114-4.841L382.004,394.716L382.004,394.716z"/>
		<path fill="#F3D2A2" d="M399.06,399.962c-0.646-0.936-1.475-1.689-3.29-1.956c0.683,0.326,1.333,1.453,1.418,2.076    c0.087,0.622,0.171,1.127-0.367,0.504c-2.158-2.494-4.509-1.512-6.837-3.037c-1.628-1.063-2.124-2.241-2.124-2.241    s-0.198,1.571-2.666,3.174c-0.713,0.464-1.567,1.497-2.041,3.024c-0.34,1.099-0.233,2.076-0.233,3.748    c0,4.882,3.846,8.987,8.592,8.987s8.593-4.142,8.593-8.987C400.101,402.216,399.795,401.029,399.06,399.962z"/>
		<path fill="#C26A50" d="M391.501,411.57c-2.906,0-3.799-0.744-3.948-0.896c-0.276-0.264-0.288-0.701-0.025-0.978    c0.264-0.277,0.7-0.288,0.979-0.026l0,0c0.055,0.039,0.761,0.517,2.996,0.517c2.323,0,2.994-0.515,3-0.519    c0.264-0.262,0.69-0.26,0.952,0.004c0.005,0.004,0.009,0.008,0.012,0.012c0.267,0.279,0.26,0.72-0.015,0.99    C395.301,410.826,394.408,411.57,391.501,411.57 M392.456,407.75h-1.909c-0.264,0-0.479-0.225-0.479-0.5s0.215-0.5,0.479-0.5    h1.909c0.264,0,0.477,0.225,0.477,0.5C392.939,407.52,392.726,407.742,392.456,407.75L392.456,407.75z"/>
		<path fill="#662314" d="M387.683,404.254c-0.526,0-0.954-0.447-0.954-0.998v-0.998c0-0.552,0.428-0.999,0.954-0.999    s0.954,0.447,0.954,0.999v0.998C388.638,403.807,388.21,404.254,387.683,404.254z M395.32,404.254    c-0.526,0-0.954-0.447-0.954-0.998v-0.998c0-0.552,0.428-0.999,0.954-0.999s0.954,0.447,0.954,0.999v0.998    C396.274,403.807,395.848,404.254,395.32,404.254z"/>
		<path fill="#2C6898" d="M381.474,394.188v1.056c0,1.167,4.489,2.111,10.027,2.111c5.539,0,10.028-0.945,10.028-2.111v-1.056    H381.474z"/>
		<path fill="#438AC2" d="M401.002,394.188v-2.111c0,0-3.958-2.375-9.501-2.375c-5.539,0-9.497,2.375-9.497,2.375v2.111H401.002z"/>
		<path fill="#FDCB59" d="M401.529,394.188h-20.057c-0.291,0-0.526,0.238-0.526,0.528s0.235,0.528,0.526,0.528h20.057    c0.291,0,0.526-0.238,0.526-0.528S401.82,394.188,401.529,394.188z"/>
		<path fill="#1A3E5A" d="M393.557,419.814c0.937,0.655,1.912,1.312,2.267,1.454c0.019,0.009,0.017-0.114,0.013-0.119    c-2.064-2.419-4.311-3.73-4.311-3.73l0.014-0.009h-0.014h-0.032l0.012,0.009c0,0-2.206,1.292-4.26,3.674    c0.015,0.108,0.039,0.167,0.08,0.146c0.312-0.169,1.239-0.809,2.144-1.444c0.04,0.119,0.081,0.226,0.118,0.291    c0.164,0.295,0.557,0.955,0.557,0.955s-0.795,0.594-1.093,2.706h4.928c-0.297-1.684-1.089-2.706-1.089-2.706    s0.396-0.66,0.562-0.955C393.481,420.021,393.519,419.924,393.557,419.814z"/>
		<path fill="#438AC2" d="M391.502,417.419c0,0-0.01-0.007-0.011-0.009c-0.131-0.088-4.371-2.973-4.959-3.562    c-0.286-0.286-1.024,0.956-1.013,1.275c0.044,1.145,1.465,6.269,1.672,6.026l0.052-0.058    C389.297,418.711,391.502,417.419,391.502,417.419z M391.524,417.419c0,0,2.242,1.312,4.311,3.73    c0.004,0.005,0.012-0.006,0.017-0.006c0.249,0.031,1.612-4.899,1.653-6.021c0.014-0.319-0.726-1.562-1.01-1.275    c-0.589,0.588-4.814,3.466-4.958,3.562L391.524,417.419z"/>
		<path fill="#1E4C6F" d="M391.518,418.137c-0.593,0.033-1.53,0.994-1.434,1.402c0.45,1.884,0.821,1.385,1.468,1.385    c0.572,0,0.982,0.462,1.47-1.468C393.146,418.951,391.928,418.113,391.518,418.137z M391.546,421.457    c-1.56,0-2.131,2.287-2.131,2.287h4.246C393.661,423.744,393.105,421.457,391.546,421.457z"/>
		<path fill="#FDCB59" d="M393.876,387.329h-0.002c-0.234,0.003-0.456,0.112-0.602,0.298c-0.298,0.073-0.703,0.088-1.222-0.075    c-0.307-0.296-0.793-0.295-1.099,0.001c-0.519,0.164-0.926,0.148-1.221,0.075c-0.146-0.186-0.367-0.295-0.604-0.298h-0.003    c-0.438,0-0.791,0.354-0.791,0.792s0.354,0.792,0.791,0.792l0,0h0.003c0,3.167,1.581,3.958,2.371,3.958    c0.793,0,2.373-0.792,2.373-3.958h0.002c0.438,0,0.792-0.354,0.792-0.792S394.312,387.329,393.876,387.329z"/>
		<path fill="#438AC2" d="M384.65,416.766l-6.058,1.853c-0.277,0.084-0.573-0.072-0.66-0.353l-0.309-1.01    c-0.083-0.277,0.072-0.572,0.35-0.657l6.059-1.852c0.277-0.085,0.573,0.071,0.658,0.349l0.309,1.011    C385.086,416.385,384.929,416.68,384.65,416.766"/>
		<circle fill="#FFFFFF" cx="383.638" cy="415.949" r="0.607"/>
		<path fill="#438AC2" d="M398.364,416.766l6.058,1.853c0.278,0.084,0.573-0.072,0.659-0.353l0.31-1.01    c0.084-0.277-0.071-0.572-0.351-0.657l-6.058-1.852c-0.278-0.085-0.572,0.071-0.659,0.349l-0.309,1.011    C397.931,416.385,398.086,416.679,398.364,416.766"/>
		<circle fill="#FFFFFF" cx="399.173" cy="415.922" r="0.607"/>
	</g>
</g>
</svg>