<svg version="1.1" id="Layer_1" xmlns="http://www.w3.org/2000/svg" xmlns:xlink="http://www.w3.org/1999/xlink" x="0px" y="0px" viewBox="204.68 365.75 202.95 59.3">
<g>
	<path fill="#8E8E8E" d="M312.836,375.528v-2.444c0,0-4.583-2.75-11.001-2.75c-6.414,0-10.998,2.75-10.998,2.75v2.444H312.836z"/>
	<path fill="#CACACA" d="M313.446,375.528h-23.223c-0.337,0-0.611,0.275-0.611,0.611s0.274,0.611,0.611,0.611h23.223   c0.336,0,0.609-0.275,0.609-0.611S313.782,375.528,313.446,375.528z"/>
	<path fill="#CACACA" d="M304.585,367.585h-0.003c-0.271,0.003-0.528,0.13-0.696,0.345c-0.344,0.084-0.814,0.103-1.414-0.087   c-0.355-0.343-0.917-0.342-1.271,0.001c-0.6,0.19-1.072,0.171-1.414,0.087c-0.169-0.215-0.425-0.342-0.698-0.345h-0.002   c-0.506,0-0.917,0.411-0.917,0.917s0.411,0.917,0.917,0.917l0,0h0.002c0,3.667,1.831,4.583,2.747,4.583   c0.918,0,2.747-0.917,2.747-4.583h0.003c0.506,0,0.916-0.411,0.916-0.917C305.501,367.996,305.091,367.585,304.585,367.585z"/>
	<path fill="#8E8E8E" d="M271.496,376.08v-2.334c0,0-4.377-2.626-10.505-2.626c-6.126,0-10.502,2.626-10.502,2.626v2.334H271.496z"/>
	<path fill="#CACACA" d="M272.078,376.08h-22.174c-0.322,0-0.584,0.263-0.584,0.583c0,0.32,0.262,0.583,0.584,0.583h22.174   c0.321,0,0.584-0.263,0.584-0.583C272.662,376.343,272.399,376.08,272.078,376.08z"/>
	<path fill="#CACACA" d="M263.617,368.496h-0.003c-0.26,0.003-0.505,0.124-0.665,0.329c-0.328,0.081-0.777,0.098-1.35-0.083   c-0.34-0.328-0.877-0.327-1.215,0c-0.572,0.182-1.023,0.164-1.35,0.083c-0.162-0.205-0.406-0.326-0.667-0.33h-0.002   c-0.483,0-0.876,0.393-0.876,0.875c0,0.483,0.393,0.875,0.876,0.875l0,0h0.002c0,3.501,1.749,4.376,2.623,4.376   c0.876,0,2.623-0.875,2.623-4.376h0.003c0.482,0,0.875-0.392,0.875-0.876C264.491,368.885,264.1,368.496,263.617,368.496z"/>
	<path fill="#8E8E8E" d="M228.599,376.918v-2.167c0,0-4.062-2.438-9.751-2.438c-5.685,0-9.747,2.438-9.747,2.438v2.167H228.599z"/>
	<path fill="#CACACA" d="M221.285,369.877h-0.002c-0.241,0.003-0.469,0.115-0.617,0.306c-0.305,0.075-0.722,0.091-1.253-0.077   c-0.315-0.304-0.813-0.303-1.128,0.001c-0.531,0.168-0.95,0.152-1.253,0.077c-0.149-0.19-0.376-0.302-0.618-0.306h-0.003   c-0.448,0-0.812,0.364-0.812,0.812c0,0.449,0.364,0.812,0.812,0.812l0,0h0.003c0,3.25,1.622,4.062,2.434,4.062   c0.813,0,2.436-0.812,2.436-4.062h0.002c0.449,0,0.812-0.364,0.812-0.813C222.098,370.24,221.734,369.877,221.285,369.877z"/>
	<path fill="#8E8E8E" d="M211.354,399.552l-4.742,1.475c-0.285,0.092-0.591-0.063-0.683-0.349l-0.336-1.03   c-0.09-0.284,0.066-0.589,0.35-0.682l4.744-1.476c0.284-0.092,0.588,0.063,0.683,0.348l0.335,1.03   C211.794,399.154,211.637,399.457,211.354,399.552"/>
	<circle fill="#FFFFFF" cx="210.454" cy="398.632" r="0.624"/>
	<path fill="#8E8E8E" d="M347.334,377.195v-2.111c0,0-3.958-2.375-9.501-2.375c-5.539,0-9.497,2.375-9.497,2.375v2.111H347.334z"/>
	<path fill="#CACACA" d="M340.208,370.335h-0.002c-0.234,0.003-0.456,0.112-0.603,0.298c-0.297,0.073-0.702,0.088-1.221-0.075   c-0.307-0.296-0.793-0.295-1.099,0.001c-0.519,0.164-0.926,0.148-1.222,0.075c-0.146-0.186-0.366-0.295-0.603-0.298h-0.003   c-0.438,0-0.791,0.354-0.791,0.792s0.354,0.792,0.791,0.792l0,0h0.003c0,3.167,1.581,3.958,2.371,3.958   c0.793,0,2.373-0.792,2.373-3.958h0.002c0.438,0,0.792-0.354,0.792-0.792S340.646,370.335,340.208,370.335z"/>
	<path fill="#8E8E8E" d="M382.576,376.68v-2.214c0,0-4.152-2.491-9.966-2.491c-5.812,0-9.962,2.491-9.962,2.491v2.214H382.576z"/>
	<path fill="#CACACA" d="M375.102,369.484H375.1c-0.247,0.003-0.479,0.118-0.632,0.312c-0.312,0.076-0.736,0.093-1.279-0.079   c-0.322-0.31-0.831-0.31-1.152,0.001c-0.543,0.172-0.971,0.155-1.28,0.079c-0.153-0.194-0.385-0.309-0.633-0.312h-0.002   c-0.458,0-0.83,0.372-0.83,0.831s0.372,0.83,0.83,0.83l0,0h0.002c0,3.322,1.659,4.152,2.488,4.152c0.831,0,2.488-0.83,2.488-4.152   h0.002c0.459,0,0.83-0.372,0.83-0.831S375.56,369.484,375.102,369.484z"/>
	<polygon fill="#6CBE52" points="403.61,387.778 403.61,387.778 407.61,387.778 407.61,387.778 407.61,387.778 407.61,387.778    403.61,387.778  "/>
	<path fill="#595959" d="M318.946,409.751v-2.444c0-4.051-3.283-7.334-7.334-7.334h-19.556c-4.05,0-7.333,3.283-7.333,7.334v2.444   H318.946z"/>
	<ellipse fill="#595959" cx="301.838" cy="374.919" rx="14.667" ry="9.167"/>
	<path fill="#767676" d="M296.507,400.098c0,0,3.48,2.398,5.328,2.398s5.328-2.398,5.328-2.398v-4.659h-10.659v4.659H296.507z"/>
	<path fill="#525252" d="M296.496,397.495c1.485,1.681,3.329,2.134,5.334,2.134c2.003,0,3.846-0.455,5.333-2.134v-4.266h-10.668   L296.496,397.495L296.496,397.495z"/>
	<path fill="#767676" d="M293.821,385.228c0,1.77-0.896,3.206-2.003,3.206c-1.105,0-2.003-1.436-2.003-3.206   s0.897-3.206,2.003-3.206C292.925,382.021,293.821,383.457,293.821,385.228 M313.853,385.228c0,1.77-0.896,3.206-2.004,3.206   c-1.104,0-2.003-1.436-2.003-3.206s0.896-3.206,2.003-3.206C312.956,382.021,313.853,383.457,313.853,385.228"/>
	<path fill="#767676" d="M291.417,386.479c0-6.831,4.665-12.37,10.418-12.37s10.415,5.539,10.415,12.37s-4.662,12.37-10.415,12.37   S291.417,393.311,291.417,386.479"/>
	<path fill="#343434" d="M301.785,392.416c3.364-0.12,4.427,0.703,4.606,0.872c0.331,0.293,0.361,0.799,0.069,1.131   c-0.294,0.331-0.8,0.362-1.131,0.069c-0.065-0.043-0.901-0.564-3.489-0.472c-2.686,0.096-3.442,0.716-3.449,0.723   c-0.295,0.312-0.788,0.329-1.103,0.034c-0.005-0.004-0.01-0.008-0.014-0.013c-0.319-0.312-0.33-0.822-0.024-1.147   C297.419,393.432,298.422,392.536,301.785,392.416"/>
	<path d="M301.835,371.136c6.903,0,11.217,3.962,11.217,8.207c0,4.244-0.86,5.943-1.726,4.244l-1.727-3.395c0,0-5.176,0-6.9-1.699   c0,0,2.589,5.094-2.589,0c0,0,0.862,3.397-4.315-0.848c0,0-2.587,1.698-3.451,5.942c-0.239,1.179-1.725,0-1.725-4.244   C290.617,375.098,294.069,371.136,301.835,371.136"/>
	<path d="M296.946,386.528c-0.673,0-1.223-0.55-1.223-1.222v-1.222c0-0.672,0.55-1.222,1.223-1.222c0.672,0,1.222,0.55,1.222,1.222   v1.222C298.168,385.979,297.618,386.528,296.946,386.528 M306.724,386.528c-0.672,0-1.223-0.55-1.223-1.222v-1.222   c0-0.672,0.551-1.222,1.223-1.222c0.673,0,1.224,0.55,1.224,1.222v1.222C307.946,385.979,307.396,386.528,306.724,386.528"/>
	<path fill="#343434" d="M302.751,389.89h-1.833c-0.505,0-0.917-0.412-0.917-0.917c0-0.505,0.412-0.917,0.917-0.917h1.833   c0.505,0,0.917,0.412,0.917,0.917C303.668,389.478,303.256,389.89,302.751,389.89"/>
	<path fill="#595959" d="M290.224,375.528v1.223c0,1.35,5.198,2.444,11.611,2.444s11.611-1.094,11.611-2.444v-1.223H290.224z"/>
	<path d="M304.215,405.201c1.082,0.759,2.214,1.521,2.623,1.686c0.021,0.008,0.021-0.135,0.015-0.141   c-2.392-2.801-4.991-4.319-4.991-4.319l0.017-0.011l-0.017,0.002h-0.037l0.013,0.009c0,0-2.554,1.497-4.932,4.254   c0.017,0.126,0.045,0.193,0.093,0.167c0.363-0.194,1.437-0.936,2.481-1.672c0.047,0.138,0.095,0.263,0.138,0.336   c0.189,0.345,0.645,1.107,0.645,1.107s-0.92,0.688-1.266,3.133h5.706c-0.344-1.949-1.261-3.133-1.261-3.133   s0.458-0.764,0.649-1.107C304.128,405.439,304.171,405.327,304.215,405.201z"/>
	<path fill="#8E8E8E" d="M301.836,402.427c0,0-0.012-0.007-0.013-0.009c-0.152-0.104-5.062-3.443-5.743-4.125   c-0.33-0.332-1.185,1.105-1.171,1.477c0.051,1.324,1.695,7.259,1.936,6.978l0.06-0.065   C299.281,403.924,301.836,402.427,301.836,402.427z M301.861,402.427c0,0,2.597,1.52,4.991,4.319   c0.006,0.006,0.014-0.006,0.021-0.006c0.288,0.036,1.866-5.674,1.914-6.972c0.016-0.37-0.84-1.809-1.17-1.477   c-0.683,0.68-5.574,4.012-5.739,4.123L301.861,402.427z"/>
	<path fill="#141414" d="M301.854,403.258c-0.686,0.038-1.773,1.15-1.66,1.623c0.521,2.182,0.951,1.604,1.7,1.604   c0.662,0,1.137,0.533,1.7-1.7C303.739,404.201,302.329,403.23,301.854,403.258z M301.886,407.102c-1.806,0-2.467,2.649-2.467,2.649   h4.916C304.337,409.751,303.692,407.102,301.886,407.102z"/>
	<path fill="#8E8E8E" d="M293.851,401.699l-7.242,1.146c-0.333,0.054-0.646-0.175-0.698-0.509l-0.193-1.207   c-0.052-0.332,0.177-0.645,0.509-0.697l7.242-1.146c0.334-0.053,0.646,0.175,0.699,0.506l0.191,1.209   C294.411,401.332,294.184,401.646,293.851,401.699"/>
	<circle fill="#FFFFFF" cx="292.821" cy="400.6" r="0.704"/>
	<path fill="#8E8E8E" d="M309.833,401.699l7.244,1.146c0.331,0.054,0.646-0.175,0.698-0.509l0,0l0.19-1.207   c0.053-0.332-0.177-0.645-0.508-0.697l-7.245-1.146c-0.332-0.053-0.645,0.175-0.698,0.506l-0.19,1.208   C309.273,401.332,309.5,401.645,309.833,401.699"/>
	<circle fill="#FFFFFF" cx="310.624" cy="400.6" r="0.704"/>
	<path fill="#595959" d="M277.33,408.76v-1.168c0-4.668-4.301-8.17-8.17-8.17h-16.339c-3.866,0-8.169,3.502-8.169,8.17v1.168H277.33   z"/>
	<ellipse fill="#595959" cx="260.994" cy="375.498" rx="14.005" ry="8.753"/>
	<path fill="#D9D9D9" d="M255.903,399.541c0,0,3.323,2.291,5.088,2.291c1.765,0,5.087-2.291,5.087-2.291v-4.449H255.9v4.449H255.903   z"/>
	<path fill="#CACACA" d="M255.893,396.74c1.42,1.604,3.18,2.037,5.094,2.037c1.912,0,3.672-0.437,5.092-2.037v-4.075h-10.187   L255.893,396.74L255.893,396.74z"/>
	<path fill="#AEAEAE" d="M250.489,376.664c-0.435,0.819-1.274,1.716-1.393,2.67c-0.495,4.024,0.61,5.894,1.004,8.92   c0.446,3.429,2.288,4.525,3.763,4.984c2.119,2.929,4.374,2.803,8.156,2.803c7.389,0,10.607-5.24,10.918-14.023   c0.072-2.009-0.441-3.762-1.232-5.353L250.489,376.664L250.489,376.664L250.489,376.664z"/>
	<path fill="#D9D9D9" d="M269.348,382.464c-0.716-1.035-1.631-1.869-3.637-2.163c0.753,0.36,1.473,1.607,1.566,2.295   c0.096,0.688,0.188,1.247-0.406,0.558c-2.387-2.759-4.984-1.672-7.561-3.357c-1.799-1.178-2.348-2.479-2.348-2.479   s-0.219,1.738-2.947,3.509c-0.789,0.513-1.733,1.656-2.256,3.345c-0.377,1.214-0.26,2.295-0.26,4.144   c0,5.398,4.252,9.936,9.5,9.936s9.501-4.578,9.501-9.936C270.498,384.956,270.161,383.644,269.348,382.464z"/>
	<path fill="#6A6A6A" d="M261.156,392.887c3.214-0.019,4.206,0.798,4.372,0.963c0.309,0.289,0.323,0.773,0.036,1.081   c-0.29,0.308-0.773,0.324-1.082,0.035l0,0c-0.061-0.042-0.846-0.564-3.316-0.549c-2.567,0.015-3.307,0.586-3.313,0.592   c-0.29,0.291-0.761,0.292-1.054,0.001c-0.004-0.004-0.008-0.009-0.012-0.013c-0.296-0.306-0.292-0.793,0.009-1.094   C256.961,393.735,257.942,392.906,261.156,392.887 M260.126,397.117l2.111-0.012c0.292-0.003,0.53,0.243,0.532,0.549   c0.002,0.305-0.234,0.555-0.526,0.556l-2.11,0.013c-0.291,0.002-0.527-0.244-0.529-0.549   C259.593,397.375,259.828,397.127,260.126,397.117L260.126,397.117z"/>
	<path d="M256.768,387.21c-0.582,0-1.054-0.496-1.054-1.105v-1.104c0-0.609,0.472-1.104,1.054-1.104   c0.583,0,1.056,0.494,1.056,1.104v1.104C257.824,386.714,257.352,387.21,256.768,387.21z M265.213,387.21   c-0.582,0-1.055-0.496-1.055-1.105v-1.104c0-0.609,0.473-1.104,1.055-1.104c0.583,0,1.055,0.494,1.055,1.104v1.104   C266.268,386.714,265.796,387.21,265.213,387.21z"/>
	<path fill="#595959" d="M249.904,376.08v1.167c0,1.29,4.963,2.334,11.087,2.334s11.087-1.045,11.087-2.334v-1.167H249.904z"/>
	<path d="M263.264,404.414c1.033,0.725,2.113,1.451,2.505,1.609c0.021,0.008,0.019-0.13,0.015-0.134   c-2.285-2.676-4.768-4.125-4.768-4.125l0.017-0.011l-0.017,0.001h-0.035l0.013,0.01c0,0-2.438,1.43-4.709,4.062   c0.016,0.12,0.043,0.185,0.089,0.159c0.346-0.188,1.371-0.894,2.369-1.597c0.045,0.132,0.09,0.249,0.131,0.32   c0.182,0.328,0.615,1.057,0.615,1.057s-0.879,0.656-1.208,2.992h5.448c-0.328-1.86-1.203-2.992-1.203-2.992   s0.438-0.729,0.619-1.057C263.18,404.643,263.221,404.535,263.264,404.414z"/>
	<path fill="#8E8E8E" d="M260.992,401.766c0,0-0.012-0.008-0.013-0.01c-0.146-0.098-4.833-3.287-5.483-3.938   c-0.315-0.317-1.131,1.057-1.118,1.408c0.048,1.267,1.618,6.933,1.848,6.664l0.058-0.062   C258.553,403.194,260.992,401.766,260.992,401.766z M261.016,401.766c0,0,2.48,1.449,4.768,4.125   c0.004,0.006,0.012-0.006,0.018-0.006c0.275,0.033,1.782-5.419,1.828-6.658c0.015-0.353-0.803-1.727-1.117-1.408   c-0.65,0.648-5.322,3.831-5.48,3.938L261.016,401.766z"/>
	<path fill="#141414" d="M261.009,402.559c-0.655,0.036-1.693,1.1-1.585,1.551c0.498,2.083,0.908,1.531,1.623,1.531   c0.633,0,1.086,0.511,1.624-1.623C262.811,403.459,261.463,402.532,261.009,402.559z M261.04,406.229   c-1.725,0-2.356,2.528-2.356,2.528h4.695C263.38,408.758,262.764,406.229,261.04,406.229z"/>
	<path fill="#8E8E8E" d="M253.416,401.043l-6.697,2.047c-0.308,0.094-0.633-0.08-0.729-0.388l-0.343-1.117   c-0.091-0.308,0.081-0.632,0.388-0.728l6.697-2.048c0.308-0.094,0.633,0.079,0.729,0.387l0.341,1.115   C253.897,400.621,253.725,400.947,253.416,401.043"/>
	<circle fill="#FFFFFF" cx="252.296" cy="400.141" r="0.672"/>
	<path fill="#8E8E8E" d="M268.579,401.043l6.696,2.047c0.309,0.094,0.635-0.08,0.73-0.388l0.342-1.117   c0.092-0.308-0.08-0.632-0.388-0.728l-6.698-2.048c-0.308-0.094-0.633,0.079-0.729,0.387l-0.34,1.115   C268.1,400.621,268.271,400.947,268.579,401.043"/>
	<circle fill="#FFFFFF" cx="269.473" cy="400.109" r="0.672"/>
	<path fill="#595959" d="M232.868,407.252v-3.792c0-3.591-3.994-5.958-7.584-5.958h-13c-3.589,0-7.583,2.367-7.583,5.958v3.792   H232.868z"/>
	<ellipse fill="#595959" cx="218.852" cy="376.377" rx="13" ry="8.125"/>
	<path fill="#DCDCDC" d="M218.726,373.743c4.446,0,11.859,2.224,11.859,11.859c0,9.638,0,11.861-2.224,11.861   c-2.224,0-5.189-2.225-9.636-2.225c-4.448,0-7.351,2.225-9.637,2.225c-2.479,0-2.226-8.896-2.226-11.861   C206.863,375.967,214.277,373.743,218.726,373.743"/>
	<path fill="#D8D8D8" d="M214.807,400.188c1.587,1.153,3.21,1.062,3.978,1.062c0.767,0,2.377,0.093,3.966-1.062v-6.137h-7.943   L214.807,400.188L214.807,400.188z"/>
	<path fill="#C7C7C7" d="M214.801,395.529c1.107,1.25,2.481,1.59,3.974,1.59c1.493,0,2.867-0.338,3.976-1.59v-3.181h-7.949   L214.801,395.529L214.801,395.529z"/>
	<path fill="#D8D8D8" d="M209.829,385.279c0-6.32,3.983-11.442,8.896-11.442c4.91,0,8.893,5.123,8.893,11.442   c0,6.319-3.982,11.143-8.893,11.143C213.812,396.421,209.829,391.598,209.829,385.279"/>
	<path fill="#DCDCDC" d="M207.654,388.835c-0.022-1.083-0.048-0.244-0.048-0.504c0-3.708,2.224,0.536,2.224-2.105   c0-2.643,1.482-2.906,2.965-4.389c0.742-0.742,2.224-2.195,2.224-2.195s3.707,2.239,6.671,2.239c2.965,0,5.931,1.49,5.931,4.455   c0,2.964,2.225-1.716,2.225,1.991c0,0.264-0.024-0.576-0.045,0.508h0.779c0.007-2.167,0.007-2.084,0.007-3.469   c0-9.636-7.412-12.645-11.86-12.645c-4.445,0-11.859,2.949-11.859,12.585c0,0.859-0.021,1.361,0.009,3.528L207.654,388.835   L207.654,388.835z"/>
	<path fill="#D8D8D8" d="M229.436,385.516c0,1.568-0.793,2.841-1.774,2.841c-0.98,0-1.775-1.272-1.775-2.841   c0-1.569,0.793-2.842,1.775-2.842C228.643,382.673,229.436,383.945,229.436,385.516 M211.684,385.516   c0,1.568-0.796,2.841-1.776,2.841s-1.776-1.272-1.776-2.841c0-1.569,0.796-2.842,1.776-2.842   C210.888,382.673,211.684,383.945,211.684,385.516"/>
	<path fill="#4B4B4B" d="M218.73,391.539c1.739-0.019,2.661,0.831,2.76,0.928c0.28,0.299,0.265,0.77-0.035,1.049   c-0.277,0.26-0.708,0.269-0.994,0.018c-0.039-0.034-0.603-0.525-1.714-0.513c-1.124,0.013-1.678,0.53-1.701,0.551   c-0.294,0.282-0.757,0.277-1.043-0.01c-0.285-0.289-0.291-0.746-0.008-1.035C216.092,392.428,216.991,391.558,218.73,391.539"/>
	<path d="M215.11,387.629c-0.505-0.003-0.915-0.412-0.916-0.918v-0.916c0-0.504,0.412-0.916,0.916-0.916   c0.506,0.001,0.915,0.411,0.917,0.916v0.916C216.026,387.217,215.617,387.627,215.11,387.629 M222.438,387.629   c-0.506-0.003-0.914-0.412-0.916-0.918v-0.916c0-0.504,0.413-0.916,0.916-0.916c0.504,0,0.917,0.412,0.917,0.916v0.916   C223.354,387.217,222.944,387.626,222.438,387.629"/>
	<path fill="#6A6A6A" d="M219.69,390.46h-1.832c-0.252,0-0.458-0.206-0.458-0.458v-0.166c0-0.251,0.206-0.459,0.458-0.459h1.832   c0.252,0,0.459,0.205,0.459,0.459v0.166C220.149,390.254,219.944,390.46,219.69,390.46"/>
	<path fill="#595959" d="M208.557,376.918v1.083c0,1.197,4.607,2.167,10.291,2.167c5.685,0,10.292-0.97,10.292-2.167v-1.083H208.557   z"/>
	<path fill="#CACACA" d="M229.14,376.918h-20.583c-0.299,0-0.542,0.244-0.542,0.542c0,0.297,0.243,0.542,0.542,0.542h20.583   c0.299,0,0.542-0.244,0.542-0.542S229.438,376.918,229.14,376.918z"/>
	<path d="M223.283,404.078c0.169,0.065-0.396-3.961-0.396-3.961h-8.077c0,0-0.565,4.096-0.249,3.927   c0.771-0.414,0.939-0.532,2.205-1.458c0.041,0.112,0.08,0.214,0.113,0.276c0.17,0.304,0.572,0.979,0.572,0.979   s-0.887,1.239-1.194,3.409h5.146c-0.305-1.729-1.135-3.409-1.135-3.409c0.704-1.175,0.754-1.302,0.575-0.979   c0.044-0.091,0.081-0.184,0.113-0.278C221.918,403.259,222.92,403.934,223.283,404.078z"/>
	<path fill="#8E8E8E" d="M213.748,396.465c0.612,0.613,5.101,3.664,5.101,3.664s-2.303,1.346-4.424,3.829   c-0.213,0.249-1.671-5.011-1.715-6.185C212.697,397.445,213.455,396.17,213.748,396.465 M223.973,396.465   c-0.613,0.613-5.102,3.664-5.102,3.664s2.303,1.346,4.425,3.829c0.211,0.249,1.669-5.011,1.714-6.185   C225.023,397.445,224.266,396.17,223.973,396.465"/>
	<path fill="#141414" d="M218.865,400.865c0.423-0.023,1.671,0.835,1.54,1.354c-0.499,1.979-0.919,1.507-1.507,1.507   c-0.662,0-1.044,0.513-1.506-1.422C217.291,401.886,218.256,400.899,218.865,400.865 M221.015,407.252c0,0-0.521-2.979-2.121-2.979   s-2.179,2.979-2.179,2.979H221.015"/>
	<path fill="#8E8E8E" d="M226.255,399.552l4.744,1.475c0.284,0.092,0.59-0.063,0.684-0.349l0.335-1.03   c0.089-0.284-0.065-0.589-0.35-0.682l-4.743-1.476c-0.285-0.092-0.589,0.063-0.683,0.348l-0.336,1.03   C225.815,399.15,225.973,399.459,226.255,399.552"/>
	<circle fill="#FFFFFF" cx="227.155" cy="398.632" r="0.624"/>
	<path fill="#595959" d="M352.611,406.752v-1.057c0-4.224-3.892-7.39-7.39-7.39h-14.777c-3.496,0-7.39,3.166-7.39,7.39v1.057   H352.611z"/>
	<ellipse fill="#595959" cx="337.837" cy="376.669" rx="12.666" ry="7.917"/>
	<path fill="#D8D8D8" d="M333.231,398.414c0,0,3.006,2.072,4.602,2.072s4.602-2.072,4.602-2.072v-4.023h-9.204L333.231,398.414   L333.231,398.414z"/>
	<path fill="#C7C7C7" d="M333.223,395.881c1.283,1.451,2.875,1.844,4.606,1.844c1.729,0,3.321-0.395,4.604-1.844v-3.685h-9.213   L333.223,395.881L333.223,395.881z"/>
	<path fill="#DCDCDC" d="M328.336,377.723c-0.394,0.741-1.153,1.551-1.26,2.415c-0.449,3.64,0.551,5.331,0.908,8.068   c0.401,3.101,2.068,4.093,3.401,4.508c1.917,2.649,3.956,2.535,7.378,2.535c6.684,0,9.595-4.74,9.874-12.683   c0.064-1.817-0.399-3.403-1.114-4.842L328.336,377.723L328.336,377.723z"/>
	<path fill="#D8D8D8" d="M345.392,382.969c-0.646-0.936-1.475-1.69-3.29-1.956c0.683,0.326,1.333,1.453,1.418,2.076   c0.087,0.623,0.171,1.127-0.367,0.505c-2.158-2.495-4.509-1.513-6.837-3.037c-1.628-1.065-2.124-2.242-2.124-2.242   s-0.198,1.571-2.666,3.174c-0.714,0.464-1.567,1.498-2.041,3.025c-0.341,1.098-0.233,2.076-0.233,3.748   c0,4.882,3.846,8.987,8.592,8.987s8.593-4.141,8.593-8.987C346.433,385.223,346.127,384.036,345.392,382.969z"/>
	<path fill="#6A6A6A" d="M338.126,392.757c2.905,0.057,3.783,0.819,3.93,0.973c0.272,0.268,0.274,0.706,0.007,0.978   c-0.269,0.272-0.705,0.274-0.979,0.006l0,0c-0.054-0.04-0.75-0.529-2.985-0.574c-2.322-0.046-3.004,0.454-3.01,0.458   c-0.269,0.256-0.695,0.246-0.952-0.023c-0.004-0.004-0.008-0.008-0.011-0.013c-0.261-0.284-0.246-0.723,0.034-0.989   C334.312,393.427,335.22,392.7,338.126,392.757 M337.096,396.558l1.909,0.038c0.264,0.005,0.474,0.234,0.468,0.511   c-0.005,0.274-0.225,0.494-0.487,0.489l-1.908-0.038c-0.265-0.005-0.474-0.232-0.467-0.509   C336.607,396.779,336.826,396.56,337.096,396.558L337.096,396.558z"/>
	<path d="M334.015,387.261c-0.526,0-0.954-0.448-0.954-0.999v-0.998c0-0.551,0.428-0.999,0.954-0.999s0.954,0.447,0.954,0.999v0.998   C334.97,386.813,334.542,387.261,334.015,387.261z M341.652,387.261c-0.526,0-0.954-0.448-0.954-0.999v-0.998   c0-0.551,0.428-0.999,0.954-0.999s0.954,0.447,0.954,0.999v0.998C342.606,386.813,342.18,387.261,341.652,387.261z"/>
	<path fill="#595959" d="M327.806,377.195v1.056c0,1.167,4.489,2.111,10.027,2.111c5.539,0,10.028-0.944,10.028-2.111v-1.056   H327.806z"/>
	<path fill="#CACACA" d="M347.861,377.195h-20.057c-0.291,0-0.526,0.238-0.526,0.528s0.235,0.528,0.526,0.528h20.057   c0.291,0,0.526-0.238,0.526-0.528S348.152,377.195,347.861,377.195z"/>
	<path d="M339.889,402.821c0.937,0.654,1.912,1.312,2.267,1.456c0.019,0.007,0.017-0.117,0.013-0.121   c-2.065-2.42-4.311-3.73-4.311-3.73l0.014-0.01l-0.014,0.002h-0.032l0.012,0.008c0,0-2.206,1.293-4.26,3.674   c0.015,0.108,0.039,0.167,0.08,0.146c0.312-0.17,1.239-0.81,2.144-1.444c0.04,0.118,0.081,0.227,0.118,0.29   c0.164,0.297,0.557,0.956,0.557,0.956s-0.795,0.594-1.093,2.706h4.928c-0.297-1.684-1.089-2.706-1.089-2.706   s0.396-0.659,0.562-0.956C339.812,403.027,339.851,402.931,339.889,402.821z"/>
	<path fill="#8E8E8E" d="M337.834,400.426c0,0-0.01-0.006-0.011-0.008c-0.131-0.089-4.371-2.973-4.959-3.562   c-0.286-0.287-1.024,0.955-1.013,1.275c0.043,1.145,1.465,6.269,1.672,6.025l0.052-0.058   C335.629,401.719,337.834,400.426,337.834,400.426z M337.856,400.426c0,0,2.242,1.312,4.311,3.73   c0.004,0.006,0.012-0.005,0.017-0.005c0.249,0.029,1.612-4.901,1.653-6.021c0.014-0.32-0.726-1.562-1.01-1.276   c-0.589,0.589-4.814,3.466-4.958,3.562L337.856,400.426z"/>
	<path fill="#141414" d="M337.85,401.143c-0.593,0.033-1.53,0.994-1.434,1.402c0.45,1.885,0.821,1.386,1.468,1.386   c0.572,0,0.982,0.462,1.469-1.468C339.479,401.957,338.26,401.119,337.85,401.143z M337.878,404.463   c-1.56,0-2.131,2.288-2.131,2.288h4.246C339.994,406.751,339.438,404.463,337.878,404.463z"/>
	<path fill="#8E8E8E" d="M330.982,399.772l-6.058,1.851c-0.278,0.085-0.573-0.072-0.66-0.35l-0.309-1.011   c-0.083-0.278,0.072-0.571,0.35-0.657l6.059-1.853c0.277-0.084,0.573,0.071,0.658,0.349l0.309,1.012   C331.418,399.391,331.261,399.688,330.982,399.772"/>
	<circle fill="#FFFFFF" cx="329.97" cy="398.957" r="0.608"/>
	<path fill="#8E8E8E" d="M344.696,399.772l6.058,1.851c0.278,0.085,0.573-0.072,0.659-0.35l0.31-1.011   c0.084-0.278-0.071-0.571-0.351-0.657l-6.058-1.853c-0.278-0.084-0.572,0.071-0.659,0.349l-0.309,1.012   C344.263,399.391,344.418,399.686,344.696,399.772"/>
	<circle fill="#FFFFFF" cx="345.505" cy="398.928" r="0.608"/>
	<path fill="#595959" d="M296.636,425.021v-2.335c0-3.866-3.133-7-7-7h-18.667c-3.865,0-7,3.136-7,7v2.335H296.636z"/>
	<ellipse fill="#595959" cx="280.306" cy="391.771" rx="14.001" ry="8.75"/>
	<path fill="#E6E6E6" d="M275.217,415.806c0,0,3.322,2.29,5.086,2.29c1.764,0,5.086-2.29,5.086-2.29v-4.445h-10.175v4.445H275.217z"/>
	<path fill="#CCCCCC" d="M275.206,413.322c1.419,1.604,3.178,2.037,5.092,2.037c1.912,0,3.671-0.437,5.091-2.037v-4.072h-10.184   L275.206,413.322L275.206,413.322z"/>
	<path fill="#E6E6E6" d="M272.653,401.612c0,1.688-0.856,3.06-1.912,3.06c-1.056,0-1.912-1.371-1.912-3.06   c0-1.689,0.856-3.061,1.912-3.061C271.797,398.551,272.653,399.922,272.653,401.612 M291.774,401.612   c0,1.688-0.855,3.06-1.913,3.06c-1.055,0-1.911-1.371-1.911-3.06c0-1.689,0.855-3.061,1.911-3.061   C290.919,398.551,291.774,399.922,291.774,401.612"/>
	<path fill="#E6E6E6" d="M270.358,402.806c0-6.521,4.452-11.808,9.944-11.808c5.491,0,9.941,5.288,9.941,11.808   c0,6.521-4.45,11.809-9.941,11.809C274.811,414.613,270.358,409.328,270.358,402.806"/>
	<path fill="#6A6A6A" d="M280.299,408.473c3.213,0.006,4.198,0.828,4.363,0.996c0.306,0.291,0.316,0.773,0.026,1.081   c-0.292,0.307-0.774,0.317-1.081,0.026c-0.061-0.043-0.84-0.57-3.312-0.574c-2.566-0.004-3.31,0.561-3.316,0.566   c-0.291,0.289-0.763,0.284-1.053-0.008c-0.004-0.005-0.009-0.008-0.013-0.013c-0.293-0.309-0.286-0.795,0.019-1.095   C276.098,409.287,277.086,408.467,280.299,408.473"/>
	<path d="M280.303,388.161c6.59,0,10.707,3.782,10.707,7.834c0,4.052-0.822,5.673-1.647,4.052l-1.647-3.242c0,0-4.94,0-6.588-1.622   c0,0,2.472,4.863-2.471,0c0,0,0.823,3.242-4.119-0.81c0,0-2.47,1.621-3.295,5.673c-0.228,1.125-1.646,0-1.646-4.052   C269.595,391.943,272.89,388.161,280.303,388.161"/>
	<path d="M275.636,402.854c-0.642,0-1.167-0.524-1.167-1.165v-1.169c0-0.641,0.525-1.165,1.167-1.165   c0.642,0,1.167,0.524,1.167,1.165v1.169C276.803,402.328,276.277,402.854,275.636,402.854 M284.97,402.854   c-0.642,0-1.167-0.524-1.167-1.165v-1.169c0-0.641,0.525-1.165,1.167-1.165c0.641,0,1.166,0.524,1.166,1.165v1.169   C286.136,402.328,285.61,402.854,284.97,402.854"/>
	<path fill="#6A6A6A" d="M281.178,406.062h-1.75c-0.482,0-0.875-0.395-0.875-0.875c0-0.482,0.393-0.875,0.875-0.875h1.75   c0.481,0,0.875,0.393,0.875,0.875C282.053,405.669,281.659,406.062,281.178,406.062"/>
	<path fill="#595959" d="M269.219,392.354v1.167c0,1.289,4.962,2.333,11.084,2.333c6.121,0,11.083-1.044,11.083-2.333v-1.167   H269.219z"/>
	<path fill="#8E8E8E" d="M290.804,392.354v-2.333c0,0-4.375-2.625-10.501-2.625c-6.123,0-10.498,2.625-10.498,2.625v2.333H290.804z"/>
	<path fill="#CACACA" d="M291.386,392.354h-22.167c-0.321,0-0.583,0.263-0.583,0.583c0,0.321,0.262,0.583,0.583,0.583h22.167   c0.321,0,0.584-0.263,0.584-0.583C291.97,392.616,291.707,392.354,291.386,392.354z"/>
	<path d="M282.574,420.678c1.033,0.726,2.113,1.451,2.505,1.609c0.021,0.008,0.018-0.129,0.014-0.134   c-2.284-2.675-4.766-4.124-4.766-4.124l0.017-0.011l-0.017,0.001h-0.035l0.013,0.01c0,0-2.438,1.43-4.708,4.061   c0.017,0.12,0.044,0.187,0.089,0.16c0.347-0.188,1.371-0.893,2.369-1.596c0.044,0.131,0.09,0.249,0.131,0.319   c0.182,0.328,0.615,1.058,0.615,1.058s-0.878,0.656-1.208,2.99h5.446c-0.328-1.859-1.203-2.99-1.203-2.99s0.438-0.729,0.62-1.058   C282.491,420.905,282.532,420.799,282.574,420.678z"/>
	<path fill="#8E8E8E" d="M280.304,418.029c0,0-0.012-0.006-0.013-0.01c-0.145-0.098-4.831-3.285-5.481-3.938   c-0.315-0.317-1.131,1.056-1.117,1.409c0.048,1.266,1.617,6.929,1.847,6.661l0.057-0.063   C277.865,419.459,280.304,418.029,280.304,418.029z M280.327,418.029c0,0,2.479,1.448,4.766,4.124   c0.004,0.005,0.012-0.007,0.018-0.007c0.276,0.034,1.782-5.416,1.828-6.654c0.015-0.354-0.803-1.728-1.117-1.409   c-0.65,0.649-5.32,3.829-5.479,3.937L280.327,418.029z"/>
	<path fill="#141414" d="M280.32,418.822c-0.654,0.037-1.692,1.099-1.584,1.55c0.497,2.083,0.907,1.532,1.622,1.532   c0.632,0,1.086,0.51,1.623-1.623C282.121,419.723,280.774,418.797,280.32,418.822z M280.352,422.492   c-1.724,0-2.355,2.529-2.355,2.529h4.693C282.69,425.021,282.075,422.492,280.352,422.492z"/>
	<path fill="#CACACA" d="M282.928,384.771h-0.003c-0.26,0.003-0.504,0.124-0.665,0.329c-0.328,0.081-0.777,0.098-1.349-0.083   c-0.34-0.327-0.876-0.326-1.215,0.001c-0.572,0.181-1.023,0.164-1.349,0.083c-0.162-0.205-0.406-0.326-0.667-0.33h-0.002   c-0.483,0-0.875,0.392-0.875,0.875s0.392,0.875,0.875,0.875l0,0h0.002c0,3.5,1.748,4.375,2.622,4.375   c0.876,0,2.622-0.875,2.622-4.375h0.003c0.482,0,0.875-0.392,0.875-0.875C283.803,385.163,283.41,384.771,282.928,384.771z"/>
	<path fill="#8E8E8E" d="M272.682,417.335l-6.914,1.094c-0.317,0.05-0.616-0.167-0.666-0.484l-0.185-1.153   c-0.049-0.316,0.168-0.615,0.485-0.665l6.913-1.094c0.319-0.051,0.616,0.166,0.668,0.481l0.183,1.153   C273.216,416.984,272.999,417.285,272.682,417.335"/>
	<circle fill="#FFFFFF" cx="271.698" cy="416.286" r="0.671"/>
	<path fill="#8E8E8E" d="M287.938,417.335l6.914,1.094c0.317,0.05,0.617-0.167,0.667-0.484l0,0l0.184-1.153   c0.05-0.316-0.169-0.615-0.485-0.665l-6.916-1.094c-0.316-0.051-0.615,0.166-0.667,0.481l-0.182,1.153   C287.403,416.984,287.619,417.283,287.938,417.335"/>
	<circle fill="#FFFFFF" cx="288.692" cy="416.286" r="0.671"/>
	<path fill="#595959" d="M253.457,423.021v-1.058c0-4.223-3.891-7.389-7.389-7.389H231.29c-3.496,0-7.389,3.166-7.389,7.389v1.058   H253.457z"/>
	<ellipse fill="#595959" cx="238.683" cy="392.938" rx="12.666" ry="7.917"/>
	<path fill="#D8D8D8" d="M234.077,414.684c0,0,3.006,2.072,4.602,2.072c1.596,0,4.602-2.072,4.602-2.072v-4.022h-9.205   L234.077,414.684L234.077,414.684z"/>
	<path fill="#C7C7C7" d="M234.068,412.15c1.283,1.45,2.875,1.844,4.606,1.844c1.729,0,3.321-0.396,4.605-1.844v-3.687h-9.213   L234.068,412.15L234.068,412.15z"/>
	<path fill="#DCDCDC" d="M229.182,393.993c-0.394,0.741-1.153,1.551-1.26,2.415c-0.449,3.639,0.551,5.331,0.908,8.067   c0.402,3.102,2.069,4.094,3.402,4.51c1.917,2.647,3.956,2.533,7.378,2.533c6.683,0,9.594-4.738,9.874-12.683   c0.064-1.818-0.4-3.403-1.115-4.842L229.182,393.993L229.182,393.993z"/>
	<path fill="#D8D8D8" d="M246.237,399.238c-0.647-0.937-1.475-1.69-3.29-1.956c0.682,0.325,1.333,1.453,1.418,2.075   c0.086,0.623,0.17,1.128-0.368,0.506c-2.158-2.496-4.508-1.515-6.837-3.038c-1.627-1.065-2.124-2.242-2.124-2.242   s-0.198,1.571-2.666,3.174c-0.713,0.465-1.567,1.498-2.041,3.025c-0.34,1.098-0.233,2.076-0.233,3.748   c0,4.883,3.846,8.986,8.592,8.986s8.593-4.142,8.593-8.986C247.278,401.492,246.973,400.306,246.237,399.238z"/>
	<path d="M234.86,403.531c-0.527,0-0.954-0.448-0.954-1v-0.998c0-0.551,0.427-0.998,0.954-0.998c0.526,0,0.954,0.447,0.954,0.998   v0.998C235.815,403.083,235.388,403.531,234.86,403.531z M242.498,403.531c-0.526,0-0.954-0.448-0.954-1v-0.998   c0-0.551,0.428-0.998,0.954-0.998c0.527,0,0.954,0.447,0.954,0.998v0.998C243.452,403.083,243.025,403.531,242.498,403.531z"/>
	<path fill="#595959" d="M228.651,393.465v1.056c0,1.167,4.489,2.111,10.027,2.111c5.539,0,10.028-0.944,10.028-2.111v-1.056   H228.651z"/>
	<path fill="#8E8E8E" d="M248.18,393.465v-2.111c0,0-3.958-2.375-9.501-2.375c-5.539,0-9.497,2.375-9.497,2.375v2.111H248.18z"/>
	<path fill="#CACACA" d="M248.707,393.465h-20.056c-0.291,0-0.527,0.238-0.527,0.528s0.236,0.528,0.527,0.528h20.056   c0.291,0,0.527-0.238,0.527-0.528S248.998,393.465,248.707,393.465z"/>
	<path d="M240.734,419.091c0.936,0.655,1.912,1.313,2.266,1.456c0.019,0.007,0.017-0.117,0.013-0.121   c-2.065-2.42-4.311-3.729-4.311-3.729l0.014-0.011l-0.014,0.002h-0.032l0.012,0.009c0,0-2.206,1.293-4.26,3.674   c0.015,0.107,0.039,0.167,0.08,0.145c0.313-0.17,1.24-0.809,2.144-1.443c0.04,0.118,0.081,0.226,0.118,0.29   c0.164,0.297,0.557,0.956,0.557,0.956s-0.795,0.594-1.093,2.706h4.928c-0.297-1.685-1.089-2.706-1.089-2.706   s0.396-0.659,0.561-0.956C240.659,419.297,240.696,419.2,240.734,419.091z"/>
	<path fill="#8E8E8E" d="M238.68,416.695c0,0-0.01-0.006-0.011-0.008c-0.131-0.09-4.371-2.974-4.959-3.562   c-0.286-0.287-1.024,0.955-1.012,1.275c0.043,1.144,1.464,6.268,1.671,6.024l0.052-0.057   C236.475,417.988,238.68,416.695,238.68,416.695z M238.702,416.695c0,0,2.243,1.311,4.311,3.729   c0.004,0.006,0.012-0.005,0.017-0.005c0.249,0.03,1.612-4.901,1.653-6.021c0.014-0.32-0.726-1.562-1.01-1.275   c-0.589,0.588-4.814,3.465-4.958,3.561L238.702,416.695z"/>
	<path fill="#141414" d="M238.695,417.412c-0.593,0.033-1.531,0.994-1.434,1.402c0.45,1.885,0.821,1.386,1.468,1.386   c0.572,0,0.982,0.462,1.469-1.468C240.324,418.227,239.105,417.389,238.695,417.412z M238.724,420.732   c-1.56,0-2.131,2.287-2.131,2.287h4.246C240.84,423.021,240.283,420.732,238.724,420.732z"/>
	<path fill="#CACACA" d="M241.054,386.605h-0.002c-0.234,0.003-0.456,0.112-0.602,0.298c-0.297,0.073-0.703,0.088-1.221-0.075   c-0.307-0.296-0.793-0.295-1.099,0.001c-0.518,0.164-0.926,0.148-1.221,0.075c-0.146-0.186-0.367-0.295-0.603-0.298h-0.003   c-0.437,0-0.791,0.354-0.791,0.792s0.354,0.792,0.791,0.792l0,0h0.003c0,3.167,1.581,3.958,2.371,3.958   c0.793,0,2.373-0.792,2.373-3.958h0.002c0.438,0,0.792-0.354,0.792-0.792S241.491,386.605,241.054,386.605z"/>
	<path fill="#8E8E8E" d="M231.828,416.042l-6.057,1.851c-0.278,0.085-0.573-0.071-0.66-0.35l-0.309-1.01   c-0.083-0.279,0.072-0.572,0.35-0.658l6.058-1.852c0.278-0.084,0.573,0.07,0.658,0.349l0.309,1.011   C232.264,415.66,232.106,415.956,231.828,416.042"/>
	<circle fill="#FFFFFF" cx="230.815" cy="415.226" r="0.608"/>
	<path fill="#8E8E8E" d="M245.542,416.042l6.058,1.851c0.278,0.085,0.573-0.071,0.659-0.35l0.31-1.01   c0.084-0.279-0.072-0.572-0.351-0.658l-6.058-1.852c-0.278-0.084-0.572,0.07-0.659,0.349l-0.308,1.011   C245.108,415.66,245.264,415.955,245.542,416.042"/>
	<circle fill="#FFFFFF" cx="246.351" cy="415.198" r="0.608"/>
	<path fill="#595959" d="M388.11,407.681v-1.107c0-4.429-4.08-7.75-7.75-7.75h-15.5c-3.667,0-7.75,3.321-7.75,7.75v1.107H388.11z"/>
	<ellipse fill="#595959" cx="372.613" cy="376.127" rx="13.286" ry="8.303"/>
	<path fill="#B3B3B3" d="M367.784,398.936c0,0,3.151,2.174,4.826,2.174c1.674,0,4.825-2.174,4.825-2.174v-4.22h-9.653v4.22H367.784z   "/>
	<path fill="#A3A3A3" d="M367.774,396.279c1.346,1.521,3.016,1.933,4.832,1.933c1.812,0,3.482-0.413,4.829-1.933v-3.865h-9.662   L367.774,396.279L367.774,396.279z"/>
	<path fill="#121212" d="M362.648,377.233c-0.412,0.777-1.209,1.627-1.321,2.533c-0.471,3.817,0.578,5.591,0.952,8.462   c0.423,3.253,2.171,4.293,3.568,4.729c2.012,2.779,4.149,2.659,7.738,2.659c7.009,0,10.062-4.971,10.356-13.303   c0.067-1.906-0.419-3.569-1.171-5.079L362.648,377.233L362.648,377.233z"/>
	<path fill="#B3B3B3" d="M380.538,382.735c-0.68-0.981-1.547-1.773-3.45-2.052c0.714,0.341,1.397,1.524,1.486,2.177   c0.09,0.653,0.179,1.183-0.387,0.529c-2.265-2.617-4.729-1.586-7.172-3.185c-1.706-1.118-2.228-2.352-2.228-2.352   s-0.207,1.648-2.796,3.329c-0.748,0.487-1.646,1.571-2.142,3.173c-0.355,1.151-0.244,2.177-0.244,3.931   c0,5.121,4.033,9.426,9.012,9.426c4.978,0,9.013-4.343,9.013-9.426C381.63,385.1,381.31,383.855,380.538,382.735z"/>
	<path fill="#6A6A6A" d="M372.683,392.106c3.048,0.093,3.959,0.902,4.11,1.065c0.283,0.284,0.279,0.744-0.004,1.025   c-0.285,0.282-0.744,0.28-1.026-0.004l0,0c-0.056-0.042-0.78-0.563-3.125-0.635c-2.435-0.074-3.153,0.441-3.161,0.446   c-0.284,0.266-0.731,0.25-0.999-0.035c-0.003-0.004-0.008-0.009-0.011-0.014c-0.271-0.3-0.249-0.761,0.047-1.037   C368.675,392.764,369.635,392.013,372.683,392.106 M371.56,396.081l2.001,0.061c0.277,0.009,0.494,0.25,0.485,0.54   c-0.009,0.289-0.24,0.518-0.518,0.509l-2.001-0.062c-0.277-0.009-0.492-0.251-0.483-0.54   C371.045,396.307,371.276,396.079,371.56,396.081L371.56,396.081z"/>
	<path d="M368.604,387.238c-0.553,0-1-0.47-1-1.048v-1.047c0-0.578,0.447-1.047,1-1.047c0.554,0,1.002,0.469,1.002,1.047v1.047   C369.606,386.768,369.158,387.238,368.604,387.238z M376.616,387.238c-0.554,0-1.001-0.47-1.001-1.048v-1.047   c0-0.578,0.447-1.047,1.001-1.047c0.553,0,1,0.469,1,1.047v1.047C377.616,386.768,377.169,387.238,376.616,387.238z"/>
	<path fill="#595959" d="M362.093,376.68v1.107c0,1.223,4.708,2.214,10.519,2.214c5.81,0,10.518-0.991,10.518-2.214v-1.107H362.093z   "/>
	<path fill="#CACACA" d="M383.128,376.68h-21.035c-0.305,0-0.554,0.25-0.554,0.554c0,0.304,0.249,0.554,0.554,0.554h21.035   c0.305,0,0.554-0.25,0.554-0.554C383.682,376.93,383.433,376.68,383.128,376.68z"/>
	<path d="M374.767,403.559c0.98,0.688,2.006,1.377,2.376,1.526c0.021,0.007,0.019-0.122,0.014-0.126   c-2.166-2.538-4.521-3.914-4.521-3.914l0.017-0.01l-0.017,0.002h-0.033l0.013,0.008c0,0-2.313,1.356-4.467,3.854   c0.015,0.113,0.04,0.176,0.084,0.151c0.327-0.178,1.301-0.848,2.247-1.516c0.043,0.125,0.086,0.237,0.124,0.305   c0.173,0.312,0.585,1.003,0.585,1.003s-0.835,0.622-1.146,2.838h5.168c-0.312-1.765-1.142-2.838-1.142-2.838   s0.415-0.691,0.588-1.003C374.688,403.774,374.727,403.673,374.767,403.559z"/>
	<path fill="#8E8E8E" d="M372.611,401.045c0,0-0.012-0.006-0.013-0.008c-0.138-0.094-4.584-3.118-5.201-3.736   c-0.3-0.301-1.073,1.002-1.062,1.337c0.046,1.2,1.535,6.575,1.753,6.321l0.054-0.061   C370.298,402.401,372.611,401.045,372.611,401.045z M372.634,401.045c0,0,2.354,1.376,4.521,3.914   c0.005,0.005,0.013-0.006,0.018-0.006c0.262,0.032,1.691-5.141,1.734-6.315c0.014-0.335-0.761-1.638-1.061-1.337   c-0.616,0.615-5.049,3.633-5.198,3.734L372.634,401.045z"/>
	<path fill="#141414" d="M372.628,401.799c-0.622,0.033-1.606,1.041-1.504,1.47c0.473,1.978,0.861,1.453,1.539,1.453   c0.601,0,1.03,0.484,1.541-1.54C374.336,402.652,373.058,401.773,372.628,401.799z M372.657,405.281   c-1.638,0-2.235,2.397-2.235,2.397h4.453C374.877,407.68,374.293,405.281,372.657,405.281z"/>
	<path fill="#8E8E8E" d="M365.425,400.359l-6.354,1.941c-0.292,0.089-0.602-0.075-0.691-0.368l-0.324-1.059   c-0.087-0.292,0.076-0.6,0.367-0.689l6.354-1.941c0.292-0.089,0.601,0.075,0.689,0.365l0.323,1.06   C365.881,399.96,365.717,400.271,365.425,400.359"/>
	<circle fill="#FFFFFF" cx="364.362" cy="399.504" r="0.637"/>
	<path fill="#8E8E8E" d="M379.809,400.359l6.354,1.941c0.292,0.089,0.601-0.075,0.692-0.368l0.323-1.059   c0.087-0.292-0.076-0.6-0.368-0.689l-6.354-1.941c-0.292-0.089-0.602,0.075-0.691,0.365l-0.322,1.06   C379.354,399.96,379.517,400.27,379.809,400.359"/>
	<circle fill="#FFFFFF" cx="380.656" cy="399.475" r="0.637"/>
	<path fill="#595959" d="M372.972,423.021v-1.058c0-4.223-3.891-7.389-7.389-7.389h-14.778c-3.496,0-7.389,3.166-7.389,7.389v1.058   H372.972z"/>
	<ellipse fill="#595959" cx="358.197" cy="392.938" rx="12.666" ry="7.917"/>
	<path fill="#D8D8D8" d="M353.592,414.684c0,0,3.006,2.072,4.603,2.072c1.596,0,4.602-2.072,4.602-2.072v-4.022h-9.205   L353.592,414.684L353.592,414.684z"/>
	<path fill="#C7C7C7" d="M353.583,412.15c1.283,1.45,2.875,1.844,4.606,1.844c1.729,0,3.32-0.396,4.604-1.844v-3.687h-9.213   L353.583,412.15L353.583,412.15z"/>
	<path fill="#DCDCDC" d="M348.696,393.993c-0.395,0.741-1.153,1.551-1.261,2.415c-0.448,3.639,0.552,5.331,0.908,8.067   c0.402,3.102,2.069,4.094,3.402,4.51c1.917,2.647,3.956,2.533,7.378,2.533c6.683,0,9.594-4.738,9.874-12.683   c0.063-1.818-0.4-3.403-1.115-4.842L348.696,393.993L348.696,393.993z"/>
	<path fill="#D8D8D8" d="M365.752,399.238c-0.646-0.937-1.475-1.69-3.29-1.956c0.682,0.325,1.333,1.453,1.418,2.075   c0.086,0.623,0.17,1.128-0.368,0.506c-2.158-2.496-4.508-1.515-6.837-3.038c-1.627-1.065-2.124-2.242-2.124-2.242   s-0.198,1.571-2.666,3.174c-0.713,0.465-1.566,1.498-2.041,3.025c-0.34,1.098-0.232,2.076-0.232,3.748   c0,4.883,3.846,8.986,8.592,8.986s8.593-4.142,8.593-8.986C366.793,401.492,366.487,400.306,365.752,399.238z"/>
	<path d="M354.375,403.531c-0.527,0-0.954-0.448-0.954-1v-0.998c0-0.551,0.427-0.998,0.954-0.998c0.526,0,0.954,0.447,0.954,0.998   v0.998C355.33,403.083,354.902,403.531,354.375,403.531z M362.013,403.531c-0.525,0-0.954-0.448-0.954-1v-0.998   c0-0.551,0.429-0.998,0.954-0.998c0.527,0,0.954,0.447,0.954,0.998v0.998C362.967,403.083,362.54,403.531,362.013,403.531z"/>
	<path fill="#595959" d="M348.166,393.465v1.056c0,1.167,4.489,2.111,10.027,2.111c5.539,0,10.027-0.944,10.027-2.111v-1.056   H348.166z"/>
	<path fill="#8E8E8E" d="M367.694,393.465v-2.111c0,0-3.958-2.375-9.501-2.375c-5.539,0-9.497,2.375-9.497,2.375v2.111H367.694z"/>
	<path fill="#CACACA" d="M368.222,393.465h-20.056c-0.291,0-0.527,0.238-0.527,0.528s0.236,0.528,0.527,0.528h20.056   c0.291,0,0.527-0.238,0.527-0.528S368.513,393.465,368.222,393.465z"/>
	<path d="M360.249,419.091c0.936,0.655,1.912,1.313,2.266,1.456c0.02,0.007,0.018-0.117,0.014-0.121   c-2.065-2.42-4.312-3.729-4.312-3.729l0.015-0.011l-0.015,0.002h-0.032l0.013,0.009c0,0-2.206,1.293-4.261,3.674   c0.016,0.107,0.039,0.167,0.08,0.145c0.313-0.17,1.24-0.809,2.145-1.443c0.04,0.118,0.081,0.226,0.118,0.29   c0.164,0.297,0.557,0.956,0.557,0.956s-0.795,0.594-1.093,2.706h4.928c-0.297-1.685-1.089-2.706-1.089-2.706   s0.396-0.659,0.561-0.956C360.174,419.297,360.211,419.2,360.249,419.091z"/>
	<path fill="#8E8E8E" d="M358.194,416.695c0,0-0.011-0.006-0.012-0.008c-0.131-0.09-4.37-2.974-4.959-3.562   c-0.286-0.287-1.023,0.955-1.012,1.275c0.043,1.144,1.464,6.268,1.671,6.024l0.052-0.057   C355.989,417.988,358.194,416.695,358.194,416.695z M358.217,416.695c0,0,2.243,1.311,4.312,3.729   c0.004,0.006,0.012-0.005,0.017-0.005c0.249,0.03,1.612-4.901,1.653-6.021c0.014-0.32-0.727-1.562-1.01-1.275   c-0.59,0.588-4.814,3.465-4.958,3.561L358.217,416.695z"/>
	<path fill="#141414" d="M358.21,417.412c-0.593,0.033-1.531,0.994-1.434,1.402c0.449,1.885,0.82,1.386,1.468,1.386   c0.572,0,0.981,0.462,1.469-1.468C359.839,418.227,358.62,417.389,358.21,417.412z M358.238,420.732   c-1.561,0-2.131,2.287-2.131,2.287h4.245C360.354,423.021,359.798,420.732,358.238,420.732z"/>
	<path fill="#CACACA" d="M360.568,386.605h-0.002c-0.234,0.003-0.456,0.112-0.603,0.298c-0.297,0.073-0.703,0.088-1.221-0.075   c-0.308-0.296-0.793-0.295-1.1,0.001c-0.518,0.164-0.926,0.148-1.221,0.075c-0.146-0.186-0.367-0.295-0.603-0.298h-0.003   c-0.438,0-0.791,0.354-0.791,0.792s0.354,0.792,0.791,0.792l0,0h0.003c0,3.167,1.581,3.958,2.371,3.958   c0.793,0,2.373-0.792,2.373-3.958h0.002c0.438,0,0.792-0.354,0.792-0.792S361.006,386.605,360.568,386.605z"/>
	<path fill="#8E8E8E" d="M351.343,416.042l-6.057,1.851c-0.278,0.085-0.573-0.071-0.66-0.35l-0.309-1.01   c-0.083-0.279,0.071-0.572,0.35-0.658l6.058-1.852c0.278-0.084,0.573,0.07,0.658,0.349l0.31,1.011   C351.778,415.66,351.621,415.956,351.343,416.042"/>
	<circle fill="#FFFFFF" cx="350.33" cy="415.226" r="0.608"/>
	<path fill="#8E8E8E" d="M365.057,416.042l6.059,1.851c0.277,0.085,0.573-0.071,0.659-0.35l0.31-1.01   c0.084-0.279-0.072-0.572-0.351-0.658l-6.059-1.852c-0.278-0.084-0.572,0.07-0.659,0.349l-0.308,1.011   C364.623,415.66,364.778,415.955,365.057,416.042"/>
	<circle fill="#FFFFFF" cx="365.865" cy="415.198" r="0.608"/>
	<path fill="#595959" d="M337.818,425.021v-2.335c0-3.866-3.134-7-7-7h-18.667c-3.865,0-7,3.136-7,7v2.335H337.818z"/>
	<ellipse fill="#595959" cx="321.488" cy="391.771" rx="14.001" ry="8.75"/>
	<path fill="#E6E6E6" d="M316.399,415.806c0,0,3.321,2.29,5.086,2.29c1.764,0,5.086-2.29,5.086-2.29v-4.445h-10.175v4.445H316.399z"/>
	<path fill="#CCCCCC" d="M316.389,413.322c1.419,1.604,3.179,2.037,5.093,2.037c1.911,0,3.671-0.437,5.091-2.037v-4.072h-10.185   L316.389,413.322L316.389,413.322z"/>
	<path fill="#E6E6E6" d="M313.836,401.612c0,1.688-0.855,3.06-1.912,3.06c-1.056,0-1.912-1.371-1.912-3.06   c0-1.689,0.856-3.061,1.912-3.061C312.979,398.551,313.836,399.922,313.836,401.612 M332.957,401.612   c0,1.688-0.855,3.06-1.913,3.06c-1.055,0-1.911-1.371-1.911-3.06c0-1.689,0.855-3.061,1.911-3.061   C332.102,398.551,332.957,399.922,332.957,401.612"/>
	<path fill="#E6E6E6" d="M311.541,402.806c0-6.521,4.452-11.808,9.944-11.808c5.49,0,9.94,5.288,9.94,11.808   c0,6.521-4.45,11.809-9.94,11.809C315.993,414.613,311.541,409.328,311.541,402.806"/>
	<path fill="#6A6A6A" d="M321.45,408.473c3.212-0.078,4.22,0.72,4.389,0.881c0.313,0.283,0.336,0.767,0.055,1.08   c-0.283,0.313-0.767,0.339-1.079,0.056c-0.062-0.041-0.854-0.548-3.325-0.486c-2.565,0.062-3.294,0.647-3.301,0.653   c-0.283,0.296-0.756,0.306-1.054,0.021c-0.004-0.005-0.009-0.008-0.013-0.013c-0.302-0.301-0.307-0.787-0.011-1.095   C317.272,409.398,318.238,408.553,321.45,408.473"/>
	<path d="M321.485,388.161c6.59,0,10.707,3.782,10.707,7.834c0,4.052-0.822,5.673-1.647,4.052l-1.646-3.242c0,0-4.94,0-6.589-1.622   c0,0,2.473,4.863-2.471,0c0,0,0.823,3.242-4.119-0.81c0,0-2.47,1.621-3.295,5.673c-0.228,1.125-1.646,0-1.646-4.052   C310.777,391.943,314.072,388.161,321.485,388.161"/>
	<path d="M316.818,402.854c-0.643,0-1.167-0.524-1.167-1.165v-1.169c0-0.641,0.524-1.165,1.167-1.165   c0.642,0,1.167,0.524,1.167,1.165v1.169C317.985,402.328,317.46,402.854,316.818,402.854 M326.152,402.854   c-0.643,0-1.167-0.524-1.167-1.165v-1.169c0-0.641,0.524-1.165,1.167-1.165c0.641,0,1.166,0.524,1.166,1.165v1.169   C327.318,402.328,326.793,402.854,326.152,402.854"/>
	<path fill="#6A6A6A" d="M322.36,406.062h-1.75c-0.482,0-0.875-0.395-0.875-0.875c0-0.482,0.393-0.875,0.875-0.875h1.75   c0.48,0,0.875,0.393,0.875,0.875C323.235,405.669,322.842,406.062,322.36,406.062"/>
	<path fill="#595959" d="M310.401,392.354v1.167c0,1.289,4.962,2.333,11.084,2.333c6.121,0,11.083-1.044,11.083-2.333v-1.167   H310.401z"/>
	<path fill="#8E8E8E" d="M331.986,392.354v-2.333c0,0-4.375-2.625-10.501-2.625c-6.123,0-10.498,2.625-10.498,2.625v2.333H331.986z"/>
	<path fill="#CACACA" d="M332.568,392.354h-22.167c-0.321,0-0.583,0.263-0.583,0.583c0,0.321,0.262,0.583,0.583,0.583h22.167   c0.32,0,0.584-0.263,0.584-0.583C333.152,392.616,332.89,392.354,332.568,392.354z"/>
	<path d="M323.757,420.678c1.033,0.726,2.113,1.451,2.505,1.609c0.021,0.008,0.019-0.129,0.015-0.134   c-2.284-2.675-4.767-4.124-4.767-4.124l0.018-0.011l-0.018,0.001h-0.035l0.014,0.01c0,0-2.438,1.43-4.708,4.061   c0.017,0.12,0.044,0.187,0.089,0.16c0.347-0.188,1.371-0.893,2.369-1.596c0.044,0.131,0.09,0.249,0.131,0.319   c0.182,0.328,0.615,1.058,0.615,1.058s-0.878,0.656-1.208,2.99h5.445c-0.328-1.859-1.203-2.99-1.203-2.99s0.438-0.729,0.62-1.058   C323.674,420.905,323.715,420.799,323.757,420.678z"/>
	<path fill="#8E8E8E" d="M321.486,418.029c0,0-0.013-0.006-0.014-0.01c-0.145-0.098-4.831-3.285-5.48-3.938   c-0.315-0.317-1.131,1.056-1.117,1.409c0.048,1.266,1.617,6.929,1.847,6.661l0.058-0.063   C319.048,419.459,321.486,418.029,321.486,418.029z M321.51,418.029c0,0,2.479,1.448,4.767,4.124   c0.004,0.005,0.012-0.007,0.018-0.007c0.276,0.034,1.782-5.416,1.828-6.654c0.015-0.354-0.803-1.728-1.117-1.409   c-0.649,0.649-5.32,3.829-5.479,3.937L321.51,418.029z"/>
	<path fill="#141414" d="M321.503,418.822c-0.654,0.037-1.692,1.099-1.584,1.55c0.497,2.083,0.907,1.532,1.622,1.532   c0.632,0,1.086,0.51,1.623-1.623C323.304,419.723,321.957,418.797,321.503,418.822z M321.534,422.492   c-1.725,0-2.355,2.529-2.355,2.529h4.693C323.873,425.021,323.258,422.492,321.534,422.492z"/>
	<path fill="#CACACA" d="M324.11,384.771h-0.003c-0.261,0.003-0.505,0.124-0.665,0.329c-0.328,0.081-0.777,0.098-1.35-0.083   c-0.34-0.327-0.876-0.326-1.215,0.001c-0.572,0.181-1.022,0.164-1.349,0.083c-0.162-0.205-0.406-0.326-0.667-0.33h-0.002   c-0.483,0-0.875,0.392-0.875,0.875s0.392,0.875,0.875,0.875l0,0h0.002c0,3.5,1.748,4.375,2.622,4.375   c0.876,0,2.622-0.875,2.622-4.375h0.003c0.481,0,0.875-0.392,0.875-0.875C324.985,385.163,324.593,384.771,324.11,384.771z"/>
	<path fill="#8E8E8E" d="M313.864,417.335l-6.914,1.094c-0.317,0.05-0.616-0.167-0.666-0.484l-0.186-1.153   c-0.049-0.316,0.168-0.615,0.485-0.665l6.913-1.094c0.319-0.051,0.616,0.166,0.668,0.481l0.183,1.153   C314.398,416.984,314.182,417.285,313.864,417.335"/>
	<circle fill="#FFFFFF" cx="312.881" cy="416.286" r="0.671"/>
	<path fill="#8E8E8E" d="M329.12,417.335l6.914,1.094c0.316,0.05,0.617-0.167,0.667-0.484l0,0l0.184-1.153   c0.05-0.316-0.169-0.615-0.484-0.665l-6.916-1.094c-0.316-0.051-0.615,0.166-0.667,0.481l-0.183,1.153   C328.586,416.984,328.802,417.283,329.12,417.335"/>
	<circle fill="#FFFFFF" cx="329.875" cy="416.286" r="0.671"/>
	<path fill="#595959" d="M405.389,423.021v-1.058c0-4.223-3.891-7.389-7.389-7.389h-14.778c-3.496,0-7.389,3.166-7.389,7.389v1.058   H405.389z"/>
	<ellipse fill="#595959" cx="390.614" cy="392.938" rx="12.666" ry="7.917"/>
	<path fill="#D8D8D8" d="M386.009,414.684c0,0,3.006,2.072,4.603,2.072c1.596,0,4.602-2.072,4.602-2.072v-4.022h-9.205   L386.009,414.684L386.009,414.684z"/>
	<path fill="#C7C7C7" d="M386,412.15c1.283,1.45,2.875,1.844,4.606,1.844c1.729,0,3.32-0.396,4.604-1.844v-3.687h-9.213L386,412.15   L386,412.15z"/>
	<path fill="#DCDCDC" d="M381.113,393.993c-0.395,0.741-1.153,1.551-1.261,2.415c-0.448,3.639,0.552,5.331,0.908,8.067   c0.402,3.102,2.069,4.094,3.402,4.51c1.917,2.647,3.956,2.533,7.378,2.533c6.683,0,9.594-4.738,9.874-12.683   c0.063-1.818-0.4-3.403-1.115-4.842L381.113,393.993L381.113,393.993z"/>
	<path fill="#D8D8D8" d="M398.169,399.238c-0.646-0.937-1.475-1.69-3.29-1.956c0.682,0.325,1.333,1.453,1.418,2.075   c0.086,0.623,0.17,1.128-0.368,0.506c-2.157-2.496-4.508-1.515-6.837-3.038c-1.627-1.065-2.124-2.242-2.124-2.242   s-0.198,1.571-2.666,3.174c-0.713,0.465-1.566,1.498-2.041,3.025c-0.34,1.098-0.232,2.076-0.232,3.748   c0,4.883,3.846,8.986,8.592,8.986s8.593-4.142,8.593-8.986C399.21,401.492,398.904,400.306,398.169,399.238z"/>
	<path d="M386.792,403.531c-0.527,0-0.954-0.448-0.954-1v-0.998c0-0.551,0.427-0.998,0.954-0.998c0.526,0,0.954,0.447,0.954,0.998   v0.998C387.747,403.083,387.319,403.531,386.792,403.531z M394.43,403.531c-0.525,0-0.954-0.448-0.954-1v-0.998   c0-0.551,0.429-0.998,0.954-0.998c0.527,0,0.954,0.447,0.954,0.998v0.998C395.384,403.083,394.957,403.531,394.43,403.531z"/>
	<path fill="#595959" d="M380.583,393.465v1.056c0,1.167,4.489,2.111,10.027,2.111c5.539,0,10.027-0.944,10.027-2.111v-1.056   H380.583z"/>
	<path fill="#8E8E8E" d="M400.111,393.465v-2.111c0,0-3.958-2.375-9.501-2.375c-5.539,0-9.497,2.375-9.497,2.375v2.111H400.111z"/>
	<path fill="#CACACA" d="M400.639,393.465h-20.056c-0.291,0-0.527,0.238-0.527,0.528s0.236,0.528,0.527,0.528h20.056   c0.291,0,0.527-0.238,0.527-0.528S400.93,393.465,400.639,393.465z"/>
	<path d="M392.666,419.091c0.936,0.655,1.912,1.313,2.266,1.456c0.02,0.007,0.018-0.117,0.014-0.121   c-2.065-2.42-4.312-3.729-4.312-3.729l0.015-0.011l-0.015,0.002h-0.032l0.013,0.009c0,0-2.206,1.293-4.261,3.674   c0.016,0.107,0.039,0.167,0.08,0.145c0.313-0.17,1.24-0.809,2.145-1.443c0.04,0.118,0.081,0.226,0.118,0.29   c0.164,0.297,0.557,0.956,0.557,0.956s-0.795,0.594-1.093,2.706h4.928c-0.297-1.685-1.089-2.706-1.089-2.706   s0.396-0.659,0.561-0.956C392.591,419.297,392.628,419.2,392.666,419.091z"/>
	<path fill="#8E8E8E" d="M390.611,416.695c0,0-0.011-0.006-0.012-0.008c-0.131-0.09-4.371-2.974-4.959-3.562   c-0.285-0.287-1.023,0.955-1.012,1.275c0.043,1.144,1.464,6.268,1.671,6.024l0.052-0.057   C388.406,417.988,390.611,416.695,390.611,416.695z M390.634,416.695c0,0,2.243,1.311,4.312,3.729   c0.004,0.006,0.012-0.005,0.017-0.005c0.249,0.03,1.612-4.901,1.653-6.021c0.014-0.32-0.727-1.562-1.01-1.275   c-0.59,0.588-4.814,3.465-4.958,3.561L390.634,416.695z"/>
	<path fill="#141414" d="M390.627,417.412c-0.593,0.033-1.531,0.994-1.434,1.402c0.449,1.885,0.82,1.386,1.468,1.386   c0.572,0,0.981,0.462,1.469-1.468C392.256,418.227,391.037,417.389,390.627,417.412z M390.655,420.732   c-1.561,0-2.131,2.287-2.131,2.287h4.245C392.771,423.021,392.215,420.732,390.655,420.732z"/>
	<path fill="#CACACA" d="M392.985,386.605h-0.002c-0.234,0.003-0.456,0.112-0.603,0.298c-0.297,0.073-0.703,0.088-1.221-0.075   c-0.308-0.296-0.793-0.295-1.1,0.001c-0.518,0.164-0.926,0.148-1.221,0.075c-0.146-0.186-0.367-0.295-0.603-0.298h-0.003   c-0.438,0-0.791,0.354-0.791,0.792s0.354,0.792,0.791,0.792l0,0h0.003c0,3.167,1.581,3.958,2.371,3.958   c0.793,0,2.372-0.792,2.372-3.958h0.003c0.438,0,0.792-0.354,0.792-0.792S393.423,386.605,392.985,386.605z"/>
	<path fill="#8E8E8E" d="M383.76,416.042l-6.057,1.851c-0.278,0.085-0.573-0.071-0.66-0.35l-0.309-1.01   c-0.083-0.279,0.071-0.572,0.35-0.658l6.058-1.852c0.278-0.084,0.573,0.07,0.658,0.349l0.31,1.011   C384.195,415.66,384.038,415.956,383.76,416.042"/>
	<circle fill="#FFFFFF" cx="382.747" cy="415.226" r="0.608"/>
	<path fill="#8E8E8E" d="M397.474,416.042l6.059,1.851c0.277,0.085,0.573-0.071,0.659-0.35l0.31-1.01   c0.084-0.279-0.072-0.572-0.351-0.658l-6.059-1.852c-0.277-0.084-0.572,0.07-0.659,0.349l-0.308,1.011   C397.04,415.66,397.195,415.955,397.474,416.042"/>
	<circle fill="#FFFFFF" cx="398.282" cy="415.198" r="0.608"/>
	<path fill="#6A6A6A" d="M358.325,408.91c3.212-0.078,4.22,0.719,4.389,0.881c0.313,0.283,0.336,0.766,0.055,1.08   c-0.283,0.312-0.767,0.338-1.079,0.055c-0.062-0.041-0.854-0.548-3.325-0.485c-2.565,0.062-3.294,0.646-3.301,0.652   c-0.283,0.296-0.756,0.307-1.054,0.021c-0.004-0.005-0.009-0.008-0.013-0.014c-0.302-0.301-0.307-0.786-0.011-1.095   C354.147,409.836,355.113,408.99,358.325,408.91"/>
	<path fill="#6A6A6A" d="M359.235,406.666h-1.75c-0.482,0-0.875-0.318-0.875-0.708s0.393-0.708,0.875-0.708h1.75   c0.48,0,0.875,0.318,0.875,0.708S359.717,406.666,359.235,406.666"/>
	<path fill="#6A6A6A" d="M390.908,409.077c3.212-0.079,4.22,0.718,4.389,0.881c0.313,0.282,0.336,0.766,0.055,1.08   c-0.283,0.312-0.767,0.337-1.079,0.054c-0.062-0.041-0.854-0.547-3.325-0.485c-2.565,0.062-3.294,0.647-3.301,0.653   c-0.283,0.296-0.756,0.306-1.054,0.021c-0.004-0.005-0.009-0.008-0.013-0.015c-0.302-0.301-0.307-0.786-0.011-1.094   C386.73,410.002,387.696,409.156,390.908,409.077"/>
	<path fill="#6A6A6A" d="M391.818,406.833h-1.75c-0.482,0-0.875-0.318-0.875-0.708c0-0.391,0.393-0.709,0.875-0.709h1.75   c0.48,0,0.875,0.318,0.875,0.709C392.693,406.515,392.3,406.833,391.818,406.833"/>
	<path fill="#6A6A6A" d="M261.678,390.312h-1.75c-0.482,0-0.875-0.393-0.875-0.875s0.393-0.875,0.875-0.875h1.75   c0.481,0,0.875,0.393,0.875,0.875S262.159,390.312,261.678,390.312"/>
	<path fill="#6A6A6A" d="M339.166,390.917h-1.75c-0.482,0-0.875-0.393-0.875-0.875s0.393-0.875,0.875-0.875h1.75   c0.48,0,0.875,0.393,0.875,0.875S339.647,390.917,339.166,390.917"/>
	<path fill="#6A6A6A" d="M373.791,390.542h-1.75c-0.482,0-0.875-0.319-0.875-0.711s0.393-0.711,0.875-0.711h1.75   c0.48,0,0.875,0.319,0.875,0.711S374.272,390.542,373.791,390.542"/>
	<path fill="#6A6A6A" d="M238.549,408.223c3.213,0.006,4.198,0.828,4.363,0.996c0.306,0.291,0.316,0.773,0.026,1.081   c-0.292,0.307-0.774,0.317-1.081,0.026c-0.061-0.043-0.84-0.57-3.312-0.574c-2.566-0.004-3.31,0.561-3.316,0.566   c-0.291,0.289-0.763,0.284-1.053-0.008c-0.004-0.005-0.009-0.008-0.013-0.013c-0.293-0.309-0.286-0.795,0.019-1.095   C234.348,409.037,235.336,408.217,238.549,408.223"/>
	<path fill="#6A6A6A" d="M239.428,405.812h-1.75c-0.482,0-0.875-0.395-0.875-0.875c0-0.482,0.393-0.875,0.875-0.875h1.75   c0.481,0,0.875,0.393,0.875,0.875C240.303,405.419,239.909,405.812,239.428,405.812"/>
	<path fill="#8E8E8E" d="M348.486,376.854v-2.333c0,0-4.375-2.625-10.501-2.625c-6.123,0-10.498,2.625-10.498,2.625v2.333H348.486z"/>
	<path fill="#CACACA" d="M340.11,369.771h-0.003c-0.261,0.003-0.505,0.124-0.665,0.329c-0.328,0.081-0.777,0.098-1.35-0.083   c-0.34-0.327-0.876-0.326-1.215,0.001c-0.572,0.181-1.022,0.164-1.349,0.083c-0.162-0.205-0.406-0.326-0.667-0.33h-0.002   c-0.483,0-0.875,0.392-0.875,0.875s0.392,0.875,0.875,0.875l0,0h0.002c0,3.5,1.748,4.375,2.622,4.375   c0.876,0,2.622-0.875,2.622-4.375h0.003c0.481,0,0.875-0.392,0.875-0.875C340.985,370.163,340.593,369.771,340.11,369.771z"/>
	<path fill="#8E8E8E" d="M383.646,376.61v-2.333c0,0-4.375-2.625-10.502-2.625c-6.122,0-10.497,2.625-10.497,2.625v2.333H383.646z"/>
	<path fill="#CACACA" d="M375.27,369.527h-0.003c-0.26,0.003-0.504,0.124-0.665,0.329c-0.327,0.081-0.776,0.098-1.349-0.083   c-0.34-0.327-0.876-0.326-1.215,0.001c-0.572,0.181-1.023,0.164-1.349,0.083c-0.162-0.205-0.406-0.326-0.667-0.33h-0.003   c-0.482,0-0.875,0.392-0.875,0.875c0,0.483,0.393,0.875,0.875,0.875l0,0h0.003c0,3.5,1.747,4.375,2.621,4.375   c0.876,0,2.622-0.875,2.622-4.375h0.003c0.482,0,0.875-0.392,0.875-0.875C376.145,369.919,375.752,369.527,375.27,369.527z"/>
	<path fill="#8E8E8E" d="M312.486,376.104v-2.333c0,0-4.375-2.625-10.501-2.625c-6.123,0-10.498,2.625-10.498,2.625v2.333H312.486z"/>
	<path fill="#CACACA" d="M304.11,369.021h-0.003c-0.26,0.003-0.504,0.124-0.665,0.329c-0.328,0.081-0.777,0.098-1.349-0.083   c-0.34-0.327-0.876-0.326-1.215,0.001c-0.572,0.181-1.023,0.164-1.349,0.083c-0.162-0.205-0.406-0.326-0.667-0.33h-0.002   c-0.483,0-0.875,0.392-0.875,0.875s0.392,0.875,0.875,0.875l0,0h0.002c0,3.5,1.748,4.375,2.622,4.375   c0.876,0,2.622-0.875,2.622-4.375h0.003c0.482,0,0.875-0.392,0.875-0.875C304.985,369.413,304.593,369.021,304.11,369.021z"/>
	<path fill="#CACACA" d="M312.111,375.945h-20.056c-0.291,0-0.527,0.238-0.527,0.528s0.236,0.528,0.527,0.528h20.056   c0.291,0,0.526-0.238,0.526-0.528S312.402,375.945,312.111,375.945z"/>
	<path fill="#8E8E8E" d="M271.486,375.854v-2.333c0,0-4.375-2.625-10.501-2.625c-6.123,0-10.498,2.625-10.498,2.625v2.333H271.486z"/>
	<path fill="#CACACA" d="M263.11,368.771h-0.003c-0.26,0.003-0.504,0.124-0.665,0.329c-0.328,0.081-0.777,0.098-1.349-0.083   c-0.34-0.327-0.876-0.326-1.215,0.001c-0.572,0.181-1.023,0.164-1.349,0.083c-0.162-0.205-0.406-0.326-0.667-0.33h-0.002   c-0.483,0-0.875,0.392-0.875,0.875s0.392,0.875,0.875,0.875l0,0h0.002c0,3.5,1.748,4.375,2.622,4.375   c0.876,0,2.622-0.875,2.622-4.375h0.003c0.482,0,0.875-0.392,0.875-0.875C263.985,369.163,263.593,368.771,263.11,368.771z"/>
	<path fill="#CACACA" d="M271.111,375.695h-20.056c-0.291,0-0.527,0.238-0.527,0.528s0.236,0.528,0.527,0.528h20.056   c0.291,0,0.527-0.238,0.527-0.528S271.402,375.695,271.111,375.695z"/>
	<path fill="#8E8E8E" d="M229.236,376.854v-2.333c0,0-4.375-2.625-10.501-2.625c-6.123,0-10.498,2.625-10.498,2.625v2.333H229.236z"/>
	<path fill="#CACACA" d="M220.86,369.771h-0.003c-0.26,0.003-0.504,0.124-0.665,0.329c-0.328,0.081-0.777,0.098-1.349-0.083   c-0.34-0.327-0.876-0.326-1.215,0.001c-0.572,0.181-1.023,0.164-1.349,0.083c-0.162-0.205-0.406-0.326-0.667-0.33h-0.002   c-0.483,0-0.875,0.392-0.875,0.875s0.392,0.875,0.875,0.875l0,0h0.002c0,3.5,1.748,4.375,2.622,4.375   c0.876,0,2.622-0.875,2.622-4.375h0.003c0.482,0,0.875-0.392,0.875-0.875C221.735,370.163,221.343,369.771,220.86,369.771z"/>
</g>
</svg>