<svg id="Layer_1" data-name="Layer 1" xmlns="http://www.w3.org/2000/svg" viewBox="0 0 346.97 122.17"><defs><style>.cls-1{fill:#39b54a;}.cls-2{fill:#d84889;}.cls-3{fill:#f7e821;}</style></defs><rect class="cls-1" width="346.93" height="122.17"/><rect x="0.04" y="7.45" width="346.93" height="106.7"/><path class="cls-2" d="M243.75,420V362.22h10.87v50.19c0,1.15.58,1.73,1.8,1.73h8.07a1.58,1.58,0,0,0,1.8-1.73V397.87h10.44V420Z" transform="translate(-219.03 -327.12)"/><path class="cls-2" d="M287.52,420c-4.39,0-5.9-1.44-5.9-5.9V371.8c0-8.14,1.51-9.58,8.21-9.58h23.69v17.29H295.59c-2.52,0-3.31.79-3.31,3.74v14c0,1,.5,1.51,1.44,1.51h19.44v5.83H293.72c-.94,0-1.44.58-1.44,1.8v4.83c0,2.09.86,2.95,2.81,2.95h18.43V420Z" transform="translate(-219.03 -327.12)"/><path class="cls-2" d="M327.48,420l-10-57.82h11.59l6.7,51.42c.07.43.21.57.64.57a.58.58,0,0,0,.65-.57l6.63-51.42h11.59L345.34,420Z" transform="translate(-219.03 -327.12)"/><path class="cls-2" d="M365.5,420c-4.39,0-5.9-1.44-5.9-5.9V371.8c0-8.14,1.51-9.58,8.2-9.58h23.69v17.29H373.56c-2.52,0-3.31.79-3.31,3.74v14a1.32,1.32,0,0,0,1.44,1.51h19.44v5.83H371.69c-.93,0-1.44.58-1.44,1.8v4.83c0,2.09.87,2.95,2.81,2.95h18.43V420Z" transform="translate(-219.03 -327.12)"/><path class="cls-2" d="M397.4,420V362.22h10.87v50.19c0,1.15.57,1.73,1.8,1.73h8.06a1.58,1.58,0,0,0,1.8-1.73V397.87h10.44V420Z" transform="translate(-219.03 -327.12)"/><path class="cls-2" d="M457.08,420c-4.39,0-6-1.44-6-5.9V362.22h10.44v49c0,2.09.86,2.95,2.88,2.95h10.08V362.22H485V420Z" transform="translate(-219.03 -327.12)"/><path class="cls-2" d="M502.59,405.43V420h-11V362.22h26.64c5.76,0,7.28,1.59,7.28,9.58v26.72c0,5.76-1.52,6.91-6,6.91Zm12.53-21.53c0-3.39-1.08-4.39-4.4-4.39h-8.13V399.6H509c3.88,0,6.12,0,6.12-3.32Z" transform="translate(-219.03 -327.12)"/><path class="cls-2" d="M531.1,407.59V362.22h11.81v45.37Zm0,12.45v-8.35h11.81V420Z" transform="translate(-219.03 -327.12)"/><path class="cls-3" d="M240.87,416.92V359.1h10.88v50.19c0,1.15.57,1.73,1.8,1.73h8.06a1.58,1.58,0,0,0,1.8-1.73V394.75h10.44v22.17Z" transform="translate(-219.03 -327.12)"/><path class="cls-3" d="M284.65,416.92c-4.39,0-5.9-1.44-5.9-5.9V368.68c0-8.14,1.51-9.58,8.21-9.58h23.69v17.28H292.72c-2.52,0-3.32.8-3.32,3.75v14a1.32,1.32,0,0,0,1.44,1.51h19.45v5.83H290.84c-.93,0-1.44.58-1.44,1.8v4.83c0,2.09.87,2.95,2.81,2.95h18.44v5.9Z" transform="translate(-219.03 -327.12)"/><path class="cls-3" d="M324.61,416.92l-10-57.82h11.59l6.7,51.42c.07.43.22.57.65.57a.58.58,0,0,0,.65-.57l6.62-51.42h11.6l-9.94,57.82Z" transform="translate(-219.03 -327.12)"/><path class="cls-3" d="M362.63,416.92c-4.4,0-5.91-1.44-5.91-5.9V368.68c0-8.14,1.51-9.58,8.21-9.58h23.69v17.28H370.69c-2.52,0-3.31.8-3.31,3.75v14c0,1,.5,1.51,1.44,1.51h19.44v5.83H368.82c-.94,0-1.44.58-1.44,1.8v4.83c0,2.09.86,2.95,2.81,2.95h18.43v5.9Z" transform="translate(-219.03 -327.12)"/><path class="cls-3" d="M394.52,416.92V359.1h10.87v50.19c0,1.15.58,1.73,1.8,1.73h8.07a1.58,1.58,0,0,0,1.8-1.73V394.75H427.5v22.17Z" transform="translate(-219.03 -327.12)"/><path class="cls-3" d="M454.21,416.92c-4.39,0-6-1.44-6-5.9V359.1h10.44v49c0,2.09.87,2.95,2.88,2.95h10.09V359.1h10.51v57.82Z" transform="translate(-219.03 -327.12)"/><path class="cls-3" d="M499.71,402.31v14.61h-11V359.1h26.64c5.76,0,7.27,1.59,7.27,9.58v26.71c0,5.76-1.51,6.92-6.05,6.92Zm12.53-21.53c0-3.39-1.08-4.4-4.39-4.4h-8.14v20.09h6.41c3.89,0,6.12,0,6.12-3.31Z" transform="translate(-219.03 -327.12)"/><path class="cls-3" d="M528.22,404.47V359.1H540v45.37Zm0,12.45v-8.35H540v8.35Z" transform="translate(-219.03 -327.12)"/></svg>