<?xml version="1.0" encoding="utf-8"?>
<!-- Generator: Adobe Illustrator 15.0.0, SVG Export Plug-In . SVG Version: 6.00 Build 0)  -->
<!DOCTYPE svg PUBLIC "-//W3C//DTD SVG 1.1//EN" "http://www.w3.org/Graphics/SVG/1.1/DTD/svg11.dtd">
<svg version="1.1" id="Layer_1" xmlns="http://www.w3.org/2000/svg" xmlns:xlink="http://www.w3.org/1999/xlink" x="0px" y="0px"
	 width="21.334px" height="22.5px" viewBox="0 0 21.334 22.5" enable-background="new 0 0 21.334 22.5" xml:space="preserve">
<g>
	<path fill="#3A698F" d="M15.757,11.775c0,2.861-2.319,5.18-5.181,5.18l0,0c-2.86,0-5.18-2.318-5.18-5.18V9.453
		c0-2.861,2.319-5.18,5.18-5.18l0,0c2.861,0,5.181,2.319,5.181,5.18V11.775z"/>
	<path fill="#3A698F" d="M17.48,6.481c0-1.858,0.666-2.766,0.672-2.772c0.116-0.15,0.103-0.362-0.031-0.496l-1.125-1.126
		c-0.118-0.118-0.3-0.143-0.445-0.063c-0.014,0.007-1.311,0.705-2.823,0.705c-1.505,0-2.81-0.698-2.822-0.705
		c-0.112-0.06-0.248-0.061-0.359,0c-0.014,0.007-1.31,0.705-2.822,0.705c-1.505,0-2.81-0.698-2.823-0.705
		C4.755,1.945,4.573,1.97,4.457,2.088L3.331,3.214C3.198,3.346,3.186,3.558,3.298,3.707c0.007,0.009,0.673,0.917,0.673,2.775
		c0,0.844-0.137,1.43-0.295,2.107c-0.214,0.915-0.455,1.952-0.455,3.896c0,3.565,2.772,5.199,7.338,7.466
		c0.053,0.024,0.11,0.038,0.167,0.038c0.058,0,0.113-0.014,0.167-0.039c4.565-2.268,7.338-3.9,7.338-7.466
		c0-1.945-0.242-2.982-0.455-3.897C17.617,7.912,17.48,7.326,17.48,6.481z M14.744,9.749l-1.727,1.726l0.675,2.699
		c0.032,0.056,0.051,0.119,0.051,0.188c0,0.211-0.207,0.391-0.384,0.375h-0.007c-0.064,0-0.129-0.016-0.187-0.049l-2.44-1.395
		l-2.44,1.395c-0.131,0.074-0.293,0.063-0.413-0.027s-0.174-0.244-0.137-0.391l0.698-2.796L6.707,9.747
		C6.606,9.646,6.571,9.498,6.616,9.363C6.661,9.228,6.778,9.13,6.919,9.11l2.418-0.346l1.043-2.433c0.118-0.276,0.572-0.276,0.69,0
		l1.043,2.433l2.418,0.346c0.141,0.02,0.258,0.118,0.303,0.252C14.879,9.499,14.844,9.648,14.744,9.749L14.744,9.749z"/>
</g>
</svg>
