<?xml version="1.0" encoding="utf-8"?>
<!-- Generator: Adobe Illustrator 15.0.0, SVG Export Plug-In . SVG Version: 6.00 Build 0)  -->
<!DOCTYPE svg PUBLIC "-//W3C//DTD SVG 1.1//EN" "http://www.w3.org/Graphics/SVG/1.1/DTD/svg11.dtd">
<svg version="1.1" id="Layer_1" xmlns="http://www.w3.org/2000/svg" xmlns:xlink="http://www.w3.org/1999/xlink" x="0px" y="0px"
	 width="14.167px" height="17px" viewBox="45.797 81.999 14.167 17" enable-background="new 45.797 81.999 14.167 17"
	 xml:space="preserve">
<g>
	<path fill="#3A698F" d="M57.629,91.246c0,2.701-2.189,4.889-4.89,4.889l0,0c-2.699,0-4.889-2.188-4.889-4.889v-2.191
		c0-2.7,2.189-4.889,4.889-4.889l0,0c2.7,0,4.89,2.189,4.89,4.889V91.246z"/>
	<path fill="#3A698F" d="M59.255,86.25c0-1.753,0.629-2.611,0.634-2.616c0.11-0.142,0.098-0.342-0.029-0.468l-1.062-1.063
		c-0.111-0.111-0.283-0.135-0.42-0.059c-0.013,0.006-1.237,0.665-2.665,0.665c-1.42,0-2.652-0.659-2.664-0.665
		c-0.106-0.057-0.234-0.058-0.339,0c-0.013,0.006-1.236,0.665-2.664,0.665c-1.42,0-2.652-0.659-2.665-0.665
		c-0.139-0.075-0.311-0.051-0.42,0.06l-1.062,1.063c-0.126,0.125-0.137,0.325-0.031,0.465c0.006,0.008,0.635,0.865,0.635,2.619
		c0,0.796-0.129,1.35-0.279,1.989c-0.202,0.864-0.429,1.842-0.429,3.677c0,3.365,2.616,4.907,6.926,7.046
		c0.05,0.023,0.104,0.036,0.158,0.036c0.055,0,0.106-0.013,0.158-0.037c4.309-2.141,6.926-3.681,6.926-7.047
		c0-1.836-0.229-2.814-0.429-3.678C59.384,87.6,59.255,87.047,59.255,86.25z M56.673,89.334l-1.63,1.629l0.637,2.548
		c0.03,0.053,0.048,0.112,0.048,0.177c0,0.199-0.195,0.369-0.362,0.354h-0.007c-0.061,0-0.122-0.015-0.176-0.046l-2.303-1.316
		l-2.303,1.316c-0.124,0.07-0.277,0.06-0.39-0.025s-0.164-0.23-0.129-0.369l0.659-2.639l-1.629-1.63
		c-0.095-0.095-0.128-0.235-0.086-0.362s0.153-0.22,0.286-0.239l2.282-0.327l0.984-2.296c0.111-0.26,0.54-0.26,0.651,0l0.984,2.296
		l2.282,0.327c0.133,0.019,0.244,0.111,0.286,0.238C56.8,89.098,56.767,89.239,56.673,89.334L56.673,89.334z"/>
</g>
</svg>
