<?xml version="1.0" encoding="utf-8"?>
<!-- Generator: Adobe Illustrator 25.4.1, SVG Export Plug-In . SVG Version: 6.00 Build 0)  -->
<svg version="1.1" xmlns="http://www.w3.org/2000/svg" xmlns:xlink="http://www.w3.org/1999/xlink" x="0px" y="0px"
	 viewBox="0 0 347 122.2" style="enable-background:new 0 0 347 122.2;" xml:space="preserve">
<style type="text/css">
	.st0{display:none;}
	.st1{display:inline;fill:#39B54A;}
	.st2{display:inline;}
	.st3{display:inline;fill:#D84889;}
	.st4{display:inline;fill:#F7E821;}
	.st5{fill:#39B54A;}
	.st6{fill:#FFFF00;}
	.st7{font-family:'GyparodyRg-Bold';}
	.st8{font-size:48px;}
	.st9{font-size:16px;}
	.st10{fill:#D84889;}
	.st11{fill:#9B6447;}
	.st12{fill:#3F6256;}
	.st13{fill:#272E2C;}
	.st14{fill:#CCCEBF;}
	.st15{fill:#FEFEFE;}
</style>
<g id="Layer_1" class="st0">
	<rect class="st1" width="346.9" height="122.2"/>
	<rect x="0" y="7.4" class="st2" width="346.9" height="106.7"/>
	<path class="st3" d="M24.7,92.9V35.1h10.9v50.2c0,1.1,0.6,1.7,1.8,1.7h8.1c0.9,0.1,1.7-0.5,1.8-1.3c0-0.1,0-0.3,0-0.4V70.8h10.4
		v22.1H24.7z"/>
	<path class="st3" d="M68.5,92.9c-4.4,0-5.9-1.4-5.9-5.9V44.7c0-8.1,1.5-9.6,8.2-9.6h23.7v17.3H76.6c-2.5,0-3.3,0.8-3.3,3.7v14
		c0,1,0.5,1.5,1.4,1.5h19.4v5.8H74.7c-0.9,0-1.4,0.6-1.4,1.8v4.8c0,2.1,0.9,3,2.8,3h18.4v5.8H68.5z"/>
	<path class="st3" d="M108.5,92.9l-10-57.8H110l6.7,51.4c0.1,0.4,0.2,0.6,0.6,0.6c0.3,0,0.6-0.2,0.6-0.5c0,0,0,0,0-0.1l6.6-51.4
		h11.6l-9.9,57.8H108.5z"/>
	<path class="st3" d="M146.5,92.9c-4.4,0-5.9-1.4-5.9-5.9V44.7c0-8.1,1.5-9.6,8.2-9.6h23.7v17.3h-17.9c-2.5,0-3.3,0.8-3.3,3.7v14
		c-0.1,0.7,0.4,1.4,1.1,1.5c0.1,0,0.2,0,0.3,0h19.4v5.8h-19.4c-0.9,0-1.4,0.6-1.4,1.8v4.8c0,2.1,0.9,3,2.8,3h18.4v5.8H146.5z"/>
	<path class="st3" d="M178.4,92.9V35.1h10.9v50.2c0,1.1,0.6,1.7,1.8,1.7h8.1c0.9,0.1,1.7-0.5,1.8-1.3c0-0.1,0-0.3,0-0.4V70.8h10.4
		v22.1H178.4z"/>
	<path class="st3" d="M238,92.9c-4.4,0-6-1.4-6-5.9V35.1h10.4v49c0,2.1,0.9,3,2.9,3h10.1v-52H266v57.8H238z"/>
	<path class="st3" d="M283.6,78.3v14.6h-11V35.1h26.6c5.8,0,7.3,1.6,7.3,9.6v26.7c0,5.8-1.5,6.9-6,6.9H283.6z M296.1,56.8
		c0-3.4-1.1-4.4-4.4-4.4h-8.1v20.1h6.4c3.9,0,6.1,0,6.1-3.3V56.8z"/>
	<path class="st3" d="M312.1,80.5V35.1h11.8v45.4H312.1z M312.1,92.9v-8.4h11.8v8.3L312.1,92.9z"/>
	<path class="st4" d="M21.8,89.8V32h10.9v50.2c0,1.1,0.6,1.7,1.8,1.7h8.1c0.9,0.1,1.7-0.5,1.8-1.3c0-0.1,0-0.3,0-0.4V67.6h10.4v22.2
		H21.8z"/>
	<path class="st4" d="M65.6,89.8c-4.4,0-5.9-1.4-5.9-5.9V41.6c0-8.1,1.5-9.6,8.2-9.6h23.7v17.3H73.7c-2.5,0-3.3,0.8-3.3,3.8v14
		c-0.1,0.7,0.4,1.4,1.1,1.5c0.1,0,0.2,0,0.3,0h19.5v5.8H71.8c-0.9,0-1.4,0.6-1.4,1.8V81c0,2.1,0.9,3,2.8,3h18.4v5.9L65.6,89.8z"/>
	<path class="st4" d="M105.6,89.8L95.6,32h11.6l6.7,51.4c0.1,0.4,0.2,0.6,0.6,0.6c0.3,0,0.6-0.2,0.6-0.5c0,0,0,0,0-0.1l6.6-51.4
		h11.6l-9.9,57.8L105.6,89.8z"/>
	<path class="st4" d="M143.6,89.8c-4.4,0-5.9-1.4-5.9-5.9V41.6c0-8.1,1.5-9.6,8.2-9.6h23.7v17.3h-17.9c-2.5,0-3.3,0.8-3.3,3.8v14
		c0,1,0.5,1.5,1.4,1.5h19.4v5.8h-19.4c-0.9,0-1.4,0.6-1.4,1.8V81c0,2.1,0.9,3,2.8,3h18.4v5.9L143.6,89.8z"/>
	<path class="st4" d="M175.5,89.8V32h10.9v50.2c0,1.1,0.6,1.7,1.8,1.7h8.1c0.9,0.1,1.7-0.5,1.8-1.3c0-0.1,0-0.3,0-0.4V67.6h10.4
		v22.2H175.5z"/>
	<path class="st4" d="M235.2,89.8c-4.4,0-6-1.4-6-5.9V32h10.4v49c0,2.1,0.9,3,2.9,3h10.1V32h10.5v57.8H235.2z"/>
	<path class="st4" d="M280.7,75.2v14.6h-11V32h26.6c5.8,0,7.3,1.6,7.3,9.6v26.7c0,5.8-1.5,6.9-6,6.9H280.7z M293.2,53.7
		c0-3.4-1.1-4.4-4.4-4.4h-8.1v20.1h6.4c3.9,0,6.1,0,6.1-3.3V53.7z"/>
	<path class="st4" d="M309.2,77.4V32H321v45.4H309.2z M309.2,89.8v-8.4H321v8.4H309.2z"/>
</g>
<g id="Layer_5">
	<rect x="-0.3" class="st5" width="347.3" height="122.2"/>
	<rect y="7.4" width="347" height="106.7"/>
</g>
<g id="Layer_2" class="st0">
	<text transform="matrix(1 0 0 1 11.4061 50.8824)" class="st2"><tspan x="0" y="0" class="st6 st7 st8">Shift</tspan><tspan x="0" y="41" class="st6 st7 st8">  Change!</tspan><tspan x="0" y="59" class="st6 st7 st9">More POLICE ARE ON patrol...</tspan></text>
</g>
<g id="Layer_2_copy_2">
	<g>
		<path class="st10" d="M8.4,51.7v-3.9h14.5c1.3,0,1.9-0.6,1.9-1.9v-2.9c0-1.1-0.5-1.6-1.7-1.6H11.8c-2.5,0-3.4-0.8-3.4-3.4V19.5
			c0-5.4,1.1-6.4,5.6-6.4h12.4c4.4,0,5.3,1.1,5.3,6.4v13.9h-6.9v-6.3c0-1.8-0.5-2.4-2-2.4h-5.2c-1.7,0-2.3,0.5-2.3,2.4v8.6
			c0,1.2,0.5,1.8,1.8,1.8h11.5c2.3,0,3.1,0.9,3.1,3.4v6.8c0,3.2-0.9,4-3.9,4H8.4z"/>
		<path class="st10" d="M51.4,51.7V41.3h-8v10.3h-7.8V13.1h7.8v24.3h8V13.1h7.7v38.5H51.4z"/>
		<path class="st10" d="M63.8,51.7V13.1h7.7v38.5H63.8z"/>
		<path class="st10" d="M83.9,41.3c-0.6,0-1,0.4-1,1.2v9.1h-7.1V19.5c0-5.4,1.1-6.4,5.5-6.4h15.8v11.5h-12c-1.7,0-2.3,0.5-2.3,2.5
			v9.3c0,0.7,0.4,1,1,1h12.7v3.9H83.9z"/>
		<path class="st10" d="M106.8,51.7V25.8c0-0.8-0.4-1.2-1.3-1.2h-6.6V13.1h22.8v11.5H115c-1,0-1.3,0.4-1.3,1.2v25.9H106.8z"/>
		<path class="st10" d="M33.8,92.7c-2.9,0-3.9-1-3.9-3.9V60.5c0-5.4,1-6.4,5.5-6.4H47c4.5,0,5.5,1,5.5,6.4v22h-7.2V68.1
			c0-2-0.6-2.5-2.3-2.5H39c-1.7,0-2.2,0.5-2.2,2.5v18.6c0,1.4,0.5,2,1.9,2h13.8v3.9H33.8z"/>
		<path class="st10" d="M72.4,92.7V82.3h-8v10.3h-7.8V54.1h7.8v24.3h8V54.1h7.7v38.5H72.4z"/>
		<path class="st10" d="M100.3,92.7l-1-8.2h-8l-0.8,8.2h-7.2l3.6-36.2c0.1-1.5,0.8-2.4,2.1-2.4h13.3c1.2,0,1.7,0.9,1.9,2.4l3.4,36.2
			H100.3z M97.4,65.9c0-0.5-0.2-0.8-0.6-0.8h-3.1c-0.3,0-0.5,0.2-0.6,0.8L91.6,80c0,0.3,0.2,0.4,0.5,0.4h6.3c0.3,0,0.5-0.2,0.5-0.4
			L97.4,65.9z"/>
		<path class="st10" d="M129.4,92.7c-1.7,0-2.3-0.4-2.9-1.8l-7.4-16.5c-0.2-0.4-0.5-0.6-0.8-0.6h-0.6v18.9h-7.1V54.1h5.7
			c1.9,0,2.7,0.9,3.3,2.5l9,26.1c0,0.2,0.1,0.3,0.3,0.3h0.1V54.1h7v38.5H129.4z"/>
		<path class="st10" d="M144.2,92.7c-2.9,0-3.9-0.9-3.9-3.9V60.5c0-5.4,1-6.4,5.5-6.4h11.7c4.5,0,5.5,1.1,5.5,6.4v13.6h-7.2v-6
			c0-1.9-0.5-2.5-2.3-2.5h-4.1c-1.7,0-2.2,0.5-2.2,2.5v18.6c0,1.4,0.5,2,1.9,2h5.9c0.9,0,1.3-0.4,1.3-1.2v-5.7h-4.8v-3.9h11.4v14.8
			H144.2z"/>
		<path class="st10" d="M170.8,92.7c-2.9,0-3.9-1-3.9-3.9V60.5c0-5.4,1-6.4,5.5-6.4h15.8v11.5h-12c-1.7,0-2.2,0.5-2.2,2.5v9.3
			c0,0.7,0.3,1,1,1h13v3.9h-13c-0.6,0-1,0.4-1,1.2v3.2c0,1.4,0.6,2,1.9,2h12.3v3.9H170.8z"/>
		<path class="st10" d="M192.6,84.4V54.1h7.9v30.2H192.6z M192.6,92.7v-5.6h7.9v5.6H192.6z"/>
		<path class="st10" d="M15.1,110.7v-6.3H15c-0.1,0-0.2,0-0.2,0.2l-1.4,6c0,0.1-0.1,0.1-0.2,0.1h-1.5c-0.1,0-0.2,0-0.2-0.1l-1.4-6
			c0-0.1-0.1-0.2-0.2-0.2H9.8v6.3H7.5V97.8h1.7c0.6,0,1.1,0.3,1.2,1l1.9,8.2c0,0,0,0.1,0.1,0.1c0,0,0.1,0,0.1-0.1l1.9-8.2
			c0.2-0.7,0.6-1,1.2-1h1.7v12.9H15.1z"/>
		<path class="st10" d="M20.1,110.7c-1,0-1.3-0.3-1.3-1.3v-9.4c0-1.8,0.3-2.1,1.8-2.1h3.8c1.5,0,1.8,0.3,1.8,2.1v9.4
			c0,1-0.3,1.3-1.3,1.3H20.1z M24.1,102.5c0-0.7-0.2-0.8-0.8-0.8h-1.6c-0.6,0-0.7,0.2-0.7,0.8v6.2c0,0.5,0.2,0.7,0.6,0.7h1.8
			c0.4,0,0.7-0.2,0.7-0.7V102.5z"/>
		<path class="st10" d="M33.8,110.7c-0.4,0-0.7-0.3-0.7-0.7v-1.7c0-0.6-0.2-0.8-0.8-0.8H30v3.2h-2.4V97.8h6c1.4,0,1.7,0.3,1.7,2.1
			v5.2c0,1.1-0.4,1.4-1.3,1.5c0.9,0.1,1.3,0.3,1.3,1.5v1.9c0,0.4,0.1,0.5,0.3,0.6H33.8z M33.1,102.5c0-0.6-0.2-0.8-0.6-0.8H30v4.5
			h2.3c0.6,0,0.8-0.2,0.8-0.6V102.5z"/>
		<path class="st10" d="M38,110.7c-1,0-1.3-0.3-1.3-1.3v-9.4c0-1.8,0.3-2.1,1.8-2.1h5.3v3.8h-4c-0.6,0-0.7,0.2-0.7,0.8v3.1
			c0,0.2,0.1,0.3,0.3,0.3h4.3v1.3h-4.3c-0.2,0-0.3,0.1-0.3,0.4v1.1c0,0.5,0.2,0.7,0.6,0.7h4.1v1.3H38z"/>
		<path class="st10" d="M51,107.4v3.2h-2.5V97.8h5.9c1.3,0,1.6,0.4,1.6,2.1v5.9c0,1.3-0.3,1.5-1.3,1.5H51z M53.8,102.6
			c0-0.8-0.2-1-1-1H51v4.5h1.4c0.9,0,1.4,0,1.4-0.7V102.6z"/>
		<path class="st10" d="M58.5,110.7c-1,0-1.3-0.3-1.3-1.3v-9.4c0-1.8,0.3-2.1,1.8-2.1h3.8c1.5,0,1.8,0.3,1.8,2.1v9.4
			c0,1-0.3,1.3-1.3,1.3H58.5z M62.5,102.5c0-0.7-0.2-0.8-0.8-0.8h-1.6c-0.6,0-0.7,0.2-0.7,0.8v6.2c0,0.5,0.2,0.7,0.6,0.7h1.8
			c0.4,0,0.7-0.2,0.7-0.7V102.5z"/>
		<path class="st10" d="M66.1,110.7V97.8h2.4V109c0,0.3,0.1,0.4,0.4,0.4h1.8c0.3,0,0.4-0.1,0.4-0.4v-3.2h2.3v4.9H66.1z"/>
		<path class="st10" d="M74.6,110.7V97.8h2.6v12.9H74.6z"/>
		<path class="st10" d="M79.9,110.7c-1,0-1.3-0.3-1.3-1.3v-9.4c0-1.8,0.3-2.1,1.8-2.1h3.9c1.5,0,1.8,0.3,1.8,2.1v7.3h-2.4v-4.8
			c0-0.7-0.2-0.8-0.8-0.8h-1.4c-0.6,0-0.7,0.2-0.7,0.8v6.2c0,0.5,0.2,0.7,0.6,0.7h4.6v1.3H79.9z"/>
		<path class="st10" d="M88.8,110.7c-1,0-1.3-0.3-1.3-1.3v-9.4c0-1.8,0.3-2.1,1.8-2.1h5.3v3.8h-4c-0.6,0-0.7,0.2-0.7,0.8v3.1
			c0,0.2,0.1,0.3,0.3,0.3h4.3v1.3h-4.3c-0.2,0-0.3,0.1-0.3,0.4v1.1c0,0.5,0.2,0.7,0.6,0.7h4.1v1.3H88.8z"/>
		<path class="st10" d="M104.6,110.7l-0.3-2.7h-2.7l-0.3,2.7H99l1.2-12.1c0-0.5,0.3-0.8,0.7-0.8h4.4c0.4,0,0.6,0.3,0.6,0.8l1.1,12.1
			H104.6z M103.7,101.8c0-0.2-0.1-0.3-0.2-0.3h-1c-0.1,0-0.2,0.1-0.2,0.3l-0.5,4.7c0,0.1,0.1,0.1,0.2,0.1h2.1c0.1,0,0.2-0.1,0.2-0.1
			L103.7,101.8z"/>
		<path class="st10" d="M114.2,110.7c-0.4,0-0.7-0.3-0.7-0.7v-1.7c0-0.6-0.2-0.8-0.8-0.8h-2.3v3.2h-2.4V97.8h6
			c1.4,0,1.7,0.3,1.7,2.1v5.2c0,1.1-0.4,1.4-1.3,1.5c0.9,0.1,1.3,0.3,1.3,1.5v1.9c0,0.4,0.1,0.5,0.3,0.6H114.2z M113.5,102.5
			c0-0.6-0.2-0.8-0.6-0.8h-2.5v4.5h2.3c0.6,0,0.8-0.2,0.8-0.6V102.5z"/>
		<path class="st10" d="M118.4,110.7c-1,0-1.3-0.3-1.3-1.3v-9.4c0-1.8,0.3-2.1,1.8-2.1h5.3v3.8h-4c-0.6,0-0.7,0.2-0.7,0.8v3.1
			c0,0.2,0.1,0.3,0.3,0.3h4.3v1.3h-4.3c-0.2,0-0.3,0.1-0.3,0.4v1.1c0,0.5,0.2,0.7,0.6,0.7h4.1v1.3H118.4z"/>
		<path class="st10" d="M130.3,110.7c-1,0-1.3-0.3-1.3-1.3v-9.4c0-1.8,0.3-2.1,1.8-2.1h3.8c1.5,0,1.8,0.3,1.8,2.1v9.4
			c0,1-0.3,1.3-1.3,1.3H130.3z M134.2,102.5c0-0.7-0.2-0.8-0.8-0.8h-1.6c-0.6,0-0.7,0.2-0.7,0.8v6.2c0,0.5,0.2,0.7,0.6,0.7h1.8
			c0.4,0,0.7-0.2,0.7-0.7V102.5z"/>
		<path class="st10" d="M144.1,110.7c-0.6,0-0.8-0.1-1-0.6l-2.5-5.5c-0.1-0.1-0.2-0.2-0.3-0.2h-0.2v6.3h-2.4V97.8h1.9
			c0.6,0,0.9,0.3,1.1,0.8l3,8.7c0,0.1,0,0.1,0.1,0.1h0v-9.6h2.3v12.9H144.1z"/>
		<path class="st10" d="M153.7,107.4v3.2h-2.5V97.8h5.9c1.3,0,1.6,0.4,1.6,2.1v5.9c0,1.3-0.3,1.5-1.3,1.5H153.7z M156.5,102.6
			c0-0.8-0.2-1-1-1h-1.8v4.5h1.4c0.9,0,1.4,0,1.4-0.7V102.6z"/>
		<path class="st10" d="M165.1,110.7l-0.3-2.7h-2.7l-0.3,2.7h-2.4l1.2-12.1c0-0.5,0.3-0.8,0.7-0.8h4.4c0.4,0,0.6,0.3,0.6,0.8
			l1.1,12.1H165.1z M164.1,101.8c0-0.2-0.1-0.3-0.2-0.3h-1c-0.1,0-0.2,0.1-0.2,0.3l-0.5,4.7c0,0.1,0.1,0.1,0.2,0.1h2.1
			c0.1,0,0.2-0.1,0.2-0.1L164.1,101.8z"/>
		<path class="st10" d="M170.3,110.7V102c0-0.3-0.1-0.4-0.4-0.4h-2.2v-3.8h7.6v3.8H173c-0.3,0-0.4,0.1-0.4,0.4v8.6H170.3z"/>
		<path class="st10" d="M182.3,110.7c-0.4,0-0.7-0.3-0.7-0.7v-1.7c0-0.6-0.2-0.8-0.8-0.8h-2.3v3.2h-2.4V97.8h6
			c1.4,0,1.7,0.3,1.7,2.1v5.2c0,1.1-0.4,1.4-1.3,1.5c0.9,0.1,1.3,0.3,1.3,1.5v1.9c0,0.4,0.1,0.5,0.3,0.6H182.3z M181.6,102.5
			c0-0.6-0.2-0.8-0.6-0.8h-2.5v4.5h2.3c0.6,0,0.8-0.2,0.8-0.6V102.5z"/>
		<path class="st10" d="M186.5,110.7c-1,0-1.3-0.3-1.3-1.3v-9.4c0-1.8,0.3-2.1,1.8-2.1h3.8c1.5,0,1.8,0.3,1.8,2.1v9.4
			c0,1-0.3,1.3-1.3,1.3H186.5z M190.5,102.5c0-0.7-0.2-0.8-0.8-0.8h-1.6c-0.6,0-0.7,0.2-0.7,0.8v6.2c0,0.5,0.2,0.7,0.6,0.7h1.8
			c0.4,0,0.7-0.2,0.7-0.7V102.5z"/>
		<path class="st10" d="M194.1,110.7V97.8h2.4V109c0,0.3,0.1,0.4,0.4,0.4h1.8c0.3,0,0.4-0.1,0.4-0.4v-3.2h2.3v4.9H194.1z"/>
		<path class="st10" d="M202.5,110.7v-2.1h1.8v2.1H202.5z"/>
		<path class="st10" d="M205.6,110.7v-2.1h1.8v2.1H205.6z"/>
		<path class="st10" d="M208.7,110.7v-2.1h1.8v2.1H208.7z"/>
	</g>
	<g>
		<path class="st6" d="M8,50.6v-3.9h14.5c1.3,0,1.9-0.6,1.9-1.9v-2.9c0-1.1-0.5-1.6-1.7-1.6H11.4c-2.5,0-3.4-0.8-3.4-3.4V18.5
			c0-5.4,1.1-6.4,5.6-6.4h12.3c4.4,0,5.3,1.1,5.3,6.4v13.9h-6.9v-6.3c0-1.8-0.5-2.4-2-2.4h-5.2c-1.7,0-2.3,0.5-2.3,2.4v8.6
			c0,1.2,0.5,1.8,1.8,1.8H28c2.3,0,3.1,0.9,3.1,3.4v6.8c0,3.2-0.9,4-3.9,4H8z"/>
		<path class="st6" d="M50.9,50.6V40.3h-8v10.3h-7.8V12.1h7.8v24.3h8V12.1h7.7v38.5H50.9z"/>
		<path class="st6" d="M63.2,50.6V12.1h7.7v38.5H63.2z"/>
		<path class="st6" d="M83.3,40.3c-0.6,0-1,0.4-1,1.2v9.1h-7.1V18.5c0-5.4,1.1-6.4,5.5-6.4h15.8v11.5h-12c-1.7,0-2.3,0.5-2.3,2.5
			v9.3c0,0.7,0.4,1,1,1h12.6v3.9H83.3z"/>
		<path class="st6" d="M106.2,50.6V24.8c0-0.8-0.4-1.2-1.3-1.2h-6.6V12.1h22.7v11.5h-6.6c-1,0-1.3,0.4-1.3,1.2v25.9H106.2z"/>
		<path class="st6" d="M33.3,91.6c-2.9,0-3.9-1-3.9-3.9V59.5c0-5.4,1-6.4,5.5-6.4h11.7c4.5,0,5.5,1,5.5,6.4v22h-7.2V67.1
			c0-2-0.6-2.5-2.3-2.5h-4.1c-1.7,0-2.2,0.5-2.2,2.5v18.6c0,1.4,0.5,2,1.9,2h13.7v3.9H33.3z"/>
		<path class="st6" d="M71.8,91.6V81.3h-8v10.3h-7.8V53.1h7.8v24.3h8V53.1h7.7v38.5H71.8z"/>
		<path class="st6" d="M99.6,91.6l-1-8.2h-8l-0.8,8.2h-7.2l3.6-36.2c0.1-1.5,0.8-2.4,2.1-2.4h13.3c1.2,0,1.7,0.9,1.9,2.4l3.4,36.2
			H99.6z M96.8,64.9c0-0.5-0.2-0.8-0.6-0.8h-3.1c-0.3,0-0.5,0.2-0.6,0.8L91,79c0,0.3,0.2,0.4,0.5,0.4h6.3c0.3,0,0.5-0.2,0.5-0.4
			L96.8,64.9z"/>
		<path class="st6" d="M128.7,91.6c-1.7,0-2.3-0.4-2.9-1.8l-7.4-16.5c-0.2-0.4-0.5-0.6-0.8-0.6H117v18.9h-7.1V53.1h5.7
			c1.9,0,2.7,0.9,3.3,2.5l9,26.1c0,0.2,0.1,0.3,0.3,0.3h0.1V53.1h7v38.5H128.7z"/>
		<path class="st6" d="M143.4,91.6c-2.9,0-3.9-0.9-3.9-3.9V59.5c0-5.4,1-6.4,5.5-6.4h11.7c4.5,0,5.5,1.1,5.5,6.4v13.6H155v-6
			c0-1.9-0.5-2.5-2.3-2.5h-4.1c-1.7,0-2.2,0.5-2.2,2.5v18.6c0,1.4,0.5,2,1.9,2h5.9c0.9,0,1.2-0.4,1.2-1.2v-5.7h-4.8v-3.9H162v14.8
			H143.4z"/>
		<path class="st6" d="M170,91.6c-2.9,0-3.9-1-3.9-3.9V59.5c0-5.4,1-6.4,5.5-6.4h15.8v11.5h-12c-1.7,0-2.2,0.5-2.2,2.5v9.3
			c0,0.7,0.3,1,1,1h13v3.9h-13c-0.6,0-1,0.4-1,1.2v3.2c0,1.4,0.6,2,1.9,2h12.3v3.9H170z"/>
		<path class="st6" d="M191.7,83.3V53.1h7.9v30.2H191.7z M191.7,91.6v-5.6h7.9v5.6H191.7z"/>
		<path class="st6" d="M14.6,109.6v-6.3h-0.1c-0.1,0-0.2,0-0.2,0.2l-1.4,6c0,0.1-0.1,0.1-0.2,0.1h-1.5c-0.1,0-0.2,0-0.2-0.1l-1.4-6
			c0-0.1-0.1-0.2-0.2-0.2H9.3v6.3H7V96.8h1.7c0.6,0,1.1,0.3,1.2,1l1.9,8.2c0,0,0,0.1,0.1,0.1c0,0,0.1,0,0.1-0.1l1.9-8.2
			c0.2-0.7,0.6-1,1.2-1h1.7v12.9H14.6z"/>
		<path class="st6" d="M19.6,109.6c-1,0-1.3-0.3-1.3-1.3v-9.4c0-1.8,0.3-2.1,1.8-2.1h3.8c1.5,0,1.8,0.3,1.8,2.1v9.4
			c0,1-0.3,1.3-1.3,1.3H19.6z M23.6,101.5c0-0.7-0.2-0.8-0.8-0.8h-1.6c-0.6,0-0.7,0.2-0.7,0.8v6.2c0,0.5,0.2,0.7,0.6,0.7h1.8
			c0.4,0,0.7-0.2,0.7-0.7V101.5z"/>
		<path class="st6" d="M33.3,109.6c-0.4,0-0.7-0.3-0.7-0.7v-1.7c0-0.6-0.2-0.8-0.8-0.8h-2.3v3.2h-2.4V96.8h6c1.4,0,1.7,0.3,1.7,2.1
			v5.2c0,1.1-0.4,1.4-1.2,1.5c0.9,0.1,1.2,0.3,1.2,1.5v1.9c0,0.4,0.1,0.5,0.3,0.6H33.3z M32.6,101.4c0-0.6-0.2-0.8-0.6-0.8h-2.4v4.5
			h2.3c0.6,0,0.8-0.2,0.8-0.6V101.4z"/>
		<path class="st6" d="M37.5,109.6c-1,0-1.3-0.3-1.3-1.3v-9.4c0-1.8,0.3-2.1,1.8-2.1h5.3v3.8h-4c-0.6,0-0.7,0.2-0.7,0.8v3.1
			c0,0.2,0.1,0.3,0.3,0.3h4.3v1.3h-4.3c-0.2,0-0.3,0.1-0.3,0.4v1.1c0,0.5,0.2,0.7,0.6,0.7h4.1v1.3H37.5z"/>
		<path class="st6" d="M50.5,106.4v3.2h-2.4V96.8H54c1.3,0,1.6,0.4,1.6,2.1v5.9c0,1.3-0.3,1.5-1.3,1.5H50.5z M53.3,101.6
			c0-0.8-0.2-1-1-1h-1.8v4.5h1.4c0.9,0,1.4,0,1.4-0.7V101.6z"/>
		<path class="st6" d="M57.9,109.6c-1,0-1.3-0.3-1.3-1.3v-9.4c0-1.8,0.3-2.1,1.8-2.1h3.8c1.5,0,1.8,0.3,1.8,2.1v9.4
			c0,1-0.3,1.3-1.3,1.3H57.9z M61.9,101.5c0-0.7-0.2-0.8-0.8-0.8h-1.6c-0.6,0-0.7,0.2-0.7,0.8v6.2c0,0.5,0.2,0.7,0.6,0.7h1.8
			c0.4,0,0.7-0.2,0.7-0.7V101.5z"/>
		<path class="st6" d="M65.5,109.6V96.8h2.4v11.2c0,0.3,0.1,0.4,0.4,0.4h1.8c0.3,0,0.4-0.1,0.4-0.4v-3.2h2.3v4.9H65.5z"/>
		<path class="st6" d="M74,109.6V96.8h2.6v12.9H74z"/>
		<path class="st6" d="M79.3,109.6c-1,0-1.3-0.3-1.3-1.3v-9.4c0-1.8,0.3-2.1,1.8-2.1h3.9c1.5,0,1.8,0.3,1.8,2.1v7.3h-2.4v-4.8
			c0-0.7-0.2-0.8-0.8-0.8h-1.4c-0.6,0-0.7,0.2-0.7,0.8v6.2c0,0.5,0.2,0.7,0.6,0.7h4.6v1.3H79.3z"/>
		<path class="st6" d="M88.2,109.6c-1,0-1.3-0.3-1.3-1.3v-9.4c0-1.8,0.3-2.1,1.8-2.1H94v3.8h-4c-0.6,0-0.7,0.2-0.7,0.8v3.1
			c0,0.2,0.1,0.3,0.3,0.3h4.3v1.3h-4.3c-0.2,0-0.3,0.1-0.3,0.4v1.1c0,0.5,0.2,0.7,0.6,0.7H94v1.3H88.2z"/>
		<path class="st6" d="M104,109.6l-0.3-2.7H101l-0.3,2.7h-2.4l1.2-12.1c0-0.5,0.3-0.8,0.7-0.8h4.4c0.4,0,0.6,0.3,0.6,0.8l1.1,12.1
			H104z M103,100.7c0-0.2-0.1-0.3-0.2-0.3h-1c-0.1,0-0.2,0.1-0.2,0.3l-0.5,4.7c0,0.1,0.1,0.1,0.2,0.1h2.1c0.1,0,0.2-0.1,0.2-0.1
			L103,100.7z"/>
		<path class="st6" d="M113.5,109.6c-0.4,0-0.7-0.3-0.7-0.7v-1.7c0-0.6-0.2-0.8-0.8-0.8h-2.3v3.2h-2.4V96.8h6c1.4,0,1.7,0.3,1.7,2.1
			v5.2c0,1.1-0.4,1.4-1.2,1.5c0.9,0.1,1.2,0.3,1.2,1.5v1.9c0,0.4,0.1,0.5,0.3,0.6H113.5z M112.9,101.4c0-0.6-0.2-0.8-0.6-0.8h-2.4
			v4.5h2.3c0.6,0,0.8-0.2,0.8-0.6V101.4z"/>
		<path class="st6" d="M117.7,109.6c-1,0-1.3-0.3-1.3-1.3v-9.4c0-1.8,0.3-2.1,1.8-2.1h5.3v3.8h-4c-0.6,0-0.7,0.2-0.7,0.8v3.1
			c0,0.2,0.1,0.3,0.3,0.3h4.3v1.3h-4.3c-0.2,0-0.3,0.1-0.3,0.4v1.1c0,0.5,0.2,0.7,0.6,0.7h4.1v1.3H117.7z"/>
		<path class="st6" d="M129.6,109.6c-1,0-1.3-0.3-1.3-1.3v-9.4c0-1.8,0.3-2.1,1.8-2.1h3.8c1.5,0,1.8,0.3,1.8,2.1v9.4
			c0,1-0.3,1.3-1.3,1.3H129.6z M133.5,101.5c0-0.7-0.2-0.8-0.8-0.8h-1.6c-0.6,0-0.7,0.2-0.7,0.8v6.2c0,0.5,0.2,0.7,0.6,0.7h1.8
			c0.4,0,0.7-0.2,0.7-0.7V101.5z"/>
		<path class="st6" d="M143.4,109.6c-0.6,0-0.8-0.1-1-0.6l-2.5-5.5c-0.1-0.1-0.2-0.2-0.3-0.2h-0.2v6.3h-2.4V96.8h1.9
			c0.6,0,0.9,0.3,1.1,0.8l3,8.7c0,0.1,0,0.1,0.1,0.1h0v-9.6h2.3v12.9H143.4z"/>
		<path class="st6" d="M153,106.4v3.2h-2.4V96.8h5.9c1.3,0,1.6,0.4,1.6,2.1v5.9c0,1.3-0.3,1.5-1.3,1.5H153z M155.8,101.6
			c0-0.8-0.2-1-1-1H153v4.5h1.4c0.9,0,1.4,0,1.4-0.7V101.6z"/>
		<path class="st6" d="M164.3,109.6l-0.3-2.7h-2.7l-0.3,2.7h-2.4l1.2-12.1c0-0.5,0.3-0.8,0.7-0.8h4.4c0.4,0,0.6,0.3,0.6,0.8
			l1.1,12.1H164.3z M163.3,100.7c0-0.2-0.1-0.3-0.2-0.3h-1c-0.1,0-0.2,0.1-0.2,0.3l-0.5,4.7c0,0.1,0.1,0.1,0.2,0.1h2.1
			c0.1,0,0.2-0.1,0.2-0.1L163.3,100.7z"/>
		<path class="st6" d="M169.5,109.6V101c0-0.3-0.1-0.4-0.4-0.4h-2.2v-3.8h7.6v3.8h-2.2c-0.3,0-0.4,0.1-0.4,0.4v8.6H169.5z"/>
		<path class="st6" d="M181.5,109.6c-0.4,0-0.7-0.3-0.7-0.7v-1.7c0-0.6-0.2-0.8-0.8-0.8h-2.3v3.2h-2.4V96.8h6c1.4,0,1.7,0.3,1.7,2.1
			v5.2c0,1.1-0.4,1.4-1.2,1.5c0.9,0.1,1.2,0.3,1.2,1.5v1.9c0,0.4,0.1,0.5,0.3,0.6H181.5z M180.8,101.4c0-0.6-0.2-0.8-0.6-0.8h-2.4
			v4.5h2.3c0.6,0,0.8-0.2,0.8-0.6V101.4z"/>
		<path class="st6" d="M185.7,109.6c-1,0-1.3-0.3-1.3-1.3v-9.4c0-1.8,0.3-2.1,1.8-2.1h3.8c1.5,0,1.8,0.3,1.8,2.1v9.4
			c0,1-0.3,1.3-1.3,1.3H185.7z M189.6,101.5c0-0.7-0.2-0.8-0.8-0.8h-1.6c-0.6,0-0.7,0.2-0.7,0.8v6.2c0,0.5,0.2,0.7,0.6,0.7h1.8
			c0.4,0,0.7-0.2,0.7-0.7V101.5z"/>
		<path class="st6" d="M193.2,109.6V96.8h2.4v11.2c0,0.3,0.1,0.4,0.4,0.4h1.8c0.3,0,0.4-0.1,0.4-0.4v-3.2h2.3v4.9H193.2z"/>
		<path class="st6" d="M201.6,109.6v-2.1h1.8v2.1H201.6z"/>
		<path class="st6" d="M204.7,109.6v-2.1h1.8v2.1H204.7z"/>
		<path class="st6" d="M207.8,109.6v-2.1h1.8v2.1H207.8z"/>
	</g>
</g>
<g id="Layer_2_copy" class="st0">
	<g class="st2">
		<path class="st10" d="M6.7,50.1v-3.9h14.5c1.3,0,1.9-0.6,1.9-1.9v-2.9c0-1.1-0.5-1.6-1.7-1.6H10.1c-2.5,0-3.4-0.8-3.4-3.4V18
			c0-5.4,1.1-6.4,5.6-6.4h12.3c4.4,0,5.3,1.1,5.3,6.4v13.9H23v-6.3c0-1.8-0.5-2.4-2-2.4h-5.2c-1.7,0-2.3,0.5-2.3,2.4v8.6
			c0,1.2,0.5,1.8,1.8,1.8h11.5c2.3,0,3.1,0.9,3.1,3.4v6.8c0,3.2-0.9,4-3.9,4H6.7z"/>
		<path class="st10" d="M49.6,50.1V39.8h-8v10.3h-7.8V11.6h7.8v24.3h8V11.6h7.7v38.5H49.6z"/>
		<path class="st10" d="M61.9,50.1V11.6h7.7v38.5H61.9z"/>
		<path class="st10" d="M82,39.8c-0.6,0-1,0.4-1,1.2v9.1h-7.1V18c0-5.4,1.1-6.4,5.5-6.4h15.8v11.5h-12c-1.7,0-2.3,0.5-2.3,2.5v9.3
			c0,0.7,0.4,1,1,1h12.6v3.9H82z"/>
		<path class="st10" d="M104.9,50.1V24.3c0-0.8-0.4-1.2-1.3-1.2h-6.6V11.6h22.7v11.5H113c-1,0-1.3,0.4-1.3,1.2v25.9H104.9z"/>
		<path class="st10" d="M31.9,91.1c-2.9,0-3.9-1-3.9-3.9V59c0-5.4,1-6.4,5.5-6.4h11.7c4.5,0,5.5,1,5.5,6.4v22h-7.2V66.6
			c0-2-0.6-2.5-2.3-2.5h-4.1c-1.7,0-2.2,0.5-2.2,2.5v18.6c0,1.4,0.5,2,1.9,2h13.7v3.9H31.9z"/>
		<path class="st10" d="M70.5,91.1V80.8h-8v10.3h-7.8V52.6h7.8v24.3h8V52.6h7.7v38.5H70.5z"/>
		<path class="st10" d="M98.3,91.1l-1-8.2h-8l-0.8,8.2h-7.2l3.6-36.2c0.1-1.5,0.8-2.4,2.1-2.4h13.3c1.2,0,1.7,0.9,1.9,2.4l3.4,36.2
			H98.3z M95.5,64.4c0-0.5-0.2-0.8-0.6-0.8h-3.1c-0.3,0-0.5,0.2-0.6,0.8l-1.5,14.1c0,0.3,0.2,0.4,0.5,0.4h6.3c0.3,0,0.5-0.2,0.5-0.4
			L95.5,64.4z"/>
		<path class="st10" d="M127.4,91.1c-1.7,0-2.3-0.4-2.9-1.8l-7.4-16.5c-0.2-0.4-0.5-0.6-0.8-0.6h-0.6v18.9h-7.1V52.6h5.7
			c1.9,0,2.7,0.9,3.3,2.5l9,26.1c0,0.2,0.1,0.3,0.3,0.3h0.1V52.6h7v38.5H127.4z"/>
		<path class="st10" d="M142.1,91.1c-2.9,0-3.9-0.9-3.9-3.9V59c0-5.4,1-6.4,5.5-6.4h11.7c4.5,0,5.5,1.1,5.5,6.4v13.6h-7.2v-6
			c0-1.9-0.5-2.5-2.3-2.5h-4.1c-1.7,0-2.2,0.5-2.2,2.5v18.6c0,1.4,0.5,2,1.9,2h5.9c0.9,0,1.2-0.4,1.2-1.2v-5.7h-4.8v-3.9h11.4v14.8
			H142.1z"/>
		<path class="st10" d="M168.7,91.1c-2.9,0-3.9-1-3.9-3.9V59c0-5.4,1-6.4,5.5-6.4H186v11.5h-12c-1.7,0-2.2,0.5-2.2,2.5v9.3
			c0,0.7,0.3,1,1,1h13v3.9h-13c-0.6,0-1,0.4-1,1.2v3.2c0,1.4,0.6,2,1.9,2H186v3.9H168.7z"/>
		<path class="st10" d="M190.4,82.8V52.6h7.9v30.2H190.4z M190.4,91.1v-5.6h7.9v5.6H190.4z"/>
		<path class="st10" d="M13.3,109.1v-6.3h-0.1c-0.1,0-0.2,0-0.2,0.2l-1.4,6c0,0.1-0.1,0.1-0.2,0.1H9.9c-0.1,0-0.2,0-0.2-0.1l-1.4-6
			c0-0.1-0.1-0.2-0.2-0.2H8v6.3H5.7V96.3h1.7c0.6,0,1.1,0.3,1.2,1l1.9,8.2c0,0,0,0.1,0.1,0.1c0,0,0.1,0,0.1-0.1l1.9-8.2
			c0.2-0.7,0.6-1,1.2-1h1.7v12.9H13.3z"/>
		<path class="st10" d="M18.3,109.1c-1,0-1.3-0.3-1.3-1.3v-9.4c0-1.8,0.3-2.1,1.8-2.1h3.8c1.5,0,1.8,0.3,1.8,2.1v9.4
			c0,1-0.3,1.3-1.3,1.3H18.3z M22.3,100.9c0-0.7-0.2-0.8-0.8-0.8h-1.6c-0.6,0-0.7,0.2-0.7,0.8v6.2c0,0.5,0.2,0.7,0.6,0.7h1.8
			c0.4,0,0.7-0.2,0.7-0.7V100.9z"/>
		<path class="st10" d="M32,109.1c-0.4,0-0.7-0.3-0.7-0.7v-1.7c0-0.6-0.2-0.8-0.8-0.8h-2.3v3.2h-2.4V96.3h6c1.4,0,1.7,0.3,1.7,2.1
			v5.2c0,1.1-0.4,1.4-1.2,1.5c0.9,0.1,1.2,0.3,1.2,1.5v1.9c0,0.4,0.1,0.5,0.3,0.6H32z M31.3,100.9c0-0.6-0.2-0.8-0.6-0.8h-2.4v4.5
			h2.3c0.6,0,0.8-0.2,0.8-0.6V100.9z"/>
		<path class="st10" d="M36.2,109.1c-1,0-1.3-0.3-1.3-1.3v-9.4c0-1.8,0.3-2.1,1.8-2.1h5.3v3.8h-4c-0.6,0-0.7,0.2-0.7,0.8v3.1
			c0,0.2,0.1,0.3,0.3,0.3h4.3v1.3h-4.3c-0.2,0-0.3,0.1-0.3,0.4v1.1c0,0.5,0.2,0.7,0.6,0.7h4.1v1.3H36.2z"/>
		<path class="st10" d="M49.2,105.9v3.2h-2.4V96.3h5.9c1.3,0,1.6,0.4,1.6,2.1v5.9c0,1.3-0.3,1.5-1.3,1.5H49.2z M52,101.1
			c0-0.8-0.2-1-1-1h-1.8v4.5h1.4c0.9,0,1.4,0,1.4-0.7V101.1z"/>
		<path class="st10" d="M56.6,109.1c-1,0-1.3-0.3-1.3-1.3v-9.4c0-1.8,0.3-2.1,1.8-2.1h3.8c1.5,0,1.8,0.3,1.8,2.1v9.4
			c0,1-0.3,1.3-1.3,1.3H56.6z M60.6,100.9c0-0.7-0.2-0.8-0.8-0.8h-1.6c-0.6,0-0.7,0.2-0.7,0.8v6.2c0,0.5,0.2,0.7,0.6,0.7h1.8
			c0.4,0,0.7-0.2,0.7-0.7V100.9z"/>
		<path class="st10" d="M64.2,109.1V96.3h2.4v11.2c0,0.3,0.1,0.4,0.4,0.4h1.8c0.3,0,0.4-0.1,0.4-0.4v-3.2h2.3v4.9H64.2z"/>
		<path class="st10" d="M72.7,109.1V96.3h2.6v12.9H72.7z"/>
		<path class="st10" d="M78,109.1c-1,0-1.3-0.3-1.3-1.3v-9.4c0-1.8,0.3-2.1,1.8-2.1h3.9c1.5,0,1.8,0.3,1.8,2.1v7.3h-2.4v-4.8
			c0-0.7-0.2-0.8-0.8-0.8h-1.4c-0.6,0-0.7,0.2-0.7,0.8v6.2c0,0.5,0.2,0.7,0.6,0.7h4.6v1.3H78z"/>
		<path class="st10" d="M86.9,109.1c-1,0-1.3-0.3-1.3-1.3v-9.4c0-1.8,0.3-2.1,1.8-2.1h5.3v3.8h-4c-0.6,0-0.7,0.2-0.7,0.8v3.1
			c0,0.2,0.1,0.3,0.3,0.3h4.3v1.3h-4.3c-0.2,0-0.3,0.1-0.3,0.4v1.1c0,0.5,0.2,0.7,0.6,0.7h4.1v1.3H86.9z"/>
		<path class="st10" d="M102.7,109.1l-0.3-2.7h-2.7l-0.3,2.7H97l1.2-12.1c0-0.5,0.3-0.8,0.7-0.8h4.4c0.4,0,0.6,0.3,0.6,0.8l1.1,12.1
			H102.7z M101.7,100.2c0-0.2-0.1-0.3-0.2-0.3h-1c-0.1,0-0.2,0.1-0.2,0.3l-0.5,4.7c0,0.1,0.1,0.1,0.2,0.1h2.1c0.1,0,0.2-0.1,0.2-0.1
			L101.7,100.2z"/>
		<path class="st10" d="M112.2,109.1c-0.4,0-0.7-0.3-0.7-0.7v-1.7c0-0.6-0.2-0.8-0.8-0.8h-2.3v3.2h-2.4V96.3h6
			c1.4,0,1.7,0.3,1.7,2.1v5.2c0,1.1-0.4,1.4-1.2,1.5c0.9,0.1,1.2,0.3,1.2,1.5v1.9c0,0.4,0.1,0.5,0.3,0.6H112.2z M111.6,100.9
			c0-0.6-0.2-0.8-0.6-0.8h-2.4v4.5h2.3c0.6,0,0.8-0.2,0.8-0.6V100.9z"/>
		<path class="st10" d="M116.4,109.1c-1,0-1.3-0.3-1.3-1.3v-9.4c0-1.8,0.3-2.1,1.8-2.1h5.3v3.8h-4c-0.6,0-0.7,0.2-0.7,0.8v3.1
			c0,0.2,0.1,0.3,0.3,0.3h4.3v1.3h-4.3c-0.2,0-0.3,0.1-0.3,0.4v1.1c0,0.5,0.2,0.7,0.6,0.7h4.1v1.3H116.4z"/>
		<path class="st10" d="M128.3,109.1c-1,0-1.3-0.3-1.3-1.3v-9.4c0-1.8,0.3-2.1,1.8-2.1h3.9c1.5,0,1.8,0.3,1.8,2.1v7.3h-2.4v-4.8
			c0-0.7-0.2-0.8-0.8-0.8H130c-0.6,0-0.7,0.2-0.7,0.8v6.2c0,0.5,0.2,0.7,0.6,0.7h4.6v1.3H128.3z"/>
		<path class="st10" d="M135.9,109.1V96.3h2.4v11.2c0,0.3,0.1,0.4,0.4,0.4h1.8c0.3,0,0.4-0.1,0.4-0.4v-3.2h2.3v4.9H135.9z"/>
		<path class="st10" d="M145.6,109.1c-1,0-1.3-0.3-1.3-1.3v-9.4c0-1.8,0.3-2.1,1.8-2.1h3.8c1.5,0,1.8,0.3,1.8,2.1v9.4
			c0,1-0.3,1.3-1.3,1.3H145.6z M149.5,100.9c0-0.7-0.2-0.8-0.8-0.8h-1.6c-0.6,0-0.7,0.2-0.7,0.8v6.2c0,0.5,0.2,0.7,0.6,0.7h1.8
			c0.4,0,0.7-0.2,0.7-0.7V100.9z"/>
		<path class="st10" d="M154.4,109.1c-1,0-1.3-0.3-1.3-1.3v-9.4c0-1.8,0.3-2.1,1.8-2.1h3.9c1.5,0,1.8,0.3,1.8,2.1v7.3h-2.4v-4.8
			c0-0.7-0.2-0.8-0.8-0.8h-1.4c-0.6,0-0.7,0.2-0.7,0.8v6.2c0,0.5,0.2,0.7,0.6,0.7h4.6v1.3H154.4z"/>
		<path class="st10" d="M167.1,109.1l-2.5-3.6c0-0.1-0.1-0.1-0.2-0.1h-0.1v3.7H162V96.3h2.3v7.3h0c0.1,0,0.1,0,0.1-0.1l3-7.2h2.7
			l-4.1,8.5l3.6,4.4H167.1z"/>
		<path class="st10" d="M171.1,109.1V96.3h2.6v12.9H171.1z"/>
		<path class="st10" d="M181.4,109.1c-0.6,0-0.8-0.1-1-0.6L178,103c-0.1-0.1-0.2-0.2-0.3-0.2h-0.2v6.3h-2.4V96.3h1.9
			c0.6,0,0.9,0.3,1.1,0.8l3,8.7c0,0.1,0,0.1,0.1,0.1h0v-9.6h2.3v12.9H181.4z"/>
		<path class="st10" d="M186.3,109.1c-1,0-1.3-0.3-1.3-1.3v-9.4c0-1.8,0.3-2.1,1.8-2.1h3.9c1.5,0,1.8,0.4,1.8,2.1v4.5h-2.4v-2
			c0-0.6-0.2-0.8-0.8-0.8h-1.4c-0.6,0-0.7,0.2-0.7,0.8v6.2c0,0.5,0.2,0.7,0.6,0.7h2c0.3,0,0.4-0.1,0.4-0.4v-1.9h-1.6v-1.3h3.8v4.9
			H186.3z"/>
		<path class="st10" d="M197.5,109.1V96.3h2.6v12.9H197.5z"/>
		<path class="st10" d="M207.8,109.1c-0.6,0-0.8-0.1-1-0.6l-2.5-5.5c-0.1-0.1-0.2-0.2-0.3-0.2h-0.2v6.3h-2.4V96.3h1.9
			c0.6,0,0.9,0.3,1.1,0.8l3,8.7c0,0.1,0,0.1,0.1,0.1h0v-9.6h2.3v12.9H207.8z"/>
	</g>
	<g class="st2">
		<path class="st6" d="M7.4,51.1v-3.9h14.5c1.3,0,1.9-0.6,1.9-1.9v-2.9c0-1.1-0.5-1.6-1.7-1.6H10.8c-2.5,0-3.4-0.8-3.4-3.4V19
			c0-5.4,1.1-6.4,5.6-6.4h12.3c4.4,0,5.3,1.1,5.3,6.4v13.9h-6.9v-6.3c0-1.8-0.5-2.4-2-2.4h-5.2c-1.7,0-2.3,0.5-2.3,2.4v8.6
			c0,1.2,0.5,1.8,1.8,1.8h11.5c2.3,0,3.1,0.9,3.1,3.4v6.8c0,3.2-0.9,4-3.9,4H7.4z"/>
		<path class="st6" d="M50.3,51.1V40.8h-8v10.3h-7.8V12.6h7.8v24.3h8V12.6H58v38.5H50.3z"/>
		<path class="st6" d="M62.6,51.1V12.6h7.7v38.5H62.6z"/>
		<path class="st6" d="M82.7,40.8c-0.6,0-1,0.4-1,1.2v9.1h-7.1V19c0-5.4,1.1-6.4,5.5-6.4H96v11.5H84c-1.7,0-2.3,0.5-2.3,2.5v9.3
			c0,0.7,0.4,1,1,1h12.6v3.9H82.7z"/>
		<path class="st6" d="M105.6,51.1V25.3c0-0.8-0.4-1.2-1.3-1.2h-6.6V12.6h22.7v11.5h-6.6c-1,0-1.3,0.4-1.3,1.2v25.9H105.6z"/>
		<path class="st6" d="M32.7,92.1c-2.9,0-3.9-1-3.9-3.9V60c0-5.4,1-6.4,5.5-6.4h11.7c4.5,0,5.5,1,5.5,6.4v22h-7.2V67.6
			c0-2-0.6-2.5-2.3-2.5h-4.1c-1.7,0-2.2,0.5-2.2,2.5v18.6c0,1.4,0.5,2,1.9,2h13.7v3.9H32.7z"/>
		<path class="st6" d="M71.3,92.1V81.8h-8v10.3h-7.8V53.6h7.8v24.3h8V53.6H79v38.5H71.3z"/>
		<path class="st6" d="M99.1,92.1l-1-8.2h-8l-0.8,8.2h-7.2l3.6-36.2c0.1-1.5,0.8-2.4,2.1-2.4H101c1.2,0,1.7,0.9,1.9,2.4l3.4,36.2
			H99.1z M96.2,65.4c0-0.5-0.2-0.8-0.6-0.8h-3.1c-0.3,0-0.5,0.2-0.6,0.8l-1.5,14.1c0,0.3,0.2,0.4,0.5,0.4h6.3c0.3,0,0.5-0.2,0.5-0.4
			L96.2,65.4z"/>
		<path class="st6" d="M128.1,92.1c-1.7,0-2.3-0.4-2.9-1.8l-7.4-16.5c-0.2-0.4-0.5-0.6-0.8-0.6h-0.6v18.9h-7.1V53.6h5.7
			c1.9,0,2.7,0.9,3.3,2.5l9,26.1c0,0.2,0.1,0.3,0.3,0.3h0.1V53.6h7v38.5H128.1z"/>
		<path class="st6" d="M142.8,92.1c-2.9,0-3.9-0.9-3.9-3.9V60c0-5.4,1-6.4,5.5-6.4h11.7c4.5,0,5.5,1.1,5.5,6.4v13.6h-7.2v-6
			c0-1.9-0.5-2.5-2.3-2.5h-4.1c-1.7,0-2.2,0.5-2.2,2.5v18.6c0,1.4,0.5,2,1.9,2h5.9c0.9,0,1.2-0.4,1.2-1.2v-5.7h-4.8v-3.9h11.4v14.8
			H142.8z"/>
		<path class="st6" d="M169.4,92.1c-2.9,0-3.9-1-3.9-3.9V60c0-5.4,1-6.4,5.5-6.4h15.8v11.5h-12c-1.7,0-2.2,0.5-2.2,2.5v9.3
			c0,0.7,0.3,1,1,1h13v3.9h-13c-0.6,0-1,0.4-1,1.2v3.2c0,1.4,0.6,2,1.9,2h12.3v3.9H169.4z"/>
		<path class="st6" d="M191.2,83.8V53.6h7.9v30.2H191.2z M191.2,92.1v-5.6h7.9v5.6H191.2z"/>
		<path class="st6" d="M14.1,110.1v-6.3H14c-0.1,0-0.2,0-0.2,0.2l-1.4,6c0,0.1-0.1,0.1-0.2,0.1h-1.5c-0.1,0-0.2,0-0.2-0.1L9,104
			c0-0.1-0.1-0.2-0.2-0.2H8.7v6.3H6.5V97.3h1.7c0.6,0,1.1,0.3,1.2,1l1.9,8.2c0,0,0,0.1,0.1,0.1c0,0,0.1,0,0.1-0.1l1.9-8.2
			c0.2-0.7,0.6-1,1.2-1h1.7v12.9H14.1z"/>
		<path class="st6" d="M19,110.1c-1,0-1.3-0.3-1.3-1.3v-9.4c0-1.8,0.3-2.1,1.8-2.1h3.8c1.5,0,1.8,0.3,1.8,2.1v9.4
			c0,1-0.3,1.3-1.3,1.3H19z M23,101.9c0-0.7-0.2-0.8-0.8-0.8h-1.6c-0.6,0-0.7,0.2-0.7,0.8v6.2c0,0.5,0.2,0.7,0.6,0.7h1.8
			c0.4,0,0.7-0.2,0.7-0.7V101.9z"/>
		<path class="st6" d="M32.7,110.1c-0.4,0-0.7-0.3-0.7-0.7v-1.7c0-0.6-0.2-0.8-0.8-0.8H29v3.2h-2.4V97.3h6c1.4,0,1.7,0.3,1.7,2.1
			v5.2c0,1.1-0.4,1.4-1.2,1.5c0.9,0.1,1.2,0.3,1.2,1.5v1.9c0,0.4,0.1,0.5,0.3,0.6H32.7z M32,101.9c0-0.6-0.2-0.8-0.6-0.8H29v4.5h2.3
			c0.6,0,0.8-0.2,0.8-0.6V101.9z"/>
		<path class="st6" d="M36.9,110.1c-1,0-1.3-0.3-1.3-1.3v-9.4c0-1.8,0.3-2.1,1.8-2.1h5.3v3.8h-4c-0.6,0-0.7,0.2-0.7,0.8v3.1
			c0,0.2,0.1,0.3,0.3,0.3h4.3v1.3h-4.3c-0.2,0-0.3,0.1-0.3,0.4v1.1c0,0.5,0.2,0.7,0.6,0.7h4.1v1.3H36.9z"/>
		<path class="st6" d="M49.9,106.9v3.2h-2.4V97.3h5.9c1.3,0,1.6,0.4,1.6,2.1v5.9c0,1.3-0.3,1.5-1.3,1.5H49.9z M52.7,102.1
			c0-0.8-0.2-1-1-1h-1.8v4.5h1.4c0.9,0,1.4,0,1.4-0.7V102.1z"/>
		<path class="st6" d="M57.4,110.1c-1,0-1.3-0.3-1.3-1.3v-9.4c0-1.8,0.3-2.1,1.8-2.1h3.8c1.5,0,1.8,0.3,1.8,2.1v9.4
			c0,1-0.3,1.3-1.3,1.3H57.4z M61.3,101.9c0-0.7-0.2-0.8-0.8-0.8H59c-0.6,0-0.7,0.2-0.7,0.8v6.2c0,0.5,0.2,0.7,0.6,0.7h1.8
			c0.4,0,0.7-0.2,0.7-0.7V101.9z"/>
		<path class="st6" d="M64.9,110.1V97.3h2.4v11.2c0,0.3,0.1,0.4,0.4,0.4h1.8c0.3,0,0.4-0.1,0.4-0.4v-3.2h2.3v4.9H64.9z"/>
		<path class="st6" d="M73.4,110.1V97.3H76v12.9H73.4z"/>
		<path class="st6" d="M78.8,110.1c-1,0-1.3-0.3-1.3-1.3v-9.4c0-1.8,0.3-2.1,1.8-2.1h3.9c1.5,0,1.8,0.3,1.8,2.1v7.3h-2.4v-4.8
			c0-0.7-0.2-0.8-0.8-0.8h-1.4c-0.6,0-0.7,0.2-0.7,0.8v6.2c0,0.5,0.2,0.7,0.6,0.7H85v1.3H78.8z"/>
		<path class="st6" d="M87.6,110.1c-1,0-1.3-0.3-1.3-1.3v-9.4c0-1.8,0.3-2.1,1.8-2.1h5.3v3.8h-4c-0.6,0-0.7,0.2-0.7,0.8v3.1
			c0,0.2,0.1,0.3,0.3,0.3h4.3v1.3H89c-0.2,0-0.3,0.1-0.3,0.4v1.1c0,0.5,0.2,0.7,0.6,0.7h4.1v1.3H87.6z"/>
		<path class="st6" d="M103.4,110.1l-0.3-2.7h-2.7l-0.3,2.7h-2.4l1.2-12.1c0-0.5,0.3-0.8,0.7-0.8h4.4c0.4,0,0.6,0.3,0.6,0.8
			l1.1,12.1H103.4z M102.5,101.2c0-0.2-0.1-0.3-0.2-0.3h-1c-0.1,0-0.2,0.1-0.2,0.3l-0.5,4.7c0,0.1,0.1,0.1,0.2,0.1h2.1
			c0.1,0,0.2-0.1,0.2-0.1L102.5,101.2z"/>
		<path class="st6" d="M113,110.1c-0.4,0-0.7-0.3-0.7-0.7v-1.7c0-0.6-0.2-0.8-0.8-0.8h-2.3v3.2h-2.4V97.3h6c1.4,0,1.7,0.3,1.7,2.1
			v5.2c0,1.1-0.4,1.4-1.2,1.5c0.9,0.1,1.2,0.3,1.2,1.5v1.9c0,0.4,0.1,0.5,0.3,0.6H113z M112.3,101.9c0-0.6-0.2-0.8-0.6-0.8h-2.4v4.5
			h2.3c0.6,0,0.8-0.2,0.8-0.6V101.9z"/>
		<path class="st6" d="M117.1,110.1c-1,0-1.3-0.3-1.3-1.3v-9.4c0-1.8,0.3-2.1,1.8-2.1h5.3v3.8h-4c-0.6,0-0.7,0.2-0.7,0.8v3.1
			c0,0.2,0.1,0.3,0.3,0.3h4.3v1.3h-4.3c-0.2,0-0.3,0.1-0.3,0.4v1.1c0,0.5,0.2,0.7,0.6,0.7h4.1v1.3H117.1z"/>
		<path class="st6" d="M129,110.1c-1,0-1.3-0.3-1.3-1.3v-9.4c0-1.8,0.3-2.1,1.8-2.1h3.9c1.5,0,1.8,0.3,1.8,2.1v7.3h-2.4v-4.8
			c0-0.7-0.2-0.8-0.8-0.8h-1.4c-0.6,0-0.7,0.2-0.7,0.8v6.2c0,0.5,0.2,0.7,0.6,0.7h4.6v1.3H129z"/>
		<path class="st6" d="M136.6,110.1V97.3h2.4v11.2c0,0.3,0.1,0.4,0.4,0.4h1.8c0.3,0,0.4-0.1,0.4-0.4v-3.2h2.3v4.9H136.6z"/>
		<path class="st6" d="M146.3,110.1c-1,0-1.3-0.3-1.3-1.3v-9.4c0-1.8,0.3-2.1,1.8-2.1h3.8c1.5,0,1.8,0.3,1.8,2.1v9.4
			c0,1-0.3,1.3-1.3,1.3H146.3z M150.3,101.9c0-0.7-0.2-0.8-0.8-0.8h-1.6c-0.6,0-0.7,0.2-0.7,0.8v6.2c0,0.5,0.2,0.7,0.6,0.7h1.8
			c0.4,0,0.7-0.2,0.7-0.7V101.9z"/>
		<path class="st6" d="M155.1,110.1c-1,0-1.3-0.3-1.3-1.3v-9.4c0-1.8,0.3-2.1,1.8-2.1h3.9c1.5,0,1.8,0.3,1.8,2.1v7.3H159v-4.8
			c0-0.7-0.2-0.8-0.8-0.8h-1.4c-0.6,0-0.7,0.2-0.7,0.8v6.2c0,0.5,0.2,0.7,0.6,0.7h4.6v1.3H155.1z"/>
		<path class="st6" d="M167.8,110.1l-2.5-3.6c0-0.1-0.1-0.1-0.2-0.1H165v3.7h-2.3V97.3h2.3v7.3h0c0.1,0,0.1,0,0.1-0.1l3-7.2h2.7
			l-4.1,8.5l3.6,4.4H167.8z"/>
		<path class="st6" d="M171.8,110.1V97.3h2.6v12.9H171.8z"/>
		<path class="st6" d="M182.2,110.1c-0.6,0-0.8-0.1-1-0.6l-2.5-5.5c-0.1-0.1-0.2-0.2-0.3-0.2h-0.2v6.3h-2.4V97.3h1.9
			c0.6,0,0.9,0.3,1.1,0.8l3,8.7c0,0.1,0,0.1,0.1,0.1h0v-9.6h2.3v12.9H182.2z"/>
		<path class="st6" d="M187.1,110.1c-1,0-1.3-0.3-1.3-1.3v-9.4c0-1.8,0.3-2.1,1.8-2.1h3.9c1.5,0,1.8,0.4,1.8,2.1v4.5h-2.4v-2
			c0-0.6-0.2-0.8-0.8-0.8h-1.4c-0.6,0-0.7,0.2-0.7,0.8v6.2c0,0.5,0.2,0.7,0.6,0.7h2c0.3,0,0.4-0.1,0.4-0.4v-1.9h-1.6v-1.3h3.8v4.9
			H187.1z"/>
		<path class="st6" d="M198.2,110.1V97.3h2.6v12.9H198.2z"/>
		<path class="st6" d="M208.6,110.1c-0.6,0-0.8-0.1-1-0.6l-2.5-5.5c-0.1-0.1-0.2-0.2-0.3-0.2h-0.2v6.3h-2.4V97.3h1.9
			c0.6,0,0.9,0.3,1.1,0.8l3,8.7c0,0.1,0,0.1,0.1,0.1h0v-9.6h2.3v12.9H208.6z"/>
	</g>
</g>
<g id="Layer_3">
	<g>
		<path class="st11" d="M308.8,78.1l0,1.3l0.4,0.4l23.5-0.5l0.3-0.1v17.4l-2.4,0.6l-0.2,0l-3.4,1.4l-1.8,1.1l-1,0.4l-0.1,0.1
			l-0.3,0.2l-0.2-0.1l0,0.7l-2.1,1.2l-3.3,0.6l-0.3,0.3l-0.6,0.1l0.4,0.2l-2,0.8l-3.5,0.8l-2.9-0.3l-8.1-6.5l-0.4,0l-0.4-0.4
			l-4.8-1.9l-2.2-1.9l-0.1-0.7l-0.5-1.2l0,0l-9.3-1.5l-0.3,0.1l-0.6,0.5l-0.5,0.2l-12.1-1.6l-0.3-0.2l-7.2-1.1l-0.1,0.1l-1.1,0
			l-0.3-0.1l-1.3-0.1l-0.3-0.2l-1.5,0L257,88l-1.2,0l-0.3-0.2l-3.4-0.4l-0.2-0.1l-3.9-0.5l0,0l-0.3-0.4l-0.4-1l-0.1-1.2l0.1-0.6
			l0.1,0.6l0.4,0.4l0,0.8l0.8,0.9l33,4.6l0.7-0.4l-0.4-0.4l-0.2-0.1l-1.4-1.4l1.2-1.7l14.4-2l3.9-1.6l0.3,0l8.1-3.4l0.4-0.4
			L308.8,78.1L308.8,78.1z M296.5,92.4l-0.9,0l-0.3,0.2l0.2,0.2l2.6,0.2l0.4-0.1l-0.4-0.4L296.5,92.4L296.5,92.4z"/>
		<polygon class="st12" points="317.8,103.2 318.2,102.8 321.4,102.2 323.6,101 323.6,100.3 323.8,100.3 324.1,100.2 324.2,100 
			330.4,97.2 330.5,97.2 332.9,96.6 332.9,97.3 328.9,98.4 324,101.1 324,101.1 323.2,101.6 322.9,101.8 321.8,102.4 321.5,102.5 
			321.2,102.7 320.8,102.7 320.2,102.9 320,102.9 318.6,103.2 317.8,103.2 		"/>
		<path class="st12" d="M306.9,19.4l1.6,0.2l-0.5,0.1l0.4,1.5l-11.7,12.2L296,36l-0.1-1.1l-0.6-0.3l-0.5,0.7l-0.1,39.5l2,2l0.5,0
			l-0.1-0.4l-0.7-1.1l0-0.3l0.2,0l1.6,0.4l0.6,0.9l-1.7,2.2l-0.7,0.2L269.6,75l-4.1-2.8l-1.2,0.2l-0.2,0.4l0,1.8l-23.1-3.1l-2.4-0.9
			l-0.4,0.1l-1.8-4l-2-36.3l0.6-1.3l0.8-1.1l0.8-0.7l0.4,0.1l1.6-0.9l0.6-0.7l1.9-1.5l0.3-0.1l5.6-4.4l0.2,0l0,0.2l-0.5,0.7l2.4-1.3
			l0.4-0.1l0.7,0.3l0.3,0.4l0.5-0.2l0.2-0.4l0.5-0.2l4.6,0.1l1.5-1l0.3,0l0,0.1l-1.2,1.2l0.5,0.5l0.3,0.2l0-0.4l0-0.4l3.5,0.3
			l1.4-0.7l0.8,0l1,0.2l0.3-0.2l-0.2-0.3l-5-0.7l-0.4-0.4l0.4-0.2l15.5,0.8l0.5-0.1l22.1,1.3l0.3,0l3.8,0.5l1.8-0.2l4,0.4l0.3,0
			l0-0.3L306.9,19.4L306.9,19.4z M247.2,35.2l-2.4-0.1l-0.5,0.4l0.3,15.7l-0.4,1.1l-0.2,0.3l0.4,0.1l0.2,0.2l-0.6,2.1l0.6,6.1
			l1.5,1.3l41.8,5.7l0.9-0.7l-0.1-0.7l0,0l-0.2-0.6l0.4,0.2l0-27l0.4,0.7l0.9-0.4l-0.6-1L240,33.8l-1.3,0.1l-0.2,0.4l0.4,0.1
			l0.6-0.2L247.2,35.2L247.2,35.2z M243.8,62.5l-0.8-0.2l-1-1.4l-0.2-5.8l0.9-1.7l0-10.4l0.7-2.1l0.5-5.3l-0.5-0.6l-2-0.3l-0.9,0.8
			l1,25.8l0.7,1.2L243.8,62.5L243.8,62.5z M264.3,19.5l2.6-0.2l0.6,0.1l0.3-0.3l-0.2-0.2l-1.6-0.1L264.3,19.5L264.3,19.5z
			 M292.9,34.4l1.4,0.7L292.9,34.4L292.9,34.4z"/>
		<polygon class="st13" points="264.3,72.4 265.5,72.2 269.6,75 296.2,78.8 296.9,78.6 298.6,76.4 298,75.5 296.4,75.1 296.2,75.1 
			296.2,75.4 297,76.4 297.1,76.8 296.6,76.8 294.6,74.8 294.7,35.2 295.2,34.5 295.8,34.9 296,36 296.8,33.4 308.5,21.2 308,19.7 
			308.5,19.6 308.8,19.6 309,19.8 309.7,20.8 309.9,21.3 309.9,22 309.8,22.1 309.7,28.6 309.6,29 309.5,34.4 309.3,34.8 
			309.2,45.2 309.1,45.7 308.9,74.1 308.8,74.2 308.7,79.6 308.3,80 300.2,83.4 299.9,83.4 304.9,76.9 304.8,76.6 304.6,76.5 
			299.7,76.1 299.2,76.4 296.7,79.2 296.5,79.6 296,79.7 295.1,79.7 294.7,79.7 294.4,79.4 293.1,79.4 292.6,79.2 285.2,78.2 
			284,78.4 283.1,77.9 280.4,77.8 279.7,77.5 269.9,76.5 267.5,76.8 267.2,77 267,77 266.4,75.8 265.8,75.8 265.8,72.8 265.4,72.5 
			264.3,72.4 		"/>
		<path class="st14" d="M303.9,76.4l0.7,0.1l0.2,0.1l0.1,0.3l-5,6.5L296,85l-14.4,2l-1.2,1.7l1.4,1.4l0.2,0.1l-1.3,0.2l-32.1-4.4
			l-0.5-0.6l0-3.3l-0.2-0.2l-0.2,0.3l0.2,2.5l-0.4-0.4l-0.3-2.1l-0.4-0.4l-1-0.1l-0.3-0.1l-9.1-1.3l-0.3-0.2l-7.3-1.1l-0.3-0.2
			l0.1-0.3l7.8-6.1l0.2,0.1l-0.2-0.1l0.3-0.2l0.4,0.3l15.4,2.1l0.6,0.2l1.3,0.1l0.2,0.2l0.2,0l1.4,0.4l0.4-0.2l1.2,0l0.5,0.4
			l0.6-0.1l0.8,0l0.7,0.2l0.3,0l1,0.3l0.8-0.1l3.3,0.7l-0.4,0.4l0.1,0.4l1.2-0.1L267,77l0.2-0.1l3.6,0.4l0.5,0l15.7,2.3l1.1-0.1
			l0.5,0.5l0.5-0.2l4,0.3l1.2,0.6l0.5-0.5l0.9-0.2l0.3-0.2l0.6-0.2l3.2-3.5L303.9,76.4L303.9,76.4z M258,85.8l1,0.3l0.4,0l-0.1-0.7
			l-0.7,0.1l-0.3,0l-0.4-0.2l-0.4,0.1l-0.4-0.4l-0.2,0.5l0.5,0.2L258,85.8L258,85.8z M283.1,81.9l-0.3,0.3l-0.3,0.4l0.5,0.1l0.5,0
			l0.6,0.2l0.3-0.5l0-0.4l-1.1-0.2L283.1,81.9L283.1,81.9z M263.1,86.4l0.9,0.3l0.3,0l0.3,0.2l0.7-0.1l0.1-0.5l-0.6-0.3l-0.4,0
			l-0.9-0.3l-0.4,0.2l-0.4-0.2l-0.7,0l0,0.5l0.7,0.2L263.1,86.4L263.1,86.4z M266.9,87l0.6,0.2l0.5-0.3l-0.4-0.5l-0.3-0.1l-0.4,0.1
			l-0.2,0.1l-0.7-0.4l-0.4,0.1l0.1,0.5l1,0L266.9,87L266.9,87z M262,84.7l0.6,0.1l0.5,0.3l0-0.6l-0.4-0.2l-0.6,0l-0.6-0.3l-0.1,0.5
			l0.2,0.4L262,84.7L262,84.7L262,84.7z M287.2,82.3l-1,0.8l0.2,0.2l1.2,0.1l0.9-0.7l-0.2-0.2L287.2,82.3L287.2,82.3z M292.3,83.2
			l-0.1-0.3l-1.4-0.1l-0.7,0.7l0.2,0.2l1.1,0.1l0.6-0.1L292.3,83.2L292.3,83.2z M279.7,81.3l-0.8,0.6l0.1,0.2l1.5,0.3l0.6-0.5
			l-0.1-0.4L279.7,81.3L279.7,81.3z M259.2,84.1l0-0.3l-0.6-0.4l-0.3,0.1l-0.6,0.1l-0.2-0.2l-0.7,0.2l-0.1,0.2l2.3,0.9L259.2,84.1
			L259.2,84.1z M277.5,81l-1.3-0.2l-1,0.6l0.1,0.3L277.5,81L277.5,81z M262.2,79.4l0.7-0.5l-0.2-0.4l-1-0.2l-1,0.6l0.2,0.2
			L262.2,79.4L262.2,79.4z M272.2,80.1l-0.6,0.6l0.6,0.4l1.5-0.5l-0.1-0.3L272.2,80.1L272.2,80.1z M265.2,79l-0.9,0.5l0.1,0.3
			l1.9-0.2l0.2-0.3l-0.3-0.2L265.2,79L265.2,79z M255.8,77.7l-0.3-0.3l-1.1-0.2l-0.9,0.5l0.2,0.3l1.3,0.2L255.8,77.7L255.8,77.7z
			 M250,77.3l1.4,0.3l0.8-0.6l-0.2-0.2L250,77.3L250,77.3z M268.7,79.6L268,80l-0.2,0.2l0.2,0.2l1.2,0.2l0.8-0.6l-0.1-0.2
			L268.7,79.6L268.7,79.6z M245.4,75.7l-1.4-0.3l-0.9,0.5l0.1,0.2L245.4,75.7L245.4,75.7z M247.4,76.1l-0.8,0.6l0.1,0.2l1.8-0.1
			l-0.1-0.4L247.4,76.1L247.4,76.1z M257.1,78.6l1.5,0.3l0.7-0.5l-0.1-0.2l-1.4-0.2L257.1,78.6L257.1,78.6z M268.6,86.5l-0.5,0.4
			l0.7,0.6l1,0l0.4-0.4l-0.5-0.4l-0.5,0.3l-0.2,0.2L268.6,86.5L268.6,86.5z M264.7,85.3l0.4,0l0.3-0.5l-0.2-0.3l-0.4,0.3l-0.4,0.1
			l-0.7-0.7l-0.2,0.3L264.7,85.3L264.7,85.3z M267.7,85.4l0.4,0.3l1.2,0.2l0.1-0.2l-0.5-0.5l-0.8-0.1L267.7,85.4L267.7,85.4z
			 M256.4,83.6l-0.5-0.6l-0.3,0.5l0.6,0.7L256.4,83.6L256.4,83.6z M273.4,88l0.5-0.4l-0.7-0.5l-0.5,0.3L273.4,88L273.4,88z
			 M266.8,85.3l0.1,0l0.4-0.2l0-0.3l-1.5-0.2l0,0.7L266.8,85.3L266.8,85.3z M271.9,86.9l-0.4,0.5l0.7,0.5l0.3-0.5L271.9,86.9
			L271.9,86.9z M260.5,84.8l0.5-0.1l0-0.3l-0.5,0l-0.7-0.5l-0.2-0.3l-0.2,0.4L260.5,84.8L260.5,84.8z M260.7,85.9l0.8,0.4l0.3-0.3
			l-0.6-0.5L260.7,85.9L260.7,85.9z M274.7,86.1l-0.3,0.3l0.5,0.4l0.4-0.3L274.7,86.1L274.7,86.1z M271.4,85.6l0.4,0.6l0.5,0.1
			l0.2-0.3l-0.3-0.3L271.4,85.6L271.4,85.6z M269.7,85.7l0.3,0.4l0.3-0.5l-0.3-0.3L269.7,85.7L269.7,85.7z M255.9,85.7l0.2-0.5
			l-0.4-0.4l-0.2,0.1L255.9,85.7L255.9,85.7z M270.8,86.1l0.3-0.2l-0.2-0.4l-0.3,0.2L270.8,86.1L270.8,86.1z"/>
		<path class="st12" d="M240.7,97l-2.3-0.3l-0.3-0.5l-2.5-9.4l0.1-0.5l0.4,0.3l56.8,8.2l1.1,1.1l0.7,8.1l-0.2,0.3L238.1,96l-0.5-0.9
			L238,96l0.9,0.7L240.7,97L240.7,97z M263.5,91.4l-2.9,1.9l0.9,2.7l3,2l3.2-0.6l0.6-2.2L263.5,91.4L263.5,91.4z"/>
		<polygon class="st13" points="240.7,97 239,96.7 238,96 238.1,96 294.4,104.3 294.6,104 293.9,95.9 292.8,94.8 236,86.6 
			235.6,86.3 235.7,86.2 236,86 236.4,84.8 236.4,80.1 236.8,80.2 237.1,80.4 238.9,80.7 239.4,80.6 243.1,81.2 242,81.4 
			237.7,80.8 237.1,81.2 237.4,84.3 237.9,84.9 239.4,85.7 240,85.7 241.6,86.5 243,86.8 242.4,86.4 243.9,86.4 243.7,86 
			243.9,85.9 244.3,86.2 244.3,86.8 244.4,87 245.7,87.3 245.9,87.1 246.2,84.6 245.7,81.6 245.8,81.6 246.7,81.6 247.2,82.1 
			247.1,83.2 247.4,85.3 247.7,86.3 248.1,86.8 248.1,86.8 248,87.1 248.6,87.7 270,90.7 272,90.6 252.3,87.7 252.1,87.4 
			255.5,87.7 255.8,87.9 257,88 257.8,88.2 259.4,88.2 259.6,88.4 261,88.5 261.2,88.6 262.3,88.7 262.9,89 264.5,89 264.7,89.1 
			265.7,89.1 266.6,89.4 268,89.5 268.3,89.6 269.6,89.7 269.9,89.8 282,91.4 283,91.8 282.6,92.3 282.6,92.6 283.2,92.4 
			283.4,91.7 283.5,90.8 283.7,90.8 284.1,91.1 287.7,91.1 292.8,92.2 292.8,92.3 293.3,94.1 295.6,96 300.4,97.8 300.8,98.3 
			294.7,105.1 294,105.1 268.9,101.2 268.8,101 267.4,100.9 267.1,100.9 240.7,97 		"/>
		<polygon class="st13" points="306.9,19.4 307.2,19.6 307.2,19.9 275,17.9 274.5,18 259,17.2 258.6,17.4 259,17.8 264,18.5 
			264.2,18.8 263.9,19 262.9,18.8 262.2,18.9 260.7,19.5 257.2,19.2 257.3,19.6 257.2,20 256.9,19.8 256.4,19.4 257.6,18.1 
			257.6,18 257.4,17.9 255.9,19 251.3,18.9 250.9,19.1 250.7,19.5 250.3,19.7 250,19.4 249.3,19.1 248.9,19.2 246.5,20.5 
			246.9,19.8 247,19.6 246.8,19.6 241.2,24 241,24.1 239.1,25.6 238.5,26.3 236.9,27.3 236.5,27.2 250.7,15.2 250.9,15.1 
			306.9,19.4 		"/>
		<polygon class="st13" points="238.1,70.6 238.5,70.6 240.9,71.5 264.1,74.5 264.3,75.6 239.6,72 238.1,70.9 238.1,70.6 		"/>
		<polygon class="st12" points="238.1,70.9 239.6,72 264.3,75.6 264.1,76 261.7,75.9 260.6,75.6 260.3,75.6 259.6,75.4 258.8,75.4 
			258.3,75.5 257.8,75.1 256.6,75.1 256.1,74.9 254.6,75 254.4,74.8 253.1,74.6 252.6,74.5 237.1,72.3 236.8,72 238.1,70.9 		"/>
		<polygon class="st12" points="309,69.7 309.2,50.5 309,69.7 		"/>
		<polygon class="st12" points="309.2,44.9 309.3,34.8 309.5,34.4 309.5,34.5 309.3,44.4 309.2,44.9 		"/>
		<polygon class="st12" points="309.5,33.8 309.6,29 309.7,28.6 309.5,33.8 		"/>
		<polygon class="st12" points="302.6,19.1 297.8,18.9 297.3,18.8 302.6,19.1 		"/>
		<polygon class="st12" points="309.2,50 309.1,45.7 309.2,45.2 309.2,50 		"/>
		<polygon class="st11" points="308.8,77.9 308.8,74.2 308.9,74.1 308.8,77.9 		"/>
		<polygon class="st12" points="309.7,25.2 309.8,22.1 309.9,22 309.7,25.2 		"/>
		<polygon class="st12" points="306.3,19.3 303.2,19.1 306.3,19.3 		"/>
		<polygon class="st12" points="284,17.9 281.4,17.6 284,17.9 		"/>
		<polygon class="st12" points="280.9,17.6 278.2,17.4 280.9,17.6 		"/>
		<polygon class="st12" points="263.1,16.1 260.4,15.9 263.1,16.1 		"/>
		<polygon class="st12" points="287.4,18.1 284.8,17.9 287.4,18.1 		"/>
		<polygon class="st12" points="294.1,18.6 291.8,18.4 294.1,18.6 		"/>
		<polygon class="st12" points="290.7,18.3 288.4,18.1 290.7,18.3 		"/>
		<polygon class="st12" points="271.1,16.9 268.8,16.7 271.1,16.9 		"/>
		<polygon class="st12" points="276.6,17.3 274.5,17.1 276.6,17.3 		"/>
		<polygon class="st12" points="265.5,16.4 263.4,16.1 265.5,16.4 		"/>
		<polygon class="st12" points="268.2,16.6 265.9,16.4 268.2,16.6 		"/>
		<polygon class="st12" points="252.8,15.1 250.9,15.1 252.8,15.1 		"/>
		<polygon class="st11" points="308.9,73.9 308.9,71.7 308.9,73.9 		"/>
		<polygon class="st12" points="259.9,15.9 258,15.7 259.9,15.9 		"/>
		<polygon class="st12" points="267.1,100.9 267.4,100.9 268.8,101 268.9,101.2 267.1,100.9 		"/>
		<polygon class="st12" points="297,18.8 295,18.6 297,18.8 		"/>
		<polygon class="st12" points="273.6,17.1 272,16.9 273.6,17.1 		"/>
		<polygon class="st12" points="257.4,15.6 255.8,15.4 257.4,15.6 		"/>
		<polygon class="st12" points="294.7,105.1 296,103.8 294.7,105.1 		"/>
		<polygon class="st12" points="265.5,100.7 266.9,100.9 265.5,100.7 		"/>
		<polygon class="st12" points="254.9,15.4 253.6,15.2 254.9,15.4 		"/>
		<polygon class="st11" points="318.9,103.2 320,102.9 318.9,103.2 		"/>
		<polygon class="st12" points="255.7,99.2 257.1,99.5 255.7,99.2 		"/>
		<polygon class="st12" points="245.8,97.8 247.2,98 245.8,97.8 		"/>
		<polygon class="st12" points="247.3,98 248.7,98.2 247.3,98 		"/>
		<polygon class="st12" points="259.3,99.8 260.5,100 259.3,99.8 		"/>
		<polygon class="st12" points="249.4,98.3 250.6,98.5 249.4,98.3 		"/>
		<polygon class="st12" points="257.3,99.5 258.5,99.7 257.3,99.5 		"/>
		<polygon class="st12" points="285.2,103.7 286.4,103.9 285.2,103.7 		"/>
		<polygon class="st12" points="254.1,99 255.2,99.2 254.1,99 		"/>
		<polygon class="st12" points="275.4,102.2 276.7,102.4 275.4,102.2 		"/>
		<polygon class="st12" points="289.9,104.4 290.9,104.6 289.9,104.4 		"/>
		<polygon class="st12" points="291.6,104.7 292.6,104.9 291.6,104.7 		"/>
		<polygon class="st12" points="277,102.4 278.2,102.7 277,102.4 		"/>
		<polygon class="st12" points="264,100.5 265.1,100.7 264,100.5 		"/>
		<polygon class="st12" points="241.1,97.1 242.1,97.2 241.1,97.1 		"/>
		<polygon class="st12" points="273.9,102 275,102.2 273.9,102 		"/>
		<polygon class="st12" points="282,103.2 283,103.4 282,103.2 		"/>
		<polygon class="st12" points="242.5,97.3 243.5,97.5 242.5,97.3 		"/>
		<polygon class="st12" points="280.5,103 281.4,103.2 280.5,103 		"/>
		<polygon class="st11" points="317.8,103.2 318.6,103.2 317.7,103.4 317.8,103.2 317.8,103.2 		"/>
		<polygon class="st12" points="260.8,100 261.8,100.2 260.8,100 		"/>
		<polygon class="st12" points="272.4,101.7 273.3,101.9 272.4,101.7 		"/>
		<polygon class="st12" points="251,98.5 251.9,98.8 251,98.5 		"/>
		<polygon class="st12" points="283.6,103.4 284.6,103.6 283.6,103.4 		"/>
		<polygon class="st12" points="262.4,100.2 263.2,100.5 262.4,100.2 		"/>
		<polygon class="st12" points="279,102.7 279.8,102.9 279,102.7 		"/>
		<polygon class="st12" points="244.2,97.5 245.1,97.7 244.2,97.5 		"/>
		<polygon class="st12" points="293.1,104.9 294,105.1 293.1,104.9 		"/>
		<polygon class="st12" points="252.5,98.8 253.3,99 252.5,98.8 		"/>
		<polygon class="st12" points="270.9,101.5 271.6,101.7 270.9,101.5 		"/>
		<polygon class="st12" points="288.6,104.2 289.4,104.4 288.6,104.2 		"/>
		<polygon class="st12" points="277.7,17.4 277,17.4 277.7,17.4 		"/>
		<polygon class="st12" points="269.2,101.3 269.9,101.5 269.2,101.3 		"/>
		<polygon class="st12" points="317.8,103.2 317.7,103.4 317.6,103.4 317.2,103.2 317.8,103.2 		"/>
		<polygon class="st11" points="320.2,102.9 320.8,102.7 320.2,102.9 		"/>
		<polygon class="st12" points="287.2,104 287.8,104.2 287.2,104 		"/>
		<polygon class="st11" points="321.8,102.4 322.3,102.2 321.8,102.4 		"/>
		<polygon class="st12" points="309.9,21.3 309.7,20.8 309.9,21.3 		"/>
		<polygon class="st12" points="258.6,99.7 259,99.8 258.6,99.7 		"/>
		<polygon class="st12" points="286.6,103.9 287,104 286.6,103.9 		"/>
		<polygon class="st12" points="288,104.2 288.3,104.2 288,104.2 		"/>
		<polygon class="st12" points="236,86 235.7,86.2 236,86 		"/>
		<polygon class="st12" points="248.9,98.2 249.2,98.3 248.9,98.2 		"/>
		<polygon class="st11" points="323.6,101.3 324,101.1 323.6,101.3 		"/>
		<polygon class="st11" points="322.7,101.9 322.9,101.8 322.7,101.9 		"/>
		<polygon class="st11" points="321.2,102.7 321.5,102.5 321.2,102.7 		"/>
		<polygon class="st12" points="278.5,102.7 278.7,102.7 278.5,102.7 		"/>
		<polygon class="st12" points="309,19.8 308.8,19.6 309,19.8 		"/>
		<polygon class="st11" points="324,101.1 324.3,100.9 324,101.1 		"/>
		<polygon class="st11" points="323.2,101.6 323.3,101.5 323.2,101.6 		"/>
		<polygon class="st13" points="247.9,84.5 247.8,82.9 248.1,83 248.2,85.3 248.7,85.9 280.7,90.3 282,90.1 282.4,90.6 281.7,90.9 
			248.7,86.3 247.9,85.4 247.9,84.5 		"/>
		<polygon class="st12" points="252.1,87.4 252.3,87.7 272,90.6 270,90.7 248.6,87.7 248,87.1 248.1,86.8 251.9,87.3 252.1,87.4 		
			"/>
		<polygon class="st13" points="296.5,92.4 298.2,92.5 298.6,92.9 298.2,93 295.6,92.7 295.4,92.5 295.6,92.4 296.5,92.4 		"/>
		<polygon class="st12" points="283.5,90.8 283.4,91.7 283.2,92.4 282.6,92.6 282.6,92.3 283,91.8 282,91.4 282.5,91.3 283.1,90.8 
			283.5,90.8 		"/>
		<polygon class="st12" points="287.3,91.1 284.1,91.1 283.7,90.8 287.3,91.1 		"/>
		<polygon class="st12" points="264.1,88.9 262.9,89 262.3,88.7 262.4,88.6 264.1,88.9 		"/>
		<polygon class="st12" points="293.3,94.1 292.8,92.3 293.3,93.4 293.3,94.1 		"/>
		<polygon class="st12" points="292.8,92.2 290.8,91.9 292.8,92.2 		"/>
		<polygon class="st12" points="289.1,91.6 287.7,91.1 289.1,91.6 		"/>
		<polygon class="st12" points="247.2,84.1 247.1,83.2 247.3,83.2 247.4,83.5 247.2,84.1 		"/>
		<polygon class="st12" points="257.8,88.2 257,88 257.8,88.2 		"/>
		<polygon class="st12" points="266.6,89.4 265.7,89.1 266.6,89.4 		"/>
		<polygon class="st12" points="247.6,86 247.4,85.3 247.6,86 		"/>
		<polygon class="st12" points="247.4,85.1 247.3,84.4 247.4,85.1 		"/>
		<polygon class="st12" points="248.1,86.8 247.7,86.3 248.1,86.8 		"/>
		<polygon class="st12" points="290.5,91.9 290,91.8 290.5,91.9 		"/>
		<polygon class="st12" points="289.6,91.7 289.3,91.6 289.6,91.7 		"/>
		<polygon class="st12" points="261.2,88.6 261,88.5 261.2,88.6 		"/>
		<polygon class="st12" points="264.7,89.1 264.5,89 264.7,89.1 		"/>
		<polygon class="st12" points="259.6,88.4 259.4,88.2 259.6,88.4 		"/>
		<polygon class="st12" points="255.8,87.9 255.5,87.7 255.8,87.9 		"/>
		<polygon class="st12" points="268.3,89.6 268,89.5 268.3,89.6 		"/>
		<polygon class="st12" points="269.9,89.8 269.6,89.7 269.9,89.8 		"/>
		<path class="st14" d="M288.6,66.6l0.1,0.7l-0.9,0.7L246,62.3l-1.5-1.3l-0.6-6.1l0.6-2.1l-0.2-0.2l-0.4-0.1l0.2-0.3l0.4-1.1
			l-0.3-15.7l0.5-0.4l31.7,2.8l0.3,0.3l11.2,0.9l0.8,0.3l0,0l0,27l-0.4-0.2L288.6,66.6l-1.4,0.1l1,0.9L288.6,66.6L288.6,66.6z
			 M284.2,66l1.6-0.4l0.6,0.7l0.3-0.6l1.2,0l0.7-0.4l0.1-23.8l-0.4-0.2l-1.1,0.2l-10.6-1.1l-0.9-0.3l-0.6,0l-1.9-0.7l-0.1-0.2
			L273,39l-0.7,0.3l-0.1,0.1l-0.2,0l-0.9,0.6l-0.3-0.1l-1.5-0.1l-0.8,0.3l-0.7-0.2l-1.3-0.1l-0.4-0.2l0.3-0.2l1.2,0l0.7-0.7l-0.5-1
			l-1.8-0.2l-0.8,1l-0.3-0.6l-0.1,0.2l-0.2,0.1l0-0.6l-0.6-0.4l-0.3,0.5l0,1l-0.3,1.4l0.9,1.8l-0.3,0.3l-0.3,0l0,0l-0.1-0.7
			l-0.2,0.1l-0.2,0.7l-1-1.4l0-0.4l-0.3,0.2l-0.7,0l0.2-0.5l0.1-0.4l-0.3,0.1l-0.4-0.2l-0.2-1.5l-0.1,0l0,2.2l-0.2,0.4l-0.3-0.2
			l0.3-0.5l0-1.7l-0.4-0.6l-0.5,0.5l-0.8,0l-0.1,0.2l0.1,1.7l0.7,0.4l0.1-2.1l0.4,2.2l-0.5,1.2l0.1,1.8l0.5,0.8l-0.8-0.3l-0.1-1.3
			l0-0.2l-0.3,0l-0.5,0.6l-0.9,0.3l-0.3,0.4l-0.2,0.1l0.2,0.2l0.4,0.5l-1.4-1l0.6-0.2l-1.1-0.7l-1.2-1.7l-0.1-0.8l-1.8-1l-0.3-0.1
			l-1.2,0.1l-0.7,0.2l-0.9,0l-0.3,0.4l0,1.7l0.2,0.6l0.2-0.7l0.4,1.4l1-0.4l2.5,1l0.6-1l0.3,0.1l-0.1,0.7l0.6,1.2l-1.1-0.3l-0.6,0
			l0,1.4l-0.2,1.1l0,0.3l0.4,0.1l0.3,0.3l-0.3,0.2l-4.3-0.7l-0.8,0.2l0.1,0.5l-0.2,0.1l-0.6,0l-0.3,0.9l0.1,1l0.5,0.6l0,0.4l-0.8,1
			l-1.3,0.1l-0.4,2.1l-0.2,0.5l0,4.3l1.3,1.4l11.4,1.2l1.9,0.7l1,0.1l0.5-0.1l1.2-0.4l0.9,0l0.5-0.2l0.6,1.4l0.1-0.6l0.2-0.4
			l0.4,1.8l1.9,0.4l1.8-0.7l1.5,0.1l2.8,0.9l1.2-0.5l0.5,0.5l3.7,0.4l0.6,0.6l0,0.5l0.4,0l0.5-0.4l0.2-0.1l2.8,0.5l0.3-0.2l0.6-0.2
			l0.4,0.6l0,0l0,0l-0.6-0.2l0.2,0.6L284.2,66L284.2,66z M258.3,39l0-1.2l-0.5-0.4l-0.4,0.2l0.1,2.3l0.5,0.3l0.2-0.4L258.3,39
			L258.3,39z"/>
		<polygon class="st13" points="243.8,62.5 242.3,62.5 241.6,61.3 240.5,35.5 241.5,34.7 243.5,35 243.9,35.6 243.5,40.9 
			242.8,43.1 242.8,53.4 241.9,55.1 242.1,60.9 243.1,62.3 243.8,62.5 		"/>
		<polygon class="st13" points="263.3,36.6 239.5,34.2 238.9,34.4 238.5,34.3 238.6,33.9 240,33.8 289.5,38.5 290.1,39.5 
			289.2,39.9 288.8,39.2 288,38.9 263.3,36.6 		"/>
		<polygon class="st11" points="262.4,75.9 264.1,76 264.3,75.6 264.1,74.5 264.1,72.8 264.3,72.4 265.4,72.5 265.8,72.8 
			265.8,75.8 265.3,76.2 265.7,76.3 266.4,77.2 266.6,77.3 265.4,77.4 265.3,77 265.7,76.6 262.4,75.9 		"/>
		<polygon class="st13" points="264.3,19.5 265.9,18.8 267.5,18.9 267.8,19.1 267.5,19.4 266.9,19.3 264.3,19.5 		"/>
		<polygon class="st14" points="292.9,34.4 294.2,35.1 292.9,34.4 		"/>
		<polygon class="st11" points="294.8,80.1 294.3,80.6 293.2,80 289.2,79.7 288.7,80 288.2,79.5 286.9,79.6 271.3,77.3 270.8,77.3 
			267.2,77 267.5,76.8 267.9,76.7 268.4,76.7 269,76.8 269.4,76.6 269.9,76.5 280.1,78 280.4,77.8 280.7,77.8 282.1,78.3 
			283.9,78.5 284,78.4 284.6,78.3 294.4,79.4 294.7,79.7 294.8,80.1 		"/>
		<polygon class="st12" points="280.4,77.8 280.1,78 269.9,76.5 279.7,77.5 280.4,77.8 		"/>
		<polygon class="st12" points="293.1,79.4 284.6,78.3 285.2,78.2 292.6,79.2 293.1,79.4 		"/>
		<polygon class="st11" points="299.7,76.1 296.5,79.6 296.7,79.2 299.2,76.4 299.7,76.1 		"/>
		<polygon class="st12" points="266.6,77.3 266.4,77.2 265.7,76.3 265.3,76.2 265.8,75.8 266.4,75.8 267,77 266.6,77.3 		"/>
		<polygon class="st12" points="284,78.4 283.9,78.5 282.1,78.3 280.7,77.8 283.1,77.9 284,78.4 		"/>
		<polygon class="st12" points="269.4,76.6 269,76.8 268.4,76.7 269.4,76.6 		"/>
		<polygon class="st11" points="295.7,79.9 295,80 295.1,79.7 295.5,79.7 295.7,79.9 		"/>
		<polygon class="st12" points="294.4,79.4 293.4,79.4 294.4,79.4 		"/>
		<polygon class="st12" points="302.9,76.3 302,76.2 302.9,76.3 		"/>
		<polygon class="st12" points="295.7,79.9 295.5,79.7 296,79.7 295.7,79.9 		"/>
		<polygon class="st12" points="295.1,79.7 295,80 294.8,80.1 294.7,79.7 295.1,79.7 		"/>
		<polygon class="st12" points="303.9,76.4 303.4,76.4 303.9,76.4 		"/>
		<polygon class="st12" points="301.8,76.2 301.4,76.2 301.8,76.2 		"/>
		<polygon class="st12" points="267.9,76.7 267.5,76.8 267.9,76.7 		"/>
		<polygon class="st12" points="304.8,76.6 304.6,76.5 304.8,76.6 		"/>
		<polygon class="st12" points="245.7,81.6 246.2,84.6 245.9,87.1 245.7,87.3 244.4,87 244.3,86.8 244.3,86.2 243.9,85.9 243.7,86 
			243.9,86.4 242.4,86.4 243,86.8 241.6,86.5 240,85.7 239.4,85.7 237.9,84.9 237.4,84.3 237.1,81.2 237.7,80.8 242,81.4 
			243.1,81.2 245.4,81.4 245.7,81.6 		"/>
		<polygon class="st11" points="287.2,82.3 288.4,82.5 288.6,82.8 287.7,83.4 286.5,83.3 286.2,83.1 287.2,82.3 		"/>
		<polygon class="st11" points="292.3,83.2 291.9,83.8 291.3,83.9 290.2,83.7 290,83.6 290.7,82.9 292.1,83 292.3,83.2 		"/>
		<polygon class="st11" points="279.7,81.3 280.9,81.5 281,81.9 280.4,82.3 278.9,82.1 278.8,81.9 279.7,81.3 		"/>
		<polygon class="st13" points="259.2,84.1 259,84.6 256.7,83.7 256.8,83.5 257.5,83.4 257.7,83.6 258.3,83.5 258.6,83.4 
			259.2,83.8 259.2,84.1 		"/>
		<polygon class="st11" points="277.5,81 275.3,81.6 275.2,81.3 276.2,80.8 277.5,81 		"/>
		<polygon class="st11" points="262.2,79.4 260.9,79.2 260.7,79 261.7,78.4 262.7,78.6 262.9,78.9 262.2,79.4 		"/>
		<polygon class="st11" points="272.2,80.1 273.6,80.4 273.7,80.7 272.2,81.1 271.6,80.7 272.2,80.1 		"/>
		<polygon class="st11" points="265.2,79 266.2,79.1 266.5,79.3 266.3,79.6 264.4,79.8 264.3,79.5 265.2,79 		"/>
		<polygon class="st11" points="255.8,77.7 255.1,78.3 253.8,78.1 253.6,77.8 254.5,77.3 255.6,77.4 255.8,77.7 		"/>
		<polygon class="st11" points="250,77.3 252.1,76.9 252.3,77.1 251.5,77.7 250,77.3 		"/>
		<polygon class="st11" points="268.7,79.6 269.9,79.8 270.1,80 269.2,80.6 268.1,80.4 267.9,80.2 268,80 268.7,79.6 		"/>
		<polygon class="st12" points="245.4,75.7 243.2,76.2 243.1,76 244,75.5 245.4,75.7 		"/>
		<polygon class="st12" points="247.4,76.1 248.6,76.3 248.6,76.7 246.8,76.8 246.6,76.7 247.4,76.1 		"/>
		<polygon class="st11" points="257.1,78.6 257.8,77.9 259.2,78.1 259.3,78.3 258.6,78.8 257.1,78.6 		"/>
		<polygon class="st12" points="268.6,86.5 268.9,87.2 269.1,87 269.7,86.7 270.2,87 269.8,87.5 268.8,87.5 268.1,86.9 268.6,86.5 
					"/>
		<polygon class="st13" points="264.7,85.3 263.5,84.6 263.7,84.3 264.4,85 264.9,84.8 265.2,84.5 265.4,84.8 265.1,85.3 
			264.7,85.3 		"/>
		<polygon class="st12" points="267.7,85.4 268.1,85 268.9,85.1 269.4,85.6 269.3,85.9 268.1,85.7 267.7,85.4 		"/>
		<polygon class="st13" points="256.4,83.6 256.1,84.2 255.5,83.5 255.8,83 256.4,83.6 		"/>
		<polygon class="st13" points="262.1,84.2 262.7,84.2 263.1,84.4 263.1,85 262.6,84.7 262,84.7 262,84.6 262,84.6 262,84.7 
			261.6,84.8 261.5,84.4 262.1,84.2 		"/>
		<polygon class="st12" points="273.4,88 272.7,87.5 273.2,87.2 273.9,87.6 273.4,88 		"/>
		<polygon class="st12" points="266.8,85.3 265.8,85.4 265.8,84.7 267.3,84.9 267.3,85.1 266.9,85.3 266.8,85.3 		"/>
		<polygon class="st11" points="283.1,82.7 282.6,82.6 282.9,82.2 283.1,81.9 284.6,82.4 284.3,82.9 284.1,82.8 284.1,82.6 
			283.6,82.7 283.1,82.7 		"/>
		<polygon class="st12" points="271.9,86.9 272.5,87.5 272.2,88 271.5,87.4 271.9,86.9 		"/>
		<polygon class="st12" points="264.4,86.1 264.8,86 265.4,86.4 265.3,86.8 264.7,86.9 264.4,86.7 264.4,86.1 		"/>
		<polygon class="st13" points="260.5,84.8 259.5,84 259.7,83.6 259.9,83.9 260.5,84.4 261.1,84.4 261,84.6 260.5,84.8 		"/>
		<polygon class="st12" points="260.7,85.9 261.2,85.5 261.8,86 261.5,86.3 260.7,85.9 		"/>
		<polygon class="st12" points="266.7,86.8 265.6,86.8 265.6,86.3 266,86.2 266.7,86.6 266.7,86.8 		"/>
		<polygon class="st12" points="239.4,80.6 238.9,80.7 237.1,80.4 236.8,80.2 239.4,80.6 		"/>
		<polygon class="st11" points="274.7,86.1 275.3,86.5 274.9,86.8 274.4,86.4 274.7,86.1 		"/>
		<polygon class="st12" points="266.9,86.5 267.2,86.3 267.2,86.7 267.4,87 267.6,86.7 267.6,86.5 267.9,87 267.5,87.3 266.9,87 
			266.9,86.5 		"/>
		<polygon class="st11" points="264.4,86.1 264.4,86.7 264.1,86.7 263.5,85.8 264.4,86.1 		"/>
		<polygon class="st13" points="271.4,85.6 272.2,85.7 272.5,86 272.3,86.3 271.8,86.3 271.4,85.6 		"/>
		<polygon class="st12" points="262.7,86.5 262,86.2 262,85.8 262.7,85.8 262.7,86.5 		"/>
		<polygon class="st12" points="263.5,85.8 264.1,86.7 263.1,86.4 263.1,86 263.5,85.8 		"/>
		<polygon class="st12" points="284.6,82.4 283.1,81.9 283.1,81.9 283.4,81.9 284.5,82.1 284.6,82.4 		"/>
		<polygon class="st12" points="248.1,83 247.8,82.9 247.7,82.1 247.9,81.8 248.1,82.1 248.1,83 		"/>
		<polygon class="st11" points="254.9,75 256.1,74.9 256.6,75.1 256.2,75.3 254.9,75 		"/>
		<polygon class="st13" points="269.7,85.7 269.9,85.3 270.3,85.6 270,86.1 269.7,85.7 		"/>
		<polygon class="st11" points="257.5,85.7 257,85.5 257.2,85 257.6,85.4 257.5,85.7 		"/>
		<polygon class="st12" points="259.1,86.1 258.6,86 258.6,85.4 259.3,85.3 259.1,86.1 		"/>
		<polygon class="st11" points="247.3,83.2 247.1,83.2 247.2,82.1 247.3,83.2 		"/>
		<polygon class="st12" points="255.9,85.7 255.6,84.9 255.8,84.8 256.1,85.2 255.9,85.7 		"/>
		<polygon class="st12" points="242.6,81.1 241.3,80.9 242.6,81.1 		"/>
		<polygon class="st12" points="241,80.8 239.8,80.7 241,80.8 		"/>
		<polygon class="st12" points="262.1,84.2 261.5,84.4 261.5,83.9 262.1,84.2 		"/>
		<polygon class="st13" points="270.8,86.1 270.6,85.7 270.9,85.5 271.1,85.9 270.8,86.1 		"/>
		<polygon class="st11" points="267.6,86.5 267.6,86.7 267.4,87 267.2,86.7 267.2,86.3 267.6,86.5 		"/>
		<polygon class="st11" points="263.1,86 263.1,86.4 262.7,86.5 262.7,85.8 263.1,86 		"/>
		<polygon class="st11" points="258.6,85.4 258.6,86 258,85.8 258.3,85.4 258.6,85.4 		"/>
		<polygon class="st11" points="260.6,75.6 261.7,75.9 260.6,75.6 		"/>
		<polygon class="st11" points="259.1,86.1 259.3,85.3 259.4,86.1 259.1,86.1 		"/>
		<polygon class="st12" points="258.3,85.4 258,85.8 257.5,85.7 257.6,85.4 257.9,85.3 258.3,85.4 		"/>
		<polygon class="st12" points="275.6,89.6 274.5,89.4 275.6,89.6 		"/>
		<polygon class="st11" points="253.5,74.6 254.4,74.8 253.5,74.6 		"/>
		<polygon class="st12" points="277.3,89.8 276.3,89.7 277.3,89.8 		"/>
		<polygon class="st11" points="252.6,74.5 253.1,74.6 252.6,74.5 		"/>
		<polygon class="st11" points="259.6,75.4 260.3,75.6 259.6,75.4 		"/>
		<polygon class="st11" points="257.8,75.1 258.3,75.5 257.8,75.1 		"/>
		<polygon class="st12" points="283.6,82.7 284.1,82.6 284.1,82.8 283.6,82.7 		"/>
		<polygon class="st11" points="280.7,90.3 280.2,90.2 280.7,90.3 		"/>
		<polygon class="st11" points="258.8,75.4 259.4,75.4 258.8,75.4 		"/>
		<polygon class="st11" points="266.9,86.5 266.9,87 266.7,86.8 266.7,86.6 266.9,86.5 		"/>
		<polygon class="st11" points="245.7,81.6 245.4,81.4 245.8,81.6 245.7,81.6 		"/>
		<polygon class="st11" points="244.3,81.3 244,81.2 244.3,81.3 		"/>
		<polygon class="st12" points="271.7,89 271.3,89 271.7,89 		"/>
		<polygon class="st12" points="273.3,89.3 272.9,89.2 273.3,89.3 		"/>
		<polygon class="st12" points="273.9,89.4 273.5,89.3 273.9,89.4 		"/>
		<polygon class="st12" points="283.1,82.7 283.5,82.7 283.1,82.7 		"/>
		<polygon class="st11" points="283.4,81.9 283.1,81.9 283.4,81.9 		"/>
		<polygon class="st11" points="284,82 283.8,81.9 284,82 		"/>
		<polygon class="st11" points="254.4,74.8 254.6,75 254.4,74.8 		"/>
		<polygon class="st12" points="269.9,88.8 269.6,88.7 269.9,88.8 		"/>
		<polygon class="st12" points="270.4,88.9 270.2,88.8 270.4,88.9 		"/>
		<polygon class="st12" points="236.5,72.2 236.6,72.3 236.4,72.3 236.5,72.2 		"/>
		<path class="st13" d="M263.5,91.4l4.9,3.8l-0.6,2.2l-3.2,0.6l-3-2l-0.9-2.7L263.5,91.4L263.5,91.4z M265.2,92.7L265.2,92.7
			l-1.2-0.4l-0.6,0.3l-0.6,1.2l-0.2,1.1l1.7,2l2.8-0.5l0.3-0.5l-1-2.1L265.2,92.7L265.2,92.7z"/>
		<polygon class="st13" points="238,96 237.5,95.1 238.1,96 238,96 		"/>
		<path class="st15" d="M248.3,47.3l-0.1-0.5l0.8-0.2l2.7,0.5l0.4,0l1.1,0.2l0.3-0.2l-0.3-0.3l-0.4-0.1l0-0.3l0.2-1.1l0-1.4l0.6,0
			l1.1,0.3l-0.6-1.2l0.1-0.4l0.2,0.3l4.7,2.9l0.2,0l-0.1-0.2l-1.8-1.3l-0.4-0.5l-0.2-0.2l0.2-0.1l0.3-0.4l0.9-0.3l0.5-0.6l0.3,0
			l0,0.2l0.1,1.3l0.8,0.3l-0.5-0.8l-0.1-1.8l0.5-1.2l0.3,0l0.3,0.2l0.2-0.4l0-2.2l0.1,0l0.2,1.5l0.4,0.2l0.3-0.1l-0.1,0.4l-0.2,0.5
			l0.7,0l0.3-0.2l0,0.4l1,1.4l0.2-0.7l0.2-0.1l0.1,0.7l0,0.1l0-0.1l0.3,0l0.3-0.3l-0.9-1.8l0.3-1.4l0,1.4l0.4,0.2l0.5-0.5l0-1.5
			l0.2-0.1l0.1-0.2l0.3,0.6l0.3,0.1l-0.3,0.6l0,0.9l0.2,0.2l3,0.2l0-0.4l0.8-0.3l1.5,0.1l0.3,0.1l0.9-0.6l0.2,0l0.2,1.8l0.7,0.6
			l0.2,0l-0.1-2.3l0,0l0,0l1.9,0.7l0.6,0l0.9,0.3l10.6,1.1l1.1-0.2l0.4,0.2l-0.1,23.8l-0.7,0.4l-1.2,0l-0.3,0.6l-0.6-0.7l-0.9,0.2
			l-0.1-0.2l0.1-0.4l-0.6,0.2l-0.2,0l-0.4-0.6l-0.6,0.2l-0.3,0.2l-2.8-0.5l-0.2,0.1l-0.5,0.4l-1-1l-3.7-0.4l-0.5-0.5l-1.2,0.5
			l-2.8-0.9l-1.5-0.1l-1.1,0.5l0-0.9l0.2-0.1l-0.3-0.2l-0.2-0.2l0-0.9l-0.3-0.1l-1.9-0.2l-0.2-0.1l-0.5,1.2l-0.1,0.6l-0.6-1.4
			l-0.5,0.2l-0.9,0l-1.2,0.4l-0.5,0.1l1.2-1.6l0.1-0.4l-0.1-0.3l-2.5-0.3l-0.3,0l-0.2-0.1l0.1,0.3l0,0.3l0.4,0.4l1.4,0.3l-1.1,1.3
			l-1.9-0.7l-11.4-1.2l-1.3-1.4l0-4.3l0.2-0.5l0.4-2.1l1.3-0.1l0.8-1l0-0.4l-0.5-0.6l-0.1-1l0.3-0.9l0.6,0l-0.2,1.8l0.1,0.1l0.5,0.6
			l1.5,0.2l0.7,0l0.5-1l-0.1-0.8l-0.6-0.8l-0.7-0.2L248.3,47.3L248.3,47.3z M265.2,52.1L265.2,52.1l0.3,0.2l1.7,0.6l0.8-0.1l7.8,4.5
			l0,0l0.3,0.3l0,0l0,0.1l2.4,1.5l0.2-0.1l-1.2-0.9l-0.1-0.3l-0.1,0.1l-1.7-1.7l-1.2-0.7l0.2-0.5l-0.7-0.4l-0.3,0.4l-5.6-3.3
			l0.2-0.6l0.4-0.1l0.7,0.6l1.9,0.9l-2.8-2.5l-0.2,0.4l-0.2-0.5l-0.1-0.8l-0.5-0.8l-0.4-0.1l-1.3,0.1l-3,2.7l-0.1-0.1l-0.5-0.1
			l-4.5,2.6l-0.5,1.2l-2.5,1.2l-0.3,0.3l0.4,0l4.4-2.2l1.7-0.5l0,0.8l0.2,0.5l0.2,0.1l1-0.1l0.1,0.1l0.1,0.2l0.1-0.1L263,55l2.8,0.5
			l0.6-0.1l0.5,0l0.4,0.1l0.5-0.1l1.4,0.4l1.7,0.1l0.1-0.6l-0.4,0.1l-0.7-0.3l-2.4-0.3l-0.7,0.2l-0.6-0.4l-3.1-0.2l-0.7-0.8
			l-0.7-0.1l0.8-0.6l0.4-0.1l0.9-0.8l0.3-0.1l0.7,0L265.2,52.1L265.2,52.1z M279.1,43.4l0.1-0.1l0.3,0l0.1,0l1.2-0.2l0.6,0.1l0,0.3
			l-1.4,0.1l-0.9,0.3l-0.1,0.2l0,0.7l0.7,0.3l2.4,0.2l0.4-0.4l-0.6-0.5l0.3-0.7l0-0.7l-0.1-0.2l0-0.1l-0.8-0.3l-1.7-0.1l-0.3,0.1
			l-0.3,0.5l0.1,0.5l-0.1,0.1L279.1,43.4L279.1,43.4z M273.7,61.7L273.7,61.7l0.1-0.8l-1-0.3l-0.9-0.1l-1.1,0.9l0.7,0.5l1.2,0.1
			l0.4,0.5l-0.5,0.3l-1.3-0.4l-0.5,0l0.2,0.5l0.8,0.3l1.7,0.1l0.2-0.1l0.1-0.2l0.1-0.5L273.7,61.7L273.7,61.7z M252,49.3l6.2,0.6
			l0.5-0.2l-0.4-0.3l-2.7-0.3l-0.4-0.3l-2.6-0.1l-0.8,0.3L252,49.3L252,49.3z M278.3,44.7l-0.4,0.1l-4.3,2.1l-0.3,0.4l0.5,0l3.8-1.7
			l1-0.8L278.3,44.7L278.3,44.7z M284.1,51.8l-0.2,0.4l-0.8-0.1l-0.6,0.8l-0.1-0.1l-0.1-0.2l-0.2,0.1l-0.2,0l-0.3-0.1l0.1,0.6
			l0.8,0.5l2.2,0.1l0.2-0.2l0.2-0.7l-0.3-0.7l0-0.1l0.3-0.1l-0.3-0.1l0-0.7l-0.2,0.1l-0.6-0.3L282,51l-0.4,0.2l0.2,0.5l0.3,0.1
			l0.6-0.2l0.5,0l0.6,0.1L284.1,51.8L284.1,51.8z M251.6,55.5l-0.8,1l-0.1,0.6l0.5,1l1.6,0.2l0.7-1l0-0.7l-0.5-0.9L251.6,55.5
			L251.6,55.5z M279,60.4l0.5,0.5l1.3,0.2l0.5,0.3l0.7,0l0.2-0.2l0-0.5l-0.3-0.5l0-0.9l-0.2-0.3l-1.6,0.2l-0.8,0.5L279,60.4
			L279,60.4z M274.7,51.1L274.7,51.1l-0.6,0l-0.5,0.2l0.5,0.4l6.2,0.6l0.6-0.3l-0.5-0.4L274.7,51.1L274.7,51.1z M271.3,52.6l2.1,1.6
			l0.1-0.4l-0.1-0.3L271.3,52.6L271.3,52.6z M266.2,41.9L266.2,41.9l0-0.8l-0.3-0.3l-0.2,0.3l0,1.6l0.2,0.3l0.2-0.3L266.2,41.9
			L266.2,41.9z M266.1,59.1L266.1,59.1l0,0.8l0.3,0.3l0.3-0.3l-0.1-1.6l-0.3-0.2l-0.2,0.3L266.1,59.1L266.1,59.1z M260.5,41.9
			L260.5,41.9l-0.4-0.3l-0.4,0.4l1.2,1.3l0.3,0l0-0.3l-0.5-0.7L260.5,41.9L260.5,41.9z M261.9,42.6l-0.8-1.5l-0.3,0l0,0.3l0.8,1.4
			l0.3,0.1L261.9,42.6L261.9,42.6z M262.3,57.6l-0.1-0.3l-0.2,0.1l-0.7,1.1l0,0.2l0.3,0L262.3,57.6L262.3,57.6z M271.1,42.4
			l-0.1-0.3l-0.3,0.1l-0.7,1.2l0.1,0.3l0.2,0L271.1,42.4L271.1,42.4z M271.4,59.6l-0.7-1.2l-0.3,0l0,0.2l0.6,1.2l0.2,0.1L271.4,59.6
			L271.4,59.6z M274.8,50.9l0.6-0.3l-0.4-0.3l-0.7,0.3L274.8,50.9L274.8,50.9z M275,54.3l-1-0.5l-0.1,0.3l0.9,0.5L275,54.3L275,54.3
			z M271.8,55.4l-0.4-0.2l-0.2,0.1l0.3,0.6L271.8,55.4L271.8,55.4z M257.5,50.3l-0.5,0.2l0.4,0.3l0.6-0.3L257.5,50.3L257.5,50.3z
			 M271,44.4l0.6-0.7l-0.1-0.2l-0.7,0.7L271,44.4L271,44.4z M260.6,43.6l-0.1-0.2l-0.7-0.5l0.3,0.6l0.2,0.2l0.2,0L260.6,43.6
			L260.6,43.6z M257.6,46.5l-0.2,0.3l0.8,0.5l0.2-0.2L257.6,46.5L257.6,46.5z M273.9,48.1l0.7-0.4l-0.3-0.2l-0.7,0.4L273.9,48.1
			L273.9,48.1z M269.7,58.5l-0.1,0l0.1,0.7l0.3,0.2l0.1-0.1L269.7,58.5L269.7,58.5z M265.6,59.1l-0.2-0.4l-0.3,0.5l0.2,0.4
			L265.6,59.1L265.6,59.1z M259.3,45l0.1-0.2l-0.7-0.7l-0.2,0.2L259.3,45L259.3,45z M271.7,57.2l0.3,0.7l0.5,0.3l-0.2-0.5
			L271.7,57.2L271.7,57.2z M273,45l-0.1-0.1l-0.6,0.3l-0.2,0.4l0.1,0.1L273,45L273,45z M272.4,56.7l-0.2,0.2l0.7,0.8l0.2-0.2
			L272.4,56.7L272.4,56.7z M262.7,58.7l0.4-0.8l-0.1-0.2l-0.5,0.7L262.7,58.7L262.7,58.7z M268.8,58.7l-0.1,0.1l0.4,0.9l0.2,0
			l-0.1-0.6L268.8,58.7L268.8,58.7z M263.9,58.4l-0.1-0.2l-0.5,0.4l0,0.4l0.3,0L263.9,58.4L263.9,58.4z M273,46.4l0.6-0.5l-0.2-0.2
			l-0.7,0.6L273,46.4L273,46.4z M260.3,55.6l-0.2-0.3l-0.7,0.6l0.2,0.2L260.3,55.6L260.3,55.6z M267,41.8l-0.2-0.4l-0.3,0.5l0.2,0.4
			L267,41.8L267,41.8z M267.4,59.4l-0.3-0.5l-0.2,0.4l0.3,0.5L267.4,59.4L267.4,59.4z M257.9,45.8l-0.3,0.2l0.7,0.5l0.2-0.2
			L257.9,45.8L257.9,45.8z M274.6,49.9l0.7-0.3l-0.2-0.2l-0.8,0.2L274.6,49.9L274.6,49.9z M257.6,48.9l0.4-0.2l-0.7-0.3l-0.3,0.2
			L257.6,48.9L257.6,48.9z M274.8,52.2l-0.4,0.2l0.7,0.3l0.3-0.2L274.8,52.2L274.8,52.2z M268.9,42.2l-0.2-0.3l-0.4,0.7l0.1,0.2
			L268.9,42.2L268.9,42.2z M273.2,56.2l-0.2,0.1l0.7,0.6l0.2-0.2L273.2,56.2L273.2,56.2z M257.7,51.6l0.5-0.3l-0.3-0.2l-0.6,0.3
			L257.7,51.6L257.7,51.6z M274.8,53.6l0.4-0.2l-0.6-0.4l-0.2,0.2L274.8,53.6L274.8,53.6z M257.5,47.5l-0.3,0.2l0.7,0.4l0.2-0.2
			L257.5,47.5L257.5,47.5z M272.3,44.3l-0.2-0.2l-0.6,0.6l0.2,0.2L272.3,44.3L272.3,44.3z M271.2,57.8l-0.1,0.3l0.5,0.6l0.1-0.2
			L271.2,57.8L271.2,57.8z M257.8,52.6l0.7-0.3l-0.2-0.2l-0.8,0.3L257.8,52.6L257.8,52.6z M269.8,42.6l-0.2-0.2l-0.4,0.6l0.2,0.3
			L269.8,42.6L269.8,42.6z M264.7,58.8l-0.2-0.4l-0.3,0.6l0.2,0.3L264.7,58.8L264.7,58.8z M261.6,56.9l-0.2-0.3l-0.5,0.5l0.2,0.2
			L261.6,56.9L261.6,56.9z M260.9,55.9l-0.7,0.7l0.2,0.1L260.9,55.9L260.9,55.9z M259.1,55.3l0.6-0.5l-0.2-0.2l-0.6,0.5L259.1,55.3
			L259.1,55.3z M265.2,41.8l-0.2-0.6l-0.2,0.4l0.2,0.6L265.2,41.8L265.2,41.8z M267.6,42.1l0.2,0.4l0.2-0.4l-0.1-0.4L267.6,42.1
			L267.6,42.1z M274.3,48.9l0.6-0.3l-0.2-0.1l-0.7,0.3L274.3,48.9L274.3,48.9z M262.6,42.5l-0.2-0.4l-0.2-0.3l0,0.4L262.6,42.5
			L262.6,42.5z M268.4,59.5l-0.4-0.6l-0.1,0.2l0.3,0.6L268.4,59.5L268.4,59.5z M276.3,55.6l-0.6-0.2l0,0.1L276.3,55.6L276.3,55.6z
			 M275.2,55l0.2-0.1l-0.2-0.2l-0.1,0.1L275.2,55L275.2,55z M281.5,52.3L281.5,52.3l0-0.1L281.5,52.3L281.5,52.3L281.5,52.3z"/>
		<path class="st15" d="M250.3,39.4l0.7-0.2l1.2-0.1l0.3,0.1l1.8,1l0.1,0.8l1.2,1.7l1.1,0.7l-0.6,0.2l-2.1-1.2l-0.6,1l-2.5-1l-1,0.4
			l-0.2-0.6l0.8-0.2L250.3,39.4L250.3,39.4z M253.7,41.4l-0.1-0.8l-0.8-1l-0.5-0.2l-0.6,0l-0.9,0.9l0,1.2l0.1,0.2l0.8,0.5l1.1,0.3
			l0.7-0.3l0.2-0.2L253.7,41.4L253.7,41.4z"/>
		<path class="st12" d="M267.5,61.9l0.2,0.2l0.2,0.3l0,0.9l-0.8,0.2l-1.9-0.4l-0.4-1.8l0.3-0.6l0.2-0.1l1.9,0.2l0.3,0.1l0.1,0.6
			l-1.9-0.2l0,0.3l1.3,0.1L267.5,61.9L267.5,61.9z M266.6,62.9l0.5-0.2l-0.5-0.4l-0.7-0.1l-0.4,0.2l0.3,0.4L266.6,62.9L266.6,62.9z"
			/>
		<polygon class="st13" points="265.6,38.5 265.3,38.5 266.1,37.5 267.9,37.7 268.4,38.7 267.7,39.4 266.5,39.4 266.2,39.6 
			266.5,39.8 267.8,39.8 268.5,40.1 268.5,40.4 265.5,40.3 265.3,40.1 265.4,39.1 266.5,38.8 267.4,38.7 267.5,38.3 267.2,38.3 
			265.6,38.5 		"/>
		<path class="st13" d="M249.3,50.1l-0.9-0.2l-0.5-0.6l1.2,0.1l1.2-0.1l0.1-0.4l-0.2,0.1l-1.1,0l-1.1-0.5l0.1-1.2l0.2-0.1l1.3,0.1
			l0.7,0.2l0.6,0.8l0.1,0.8l-0.5,1l-0.7,0L249.3,50.1L249.3,50.1z M249.7,48.6l0.5-0.2l-0.5-0.4l-0.7-0.1l-0.4,0.2l0.3,0.4
			L249.7,48.6L249.7,48.6z"/>
		<polygon class="st12" points="261.9,59.4 262,59.7 261.9,60 260.7,61.7 259.7,61.6 260.7,60.2 260.5,59.8 259,59.5 259,59.2 
			259.1,59 261.9,59.4 		"/>
		<polygon class="st13" points="250.3,39.4 250.4,41.8 249.6,42 249.5,41.3 249.4,39.4 250.3,39.4 		"/>
		<polygon class="st13" points="264.8,38.2 264.8,39.7 264.3,40.3 263.9,40.1 263.9,37.7 264.2,37.2 264.7,37.7 264.8,38.2 		"/>
		<polygon class="st11" points="254.3,42.4 258.9,45.4 258.8,45.7 254.5,43 254.3,42.7 254.3,42.4 		"/>
		<polygon class="st13" points="260.2,40.5 259.8,40.5 259.5,38.1 260,37.7 260.4,38.3 260.4,40 260.2,40.5 		"/>
		<polygon class="st13" points="258.3,39 258.3,39.8 258.1,40.2 257.5,40 257.4,37.7 257.8,37.4 258.3,37.8 258.3,39 		"/>
		<polygon class="st15" points="259.5,38.1 259.5,38.4 259.3,40.5 258.6,40.1 258.5,38.4 258.6,38.2 259.5,38.1 		"/>
		<polygon class="st13" points="273.1,41.8 272.4,41.2 272.4,39.3 273,39 273.2,39.3 273.3,39.5 273.3,39.5 273.2,39.5 273.3,41.7 
			273.1,41.8 		"/>
		<polygon class="st15" points="288.6,66.6 288.2,67.6 287.2,66.7 288.6,66.6 288.6,66.6 		"/>
		<polygon class="st15" points="249.4,39.4 249.5,40.8 249.3,40.9 249.5,41.1 249.5,41.3 249.2,42 249.1,41.4 249.1,39.8 
			249.4,39.4 		"/>
		<polygon class="st12" points="247.5,35.2 250.9,35.5 247.5,35.2 		"/>
		<polygon class="st12" points="276.5,37.8 278.9,38 276.8,38 276.5,37.8 		"/>
		<polygon class="st12" points="281.5,38.3 283.9,38.5 281.5,38.3 		"/>
		<polygon class="st12" points="274,37.6 276.1,37.8 274,37.6 		"/>
		<polygon class="st12" points="251.4,35.5 253.6,35.7 251.4,35.5 		"/>
		<polygon class="st12" points="279.3,38 281.2,38.2 279.3,38 		"/>
		<polygon class="st12" points="272.4,39.3 272.4,41.2 272.3,39.4 272.4,39.3 		"/>
		<polygon class="st12" points="284.8,65.6 284.9,65.8 284.2,66 284.1,65.5 284.2,65.5 284.2,65.4 284.4,65.4 284.8,65.6 		"/>
		<polygon class="st15" points="284.1,65.5 284.2,66 283.7,65.8 283.5,65.2 284.1,65.5 		"/>
		<polygon class="st12" points="254.5,35.8 256.2,36 254.5,35.8 		"/>
		<polygon class="st12" points="286.6,38.7 288,38.9 286.6,38.7 		"/>
		<polygon class="st12" points="269.3,37.1 270.4,37.2 269.3,37.1 		"/>
		<polygon class="st12" points="279.1,64.8 279.5,65.2 279.1,65.3 279.1,64.8 		"/>
		<polygon class="st12" points="284.2,38.5 285.3,38.6 284.2,38.5 		"/>
		<polygon class="st12" points="285.5,38.6 286.4,38.7 285.5,38.6 		"/>
		<polygon class="st12" points="271.6,37.3 272.6,37.5 271.6,37.3 		"/>
		<polygon class="st12" points="257.9,36.1 258.7,36.2 257.9,36.1 		"/>
		<polygon class="st12" points="263.3,36.6 264.2,36.6 263.3,36.6 		"/>
		<polygon class="st12" points="270.6,37.2 271.4,37.3 270.6,37.2 		"/>
		<polygon class="st12" points="273,37.5 273.8,37.5 273,37.5 		"/>
		<polygon class="st12" points="260.5,36.3 261.2,36.4 260.5,36.3 		"/>
		<polygon class="st12" points="262,36.5 262.7,36.5 262,36.5 		"/>
		<polygon class="st12" points="259.3,36.2 260,36.3 259.3,36.2 		"/>
		<polygon class="st12" points="257.1,36 257.5,36.1 257.1,36 		"/>
		<polygon class="st12" points="266.1,36.8 266.6,36.9 266.1,36.8 		"/>
		<polygon class="st12" points="288.5,39.1 288.8,39.2 288.5,39.1 		"/>
		<polygon class="st12" points="273.2,39.3 273,39 273.2,39.3 		"/>
		<polygon class="st12" points="267.2,36.9 267.5,37 267.2,36.9 		"/>
		<polygon class="st12" points="262,84.7 262,84.6 262,84.6 262,84.7 262,84.7 		"/>
		<path class="st11" d="M265.5,92.9l1,0.9l0.2,2l0.2,0.2l0.2,0.4l-2.8,0.5l-1.7-2l0.2-1.1l0.1,0.7l1.1-1.4l0.7-0.5l0.5,0.1l0,0
			L265.5,92.9L265.5,92.9z M265.6,95l-0.1-0.4l-0.9-0.8l0.1,0.9l-0.1,0.4l-0.4-0.2l0.6,1.3l0.2-0.1l0.3-0.4l0.4,0l0.2-1.2l-0.2-0.2
			l-0.1,0.3L265.6,95L265.6,95z M263.3,95l-0.1-0.2L263,95l0.1,0.2L263.3,95L263.3,95z"/>
		<polygon class="st12" points="267.2,96.5 267,96.1 266.8,95.9 266.6,93.8 267.6,96 267.2,96.5 		"/>
		<polygon class="st14" points="264.7,92.6 264,93.2 262.9,94.5 262.8,93.9 263.1,93.2 263.9,92.7 263.5,92.6 264,92.3 264.4,92.3 
			264.7,92.6 		"/>
		<polygon class="st12" points="264.4,92.3 264,92.3 265.2,92.7 264.7,92.6 264.4,92.3 		"/>
		<polygon class="st11" points="263.5,92.6 263.9,92.7 263.1,93.2 263.5,92.6 		"/>
		<polygon class="st12" points="265.5,92.9 265.2,92.7 265.5,92.9 		"/>
		<polygon class="st12" points="268,51.7 275.6,56.3 275.9,56.7 275.8,57.2 268,52.7 266.6,52.3 266.3,52.3 265.7,52.4 265.4,52.3 
			265.2,52.1 265.2,52.1 264.7,51.8 264.1,51.6 263.8,51.8 263.7,52 262.8,52.7 262.4,52.9 262.1,52.9 259.8,53.7 259.1,54.2 
			258.6,54.4 257.8,53.5 261.8,51.5 264,50.9 264.2,50.2 265.3,48.7 267,49.2 265.8,49.1 266.3,49.6 265.8,49.7 266.3,49.6 
			267.8,51.2 268,51.7 		"/>
		<polygon class="st14" points="268,51.7 267.8,51.2 267.8,51.2 267,49.2 267,49.2 265.3,48.7 264.2,50.2 264,50.9 261.8,51.5 
			258.8,52.9 262.3,50.9 262.8,51.1 262.9,51.2 265.8,48.4 267.2,48.3 267.6,48.4 268.1,49.2 268.2,50 268.3,50.4 268.5,50.1 
			271.3,52.6 269.3,51.7 268.6,51.1 268.2,51.2 268,51.7 		"/>
		<path class="st12" d="M251.6,55.5l1.4,0.2l0.5,0.9l0,0.7l-0.7,1l-1.6-0.2l-0.5-1l0.1-0.6L251.6,55.5L251.6,55.5z M252,57.1
			l-0.6,0.2l0.6,0.4l0.6,0.1l0.3-0.2l-0.3-0.4L252,57.1L252,57.1z M252,56.1l-0.2,0l-0.4,0.2l0.3,0.4l0.3,0.1l0.9-0.2L252,56.1
			L252,56.1z"/>
		<path class="st12" d="M279,60.4l0.4-0.7l0.8-0.5l1.6-0.2l0.2,0.3l0,0.9l0.3,0.5l0,0.5l-0.2,0.2l-0.7,0l-0.5-0.3l-1.3-0.2L279,60.4
			L279,60.4z M281.2,60l-0.3-0.5l-1.1,0.7l1,0.3L281.2,60L281.2,60z"/>
		<polygon class="st12" points="272.1,63.3 271.5,63.1 271,62.9 270.8,62.4 271.3,62.4 272.6,62.7 273.1,62.5 272.8,62 271.5,61.9 
			270.8,61.4 271.9,60.5 272.8,60.6 273.8,60.9 273.2,61.1 271.9,61 271.5,61.2 271.9,61.4 273.7,61.7 273.9,62.5 273.8,63 
			273.7,63.2 273.5,63.3 272.1,63.3 		"/>
		<polygon class="st12" points="283.7,51.6 283.1,51.6 282.6,51.6 282.1,51.8 281.8,51.7 281.9,51 282,51 284.1,51.1 284.7,51.3 
			284.9,51.7 284.9,52 284.9,52.2 284.7,52.7 284.9,53.6 284.7,53.8 282.8,53.8 282.5,53.7 281.8,53.2 282,52.7 282.2,52.7 
			282.4,52.8 282.5,52.9 283.3,53.2 283.7,53.2 284.1,53.1 283.1,52.1 283.9,52.2 284.1,51.8 283.7,51.6 		"/>
		<polygon class="st14" points="274.7,51.1 280.4,51.7 280.9,52.1 280.3,52.4 274.1,51.9 273.6,51.4 274.1,51.2 274.7,51.2 
			274.7,51.1 		"/>
		<polygon class="st12" points="279.1,43.9 280,43.6 282.2,43.5 282.2,43.8 281.4,44.2 280.6,44.2 280,44.4 280.6,44.7 281.8,44.8 
			282.1,45.4 279.7,45.2 279,44.8 279,44.1 279.1,43.9 		"/>
		<polygon class="st14" points="266.4,55.4 265.8,55.5 263,55 263,54.4 266.1,54.5 266.7,54.9 266.4,55.4 		"/>
		<polygon class="st11" points="278.3,44.8 277.5,45.5 273.7,47.2 273.3,47.2 273.6,46.8 277.8,44.7 278.3,44.7 278.3,44.8 		"/>
		<polygon class="st14" points="267.4,54.7 269.8,55 270.5,55.4 270.8,55.3 270.8,56 269.1,55.8 267.7,55.4 267.8,55.2 267.2,55.2 
			267.4,54.7 		"/>
		<polygon class="st11" points="255.5,49.2 258.3,49.5 258.7,49.8 258.2,49.9 252,49.3 251.8,49.1 252.6,48.9 252.7,49 255,49.3 
			255.5,49.2 		"/>
		<polygon class="st11" points="257.8,53.5 258.6,54.4 254.9,56.2 254.5,56.2 254.7,55.9 257.3,54.7 257.8,53.5 		"/>
		<polygon class="st12" points="263,54.4 263,55 262.7,55.1 262.6,55 262.5,54.9 262.5,54.9 262.1,54 261.4,54.6 261.2,54.9 
			261,54.4 261,53.6 261.7,53.4 262.3,53.6 263,54.4 		"/>
		<polygon class="st11" points="275.8,57.2 275.9,56.7 278.6,58.9 278.5,59.1 276.2,57.5 276.3,57.5 276.1,57.5 276.2,57.5 
			275.8,57.2 275.8,57.2 		"/>
		<polygon class="st14" points="271.3,52.6 273.5,53.5 273.5,53.8 273.5,54.2 271.3,52.6 		"/>
		<polygon class="st14" points="282.1,45.4 281.8,44.8 280.6,44.7 280,44.4 280.6,44.2 281.4,44.2 282.2,43.8 281.9,44.5 282.5,45 
			282.1,45.4 		"/>
		<polygon class="st11" points="266.2,41.9 266.2,42.6 265.9,42.9 265.7,42.7 265.7,41.1 265.9,40.8 266.1,41.1 266.2,41.9 
			266.2,41.9 		"/>
		<polygon class="st14" points="266.1,59.1 266.1,58.4 266.2,58.1 266.5,58.3 266.6,60 266.4,60.2 266.1,59.9 266.1,59.1 
			266.1,59.1 		"/>
		<polygon class="st14" points="261.2,54.9 261.4,54.6 262.1,54 262.5,54.9 262.5,54.9 261.4,55 261.2,54.9 		"/>
		<polygon class="st14" points="273.7,61.7 271.9,61.4 271.5,61.2 271.9,61 273.2,61.1 273.8,60.9 273.7,61.7 		"/>
		<polygon class="st14" points="260.5,41.9 260.7,42.4 261.2,43.1 261.2,43.3 260.9,43.3 259.7,42 260.1,41.6 260.5,41.8 
			260.5,41.9 		"/>
		<polygon class="st11" points="261.9,42.6 261.8,42.9 261.6,42.8 260.7,41.4 260.8,41.1 261.1,41.1 261.9,42.6 		"/>
		<polygon class="st14" points="266.6,52.3 268,52.7 267.2,52.8 265.7,52.4 266.3,52.3 266.6,52.3 		"/>
		<polygon class="st14" points="255.5,49.2 255,49.3 252.7,49 252.6,48.9 255.1,48.9 255.5,49.2 		"/>
		<polygon class="st11" points="262.3,57.6 261.6,58.7 261.3,58.6 261.3,58.4 262,57.3 262.2,57.3 262.3,57.6 		"/>
		<polygon class="st14" points="261.7,53.4 259.3,54 259.8,53.7 262.1,52.9 262.4,52.9 261.7,53.4 		"/>
		<polygon class="st11" points="271.1,42.4 270.3,43.7 270.1,43.7 270,43.5 270.7,42.3 271,42.2 271.1,42.4 		"/>
		<polygon class="st14" points="267.1,38.7 266.5,38.8 265.4,39.1 265.6,38.5 267.2,38.3 266.1,38.5 267.1,38.7 		"/>
		<polygon class="st12" points="280.3,42.4 281.3,42.4 281.9,42.8 281.4,43.2 279.8,43 280.7,42.7 280.2,42.5 280.3,42.4 		"/>
		<polygon class="st11" points="271.4,59.6 271.3,59.8 271.1,59.8 270.4,58.6 270.4,58.4 270.7,58.4 271.4,59.6 		"/>
		<polygon class="st13" points="280.2,42.5 280.7,42.7 279.8,43 279.8,43 279.6,43.3 279.3,43.3 279,43.1 278.9,42.9 279.2,42.4 
			279.6,42.4 280.2,42.5 		"/>
		<polygon class="st14" points="274.8,50.9 274.3,50.6 275.1,50.3 275.4,50.6 274.8,50.9 		"/>
		<polygon class="st11" points="267.4,54.7 267.2,55.2 267.8,55.2 267.7,55.4 267.2,55.5 266.9,55.4 266.4,55.4 266.7,54.9 
			267.4,54.7 		"/>
		<polygon class="st13" points="281.4,43.2 281.9,42.8 281.9,42.8 282.2,43.1 282.2,43.5 281.4,43.6 281.4,43.2 		"/>
		<polygon class="st14" points="248,48.6 249.1,49.1 249.1,49.5 247.9,49.4 247.8,49.2 248,48.6 		"/>
		<polygon class="st14" points="275,54.3 274.9,54.6 274,54.1 274,53.8 275,54.3 		"/>
		<polygon class="st14" points="274.5,55.5 273.7,55 273.9,54.6 274.6,55 274.5,55.5 		"/>
		<polygon class="st14" points="283.3,53.2 282.5,52.9 283.1,52.1 283.7,52.7 283.3,53.2 		"/>
		<polygon class="st11" points="271.8,55.4 271.4,56 271.1,55.3 271.4,55.2 271.8,55.4 		"/>
		<polygon class="st14" points="257.5,50.3 258,50.5 257.4,50.8 257,50.5 257.5,50.3 		"/>
		<polygon class="st14" points="259,59.5 260.5,59.8 260.7,60.2 259.4,59.9 259,59.5 		"/>
		<polygon class="st14" points="271,44.4 270.7,44.1 271.4,43.4 271.5,43.6 271,44.4 		"/>
		<polygon class="st14" points="260.6,43.6 260.5,43.8 260.2,43.8 260,43.6 259.7,42.9 260.4,43.4 260.6,43.6 		"/>
		<polygon class="st14" points="257.6,46.5 258.3,47 258.1,47.3 257.3,46.8 257.6,46.5 		"/>
		<polygon class="st14" points="273.9,48.1 273.6,47.9 274.3,47.5 274.6,47.7 273.9,48.1 		"/>
		<polygon class="st14" points="269.7,58.5 270.1,59.4 270,59.5 269.7,59.2 269.6,58.5 269.7,58.5 		"/>
		<polygon class="st14" points="265.6,59.1 265.4,59.7 265.2,59.2 265.4,58.7 265.6,59.1 		"/>
		<polygon class="st14" points="259.3,45 258.5,44.3 258.7,44.2 259.4,44.8 259.3,45 		"/>
		<polygon class="st14" points="271.7,57.2 272.3,57.7 272.5,58.2 272,57.9 271.7,57.2 		"/>
		<polygon class="st14" points="273,45 272.3,45.7 272.1,45.6 272.3,45.2 272.9,44.9 273,45 		"/>
		<polygon class="st14" points="272.4,56.7 273.1,57.4 273,57.6 272.3,56.8 272.4,56.7 		"/>
		<polygon class="st14" points="262.7,58.7 262.5,58.4 263,57.7 263.1,57.9 262.7,58.7 		"/>
		<polygon class="st14" points="268.8,58.7 269.1,59 269.2,59.6 269,59.7 268.6,58.8 268.8,58.7 		"/>
		<polygon class="st14" points="263.9,58.4 263.7,59 263.4,58.9 263.3,58.6 263.8,58.1 263.9,58.4 		"/>
		<polygon class="st14" points="273,46.4 272.7,46.2 273.4,45.7 273.6,45.9 273,46.4 		"/>
		<polygon class="st14" points="260.3,55.6 259.6,56.1 259.4,55.9 260.1,55.3 260.3,55.6 		"/>
		<polygon class="st14" points="267,41.8 266.8,42.3 266.5,41.8 266.8,41.3 267,41.8 		"/>
		<polygon class="st14" points="267.4,59.4 267.2,59.9 267,59.3 267.2,58.9 267.4,59.4 		"/>
		<polygon class="st14" points="257.9,45.8 258.6,46.3 258.4,46.5 257.6,46 257.9,45.8 		"/>
		<polygon class="st14" points="274.6,49.9 274.3,49.6 275.1,49.4 275.3,49.6 274.6,49.9 		"/>
		<polygon class="st14" points="257.6,48.9 257,48.6 257.3,48.5 258,48.7 257.6,48.9 		"/>
		<polygon class="st14" points="274.8,52.2 275.4,52.5 275.1,52.6 274.4,52.4 274.8,52.2 		"/>
		<polygon class="st12" points="273.2,41.2 273.2,39.5 273.2,41.2 		"/>
		<polygon class="st14" points="268.9,42.2 268.5,42.8 268.3,42.6 268.7,41.9 268.9,42.2 		"/>
		<polygon class="st14" points="273.2,56.2 273.8,56.8 273.6,56.9 272.9,56.3 273.2,56.2 		"/>
		<polygon class="st14" points="257.7,51.6 257.3,51.5 257.9,51.2 258.2,51.4 257.7,51.6 		"/>
		<polygon class="st14" points="274.8,53.6 274.3,53.2 274.5,53 275.1,53.4 274.8,53.6 		"/>
		<polygon class="st14" points="257.5,47.5 258.1,47.9 257.9,48.1 257.2,47.7 257.5,47.5 		"/>
		<polygon class="st14" points="272.3,44.3 271.7,44.9 271.5,44.7 272.1,44.1 272.3,44.3 		"/>
		<polygon class="st14" points="271.2,57.8 271.7,58.4 271.6,58.7 271.1,58.1 271.2,57.8 		"/>
		<polygon class="st14" points="257.8,52.6 257.5,52.4 258.3,52.1 258.5,52.3 257.8,52.6 		"/>
		<polygon class="st14" points="280.1,45.2 281.6,45.4 280.1,45.2 		"/>
		<polygon class="st14" points="269.8,42.6 269.4,43.2 269.2,42.9 269.7,42.4 269.8,42.6 		"/>
		<polygon class="st14" points="284.9,53.6 284.7,52.7 284.9,52.2 285.1,52.9 284.9,53.6 		"/>
		<polygon class="st14" points="264.7,58.8 264.5,59.3 264.3,59.1 264.5,58.5 264.7,58.8 		"/>
		<polygon class="st14" points="261.6,56.9 261,57.4 260.9,57.2 261.4,56.6 261.6,56.9 		"/>
		<polygon class="st14" points="267.5,61.9 267,61.7 267,61.4 267.6,61.6 267.5,60.9 267.5,61.9 		"/>
		<polygon class="st14" points="260.9,55.9 260.3,56.7 260.2,56.6 260.9,55.9 		"/>
		<polygon class="st14" points="259.1,55.3 258.8,55.1 259.4,54.6 259.6,54.7 259.1,55.3 		"/>
		<polygon class="st14" points="265.2,41.8 265,42.2 264.8,41.6 265,41.2 265.2,41.8 		"/>
		<polygon class="st11" points="267.6,42.1 267.8,41.6 267.9,42 267.7,42.4 267.6,42.1 		"/>
		<polygon class="st14" points="274.3,48.9 274,48.7 274.7,48.5 274.9,48.6 274.3,48.9 		"/>
		<polygon class="st14" points="283.7,53.8 284.7,53.8 283.7,53.8 		"/>
		<polygon class="st11" points="262.6,42.5 262.2,42.1 262.2,41.7 262.5,42 262.6,42.5 		"/>
		<polygon class="st14" points="268.4,59.5 268.2,59.8 267.9,59.1 268,58.9 268.4,59.5 		"/>
		<polygon class="st14" points="265.9,40.3 267,40.4 265.9,40.3 		"/>
		<polygon class="st14" points="258.3,49.5 256.8,49.3 258.3,49.5 		"/>
		<polygon class="st14" points="279.8,43 280.8,43.1 279.7,43.3 279.8,43 279.8,43 		"/>
		<polygon class="st14" points="267.5,40.5 268.5,40.4 267.5,40.5 		"/>
		<polygon class="st14" points="272.3,39.7 272.3,40.8 272.3,39.7 		"/>
		<polygon class="st14" points="284.8,65.6 284.4,65.4 284.9,65.2 284.8,65.6 		"/>
		<polygon class="st14" points="258.2,44.9 257.5,44.4 258.2,44.9 		"/>
		<polygon class="st14" points="282,52.7 281.8,53.2 281.7,52.6 282,52.7 		"/>
		<polygon class="st14" points="279,44.8 279.7,45.2 279,44.8 		"/>
		<polygon class="st14" points="258.8,45.7 258.9,45.4 259.3,45.7 259.3,45.9 259.2,45.9 258.8,45.7 		"/>
		<polygon class="st14" points="262.8,52.7 263.3,52.3 262.8,52.7 		"/>
		<polygon class="st14" points="281.9,51 281.8,51.7 281.6,51.2 281.9,51 		"/>
		<polygon class="st14" points="248.4,50 249.1,50.1 248.4,50 		"/>
		<polygon class="st14" points="276.3,55.6 275.7,55.6 275.7,55.4 276.3,55.6 		"/>
		<polygon class="st14" points="251,49.2 250.9,48.3 251,49.2 		"/>
		<polygon class="st14" points="272.8,60.6 271.9,60.5 272.8,60.6 		"/>
		<polygon class="st14" points="281.9,42.8 281.3,42.4 282.1,42.8 281.9,42.8 281.9,42.8 		"/>
		<polygon class="st14" points="282.8,51 282,51 282.8,51 		"/>
		<polygon class="st14" points="273.9,62.5 273.7,61.7 273.9,62.5 		"/>
		<polygon class="st14" points="280.2,42.5 279.6,42.4 280.3,42.4 280.2,42.5 		"/>
		<polygon class="st14" points="279.2,42.4 278.9,42.9 279.2,42.4 		"/>
		<polygon class="st14" points="249.8,50.2 250.5,50.2 249.8,50.2 		"/>
		<polygon class="st14" points="250.3,47.5 249.6,47.4 250.3,47.5 		"/>
		<polygon class="st11" points="274.5,56.5 275,56.9 274.5,56.5 		"/>
		<polygon class="st14" points="253.6,49.4 254.2,49.6 253.6,49.4 		"/>
		<polygon class="st14" points="275.2,55 275,54.9 275.1,54.7 275.3,54.9 275.2,55 		"/>
		<polygon class="st14" points="258.7,45.3 258.2,44.9 258.7,45.3 		"/>
		<polygon class="st14" points="282.1,51.8 282.6,51.6 282.1,51.8 		"/>
		<polygon class="st14" points="284.9,51.7 284.7,51.3 284.9,51.3 284.9,51.7 		"/>
		<polygon class="st14" points="261.9,59.4 261.2,59.2 261.9,59.4 		"/>
		<polygon class="st14" points="264.1,51.6 264.7,51.8 264.1,51.9 264,51.8 264.1,51.6 		"/>
		<polygon class="st14" points="256.5,49.3 256.1,49.3 256.5,49.3 		"/>
		<polygon class="st14" points="283.9,52.2 283.4,52.1 283.9,52.2 		"/>
		<polygon class="st14" points="267.9,62.4 267.7,62.1 268.1,62.3 267.9,62.4 		"/>
		<polygon class="st14" points="283.1,51.6 283.5,51.6 283.1,51.6 		"/>
		<polygon class="st14" points="259.1,59 259,59.2 258.9,59 259.1,59 		"/>
		<polygon class="st14" points="283.7,51.6 284.1,51.8 283.7,51.6 		"/>
		<polygon class="st14" points="284.9,52.2 284.9,52 285.2,52.1 284.9,52.2 		"/>
		<polygon class="st14" points="259.7,59.1 259.4,59 259.7,59.1 		"/>
		<polygon class="st14" points="261.9,60 262,59.7 261.9,60 		"/>
		<polygon class="st14" points="267.2,60.8 266.9,60.8 267.2,60.8 		"/>
		<polygon class="st14" points="263.9,40.1 264.3,40.3 263.9,40.1 		"/>
		<polygon class="st12" points="275.8,57.2 276.2,57.5 275.8,57.2 		"/>
		<polygon class="st14" points="253,49.4 253.4,49.4 253,49.4 		"/>
		<polygon class="st14" points="266.9,55.4 267.2,55.5 266.9,55.4 		"/>
		<polygon class="st14" points="277.5,58.1 277.3,58 277.4,57.8 277.5,58.1 		"/>
		<polygon class="st12" points="279.8,43 279.7,43.3 279.6,43.3 279.6,43.3 279.8,43 		"/>
		<polygon class="st14" points="249.3,50.1 249.5,50.2 249.3,50.1 		"/>
		<polygon class="st12" points="281.9,42.8 282.1,42.8 282.1,42.9 282.1,43 281.9,42.8 		"/>
		<polygon class="st14" points="283.2,51 283,51 283.2,51 		"/>
		<polygon class="st14" points="251.8,49.1 252,49.3 251.8,49.1 		"/>
		<polygon class="st14" points="279.1,43.4 279,43.5 279,43.3 279.1,43.4 		"/>
		<polygon class="st14" points="282.1,43 282.1,42.9 282.2,43.1 282.1,43 		"/>
		<polygon class="st14" points="273.1,41.8 273.3,41.7 273.3,41.8 273.1,41.8 		"/>
		<polygon class="st14" points="263.7,52 263.8,51.8 264,51.8 264.1,51.9 263.7,52 		"/>
		<polygon class="st14" points="268.2,52.9 268.5,53 268.2,52.9 		"/>
		<polygon class="st11" points="258.4,53.2 258.1,53.3 258.4,53.2 		"/>
		<polygon class="st14" points="282.5,53.7 282.8,53.8 282.5,53.7 		"/>
		<polygon class="st14" points="265.2,52.1 265.4,52.3 265.2,52.1 		"/>
		<polygon class="st11" points="258.8,54.3 259.1,54.2 258.8,54.3 		"/>
		<polygon class="st14" points="272.9,54.6 272.6,54.4 272.9,54.6 		"/>
		<polygon class="st14" points="273.5,63.3 273.7,63.2 273.5,63.3 		"/>
		<polygon class="st14" points="272.1,63.3 272.3,63.3 272.1,63.3 		"/>
		<polygon class="st14" points="271.5,63.1 271.8,63.2 271.5,63.1 		"/>
		<polygon class="st14" points="273.8,63 273.9,62.8 273.8,63 		"/>
		<polygon class="st14" points="281.5,52.3 281.5,52.2 281.5,52.1 281.6,52.2 281.5,52.3 		"/>
		<polygon class="st14" points="265.3,60.6 265.1,60.7 265.1,60.6 265.3,60.6 		"/>
		<polygon class="st14" points="260.5,59.2 260.3,59.1 260.5,59.2 		"/>
		<polygon class="st14" points="284.4,51.2 284.1,51.1 284.4,51.2 		"/>
		<polygon class="st14" points="278.5,59.1 278.6,58.9 278.7,59 278.5,59.1 		"/>
		<polygon class="st14" points="265.3,40.1 265.5,40.3 265.3,40.1 		"/>
		<polygon class="st14" points="282.4,52.8 282.2,52.7 282.4,52.6 282.4,52.8 		"/>
		<polygon class="st14" points="279.1,43.9 279,44.1 279.1,43.9 		"/>
		<polygon class="st12" points="279.1,43.4 279,43.3 279,43.1 279.3,43.3 279.1,43.4 		"/>
		<polygon class="st14" points="278.3,44.8 278.3,44.7 278.5,44.7 278.3,44.8 		"/>
		<polygon class="st14" points="263.8,42.2 263.8,42.4 263.8,42.2 263.8,42.2 		"/>
		<polygon class="st12" points="276.1,57.5 276.3,57.5 276.2,57.5 276.1,57.5 		"/>
		<polygon class="st14" points="262.6,55 262.7,55.1 262.6,55.2 262.6,55 		"/>
		<polygon class="st14" points="265.1,52 265.2,52.1 265.1,52 		"/>
		<path class="st13" d="M251.8,42.3l-0.8-0.5l-0.1-0.2l0-1.2l0.9-0.9l0.6,0l0.5,0.2l0.8,1l0.1,0.8l-0.1,0.6l-0.2,0.2L251.8,42.3
			L251.8,42.3z M252.9,41l-0.8-0.8l-0.5,0.7l0.7,0.8L252.9,41L252.9,41z"/>
		<polygon class="st14" points="251.8,42.3 253.5,42.2 252.8,42.5 251.8,42.3 		"/>
		<polygon class="st14" points="253.7,41.2 253.7,40.6 253.7,41.2 		"/>
		<polygon class="st14" points="253.7,42 253.7,41.4 253.7,42 		"/>
		<polygon class="st14" points="252.9,39.6 252.4,39.5 252.9,39.6 		"/>
		<polygon class="st14" points="250.9,41.5 251,41.8 250.9,41.5 		"/>
		<polygon class="st14" points="266.6,62.9 265.9,62.8 265.6,62.4 266,62.2 266.7,62.3 267.1,62.7 266.6,62.9 		"/>
		<polygon class="st15" points="267,61.4 267,61.7 265.7,61.7 265.7,61.3 267,61.4 		"/>
		<polygon class="st14" points="265.7,61.3 265.7,61.7 265.7,61.3 		"/>
		<polygon class="st15" points="267.1,38.7 266.1,38.5 267.2,38.3 267.5,38.3 267.4,38.7 267.1,38.7 		"/>
		<polygon class="st14" points="267.4,38.7 267.5,38.3 267.4,38.7 		"/>
		<polygon class="st14" points="249.7,48.6 249,48.5 248.6,48.1 249,47.9 249.7,48 250.2,48.4 249.7,48.6 		"/>
		<polygon class="st15" points="249.1,49.5 249.1,49.1 250.2,49.1 250.2,49.4 249.1,49.5 		"/>
		<polygon class="st12" points="250.2,49.4 250.2,49.1 250.4,49 250.2,49.4 		"/>
		<polygon class="st14" points="249.5,41.1 249.3,40.9 249.5,40.8 249.5,41.1 		"/>
		<polygon class="st13" points="265.3,95.7 265,96.1 264.8,96.1 264.2,94.9 264.5,95.1 264.6,94.7 264.6,93.8 265.5,94.6 265.6,95 
			265.3,95.7 		"/>
		<polygon class="st14" points="265.3,95.7 265.8,94.2 266,94.4 265.7,95.7 265.3,95.7 		"/>
		<polygon class="st14" points="263.3,95 263.1,95.2 263,95 263.1,94.8 263.3,95 		"/>
		<polygon class="st11" points="264.4,92.3 264.6,92.5 264.4,92.3 		"/>
		<polygon class="st13" points="267.8,51.2 266.3,49.6 266.3,49.6 265.8,49.1 267,49.2 267,49.2 267.8,51.2 267.8,51.2 		"/>
		<polygon class="st11" points="266.3,49.6 265.8,49.7 266.3,49.6 266.3,49.6 		"/>
		<polygon class="st11" points="264,51.8 263.8,51.8 264.1,51.6 264,51.8 		"/>
		<polygon class="st11" points="266.6,52.3 266.3,52.3 266.6,52.3 		"/>
		<polygon class="st11" points="262.1,52.9 261.9,52.9 262.1,52.9 		"/>
		<polygon class="st12" points="267.8,51.2 267,49.2 267.8,51.2 		"/>
		<polygon class="st14" points="252,57.1 252.7,57.2 252.9,57.6 252.6,57.8 252,57.7 251.4,57.4 252,57.1 		"/>
		<polygon class="st14" points="252,56.1 252.8,56.5 252,56.7 251.7,56.6 251.4,56.3 251.8,56.1 252,56.1 		"/>
		<polygon class="st14" points="281.2,60 280.8,60.5 279.8,60.2 280.9,59.5 281.2,60 		"/>
		<polygon class="st15" points="283.3,53.2 283.7,52.7 284.1,53.1 283.7,53.2 283.3,53.2 		"/>
		<polygon class="st14" points="283.7,53.2 284.1,53.1 283.7,53.2 		"/>
		<polygon class="st14" points="252.9,41 252.4,41.7 251.6,40.9 252.1,40.2 252.9,41 		"/>
	</g>
</g>
</svg>
