<?xml version="1.0" encoding="utf-8"?>
<!-- Generator: Adobe Illustrator 15.0.0, SVG Export Plug-In . SVG Version: 6.00 Build 0)  -->
<!DOCTYPE svg PUBLIC "-//W3C//DTD SVG 1.1//EN" "http://www.w3.org/Graphics/SVG/1.1/DTD/svg11.dtd">
<svg version="1.1" id="Layer_1" xmlns="http://www.w3.org/2000/svg" xmlns:xlink="http://www.w3.org/1999/xlink" x="0px" y="0px"
	 width="612px" height="204.575px" viewBox="0 259.5 612 204.575" enable-background="new 0 259.5 612 204.575"
	 xml:space="preserve">
<g>
	<g>
		<polyline fill="#58595B" points="143.495,400.292 178.499,358.62 214.218,400.292 143.495,400.292 		"/>
		<g>
			<rect x="143.495" y="400.242" fill="#58595B" width="70.723" height="63.833"/>
			<rect x="0.029" y="344.426" fill="#58595B" width="55.361" height="119.649"/>
			<rect x="44.674" y="374.784" fill="#58595B" width="100.007" height="89.291"/>
			<rect x="210.175" y="410.949" fill="#58595B" width="100.007" height="53.126"/>
			<rect x="307.801" y="350.23" fill="#58595B" width="55.36" height="113.845"/>
			<rect x="450.076" y="337.282" fill="#58595B" width="69.648" height="126.793"/>
			<rect x="502.461" y="410.503" fill="#58595B" width="105.962" height="53.572"/>
			<rect x="578.067" y="374.784" fill="#58595B" width="33.933" height="89.291"/>
			<g>
				
					<rect x="362.602" y="421.987" transform="matrix(1 -0.0013 0.0013 1 -0.5763 0.5021)" fill="#58595B" width="45.765" height="42.046"/>
				<polyline fill="#58595B" points="362.579,422.18 385.196,395.186 408.344,422.122 362.579,422.18 				"/>
			</g>
			<g>
				
					<rect x="406.059" y="421.986" transform="matrix(1 -0.0013 0.0013 1 -0.5668 0.5496)" fill="#58595B" width="45.765" height="42.045"/>
				<polyline fill="#58595B" points="406.036,422.18 428.653,395.186 451.801,422.122 406.036,422.18 				"/>
			</g>
		</g>
	</g>
	<path fill-rule="evenodd" clip-rule="evenodd" fill="#595959" d="M116.732,431.78c-1.389-0.86-3.423-1.076-3.374-3.374
		c-3.868-41.508-13.273-91.638-2.023-132.263c3.113,0.415,3.883-1.515,6.748-1.35c2.133-1.846-2.133-2.877,0-4.723
		c3.079,0.605,3.824-1.124,6.072-1.35c-3.785-5.662-11.311-7.583-18.219-10.122c3.081-4.188-2.447-7.266-6.074-8.772
		c-0.436-2.939,0.88-7.628-0.675-9.447c0,3.374,0,6.748,0,10.122c-3.161,0.438-3.944,3.254-6.074,4.724
		c-1.887,0.868,2.126,1.396,1.35,3.374c-7.021,2.201-13.711,4.733-18.22,9.448c0.572,2.802,5.953,0.796,6.748,3.374
		c-0.051,1.734-3.144,0.965-1.35,2.699c2.367,1.232,5.533,1.665,8.098,2.699c9.263,44.029-0.351,91.258-5.398,132.938
		c-0.058,1.741-2.889,0.709-2.024,3.373c1.14,2.975,1.061,6.098,0.544,9.292c1.364-0.019,2.729-0.04,4.095-0.06
		c0.206-1.326,0.444-2.617,0.76-3.833c6.074,0,12.147,0,18.221,0c0.158,1.216,0.325,2.425,0.485,3.64
		c3.11,0.002,6.219,0.031,9.323,0.09C115.099,438.604,114.983,435.12,116.732,431.78z M93.114,296.818c1.35,0,2.7,0,4.049,0
		c0,10.572,0,21.145,0,31.716C94.939,318.836,94.668,307.186,93.114,296.818z M97.838,352.153
		c2.684,14.861,4.173,30.917,5.399,47.237c-3.825,0-7.649,0-11.472,0C93.393,383.248,96.209,368.295,97.838,352.153z M88.391,429.08
		c0.766-9.355,1.968-18.275,2.699-27.666c4.142,0.356,9.769-0.771,12.821,0.675c-0.099,9.546,0.994,17.9,1.35,26.991
		C99.637,429.08,94.014,429.08,88.391,429.08z M104.586,323.811c-2.67-6.777-0.783-18.112-1.349-26.993c1.799,0,3.598,0,5.397,0
		C107.829,306.359,107.355,316.232,104.586,323.811z"/>
</g>
</svg>
