<?xml version="1.0" encoding="utf-8"?>
<!-- Generator: Adobe Illustrator 15.0.0, SVG Export Plug-In . SVG Version: 6.00 Build 0)  -->
<!DOCTYPE svg PUBLIC "-//W3C//DTD SVG 1.1//EN" "http://www.w3.org/Graphics/SVG/1.1/DTD/svg11.dtd">
<svg version="1.1" id="Layer_1" xmlns="http://www.w3.org/2000/svg" xmlns:xlink="http://www.w3.org/1999/xlink" x="0px" y="0px"
	viewBox="286.833 371 37.667 50.667">
<g>
	<g>
		<path fill="#842780" d="M288.5,395.667c0,2.209,1.791,4,4,4h28c2.209,0,4-1.791,4-4v-0.5h-36V395.667z"/>
		<path fill="#3759A0" d="M288.5,390.737h36v4.6h-36V390.737z"/>
		<path fill="#189046" d="M288.5,386.497h36v4.5h-36V386.497z"/>
		<path fill="#FAD222" d="M288.5,382.167h36v4.5h-36V382.167z"/>
		<path fill="#F05423" d="M288.5,377.837h36v4.5h-36V377.837z"/>
		<path fill="#ED2024" d="M320.5,373.667h-28c-2.209,0-4,1.791-4,4v0.33h36v-0.33C324.5,375.458,322.709,373.667,320.5,373.667z"/>
	</g>
	<line fill="none" stroke="#3F4EA1" stroke-width="3" stroke-miterlimit="10" x1="288.333" y1="421.667" x2="288.333" y2="371"/>
</g>
</svg>
