<?xml version="1.0" encoding="utf-8"?>
<!-- Generator: Adobe Illustrator 15.0.0, SVG Export Plug-In . SVG Version: 6.00 Build 0)  -->
<!DOCTYPE svg PUBLIC "-//W3C//DTD SVG 1.1//EN" "http://www.w3.org/Graphics/SVG/1.1/DTD/svg11.dtd">
<svg version="1.1" id="Layer_1" xmlns="http://www.w3.org/2000/svg" xmlns:xlink="http://www.w3.org/1999/xlink" x="0px" y="0px"
	 width="261.228px" height="122.951px" viewBox="0 0 261.228 122.951" enable-background="new 0 0 261.228 122.951"
	 xml:space="preserve">
<g>
	<path fill="#8669AE" d="M62.225,116.742c37.715-34.285,96.101-31.508,130.388,6.209l64.816-58.924
		C188.689-11.588,78.92-16.817,3.302,51.925L62.225,116.742z"/>
	<path fill="#E9282B" d="M0,47.98l10.52,11.57C79.749-3.235,186.773,1.908,249.66,71.083l11.568-10.516
		C192.536-14.995,75.629-20.614,0,47.98z"/>
	<path fill="#F08F21" d="M10.366,59.697l10.372,11.408c62.934-57.057,160.201-52.379,217.359,10.496l11.408-10.371
		C186.619,2.054,79.597-3.09,10.366,59.697z"/>
	<path fill="#FFCC4B" d="M20.738,71.105l10.372,11.41c56.63-51.33,144.147-47.115,195.577,9.459l11.41-10.373
		C180.939,18.726,83.672,14.048,20.738,71.105z"/>
	<path fill="#5C8F3F" d="M31.11,82.515l10.372,11.41c50.326-45.596,128.099-41.846,173.794,8.42l11.41-10.371
		C175.257,35.4,87.741,31.185,31.11,82.515z"/>
	<path fill="#246899" d="M41.482,93.925l10.375,11.412C95.882,65.472,163.9,68.755,203.867,112.72l11.41-10.375
		C169.582,52.08,91.809,48.33,41.482,93.925z"/>
</g>
</svg>
