<?xml version="1.0" encoding="utf-8"?>
<!-- Generator: Adobe Illustrator 25.2.3, SVG Export Plug-In . SVG Version: 6.00 Build 0)  -->
<svg version="1.1" id="Layer_1" xmlns="http://www.w3.org/2000/svg" xmlns:xlink="http://www.w3.org/1999/xlink" x="0px" y="0px"
	 viewBox="0 0 614.3 126.8" style="enable-background:new 0 0 614.3 126.8;" xml:space="preserve">
<style type="text/css">
	.st0{fill:#4D602E;}
</style>
<polygon class="st0" points="559,12.9 559,84.2 537,57.9 515,83.5 493.5,57.9 472.1,82.8 472.1,0 402.4,0 402.4,73.2 344.1,73.2 
	344.1,37.5 310.1,37.5 310.1,7.1 254.8,7.1 254.8,37.5 165.5,37.5 165.5,61.6 131.7,21.3 96,63 96,63 96,63 96,63 96,63 96,73.7 
	0,73.7 0,126.8 96,126.8 100,126.8 165.5,126.8 166.7,126.8 254.8,126.8 265.5,126.8 310.1,126.8 313.7,126.8 344.1,126.8 
	402.4,126.8 419.7,126.8 472.1,126.8 472.1,126.7 516.1,126.8 516.1,126.7 559,126.8 559,126.8 614.3,126.8 614.3,12.9 "/>
</svg>
