<svg id="Layer_1" data-name="Layer 1" xmlns="http://www.w3.org/2000/svg" viewBox="0 0 611.97 126.79"><defs><style>.cls-1{fill:#688d3c;}</style></defs><polygon class="cls-1" points="578.04 37.5 578.04 73.22 519.7 73.22 519.7 0 450.05 0 450.05 82.83 428.62 57.9 407.17 83.51 385.17 57.9 363.13 84.2 363.13 12.95 307.77 12.95 307.77 73.67 214.19 73.67 214.19 63.01 214.19 63.01 214.19 63.01 214.19 62.96 214.15 62.96 178.47 21.34 144.65 61.6 144.65 37.5 55.36 37.5 55.36 7.14 0 7.14 0 126.79 44.65 126.79 55.36 126.79 143.47 126.79 144.65 126.79 210.15 126.79 214.19 126.79 307.77 126.79 310.15 126.79 363.13 126.79 363.13 126.78 406.07 126.72 406.07 126.77 450.05 126.71 450.05 126.79 519.7 126.79 519.7 126.79 578.04 126.79 578.04 126.79 611.97 126.79 611.97 37.5 578.04 37.5"/></svg>