<svg id="Layer_1" data-name="Layer 1" xmlns="http://www.w3.org/2000/svg" viewBox="0 0 612.07 182.6"><defs><style>.cls-1{fill:#335a2b;}</style></defs><polygon class="cls-1" points="121.62 83.79 121.62 182.6 172.1 182.6 172.1 83.79 146.61 42.12 121.62 83.79"/><rect class="cls-1" x="451.93" y="62.96" width="37.92" height="119.65"/><polygon class="cls-1" points="307.87 129.48 248.86 129.48 248.86 80.36 198.86 80.36 198.86 182.6 210.25 182.6 248.86 182.6 307.87 182.6 310.25 182.6 349.16 182.6 349.16 68.76 307.87 68.76 307.87 129.48"/><polygon class="cls-1" points="44.69 138.86 22.62 113.18 0.14 140 0.01 140 0.01 140.16 0 140.17 0.01 140.17 0.06 182.04 44.69 181.99 44.69 182.25 83.53 182.25 83.53 55.46 44.69 55.46 44.69 138.86"/><rect class="cls-1" x="578.14" y="93.31" width="33.93" height="89.29"/><polygon class="cls-1" points="445.21 140.65 445.21 140.65 445.21 140.49 445.07 140.49 422.06 113.72 399.58 140.55 399.44 140.55 399.5 182.59 445.26 182.53 445.21 140.65 445.21 140.65"/><path class="cls-1" d="M121.19,350.06c2.14-1.85-2.13-2.88,0-4.73,3.08.61,3.83-1.12,6.08-1.35-3.79-5.66-11.32-7.58-18.22-10.12,3.08-4.19-2.45-7.27-6.08-8.77-.43-2.94.88-7.63-.67-9.45v10.12c-3.16.44-4,3.26-6.08,4.73-1.88.87,2.13,1.39,1.35,3.37-7,2.2-13.71,4.73-18.22,9.45.58,2.8,6,.8,6.75,3.37,0,1.74-3.14,1-1.35,2.7,2.37,1.23,5.53,1.67,8.1,2.7,9.26,44-.35,91.26-5.4,132.94-.06,1.74-2.89.71-2,3.37a17.6,17.6,0,0,1,.54,9.29c1.37,0,2.73,0,4.1-.06a37.07,37.07,0,0,1,.76-3.83h18.22l.48,3.64q4.66,0,9.33.09c-.65-3.65-.77-7.14,1-10.48-1.39-.86-3.42-1.07-3.37-3.37-3.87-41.51-13.27-91.64-2-132.26C117.56,351.82,118.33,349.89,121.19,350.06Zm-25,2h4V383.8C98.05,374.1,97.78,362.45,96.22,352.08ZM101,407.42c2.68,14.86,4.17,30.91,5.4,47.23H94.88C96.5,438.51,99.32,423.56,101,407.42ZM91.5,484.34c.77-9.35,2-18.27,2.7-27.66,4.14.35,9.77-.77,12.82.67-.1,9.55,1,17.9,1.35,27Zm16.2-105.27c-2.67-6.77-.79-18.11-1.35-27h5.39C110.94,361.62,110.47,371.49,107.7,379.07Z" transform="translate(0 -315.64)"/><rect class="cls-1" x="503.69" y="39.3" width="37.92" height="142.87"/><rect class="cls-1" x="353.66" y="97.42" width="41.29" height="85.18"/></svg>