<svg id="Layer_1" data-name="Layer 1" xmlns="http://www.w3.org/2000/svg" viewBox="0 0 604.21 126.79"><defs><style>.cls-1{fill:#737831;}</style></defs><polygon class="cls-1" points="576.7 73.67 576.7 3.19 521.33 3.19 521.33 73.67 508.25 73.67 508.25 63.01 508.25 63.01 508.25 63.01 508.25 62.96 508.21 62.96 472.53 21.34 437.57 62.96 437.53 62.96 437.53 126.79 504.21 126.79 508.25 126.79 604.22 126.79 604.22 73.67 576.7 73.67"/><polygon class="cls-1" points="275.52 31.72 220.16 31.72 220.16 73.22 184.52 73.22 184.52 0 132.14 0 132.14 126.72 132.14 126.79 184.52 126.79 184.52 126.79 290.49 126.79 290.49 73.22 275.52 73.22 275.52 31.72"/><rect class="cls-1" x="297.63" y="37.5" width="33.93" height="89.29"/><polygon class="cls-1" points="132.11 84.84 132.08 84.81 132.08 84.68 131.97 84.68 108.96 57.9 86.48 84.74 86.32 84.74 86.37 126.78 132.14 126.72 132.08 84.84 132.11 84.84"/><polygon class="cls-1" points="406.23 84.84 406.25 84.84 406.23 84.81 406.23 84.67 406.1 84.67 383.11 57.9 378.15 63.81 378.15 37.5 338.71 37.5 338.71 126.79 378.15 126.79 378.15 126.75 406.28 126.71 406.23 84.84"/><rect class="cls-1" y="37.5" width="33.93" height="89.29"/></svg>