<?xml version="1.0" encoding="utf-8"?>
<!-- Generator: Adobe Illustrator 25.2.3, SVG Export Plug-In . SVG Version: 6.00 Build 0)  -->
<svg version="1.1" id="Layer_1" xmlns="http://www.w3.org/2000/svg" xmlns:xlink="http://www.w3.org/1999/xlink" x="0px" y="0px"
	 viewBox="0 0 614.3 126.8" style="enable-background:new 0 0 614.3 126.8;" xml:space="preserve">
<style type="text/css">
	.st0{fill:#95C93D;}
</style>
<polygon class="st0" points="518.4,97.7 518.4,87 518.3,87 482.7,45.3 448.9,85.6 448.9,61.5 359.6,61.5 359.6,31.1 304.2,31.1 
	304.2,61.5 270.3,61.5 270.3,97.2 211.9,97.2 211.9,24 142.3,24 142.3,106.8 120.8,81.9 99.4,107.5 77.4,81.9 55.4,108.2 55.4,37 
	0,37 0,126.8 55.4,126.8 55.4,126.8 98.3,126.7 98.3,126.8 142.3,126.7 142.3,126.8 194.7,126.8 211.9,126.8 270.3,126.8 
	300.6,126.8 304.2,126.8 348.8,126.8 359.6,126.8 447.7,126.8 448.9,126.8 514.3,126.8 518.4,126.8 614.3,126.8 614.3,97.7 "/>
</svg>
