<?xml version="1.0" encoding="utf-8"?>
<!-- Generator: Adobe Illustrator 15.0.0, SVG Export Plug-In . SVG Version: 6.00 Build 0)  -->
<!DOCTYPE svg PUBLIC "-//W3C//DTD SVG 1.1//EN" "http://www.w3.org/Graphics/SVG/1.1/DTD/svg11.dtd">
<svg version="1.1" id="Layer_1" xmlns="http://www.w3.org/2000/svg" xmlns:xlink="http://www.w3.org/1999/xlink" x="0px" y="0px"
	 width="612px" height="340px" viewBox="0 294 612 340" enable-background="new 0 294 612 340" xml:space="preserve">
<path fill="#FFFFFF" d="M527,464c-7.939,0-15.47,1.445-22.763,3.468c3.672-8.941,5.763-18.7,5.763-28.968
	c0-42.245-34.255-76.5-76.5-76.5c-17.323,0-33.099,5.967-45.917,15.657C375.581,329.632,332.248,294,280.5,294
	c-48.246,0-89.165,30.974-104.227,74.069C163.557,364.125,150.025,362,136,362C60.894,362,0,422.894,0,498
	c0,75.123,60.894,136,136,136h391c46.954,0,85-38.046,85-85S573.954,464,527,464z"/>
</svg>
